<svg viewBox="0 0 24 24" fill="none" xmlns="http://www.w3.org/2000/svg">
<path d="M0 12C0 18.6274 5.37258 24 12 24C18.6274 24 24 18.6274 24 12C24 5.37258 18.6274 0 12 0C5.37258 0 0 5.37258 0 12Z" fill="white"/>
<path d="M18.9999 11.9828C18.9999 13.8374 18.6891 15.3418 18.3055 15.3418C17.922 15.3418 17.6113 13.8378 17.6113 11.9828C17.6113 10.1278 17.9221 8.62384 18.3055 8.62384C18.6889 8.62384 18.9999 10.1277 18.9999 11.9828Z" fill="black"/>
<path d="M17.2287 11.9828C17.2287 14.0533 16.3448 15.7323 15.2545 15.7323C14.1642 15.7323 13.2803 14.0533 13.2803 11.9828C13.2803 9.91241 14.164 8.23334 15.2544 8.23334C16.3447 8.23334 17.2286 9.91187 17.2286 11.9828" fill="black"/>
<path d="M12.8968 11.9828C12.8968 14.1824 11.129 15.9655 8.94846 15.9655C6.76791 15.9655 5 14.182 5 11.9828C5 9.78363 6.76778 8 8.94846 8C11.1291 8 12.8968 9.78323 12.8968 11.9828Z" fill="black"/>
</svg>
