<svg width="65" height="62" viewBox="0 0 65 62" fill="none" xmlns="http://www.w3.org/2000/svg">
<path d="M2.07752 43.2685C3.67348 46.2367 5.69503 48.4098 7.98257 50.5299C10.1105 52.544 12.5045 55.5122 14.5792 57.1023C23.357 63.7807 41.2849 60.9715 49.9563 55.7242C49.7967 55.8302 49.4775 55.5652 49.5839 55.4062C50.0627 55.2472 50.4351 55.0352 50.8607 54.8232C53.8398 53.4451 56.1805 51.484 58.9468 49.8939C64.4263 40.0353 67.299 25.2474 59.6384 15.7069C60.1704 15.6539 59.9576 14.8589 59.9576 14.3288C58.0957 14.6998 59.3193 13.2688 58.8937 12.5797C57.2977 9.92956 53.8398 8.7635 52.297 6.00734C46.5516 5.00028 41.4445 0.176992 34.9543 0.49501C23.623 1.02504 14.26 5.95434 6.8654 12.2617C6.65261 13.7458 6.17381 15.1238 5.58863 16.4489C3.88627 20.2651 1.11994 23.7104 0.641152 28.1626C0.0559673 33.3569 1.75833 37.9682 2.02433 43.3745L2.07752 43.2685ZM8.99333 47.7738C10.0573 45.9717 9.89772 44.0635 10.7489 40.8834C11.1745 39.1873 12.664 37.3852 12.8236 36.0601C13.0896 33.6749 11.6001 30.8128 13.196 27.7916C14.6324 26.6255 15.9092 26.0955 17.7179 26.0425C15.5368 39.4523 20.7502 50.5299 28.464 57.8444C19.5799 58.9574 15.1112 52.226 9.04655 47.8268L8.99333 47.7738ZM32.2411 57.7914C24.5273 49.3109 16.7603 39.2933 20.8034 25.3005C24.6337 25.3005 27.9853 24.7704 30.5388 25.3005C28.6768 29.4877 30.1664 41.2544 33.3051 43.5865C34.3691 48.6218 40.6997 51.378 44.0512 55.3532C40.0614 56.8373 35.8055 57.4733 32.2411 57.7914ZM47.8283 53.2861C37.4546 47.6148 30.5388 39.2403 32.9327 25.6715C41.0189 25.9895 48.5199 27.1556 53.7334 31.5548C56.8189 34.152 60.2768 38.5512 59.9576 42.2614C56.4997 46.5017 53.6802 51.431 47.8283 53.3391V53.2861ZM53.7334 11.8377C54.2654 11.4136 54.5845 11.4136 55.1165 11.8377C55.0633 12.2087 54.7441 12.0497 54.7441 11.8377C57.7765 17.668 63.0964 23.8164 60.9684 34.629C58.8405 33.6749 58.5213 31.6608 56.8189 30.1237C53.9462 27.6326 49.2115 26.8906 47.456 24.9294C47.3496 24.8234 47.9347 24.1344 48.1475 24.2404C47.7219 24.0814 46.4984 24.3464 45.7004 24.2404C41.6573 23.8164 38.359 22.1733 33.5711 22.8623C35.6459 15.1239 45.9132 3.14515 53.6802 11.7847L53.7334 11.8377ZM42.6149 5.95432C44.0512 5.68931 44.3704 6.48435 45.7536 6.32534C43.1469 8.12745 40.0081 9.3465 37.4546 11.1486C34.7415 14.4348 33.0391 18.7281 30.858 22.5443C28.2512 22.0673 23.0378 22.5443 21.495 22.1733C21.9206 20.8482 22.2398 19.4171 23.2506 18.7281C23.4102 13.2687 27.5596 9.92956 29.8472 5.5833C33.6775 2.82714 39.423 2.2971 42.6681 5.90131L42.6149 5.95432ZM12.1321 13.2158C14.9516 7.86245 21.229 5.90132 27.7193 4.25823C26.6553 6.43135 23.7294 9.77054 22.1866 12.5267C21.5482 17.403 19.2075 18.5691 18.7287 23.2333C15.9624 23.2333 15.7496 23.6574 13.196 23.9224C13.3024 20.2122 13.6216 17.138 12.1321 13.2158ZM10.0573 14.9648C10.2701 19.2051 10.9085 22.3323 10.3765 25.6715C7.76978 26.5195 5.80142 28.0036 3.77987 29.4877C4.41826 22.9153 6.01423 18.092 10.0041 14.9648H10.0573ZM10.3765 28.7457C9.73813 34.947 8.30176 38.3922 7.61018 43.5865C7.50378 44.3286 6.6526 43.0565 6.5462 44.2755C4.73745 42.4204 3.51389 40.0353 4.09907 36.6961C1.75833 32.1909 7.87616 30.7068 10.3233 28.7457H10.3765Z" fill="#4C1145" fill-opacity="0.6"/>
</svg>
