<svg width="59" height="72" viewBox="0 0 59 72" fill="none" xmlns="http://www.w3.org/2000/svg">
<path d="M46.0882 34.8465C45.2177 31.1294 41.3626 34.6607 38.3779 33.2358C38.1914 34.4129 36.9477 34.4748 37.1342 36.0856C39.5593 37.1387 44.969 37.9441 46.0882 34.8465Z" fill="#4C1145" fill-opacity="0.6"/>
<path d="M31.5108 35.6463C30.7647 32.9204 26.6608 33.9116 23.8005 34.4073C23.7384 34.717 23.8005 35.2126 23.3652 35.2126C23.987 38.1244 30.0808 37.9385 31.4488 35.5843L31.5108 35.6463Z" fill="#4C1145" fill-opacity="0.6"/>
<path d="M25.0247 43.7052C24.2163 45.1301 25.0245 45.6877 25.4598 46.9267C28.8175 47.0506 32.051 47.0506 33.1703 44.8823C32.051 41.475 28.5066 43.9531 25.0867 43.6433L25.0247 43.7052Z" fill="#4C1145" fill-opacity="0.6"/>
<path d="M37.6035 45.3156C40.2773 47.36 41.8317 45.8731 46.1222 46.1209C46.4331 45.2536 47.1793 44.758 46.9305 43.2712C43.2619 42.6516 38.6606 42.4658 37.6035 45.3156Z" fill="#4C1145" fill-opacity="0.6"/>
<path d="M10.8418 44.9464V47.3625C13.0803 48.106 16.6245 47.5484 18.9251 48.1679C19.1117 47.1147 20.231 47.0528 19.7335 45.3181C16.1892 44.0172 12.3341 44.7606 10.8418 44.8845V44.9464Z" fill="#4C1145" fill-opacity="0.6"/>
<path d="M39.2114 53.8009C38.4031 55.1019 38.3409 56.0312 38.8383 57.0224C41.8852 57.518 45.8025 58.0756 46.5486 54.978C45.1807 51.5706 42.2581 54.8541 39.2734 53.7389L39.2114 53.8009Z" fill="#4C1145" fill-opacity="0.6"/>
<path d="M23.416 57.0312C24.4109 61.3678 28.7013 58.1463 32.3077 59.4473C34.5462 54.1814 25.4058 55.916 23.416 57.0312Z" fill="#4C1145" fill-opacity="0.6"/>
<path d="M4.41075 4.54925C1.98572 7.58488 0.866514 11.1161 0.369073 14.9571C-0.314909 20.0372 0.120352 25.6748 0.369073 31.5602C0.493433 34.1622 0.555598 36.7641 0.742139 39.2422C1.61266 50.2696 2.35886 62.7219 6.02749 68.7312C17.6552 74.3068 33.3867 69.6605 45.7605 69.1029C47.4394 69.041 49.0561 69.041 50.6106 69.1029C52.6625 67.5541 52.9735 67.6161 55.8959 66.2531C56.0825 66.8727 56.3934 66.2531 55.8959 65.8195C58.0101 62.3502 58.5696 56.4028 58.3209 51.6945C57.7613 38.7466 57.4504 21.7099 53.4708 10.4966C49.5535 -0.34493 44.1439 0.274584 32.0188 0.832149C30.3399 0.8941 28.7854 1.018 27.1687 1.07996C18.7744 1.51362 11.064 2.25704 4.72157 4.42535C4.65939 4.42535 4.53517 4.42535 4.47299 4.4873L4.41075 4.54925ZM47.7504 6.16C51.1703 9.69124 52.103 18.922 53.0357 25.1172C54.9011 38.251 55.0875 49.0925 53.8439 63.0936C51.108 65.5717 47.3151 64.8902 43.7087 65.5097C31.0861 67.678 18.9609 70.0322 8.82549 65.8814C7.95497 64.3946 8.57685 63.7751 6.77363 63.0316C4.47296 46.7383 4.16208 29.0821 3.10502 14.1518C4.16208 13.5322 5.28127 10.3108 5.96525 8.0805C12.2455 5.04486 22.443 3.74388 29.9047 4.42535C35.8118 4.98291 43.2734 1.45167 47.7504 6.03609V6.16Z" fill="#4C1145" fill-opacity="0.6"/>
<path d="M10.4404 36.0261C10.1917 37.2651 10.1917 36.8315 10.4404 38.0705C13.1142 39.1856 15.8501 37.6988 18.1507 38.4422C18.7725 37.1412 18.2751 36.6456 18.1507 35.2207C14.9795 35.3446 11.6841 34.911 10.4404 36.0261Z" fill="#4C1145" fill-opacity="0.6"/>
<path d="M10.4099 57.4569C10.2234 59.6252 12.8349 59.8111 13.6432 59.873C13.8297 59.9969 14.265 61.8555 14.4516 60.6784C14.4516 60.1828 13.9541 60.1208 14.0163 59.4393C16.3791 58.3862 17.7471 58.8198 19.6747 59.873C20.1099 58.6959 20.3587 57.271 20.9184 56.2179C19.053 54.2974 12.8349 56.1559 10.3477 57.4569H10.4099Z" fill="#4C1145" fill-opacity="0.6"/>
<path d="M7.60941 25.1138C9.78572 27.2201 13.5787 28.2114 16.5634 28.3353C24.9577 28.8309 37.7047 27.9016 45.3528 25.9192C47.0317 21.7684 48.8971 14.0864 44.9175 10.9888C32.1084 8.82049 20.7916 11.2986 10.0966 11.3605C7.04975 14.8918 7.36075 18.5469 7.67165 25.1138H7.60941ZM43.2387 14.2103C44.2958 17.4318 43.6118 20.0337 42.8034 23.0694C35.6527 24.4943 27.3828 24.866 20.1077 25.1138C16.8121 25.1757 13.3922 24.7421 10.7807 23.0694C10.6563 20.1576 10.5319 17.9274 10.7807 15.0157C22.968 13.1571 32.9168 12.1659 43.1765 14.2103H43.2387Z" fill="#4C1145" fill-opacity="0.6"/>
</svg>
