<svg width="72" height="62" viewBox="0 0 72 62" fill="none" xmlns="http://www.w3.org/2000/svg">
<path d="M60.8274 10.0975C58.6857 8.30774 59.8602 4.24635 59.9293 2.45664C61.9328 4.10868 58.8238 1.01124 57.6493 0.667064C55.1621 -0.090123 50.9477 0.460559 48.1841 0.667064C33.3991 1.83726 22.6211 2.93857 10.3924 3.83342C8.87241 7.55053 8.31969 12.1624 8.11242 16.7056C7.90515 22.1436 8.18151 27.5127 8.11242 31.161C4.31252 30.2661 -1.42188 30.8856 0.443526 35.6353C3.41436 36.1171 5.97068 38.1133 6.73066 40.5914C7.35246 42.7253 5.41799 44.7216 5.3489 48.6452C5.3489 51.3986 8.11246 53.4637 5.3489 53.6013C8.45791 55.0469 13.0868 56.0793 17.5085 54.9779C18.1994 57.869 20.3413 59.3146 21.9994 61.242C24.1412 60.6913 24.832 60.1405 26.0756 59.4522C26.0756 58.0066 27.6647 55.3222 28.7701 53.6013C35.679 53.326 42.3115 53.3259 49.0132 53.257C53.4349 53.1882 57.8566 53.0506 62.4855 52.7065C63.0382 51.8804 62.8311 50.366 63.8674 50.0218C61.3111 39.8342 64.1437 27.6505 64.2819 16.3615C67.0455 14.9159 70.4308 14.1588 71.4671 10.9923C67.9436 7.55059 64.9728 10.717 60.6202 10.0975H60.8274ZM13.5705 6.4492C27.2502 7.20638 39.6862 3.90218 55.4385 4.17752C55.1622 5.55422 55.6458 9.54676 55.4385 12.2313C40.1007 16.7056 31.1191 24.7592 22.1375 35.5663C18.683 34.5338 15.2977 34.3274 12.6723 32.4C11.7051 21.8682 12.0506 15.1224 13.5705 6.38029V6.4492ZM10.876 51.3297C10.5306 49.8153 10.1852 47.3372 10.876 45.0656C12.5342 46.8554 12.8796 49.953 14.9523 51.3297C14.4687 52.2245 12.5342 50.779 10.876 51.3297ZM58.6165 48.6452C50.5331 49.4712 40.0316 49.8152 32.5009 49.1269C35.9553 43.7577 40.7916 38.9393 45.0751 33.8455C46.3878 32.2623 47.4241 29.6465 48.6677 28.4763C49.7731 27.4438 51.984 26.7556 53.1586 25.7919C54.7476 24.4152 55.9912 21.5241 59.4457 21.3176C59.9293 31.5052 58.8929 37.2186 58.5475 48.6452H58.6165ZM56.3366 17.2562C53.6421 20.5603 50.395 23.3138 46.4569 25.31C42.2425 31.2986 37.4062 36.6678 32.5009 41.8993C30.9118 46.2359 25.1084 50.0217 22.6212 54.909C16.9559 48.9892 13.5704 40.8667 7.76695 35.1534C11.4287 37.0119 18.3377 38.0445 22.2067 41.0044C23.0357 40.6602 23.8648 40.2472 24.9011 40.1095C30.981 29.1647 41.6207 22.6943 52.3986 16.3615C55.853 16.3615 56.4748 15.4666 59.5838 14.5717C60.9656 14.5717 57.9257 17.1873 56.4058 17.2562H56.3366Z" fill="#4C1145" fill-opacity="0.6"/>
</svg>
