<svg width="75" height="74" viewBox="0 0 75 74" fill="none" xmlns="http://www.w3.org/2000/svg">
<path d="M5.81901 57.0747C7.93801 60.4046 13.1448 65.7929 17.6249 67.7303C18.412 68.033 19.6228 67.7303 20.4098 68.0936C22.771 69.365 25.4349 72.392 27.9172 73.2396C28.4015 73.4213 29.7939 73.5424 30.7021 73.6635C40.0257 74.5111 46.867 72.8764 52.8002 70.0915C53.6478 69.6677 54.4348 69.2438 55.2219 68.82C59.581 66.4589 62.9714 63.6134 65.8169 60.223C67.0277 56.4088 69.1467 53.5632 71.3263 50.7177C71.9922 46.7825 74.7772 42.8473 74.4745 38.1249C74.414 36.5508 73.5058 35.2189 73.3242 33.7658C72.9004 30.9809 74.0507 27.7116 71.75 25.8953C72.3555 23.4736 71.5079 19.841 70.5392 17.6009C69.6311 15.5425 67.6937 12.152 65.8169 10.5174C64.7876 9.60923 63.153 9.54877 61.8816 8.51954C61.1551 7.91411 60.9734 6.76381 60.3075 6.15838C54.5559 0.648991 40.8128 -1.40955 32.2762 1.43596C30.1572 2.16247 27.9172 4.28154 25.556 5.00805C21.8629 6.09782 21.4996 6.64264 19.2595 8.15621C17.8065 9.12489 16.0507 9.48814 14.5372 10.5174C10.057 13.484 6.66664 17.7825 4.24494 21.7178C3.51842 22.9287 2.85241 24.079 2.30752 25.1082C-0.537983 36.0059 0.0069716 47.8117 5.87962 57.0747H5.81901ZM4.66869 27.4693C7.21148 21.2334 11.8734 17.056 16.1113 12.4548C18.2909 12.8786 19.9255 10.2147 22.0445 9.30653C23.8002 8.51948 25.9798 8.70114 27.9777 7.73246C29.6729 6.9454 32.2762 4.70534 34.6979 4.16046C41.0549 2.76798 46.7459 3.91822 53.224 4.94745C56.8565 8.39839 61.1551 11.2439 65.0298 14.3921C71.0235 26.6217 73.5663 39.8806 67.3909 51.5048C66.725 52.7762 65.1509 54.1082 64.2428 55.4401C58.915 63.2502 54.1321 67.367 42.9317 69.6676C36.7564 70.939 31.4286 71.1812 25.9798 68.0936C22.4683 66.0956 18.5936 64.7032 15.3243 62.1604C10.3598 58.2251 7.02985 52.4129 4.66869 45.9954C4.30543 41.2731 3.76058 37.8222 3.09461 33.7658C4.18438 31.4652 4.42652 30.0121 4.66869 27.4693Z" fill="#4C1145" fill-opacity="0.6"/>
<path d="M38.2106 20.3855C36.8182 18.7508 38.4528 16.0264 36.6366 14.4523C33.4278 14.2707 35.1835 19.0535 33.8516 20.7487C34.457 21.5963 35.1835 22.3228 36.2127 22.7466C37.1814 22.2623 37.7263 21.4147 38.2106 20.3855Z" fill="#4C1145" fill-opacity="0.6"/>
<path d="M38.9996 38.1261C38.5758 33.7064 44.2668 30.2555 43.3587 26.2597C44.8117 24.2012 46.2646 22.0217 47.7177 19.9633C47.8993 18.9946 46.9912 19.1156 47.2939 17.9653H44.1457C42.9348 20.8108 41.4818 22.9298 40.2104 25.4726C39.6655 26.5623 38.6968 27.2889 38.2125 28.2576C37.9098 28.863 38.7573 29.2262 38.6362 29.8317C38.273 31.1636 36.5173 32.4956 35.8513 33.767C34.2772 37.0968 34.9432 38.9736 35.8513 40.8505C41.2396 41.5164 42.2689 46.5415 47.2939 47.5707C47.4755 46.8442 48.8075 47.2679 48.5047 45.9965C46.4463 42.2429 43.0559 39.8818 39.0601 38.1261H38.9996Z" fill="#4C1145" fill-opacity="0.6"/>
<path d="M21.9863 41.6969C22.0468 41.3942 21.9863 40.9098 22.4101 40.9098C22.2285 37.58 11.2702 37.4589 13.7525 42.1207C16.4164 41.8785 19.9884 42.605 22.0469 41.7574L21.9863 41.6969Z" fill="#4C1145" fill-opacity="0.6"/>
<path d="M53.1654 42.0608C54.8606 42.7268 59.0986 42.7874 60.2489 41.6976C59.5829 41.0316 59.7646 39.5786 59.0381 38.9126C56.132 40.0629 51.894 37.7018 53.1048 42.0608H53.1654Z" fill="#4C1145" fill-opacity="0.6"/>
<path d="M40.574 56.6517C39.7264 57.3176 39.8474 53.7456 38.576 53.5034C38.455 54.2905 36.8203 53.6245 36.5781 54.2905C37.3652 57.3176 36.2755 63.1902 40.5135 60.5869C39.7264 59.1339 41.0583 57.4387 40.5135 56.6517H40.574Z" fill="#4C1145" fill-opacity="0.6"/>
<path d="M33.4288 65.3093C40.815 66.0358 44.9925 63.8563 50.0176 63.7353C51.41 61.0714 54.6793 60.2843 57.101 58.5891C59.9465 54.1695 62.4289 51.6872 65.3955 47.5098C65.0322 44.3615 67.03 42.2426 67.3933 39.2154C68.362 30.4973 63.5791 24.8063 61.0969 19.9023C60.552 18.8125 60.1282 16.633 59.886 16.3303C59.0384 15.18 55.8296 13.5454 54.7399 12.3951C49.6543 7.0673 42.3286 7.06723 33.4288 8.82297C30.5833 9.4284 26.3454 10.4576 23.5604 11.9712C16.0531 16.1487 6.97171 31.4055 7.75877 40.0025C9.15125 54.5328 23.4998 61.3741 33.4288 65.2488V65.3093ZM20.0489 18.3887C26.0427 14.6956 32.8839 11.7291 42.147 10.8815C53.2263 9.85227 58.0092 19.539 61.4601 27.4701C66.0008 37.7624 63.7002 46.1173 57.5249 53.5035C53.4685 58.3469 41.1783 65.9148 34.2159 60.587C27.4957 60.2843 18.8986 55.1382 15.266 50.3553C6.91111 39.2154 14.1763 26.3198 19.9884 18.3887H20.0489Z" fill="#4C1145" fill-opacity="0.6"/>
</svg>
