<svg width="104" height="89" viewBox="0 0 104 89" fill="none" xmlns="http://www.w3.org/2000/svg">
<path d="M45.0191 72.2306C39.9086 71.52 36.67 70.6913 32.3475 69.4352C31.8626 69.0715 31.7048 68.5416 31.316 68.1194C28.7848 69.2648 30.3169 64.3132 27.4691 64.2349C26.2087 69.4164 30.8635 71.3267 34.8181 72.4115C38.8406 73.5537 43.556 74.373 47.3977 74.4065C47.3037 74.7931 48.1867 75.5403 48.4856 75.4902C49.0092 74.3479 51.9919 75.8926 53.132 76.088C53.6964 75.2833 52.158 74.7043 52.9962 74.4577C53.8834 74.3458 52.992 75.3167 53.8792 75.2048C53.966 72.1543 48.7385 72.7667 44.971 72.2599L45.0191 72.2306Z" fill="#4C1145" fill-opacity="0.6"/>
<path d="M32.6753 35.0664C30.56 25.7464 31.8527 15.0437 34.1341 4.99111C34.1247 5.02978 34.7025 4.8427 34.8248 4.34002C35.502 1.55593 35.7914 -1.48627 37.6203 -3.78545C37.3235 -4.92249 35.5741 -5.30709 35.0411 -4.12615C30.5044 -4.16478 26.9689 -6.13052 24.2799 -7.03031C22.1104 -0.636518 19.0641 9.02522 19.7079 16.1443C19.9661 18.7873 21.3696 20.9307 20.5659 23.5612C21.2212 30.9697 28.5452 35.2085 32.6189 39.8444C33.663 40.0984 34.2283 39.4577 34.94 39.0575C34.2356 37.5755 34.1123 36.3988 32.7234 35.037L32.6753 35.0664ZM22.4022 22.4105C22.7439 19.9953 22.1638 16.8236 21.913 13.8137C21.7332 11.3536 21.776 8.98865 22.8462 7.28307C22.8869 6.10527 22.9663 4.93684 23.1231 3.78725C23.446 1.44941 24.1263 -0.842458 25.3574 -3.04131C25.5194 -3.37051 25.6333 -3.67043 25.8339 -3.99022C28.4362 -3.07057 30.6884 -2.56369 34.0817 -1.69734C33.0377 2.59479 31.7983 6.51175 30.8316 10.8227C30.2297 13.2974 29.7343 15.8391 29.3863 18.7851C29.0279 21.6058 29.3728 25.7443 29.3352 28.9297C29.3175 30.6865 29.4241 32.2687 30.0135 33.8865C25.7255 31.9834 23.6469 26.8907 22.4022 22.4105Z" fill="#4C1145" fill-opacity="0.6"/>
<path d="M40.5292 4.94841C39.9157 5.61831 38.7943 6.86093 38.0858 6.23807C38.6992 2.53745 41.2126 -1.39731 42.4656 -4.69663C42.7791 -5.48043 43.0059 -6.24437 43.1365 -6.9498C42.4886 -7.14836 41.8407 -7.3469 41.1833 -7.5068C34.9181 -9.19455 29.0312 -9.07015 23.2916 -13.0874C22.5621 -12.4457 21.4919 -12.2555 20.7917 -11.5657C20.0445 -9.16727 19.3642 -6.87545 18.7414 -4.65152C18.0903 -2.31159 17.5354 -0.0301709 16.9993 2.1739C14.4734 13.2319 14.1578 22.7797 18.4531 31.8927C18.9088 32.2083 19.2976 32.6305 19.6958 33.0141C22.4433 35.5254 24.337 38.8529 27.4493 41.0433C32.2002 44.4105 37.8541 45.581 42.9227 48.8207C42.0052 51.7511 41.6039 53.906 41.2621 56.3212C41.1242 57.3935 40.9768 58.5044 40.7919 59.77C40.5024 59.7815 40.1836 59.7449 39.9035 59.7177C37.3546 59.5892 34.6217 59.375 32.0843 59.5359C27.9259 59.7941 24.218 61.0629 22.5083 65.3979C22.2136 66.1043 21.9962 66.8296 21.8185 67.7284C22.4832 69.0368 23.0424 70.4425 23.4761 71.8585C27.0816 74.2099 31.0425 76.2791 35.5269 77.2061C41.6928 78.4601 47.5725 80.2179 53.1302 79.9315C53.7092 79.9085 54.3362 79.8562 54.8859 79.7852C55.6875 79.8573 55.768 80.3683 56.2717 80.6547C57.5801 79.99 61.9088 76.1692 62.517 74.6789C65.3794 67.9622 54.0853 63.2082 47.8859 61.2497C48.2234 59.6936 48.4753 58.3215 48.7083 57.0266C49.1483 54.8811 49.6279 52.909 50.7514 50.4792C55.6925 51.8859 58.8058 51.2097 63.0289 50.5167C66.23 49.9848 70.2525 49.6117 73.9719 48.6324C78.125 47.5538 81.9166 45.773 83.9984 42.2657C85.148 42.4224 85.6632 41.4829 86.6466 41.3126C88.7764 37.776 92.0328 35.3326 93.9265 31.0833C94.7354 29.2732 95.167 28.8458 95.7877 27.8091C96.3322 26.9176 96.7555 25.1776 97.2686 23.9099C99.7109 17.9101 100.819 13.0191 103.035 7.94736C95.5535 4.69409 86.4279 2.47439 80.0487 2.60194C79.1343 4.50921 78.8793 6.90455 78.3244 9.18596C77.9764 10.6167 77.503 12.0578 76.6419 13.2409C74.9697 11.3597 72.8461 9.81931 70.5208 8.4346C61.6951 3.29811 49.1479 1.84346 40.4811 4.9777L40.5292 4.94841ZM44.5657 67.3227C45.9682 67.7868 46.6329 67.5798 47.8263 67.051C47.4606 65.6924 47.1951 64.9316 47.9088 63.3441C53.6756 65.5659 62.2327 67.934 60.3109 73.8146C59.8375 75.2558 57.275 77.5403 56.4264 77.6616C52.9745 78.2144 46.9067 77.23 41.3772 75.8851C34.649 74.2485 28.1121 73.8462 24.912 69.9962C24.6612 68.5017 23.9777 67.2706 23.823 65.7176C26.9237 60.0418 34.1974 60.951 40.2829 61.694C40.0426 63.3557 40.0802 64.7164 39.5096 66.052C39.8158 67.1504 41.0898 67.1326 42.023 66.6633C43.7766 60.1274 42.7931 55.7517 45.2501 49.0182C46.7675 49.3464 46.9818 49.6442 48.2662 49.7519C47.0174 55.2229 45.7529 62.7788 44.5364 67.2747L44.5657 67.3227ZM82.0385 4.35558C87.9432 5.50512 93.9827 6.60554 100.174 8.76672C94.9851 29.0883 86.3654 44.152 68.2344 47.974C64.3112 48.7808 59.9752 48.4224 55.7123 48.9418C44.8749 47.6983 35.6416 43.7323 27.1305 37.9761C24.3777 34.6444 21.1443 31.6053 18.8722 27.981C19.516 26.0079 18.1312 25.3025 17.7174 23.9731C16.3127 15.6042 18.0213 6.55907 20.5629 -2.03775C21.3948 -4.78422 21.7585 -8.29989 24.4297 -10.1894C29.4743 -7.69275 33.5825 -6.73442 40.1999 -5.82107C37.8872 0.824583 37.0532 3.24291 35.1805 9.25838C35.6278 9.77673 36.3938 10.3316 35.9977 10.2763C36.0626 14.3876 39.5406 16.4213 41.8555 19.196C45.5948 19.8188 48.7154 21.8065 52.438 22.8348C54.5459 23.4295 56.9464 22.9895 59.2173 23.419C60.7828 23.7179 61.8687 24.4735 63.7415 24.5194C65.1607 24.5779 66.952 23.9488 68.6983 23.8411C71.3131 23.699 73.2277 24.2465 74.4849 23.1189C75.8571 21.8554 77.919 16.746 78.5178 15.2944C79.9725 11.8394 80.4511 8.18787 81.9905 4.38482L82.0385 4.35558ZM75.1955 14.9778C73.5255 14.9401 69.7057 12.2909 70.4707 15.7125C72.0822 15.654 73.2778 16.9687 75.1433 17.3815C74.9457 18.1935 74.2905 18.3617 74.1515 19.2699C72.2076 18.6742 71.0141 17.6877 69.3002 18.3356C69.4079 18.5666 69.4674 18.8269 69.3828 19.1749C69.7256 19.9545 71.3496 20.3495 72.9841 20.8699C72.6413 21.6057 72.24 22.2453 71.3413 22.0676C70.2659 21.4374 69.4403 20.6222 68.067 20.2063C67.1693 20.1927 66.906 21.2755 67.0753 22.0948C65.3384 22.1638 63.3402 22.1283 62.0359 21.9339C62.897 20.7509 62.1122 20.2733 61.5855 19.4079C60.8508 19.2292 59.1609 20.6203 60.3231 21.2306C55.083 21.3895 51.675 19.7414 46.087 18.3003C46.2563 17.6043 46.8844 17.7161 47.5511 17.8373C47.8072 17.1214 47.1592 16.9228 47.4152 16.2069C45.2467 15.188 45.1652 17.5437 43.3813 16.2906C43.6216 17.6597 45.3533 16.7703 45.5843 18.178C42.4511 17.2521 39.2386 14.4639 38.2228 11.0632C39.1163 7.38974 41.6652 7.51827 44.2141 6.13144C44.4754 6.23594 44.303 6.43971 44.1483 6.40208C44.6771 7.59556 45.3919 6.17218 45.6689 5.70712C54.993 4.24813 68.6585 6.99868 75.1861 15.0165L75.1955 14.9778Z" fill="#4C1145" fill-opacity="0.6"/>
<path d="M79.8243 20.079C78.7531 20.1051 78.0425 20.6695 77.5566 21.6571C77.5043 22.5454 78.9904 22.4973 78.6978 23.532C77.7541 25.3912 76.8104 27.2504 75.7789 28.9653C74.0493 28.6675 71.4011 28.1053 71.7711 30.1202C72.789 30.8183 73.7411 30.2717 74.4893 31.068C74.0326 32.1037 73.5467 33.0913 72.8068 33.6076C71.7293 32.6493 70.5567 31.9135 69.288 32.7517C68.917 33.6034 70.0269 33.5867 69.6945 34.4478C71.0092 34.7676 71.4994 34.4364 71.8537 35.5055C69.3549 37.1912 67.5093 39.8958 65.8101 42.8409C64.6668 43.6686 63.3186 44.1598 62.6728 45.8048C64.5863 47.7036 66.6649 45.2195 68.3109 44.5141C70.1398 43.7302 72.0199 43.4094 73.8394 42.6642C73.7641 42.9736 73.622 43.3895 73.8833 43.494C73.9972 41.6787 75.6035 42.3152 76.3831 41.9724C78.2694 41.1206 80.4683 39.3209 81.5708 38.1557C84.543 35.0288 88.2906 29.3874 90.4236 24.8278C91.0423 23.4629 91.0224 21.8608 91.7382 20.6015C92.7781 18.6837 94.3206 16.8883 95.2821 14.7877C95.9958 13.2002 96.5298 12.1833 97.2091 11.2428C94.2714 7.6613 87.6498 9.12238 84.6556 5.77293C83.8718 5.45941 83.8133 6.87864 83.2573 5.96525C82.9731 11.3432 81.6124 14.4115 79.8243 20.079ZM94.1147 11.8416C93.8388 12.4707 93.5723 13.0612 93.3058 13.6517C88.5466 24.1255 84.7353 31.881 77.0603 39.1883C74.8155 39.83 72.7556 40.7214 70.6864 41.6515C70.0416 41.9452 69.4061 42.2002 68.8 42.5033C68.5188 40.7967 70.7271 40.4738 70.4951 38.902C76.5335 33.7769 80.5748 25.7496 83.0871 17.1047C83.7298 14.9675 84.2178 12.7927 84.6766 10.5698C84.8177 9.98981 84.9588 9.4098 85.0225 8.81097C88.5089 10.6419 90.7736 10.087 94.1534 11.851L94.1147 11.8416Z" fill="#4C1145" fill-opacity="0.6"/>
</svg>
