<svg width="88" height="79" viewBox="0 0 88 79" fill="none" xmlns="http://www.w3.org/2000/svg">
<path d="M0.968459 39.2838C1.93571 49.6779 6.97922 58.5576 14.7172 63.1008C20.3134 66.336 27.4296 70.7415 34.4767 72.0494C38.0002 72.7377 41.5238 72.6689 44.9091 71.2233C47.1891 69.9154 50.0908 68.7453 52.9235 67.4374C56.0325 65.9919 59.0033 64.3398 60.7996 62.1371C60.8687 61.9994 61.0069 61.9306 61.1451 61.7929C62.5269 60.0032 65.4286 55.7354 67.0177 53.2573C72.1303 45.2724 66.8795 31.3677 62.0432 26.7558C59.556 24.3465 55.687 23.5894 54.3743 20.01C51.6108 20.423 47.8109 18.6332 44.9091 17.7384C39.0366 18.4267 29.5023 22.075 25.9787 26.2739C24.597 27.926 23.2842 31.1612 22.8006 33.6393C22.4552 35.5667 22.5934 37.081 23.6988 37.0122C22.7315 40.1098 23.6988 43.4139 25.8406 46.1673C27.706 48.6454 30.5386 50.5727 33.8549 51.5364C33.9931 51.5364 34.2003 51.6053 34.3385 51.6741C36.6185 52.2937 39.0366 52.4313 41.5929 51.9495C42.9746 51.6741 44.3564 51.2611 45.8073 50.504C47.6036 47.8882 49.0545 45.2725 49.8836 42.519C50.0217 42.0372 50.1599 41.5554 50.2981 41.0735C46.7055 40.3852 49.1927 34.2588 47.12 38.8019C46.4291 38.4578 45.8073 38.3889 45.2546 38.3889C42.0074 38.3889 40.142 43.0697 37.2402 43.2762C35.1676 42.0372 35.1676 38.7331 34.5458 36.1174C35.4439 34.9472 36.4112 34.1212 37.3784 33.5017C42.6983 29.9911 49.1236 34.0523 54.858 36.5992C55.8252 39.4215 57.6216 41.9683 57.5525 44.6529C57.5525 47.2687 56.2398 49.8844 54.4434 52.3625C51.6108 56.1484 47.3273 59.3837 43.3201 60.8292C42.1456 61.2422 41.0402 61.5864 40.0038 61.6552C38.6911 61.7929 37.6548 60.8981 35.9276 60.7604C35.3058 60.7604 34.684 60.7604 34.1313 60.7604C32.4731 60.9669 30.8841 61.3799 29.6405 61.1734C23.4915 59.8655 14.7863 48.7831 12.99 42.7944C12.7136 41.8307 12.5064 40.7982 12.3682 39.8345C11.8155 35.7044 12.7136 31.4366 14.0263 27.5818C14.8554 25.1726 15.9608 22.8322 16.9971 20.8359C19.2771 16.5682 22.1097 14.5719 26.7387 13.9524C27.4987 13.8148 28.2587 13.6771 29.1568 13.6771C35.8585 13.4017 43.7346 10.9925 51.6799 12.7822C59.7633 16.224 67.0868 17.9449 71.923 24.8972C75.2393 33.0886 75.5847 43.3451 73.9266 51.8806C73.8575 52.3625 73.7884 52.8443 73.6502 53.2573C73.512 53.9457 73.443 54.7029 73.2357 55.3912C72.9593 56.4238 72.4757 57.3186 71.9921 58.2135C69.8503 62.0682 66.1886 64.8217 64.7377 68.4011C62.8032 69.296 60.3851 69.9154 58.6579 70.948C57.4143 71.7052 56.5161 72.7377 56.6543 74.2521C56.6543 74.2521 56.6543 74.2521 56.6543 74.3209C56.9997 77.625 61.9742 78.3822 66.6031 78.3133C66.8795 78.3133 67.1559 78.3133 67.4322 78.3133C70.6794 73.7702 76.0683 71.2922 79.5919 66.1984C84.0827 59.7967 84.8427 50.2974 86.3626 41.0735C86.5008 40.3852 87.5371 40.1786 87.7444 39.2838C87.8826 38.5954 87.7444 36.4616 87.7444 35.7044C87.5371 27.8572 84.2209 20.1476 81.8718 14.1589C76.9665 10.2353 72.4066 5.41687 65.2214 2.9388C57.5525 0.323064 46.0146 0.0477275 37.3093 0.254233C30.4004 0.391904 24.1133 2.25047 18.3789 2.52581C14.5099 5.14155 10.2955 9.13395 8.49917 11.9562C7.87737 12.9199 7.04832 14.4343 6.21925 16.1551C4.21566 20.2164 1.93573 25.6544 1.31393 29.9222C0.830302 33.1574 0.830284 36.255 1.10664 39.3526L0.968459 39.2838ZM7.53193 21.3178C8.01555 19.1151 9.25916 14.572 11.1246 12.3692C17.2044 5.00388 25.9096 5.14154 37.7239 4.72853C50.5744 4.24669 61.2833 3.14533 72.4066 9.68468C73.0975 11.6809 76.8283 12.5757 75.9992 14.6408C77.7265 14.4343 78.141 15.5357 79.1773 16.0175C86.0172 27.0311 83.9445 43.6204 80.5591 55.0471C78.4174 62.2059 74.9629 67.7816 69.2976 70.3285C69.0904 72.8065 67.294 73.7014 66.1195 75.2846C63.9086 75.3535 62.5269 74.6651 60.7306 74.3897C62.9414 72.1182 66.8104 71.4298 68.814 69.0206C68.4685 66.8867 70.1958 66.8179 70.1958 64.9593C80.6282 55.8731 80.421 35.016 75.1702 23.6582C73.6502 21.5932 71.6466 20.0099 70.6794 17.3942C68.3304 17.05 67.2249 15.398 65.705 14.2278C54.3744 9.75348 41.5238 6.72476 28.8114 10.6484C14.579 9.89118 8.01555 26.9623 9.46642 40.2475C10.2264 47.4752 15.4081 51.8118 18.0335 56.8368C21.7643 58.3512 24.1133 61.2422 27.0151 63.5826C27.5678 63.5138 27.8441 63.6515 27.9132 63.9956C38.6911 66.336 46.7745 63.3073 54.0289 58.1446C56.3088 56.0796 56.9307 52.3625 59.9015 50.9858C61.836 44.1711 61.0069 38.7331 56.7234 33.5017C51.1962 32.4003 48.0872 28.339 42.2837 28.5455C36.5494 28.752 30.1932 32.6756 31.5059 38.8708C33.0949 46.6492 40.6947 48.7831 45.4619 42.0372C47.2582 43.8269 43.4583 46.9934 42.2837 48.7831C36.4803 50.1598 31.0913 48.6454 28.3278 45.6166C25.9097 40.1786 23.906 32.1249 29.2259 27.2376C32.8185 23.9335 40.9711 20.9736 44.9782 21.3866C55.618 22.5568 67.5013 33.2263 65.705 46.0297C64.8759 51.6741 59.8324 59.5213 55.8252 62.6189C52.9926 64.8216 43.8728 69.0894 39.1748 69.3648C30.5386 69.8466 21.9025 63.9268 15.339 59.9343C12.99 58.4888 8.70644 55.1847 7.25557 52.2936C6.4265 50.6416 6.91014 48.5765 6.35743 46.4426C5.04474 41.28 4.07747 37.8383 4.5611 32.951C4.63019 32.1249 4.07747 31.1612 4.07747 30.6794C4.49201 27.3753 6.84104 24.9661 7.67011 21.249L7.53193 21.3178Z" fill="#4C1145" fill-opacity="0.6"/>
</svg>
