<svg width="80" height="76" viewBox="0 0 80 76" fill="none" xmlns="http://www.w3.org/2000/svg">
<path d="M0.521759 40.1029C1.07447 46.9428 3.83804 55.9935 7.70703 61.7279C15.2377 72.7821 29.2628 77.5492 43.2879 75.2693C48.4005 74.4402 54.8949 73.2657 60.0766 71.193C61.1129 70.7785 62.2183 70.364 63.1165 69.8803C65.3273 68.6367 68.0909 65.0442 70.3018 62.2115C74.5853 56.7535 78.5234 51.3644 79.2834 44.1792C79.9052 38.7211 79.767 29.6014 79.2834 26.1469C78.9379 23.3833 78.0398 20.8961 76.8652 18.478C75.138 14.8163 72.6508 11.5691 69.4036 8.87463C62.1493 2.79479 51.6477 -0.521395 39.6262 0.445853C36.1027 0.722209 33.5464 2.93299 29.7465 4.03841C18.554 7.35469 11.0233 7.07831 4.11437 17.5108C3.49257 18.8235 3.00899 20.2053 2.59445 21.5179C0.590869 27.3905 0.0381352 33.6777 0.521759 40.0339V40.1029ZM13.5796 11.2928C19.9358 8.6674 27.2592 7.70015 33.8227 6.31836C35.7572 6.80199 37.7608 7.76924 39.2116 6.31836C39.2116 5.4893 38.9353 4.79844 38.3135 4.52209C38.2444 4.10755 38.5208 4.1075 38.7971 4.03841C52.2004 3.62388 60.9057 4.31484 69.4036 13.5037C74.9307 19.4454 75.6907 24.696 75.2762 35.543C74.9307 43.281 75.5526 50.3972 71.1999 56.2698C70.8545 56.6843 69.4727 56.9607 68.92 57.6516C66.571 60.4152 64.291 65.3205 60.8366 67.1168C57.5894 68.7749 52.3386 70.0876 48.6769 70.7094C36.4481 72.782 23.2521 72.5059 14.4777 64.837C6.60158 55.8554 2.59443 40.3102 3.69985 26.976C5.9107 19.6526 10.0561 15.1618 13.5796 11.2237V11.2928Z" fill="#4C1145" fill-opacity="0.6"/>
<path d="M18.9323 17.1053C19.8305 21.8034 20.5214 28.9196 22.525 34.654C30.4012 33.4104 37.3791 32.9958 44.1499 31.4759C47.8116 30.7159 53.8915 27.7451 56.3096 29.6796C56.5859 27.4687 61.2149 29.6795 63.4948 27.8832C61.4222 23.3233 63.4948 11.3709 58.5204 9.85094C55.3423 8.88369 50.6442 12.4764 47.2589 13.0291C38.1391 14.549 26.6704 13.3054 18.8633 17.1053H18.9323ZM57.2077 13.9963C57.415 16.4144 59.2113 21.5962 58.5895 24.8434C46.6371 26.6397 36.5501 29.8177 24.3904 30.7159C24.114 27.1923 22.3177 23.807 22.1104 20.8362C33.1647 15.9309 46.0153 17.8653 57.2077 14.0654V13.9963Z" fill="#4C1145" fill-opacity="0.6"/>
<path d="M64.471 37.8256C63.1583 37.8256 62.951 36.6511 61.7765 36.4438C50.9295 38.862 43.8133 38.7238 36.559 40.0365C33.7263 40.5892 31.0318 41.971 27.9919 42.731C25.7811 43.2837 21.6357 42.5237 20.8066 45.909C24.8138 48.189 23.2939 56.0653 25.7811 59.8652C39.5298 58.5525 53.0021 57.0324 66.3363 53.0943C66.9581 48.6726 65.7145 42.1783 64.54 37.7566L64.471 37.8256ZM61.2929 51.3671C50.7222 52.4035 40.4279 55.7197 28.4064 55.8579C27.301 53.9925 26.3337 49.5708 27.0246 47.2909C37.6643 42.1092 48.1659 42.6619 61.7074 41.0038C61.9837 45.4255 63.0201 49.1563 61.2929 51.3671Z" fill="#4C1145" fill-opacity="0.6"/>
</svg>
