<svg width="63" height="72" viewBox="0 0 63 72" fill="none" xmlns="http://www.w3.org/2000/svg">
<path d="M1.21247 25.5754C1.98627 26.1834 2.09687 26.5703 2.64958 26.6808C1.54416 28.8917 4.80511 29.776 5.19201 31.7105C8.12139 33.5897 10.4428 32.0421 12.7642 32.429C14.9751 32.8159 17.0201 34.5293 19.231 34.9715C26.5821 36.3533 33.8226 35.9111 41.9475 38.5641C38.4101 42.1015 34.3201 45.6941 30.3958 49.5079C28.406 51.3871 26.5821 53.3768 24.7581 55.4219C23.9843 56.3062 23.2105 57.1353 22.492 58.0196V59.8436C30.0089 60.8385 32.4408 59.7883 38.6865 59.1251C39.0734 63.4362 38.4653 70.124 41.3947 71.1742C41.6711 71.2847 41.9475 71.3953 42.2791 71.3953C43.3845 71.3953 47.5852 66.4761 49.1328 64.5416C50.7909 62.4966 52.449 60.1752 54.1071 57.8538C57.2023 53.6532 60.2976 49.4526 63.5586 46.8548C65.7694 46.7996 65.9352 46.8548 67.538 46.1363C72.015 47.5181 76.5472 47.9603 79.8083 51.166C85.1696 51.2765 87.7121 55.9193 93.1287 57.6327C92.2443 58.4618 93.6814 58.296 93.4603 59.4567C95.6711 59.2356 97.8267 61.8886 96.3344 63.0493C98.5453 63.602 100.922 63.3809 101.751 61.6123C102.525 62.3861 104.957 61.557 104.625 63.4362C106.339 63.3257 108.826 63.6573 111.368 63.7126C113.524 63.7126 115.735 63.602 117.559 62.7177C119.272 59.3461 121.262 56.3615 122.478 52.4925C122.865 51.2765 123.141 50.0606 123.362 48.6788C122.975 46.6338 122.478 44.5887 121.925 42.4884C119.88 34.5293 116.343 27.0677 107.112 26.6808C106.891 25.9623 106.007 25.8517 105.675 25.2438C105.012 26.1281 103.796 24.7463 102.801 25.6307C95.6711 24.1936 88.3754 22.7013 80.8032 22.3696C78.2607 22.2591 75.4971 22.8671 72.8993 22.3696C66.93 21.2642 61.6793 17.0636 55.9863 16.6214C55.6547 17.1741 54.8256 17.1189 54.1624 17.34C53.057 15.9582 50.0171 16.4556 49.4644 14.4659C47.4193 15.5713 42.3896 11.2601 37.581 9.43616C32.3302 7.39112 27.2453 6.94895 23.5421 3.68794C22.7131 2.96942 22.6578 1.86399 21.7182 1.14546C20.3916 2.30616 17.9045 0.482209 15.97 0.0400391C15.0304 1.20074 13.4827 0.371667 12.3773 0.758566C11.4377 1.14547 6.62909 3.68795 5.91057 4.3512C3.9208 6.11989 3.25752 8.93872 2.42845 11.7023C1.98628 13.0288 1.54411 14.3553 0.880859 15.516C1.26776 19.3297 0.770357 20.6562 1.2678 25.6307L1.21247 25.5754ZM42.6107 65.9234C41.45 63.602 43.2739 56.9142 40.7867 55.0903C37.1388 56.1957 32.9382 57.3011 27.4663 56.9142C28.4059 52.6031 34.8174 49.121 38.6312 45.3625C39.6813 44.3676 42.5555 40.8303 44.3794 40.3328C47.9168 39.3932 50.7909 42.4331 54.1071 42.8753C54.273 45.8599 59.2473 43.9807 59.8553 46.4679C53.4438 52.3267 49.0775 60.2305 42.5555 65.9234H42.6107ZM96.9976 37.0718C99.4848 37.4587 101.254 38.5641 103.464 39.2274C98.9874 44.6992 101.53 53.3216 102.359 58.6829C94.9526 55.8088 95.1184 43.3175 96.9424 37.0718H96.9976ZM103.851 46.081C102.912 38.7852 112.031 40.4434 111.423 47.5181C108.218 50.2264 106.449 45.0861 103.851 46.081ZM111.81 30.6051C115.735 32.5948 120.93 41.991 120.433 48.9551C120.156 53.3768 117.227 56.9695 115.403 60.1199C111.313 60.7279 108.439 61.9439 105.675 59.0145C105.233 55.4219 103.851 51.9951 103.851 48.8999C108.162 49.7842 109.876 53.9848 113.579 49.6184C115.624 39.9459 106.007 36.4638 98.4347 34.1424C102.083 29.4444 107.057 28.1179 111.755 30.5498L111.81 30.6051ZM100.977 27.731C92.0232 33.2028 91.7469 46.7996 94.842 55.8088C87.6015 49.8395 77.708 46.5785 68.2013 42.82C65.7694 37.1271 65.9352 30.8814 70.0253 25.907C79.9189 24.0831 91.8022 26.6808 101.032 27.731H100.977ZM68.2013 23.7514C63.8349 28.1731 62.84 35.4689 64.2218 43.2069C56.9813 43.0964 52.2279 38.6747 45.4848 36.3533C44.0478 31.6552 44.6005 25.0779 47.972 21.5958C54.6046 19.2192 61.7345 21.2089 68.146 23.7514H68.2013ZM8.39776 5.73299C12.5984 3.85376 17.4623 -0.015231 20.2811 5.40136C27.0795 7.77802 32.8277 11.5917 40.7867 13.6921C42.4449 15.9582 45.5954 16.7872 48.359 18.0032C47.4746 19.2192 46.7561 19.2745 45.4848 19.4403C45.7612 22.2591 42.5554 23.254 41.8921 25.5754C41.1184 28.2284 42.666 30.992 42.2791 35.3031C34.1542 32.7607 26.3057 33.2581 18.5124 31.7105C14.9198 30.992 11.6035 28.0626 7.34759 29.5549C0.991392 24.2489 3.25758 11.039 8.45308 5.78825L8.39776 5.73299Z" fill="#4C1145" fill-opacity="0.6"/>
</svg>
