<svg width="110" height="72" viewBox="0 0 110 72" fill="none" xmlns="http://www.w3.org/2000/svg">
<path d="M23.6249 40.2842C24.067 48.5749 23.1274 52.1123 23.9565 57.5842C26.2226 62.8349 32.5235 64.88 39.4325 65.8749C44.1305 66.5381 50.5972 67.8646 56.3455 67.3119C58.9985 67.0355 61.8726 66.317 64.5809 65.2669C68.7263 63.664 72.4294 61.3426 73.977 59.0212C76.63 55.0969 75.5246 50.4541 75.4694 45.2034C75.4694 43.6005 75.4693 41.9976 75.801 40.2842C77.0722 40.3395 78.1224 40.1737 78.6751 39.5657C78.0118 39.5657 77.9013 39.2894 78.3435 38.8472C79.7253 38.405 80.9964 37.7417 82.1571 37.0785C86.1919 34.7018 89.2872 31.3303 94.9249 30.5565C95.4223 36.8022 94.9248 42.0529 95.6434 49.6251C91.9402 50.8963 89.5635 56.6998 93.8194 58.2474C93.6536 59.6292 92.8798 61.4531 92.1613 63.3876C91.1112 66.2617 90.1715 69.357 91.6638 71.2362C93.0456 71.6231 92.714 70.3518 93.8194 70.5176C93.8194 70.2413 93.8747 70.0202 93.93 69.7991C94.5379 64.9905 94.538 63.2218 97.0805 60.0714C97.9648 63.2771 96.9699 68.5831 97.7989 70.9045C98.9596 70.7387 99.0702 71.5678 100.341 71.2914C102.11 68.6937 98.8491 62.5033 101.447 59.7397C103.271 62.8349 105.04 65.9854 106.477 69.4675C112.059 69.0806 107.637 65.2669 106.477 63.0007C104.266 58.7448 104.432 51.8912 101.447 49.6803C100.065 49.1829 99.5676 49.8462 98.5727 49.3487C97.4673 40.8369 99.236 32.7674 97.1357 27.0191C94.0405 26.8533 91.0559 24.753 88.4581 25.1952C74.5851 18.5074 60.8225 11.7642 51.3711 0.709961C45.4018 2.69973 42.4724 7.67414 36.2267 9.00065C26.2226 16.1859 14.4498 21.492 0.90836 27.3508C0.687275 28.6773 0.300376 29.7827 0.90836 30.9434C2.12433 31.2197 3.34035 31.496 4.50104 31.7724C12.0732 33.3753 19.0374 34.3702 23.5696 40.3395L23.6249 40.2842ZM97.8543 53.273C98.3517 52.9414 99.0149 52.7202 98.9597 51.8359C104.597 54.8758 98.7386 60.1266 94.9801 55.8154C94.759 54.4337 95.3118 53.7151 95.6987 52.9413C96.583 52.9413 97.4674 52.8861 97.8543 53.273ZM65.4099 60.8452C63.6413 61.6742 62.9228 62.7796 61.8173 63.0007C60.4356 63.2771 60.2145 63.056 58.5564 63.7193C51.7027 66.4828 42.7487 62.7243 35.1213 62.6138C32.413 61.0109 29.2073 59.9056 27.2175 57.5842C27.0517 55.5944 26.7754 54.8206 27.2175 52.8861C28.4335 52.4992 28.4335 52.9966 29.76 52.4991C31.9156 51.7253 32.8552 50.1778 35.5082 49.2381C42.0855 47.0273 48.9391 48.188 57.1193 48.9065C60.325 49.1829 63.4202 48.4091 66.1285 49.6251C68.671 50.7858 70.495 53.7704 71.8768 55.3733C71.1582 58.6343 68.671 59.2422 65.4099 60.7898V60.8452ZM72.5952 50.3989C71.0476 50.0673 68.5052 47.8011 66.8471 46.4193C59.2196 45.4245 52.7528 46.0324 45.5676 44.2638C38.1059 44.927 32.9105 47.1931 26.499 50.3989C27.3833 47.1931 25.3936 41.0581 28.323 39.621C28.5993 39.4552 29.1521 39.8973 29.0415 39.9526C38.5482 32.2699 59.6618 30.6118 71.8768 37.797C71.932 42.6609 72.2636 44.0427 72.5952 50.3989ZM5.27484 28.7878C7.59623 27.3507 11.7416 25.969 13.8971 25.5268C15.1684 22.8738 21.9667 22.8185 23.6249 19.3917C27.4939 19.2259 29.9811 15.9096 32.9657 13.9751C33.2974 13.754 34.0711 14.1962 34.4027 13.9751C39.5982 10.8247 44.7938 8.55851 49.5471 4.96587C61.9279 13.8093 73.8665 23.1502 89.8952 28.4009C86.2473 32.3252 81.0518 34.7018 76.1879 37.4101C61.4858 26.798 38.4928 28.5667 25.0066 37.4101C20.3086 31.3303 12.7917 30.8881 5.21951 28.7878H5.27484Z" fill="#4C1145" fill-opacity="0.6"/>
</svg>
