<svg width="59" height="72" viewBox="0 0 59 72" fill="none" xmlns="http://www.w3.org/2000/svg">
<path d="M-1.29688 28.8485C-1.1587 29.7467 -0.398738 30.023 0.0848863 30.6448C8.72103 26.3613 15.5608 20.3505 23.9206 15.7907C24.2661 14.2016 23.4371 13.9253 23.0225 13.0962C12.6592 17.0343 7.06291 22.9068 -1.29688 28.8485Z" fill="#4C1145" fill-opacity="0.6"/>
<path d="M19.8563 43.2875C16.2636 45.2911 10.5984 46.0511 9.97656 50.9564C13.2238 52.4073 15.2964 49.091 17.6455 47.7783C22.689 45.0148 28.4234 42.6657 33.3978 39.6949C34.4341 39.8331 35.1249 39.6258 35.6776 39.2113C33.7431 37.3459 35.5395 37.1386 35.194 35.6187C29.5978 37.4841 24.8307 40.524 19.8563 43.2875Z" fill="#4C1145" fill-opacity="0.6"/>
<path d="M30.2163 57.2532C26.7619 59.395 21.8565 62.6422 19.4384 64.4385C7.34783 70.0347 -0.942827 79.4999 -13.448 84.6816C-14.7606 87.9288 -20.9787 88.5506 -19.3206 93.2487C-14.5534 91.2451 -11.4445 87.5834 -7.16093 85.1652C-1.97924 82.7471 2.44249 79.4999 6.7951 76.1837C12.5295 73.2128 17.2276 69.2748 22.5474 65.8203C24.551 65.4058 27.7982 63.6095 29.7327 61.744C35.8817 60.5695 38.1616 55.4569 44.1723 54.0751C44.7941 51.657 42.4451 49.7225 40.9942 50.4825C37.9543 52.0716 32.9799 55.4569 30.1473 57.2532H30.2163Z" fill="#4C1145" fill-opacity="0.6"/>
<path d="M23.1366 0.519531C23.1366 0.519531 22.5148 0.519531 22.1003 0.519531C10.6315 2.86856 -2.21912 11.9883 -15.277 18.5518C-16.5897 19.2427 -18.0405 19.2427 -19.3532 19.9336C-24.7421 22.6971 -27.0912 27.9479 -32.411 28.5006C-35.8655 32.646 -40.8399 35.3405 -46.3671 37.4822C-47.8179 38.5876 -47.887 41.0748 -50.8578 40.6603C-51.1342 42.5257 -52.6541 43.0784 -53.5523 44.2529C-53.8286 45.5656 -53.8978 47.0856 -54.1742 48.5365C-54.2433 49.0892 -54.3123 49.711 -54.5195 50.1255C-49.476 63.5979 -42.6363 75.1358 -34.2765 85.2228C-34.0001 88.1936 -31.7892 89.8518 -30.6838 91.5099C-26.953 97.1752 -24.2585 105.811 -20.3204 108.644C-15.7606 111.891 -9.05898 107.469 -4.08456 105.051C1.51166 102.288 5.31161 99.0406 9.45695 96.4843C12.6351 94.4807 16.5731 93.6517 19.8203 91.5099C22.3075 89.8518 24.5183 87.7791 27.0055 86.1209C32.6709 82.4592 38.3362 77.6921 44.8306 75.8267C44.8306 75.8267 44.9687 75.8267 45.0378 75.7576C48.2159 71.405 54.0885 69.8159 58.0956 66.2924C59.0629 63.8743 58.3029 61.5943 58.9938 58.6235C56.9212 50.9546 52.8449 45.842 50.0122 39.6931C46.6269 32.3005 43.587 24.5625 39.2343 17.17C37.1617 13.6465 33.3618 11.2283 32.4636 6.80664C28.9401 6.80664 27.8347 3.55945 25.9002 1.69405C25.1402 1.00316 24.242 0.519531 23.1366 0.519531ZM31.98 13.0938C34.4672 17.17 38.0599 20.2099 39.1653 25.7371C41.1689 26.8425 41.8597 29.3988 42.3433 32.0242C47.525 42.1803 54.8485 52.4055 55.4012 63.1143C53.1903 66.8451 48.7687 65.6706 46.8342 69.885C44.0706 70.0232 43.1034 71.8195 41.4453 73.0631C35.2272 74.7903 30.5291 79.9029 25.2093 83.4265C19.613 87.1573 13.0496 90.059 7.177 93.7898C2.61712 96.6916 -4.43 100.975 -9.4735 103.255C-11.408 104.153 -14.0334 106.157 -16.2442 105.95C-20.5277 105.535 -21.7023 101.251 -22.5313 98.2806C-28.5421 92.2008 -30.4075 81.3538 -36.9709 77.1394C-39.8036 66.3615 -50.9269 59.5216 -50.5123 45.6347C-42.4289 38.104 -29.4402 33.1987 -21.2186 24.4935C-4.70633 19.3809 5.38066 7.84298 23.3438 4.25034C26.3838 7.083 27.0747 12.2647 31.9109 13.2319L31.98 13.0938Z" fill="#4C1145" fill-opacity="0.6"/>
<path d="M8.57648 33.4157C6.5729 34.3138 3.04936 34.1065 3.18754 37.4919C8.36922 38.8046 11.6856 35.9029 15.7618 33.4157C21.0817 30.2376 26.6779 28.7176 30.2014 24.8486C29.4414 23.605 29.0959 22.085 27.0233 22.1541C21.5652 25.8849 14.9327 30.5139 8.57648 33.4157Z" fill="#4C1145" fill-opacity="0.6"/>
<path d="M5.45701 62.6406C7.39151 62.5024 8.63517 61.6043 9.94787 60.8443C9.7406 59.3243 8.77327 56.9753 9.53325 55.8699C8.77327 55.6626 8.35875 56.5608 8.15149 55.8699C3.03889 45.5065 -4.28454 37.354 -12.9898 30.6523H-13.888C-17.3424 32.6559 -20.0369 35.3504 -24.2513 36.5249C-29.5021 42.9502 -40.8327 43.3647 -45.3926 50.4809C-40.28 59.048 -36.6182 68.9968 -30.5384 76.5966C-30.1238 78.7384 -28.2585 83.3673 -24.2513 83.3673C-22.5241 82.4001 -22.2477 79.982 -20.6587 78.8765C-11.5389 79.0838 -4.8373 69.6877 4.55882 66.3023C4.42064 64.7133 5.38792 64.1606 5.45701 62.7097V62.6406ZM-17.066 74.8003C-19.2769 72.0367 -20.175 67.7532 -19.7605 63.5388C-26.1858 60.0152 -33.2328 53.659 -25.1494 46.8883C-17.7569 40.6703 -8.91349 47.8555 -11.6771 58.1498C-8.63714 60.8443 -2.97179 60.7752 -0.415497 64.9205C-5.87354 68.3059 -11.4007 71.6222 -17.066 74.8003ZM-7.60083 55.8699C-4.97544 40.8084 -22.3859 36.6631 -29.2258 45.9901C-29.6403 46.5428 -29.2257 47.9246 -29.6403 48.6846C-30.953 51.1027 -32.7492 51.8627 -32.8183 53.659C-33.0256 57.7353 -27.2221 62.6406 -23.8367 64.9205C-23.6985 69.3422 -18.7933 77.3566 -25.2186 79.3602C-31.0911 70.5168 -36.9637 61.6734 -40.9709 50.9645C-32.1275 45.5756 -22.9386 40.463 -13.957 35.2122C-6.01176 41.2921 0.689903 48.7537 5.38796 59.048C4.35162 60.7752 2.69345 60.3607 1.7953 61.3279C-2.0046 60.0152 -3.93906 58.0807 -7.66988 55.939L-7.60083 55.8699Z" fill="#4C1145" fill-opacity="0.6"/>
<path d="M33.0003 66.7118C28.3022 69.7518 23.9497 73.6208 19.0443 76.5916C10.27 81.9805 1.70296 87.024 -6.65682 91.9294C-10.2495 94.0021 -15.293 96.1438 -15.2239 100.911C-9.48951 99.8746 -5.68964 94.8311 -0.784308 91.9294C15.6589 82.1878 33.4839 72.6535 49.2363 61.3229C48.269 61.392 49.029 59.7338 48.7527 59.043C46.68 58.6975 45.92 59.3884 45.16 59.9411C41.5674 62.5665 36.8693 64.2246 33.0003 66.7118Z" fill="#4C1145" fill-opacity="0.6"/>
</svg>
