<svg width="67" height="89" viewBox="0 0 67 89" fill="none" xmlns="http://www.w3.org/2000/svg">
<path d="M21.0605 0.985359C23.1599 3.78456 22.3602 6.08391 25.3093 8.13332C25.7592 8.03335 25.8592 7.58345 26.309 7.48348C26.2091 4.33438 24.1097 3.18471 23.7098 0.33552C22.2602 -0.114352 21.9603 0.235572 21.1105 0.985359H21.0605Z" fill="#4C1145" fill-opacity="0.6"/>
<path d="M38.9492 5.23644C41.3485 7.73572 43.048 3.48692 45.4474 2.28726C45.1974 1.28754 45.1974 1.63747 45.4474 0.637757C42.3482 -1.01177 40.8987 3.68687 38.9492 5.18644V5.23644Z" fill="#4C1145" fill-opacity="0.6"/>
<path d="M49.0645 12.4325C52.1636 13.2323 56.5623 10.9829 57.2121 7.88382C53.8131 7.48393 50.4641 9.78325 49.0645 12.4325Z" fill="#4C1145" fill-opacity="0.6"/>
<path d="M7.35695 26.432H7.25697C6.1073 26.1321 4.7077 24.5826 3.40807 23.6328C2.10844 22.6831 0.908785 22.2832 0.208984 24.2326C0.708842 24.7825 1.25869 25.2324 1.75855 25.6323C2.95821 26.632 4.10787 27.3818 5.30753 28.2815C5.65743 28.5314 6.05732 28.8313 6.40722 29.1312C6.90708 28.4314 6.60717 26.9819 7.40694 26.532L7.35695 26.432Z" fill="#4C1145" fill-opacity="0.6"/>
<path d="M64.7066 24.7809C64.0068 23.5812 64.3067 24.1811 65.0065 23.1314C62.8071 22.1317 58.6083 23.0314 56.209 23.7812C56.5089 24.9309 56.209 24.581 56.5089 25.7306C60.0579 25.5807 62.1573 25.7306 64.6566 24.7309L64.7066 24.7809Z" fill="#4C1145" fill-opacity="0.6"/>
<path d="M66.6574 39.7815C65.6077 39.7315 66.2576 38.8318 66.3075 37.832C63.0085 38.132 61.359 35.0329 58.5098 36.8323C59.3595 39.3316 65.0579 41.0811 66.6574 39.7815Z" fill="#4C1145" fill-opacity="0.6"/>
<path d="M9.3293 44.982C9.47926 43.9323 8.72948 43.8323 8.9794 42.6826C7.12993 43.0825 2.18135 42.7826 1.23162 45.1819C1.23162 45.1819 1.23163 45.2319 1.18164 45.2819C1.18164 45.2819 1.23161 45.2819 1.2816 45.3319C3.381 47.0814 6.58009 45.5318 9.3293 44.932V44.982Z" fill="#4C1145" fill-opacity="0.6"/>
<path d="M51.9902 49.5241C51.9902 49.5241 52.1402 49.6241 52.1902 49.6741C54.3396 51.3236 56.489 54.4227 59.4881 54.0728C59.1882 52.7232 58.5884 52.6732 59.1382 51.1236C58.0385 51.3236 57.0888 50.7237 56.189 49.924C54.2396 48.2244 52.79 45.8251 51.9902 49.4741V49.5241Z" fill="#4C1145" fill-opacity="0.6"/>
<path d="M15.8692 53.4718C14.0697 53.7218 16.469 51.4724 14.5695 50.8726C13.02 52.4221 10.4707 53.5718 7.87147 54.7714C7.37161 54.9714 6.92173 55.2213 6.42188 55.4213V57.3707C7.7215 57.3707 8.67122 57.1208 9.57096 56.7209C11.1205 56.0711 12.3202 55.0214 13.9197 54.4215C13.9197 54.7215 16.2191 54.5715 15.8692 53.4218V53.4718Z" fill="#4C1145" fill-opacity="0.6"/>
<path d="M11.2015 10.8393C10.4018 10.2894 9.50202 9.93956 8.65226 10.0895C8.50231 12.6388 10.5517 15.488 13.201 16.2877C13.251 16.1878 13.3009 16.0878 13.3509 15.9878C14.2507 14.4883 13.001 12.039 11.2015 10.7893V10.8393Z" fill="#4C1145" fill-opacity="0.6"/>
<path d="M45.0479 58.8716C45.1479 58.0219 45.1978 57.1721 45.1978 56.3723C45.1978 54.7228 44.2981 53.2232 44.548 51.4737C45.1478 46.7751 48.9468 44.7256 51.0462 41.3766C52.1958 39.5271 53.0456 37.3778 53.5455 35.0784C53.6954 34.3786 53.7954 33.6288 53.8954 32.879C54.6951 26.9807 53.4455 20.5826 50.0465 16.2838C45.8477 10.9353 33.7011 8.93589 27.2529 10.0856C22.7542 10.8853 19.7051 14.0844 16.2561 17.2835C15.9562 17.5834 15.6563 17.8334 15.3564 18.1333C15.3564 18.1333 15.2564 18.1832 15.2564 18.2332C14.5566 19.3329 13.9068 20.4826 13.2569 21.6323C11.5074 24.9313 10.2078 28.4803 10.7077 32.879C11.7574 42.2264 24.0039 46.5751 25.0536 57.9719C21.9045 64.9199 24.8536 74.9171 25.4035 79.4658C30.0022 80.4155 29.0025 86.9136 33.2013 88.2633C33.4012 88.1633 33.6511 88.0633 33.9011 88.0133C36.1504 87.0636 38.5497 86.3138 40.6991 86.9636C41.249 86.2138 41.6488 85.3141 42.3486 84.6643C40.949 80.1156 47.2972 75.7168 44.648 70.6683C45.1478 69.9685 45.6977 69.3186 45.9476 68.3689C44.748 66.3195 44.698 64.1201 44.8479 61.8708C44.9479 60.8211 45.0479 59.7714 45.1479 58.7717L45.0479 58.8716ZM13.9068 26.7308C14.4066 24.7314 15.9562 23.4317 16.506 20.8825C17.1059 20.8825 17.2058 20.4826 17.8056 20.5826C19.8551 14.4343 26.903 12.4849 33.7511 12.7848C37.55 12.9348 43.5983 13.8844 46.4475 16.3837C51.646 20.8825 53.5455 31.6294 50.0465 38.5274C47.4472 42.3263 43.3983 44.6757 42.5486 50.2741C42.4986 50.574 42.6985 50.574 42.8985 50.624C41.6988 50.774 41.5489 55.0727 41.8988 56.8222C40.0493 57.0222 37.4001 56.5223 35.0507 56.8222C34.251 52.0236 35.0507 47.175 34.4009 42.4763C34.051 40.027 33.7011 38.2775 35.4006 35.6283C35.8505 34.8785 37.1001 34.4786 37.7 33.6788C39.2995 31.4794 41.5989 28.0304 44.548 26.1809C43.7982 25.0313 43.2484 25.5811 42.2487 24.5314C38.5997 28.1304 34.9008 31.7294 31.8017 35.9282C28.5026 35.0284 26.4532 31.3295 22.7042 32.0293C23.2041 36.2781 28.4026 35.8782 30.502 38.5274C32.4015 44.3757 31.6017 50.7239 32.8014 57.1221C30.452 57.722 29.3024 58.4218 26.953 58.4218C26.953 43.8259 10.4577 40.3769 13.9068 26.8308V26.7308ZM25.9533 61.2709C31.6017 60.7711 36.3004 57.672 41.8988 60.2712V61.9207C37.1501 62.4206 31.7017 63.5703 25.6034 63.8702C25.3535 62.6205 26.0033 62.3206 25.9533 61.2709ZM38.9496 83.7645C37.55 84.2144 34.6508 84.5643 33.1013 85.0642C32.6014 83.0647 31.1518 82.015 30.8019 79.8656C34.151 78.766 36.4503 78.3161 39.8994 78.566C40.2493 79.8157 38.5497 81.4652 38.8996 83.7645H38.9496ZM42.2487 75.267C36.8502 75.6169 30.752 77.6663 26.953 77.5663C27.053 75.4669 26.4532 74.4172 26.953 73.3175C32.8014 71.9679 36.2004 71.0182 41.9488 71.0182C42.5986 71.9179 42.1487 73.8674 42.2487 75.267ZM42.5486 67.7691C37.0502 69.1687 32.5514 69.1687 26.903 70.7183C25.9533 69.4186 26.1033 68.8688 26.2532 66.8194C31.3518 65.8696 37.0502 64.47 42.1987 65.1698C42.1487 66.2195 42.7985 66.5695 42.4986 67.7691H42.5486Z" fill="#4C1145" fill-opacity="0.6"/>
</svg>
