<svg width="61" height="81" viewBox="0 0 61 81" fill="none" xmlns="http://www.w3.org/2000/svg">
<path d="M23.1073 33.3043C23.2316 34.1097 22.9829 35.039 22.8586 35.9063C22.8586 36.278 22.7342 36.5878 22.7342 36.8976C23.1695 43.0927 25.3458 49.5357 24.7861 56.2884C24.2265 56.1026 23.6669 56.0406 23.0451 55.8548C18.879 54.6777 14.7751 54.7397 11.2308 55.9787C5.88332 57.8372 1.77945 62.1119 0.47367 67.9973C0.100589 69.608 -0.0859976 71.3427 0.0383628 73.2632C4.3288 76.7325 9.3033 82.494 16.6406 78.9008C19.9361 79.3964 23.6669 78.4671 27.2112 76.7944C31.6882 74.6261 35.7921 71.2807 37.7196 68.0592C37.7196 68.431 38.0305 68.5548 38.1549 68.8646C37.6574 68.5548 38.7766 66.6344 39.7715 64.8378C39.6471 64.4661 39.585 64.0944 39.5228 63.7226C35.9786 50.7128 34.735 35.7824 32.0612 22.8345C37.3465 24.2594 44.9325 24.3214 45.8652 30.0829C46.7979 36.0302 40.7043 41.482 42.6318 47.863C43.1915 47.9869 43.8133 48.1728 44.4973 48.4206C48.9121 50.0933 55.13 53.7484 57.6794 50.2791C56.0006 47.6152 53.389 45.9425 53.2024 41.7917C58.4878 35.4107 61.5347 26.3658 59.2962 16.3296C53.3891 8.21393 40.269 4.06316 29.3253 2.57632C25.5323 2.08071 20.9931 -0.521246 17.1379 1.77097C15.6456 3.81537 18.0707 6.66511 18.3816 8.2139C18.2572 7.40853 17.511 7.96612 17.5732 9.0193C17.6976 11.0637 17.9463 13.1081 18.1951 15.1525C18.2572 15.772 18.3194 16.4535 18.3816 17.073C19.1899 22.7106 22.672 28.658 23.2316 33.2424L23.1073 33.3043ZM20.6201 3.81534C33.1183 5.98364 61.5346 7.65638 56.3115 29.6492C54.8813 35.7824 47.7307 39.1898 51.0262 47.4293C50.0313 46.1283 46.9845 46.8718 45.3678 46.1903C44.1864 39.4995 52.0211 33.738 48.6012 26.7994C46.2383 21.9672 35.0459 18.5599 27.5221 20.3565C29.1388 27.6668 31.7503 36.4019 32.8074 45.8186C33.5535 52.8191 33.9266 59.386 35.6677 64.7758C31.5016 74.1925 19.4386 76.4227 10.5468 76.8564C7.62436 74.4403 3.20958 73.2012 3.27176 69.608C3.33394 65.2095 7.56222 58.6426 13.4072 57.8992C19.0656 57.2177 23.045 60.3153 28.0195 59.5099C29.4496 57.0319 27.9573 54.6157 27.5842 52.2615C26.2785 42.5971 26.9002 32.437 24.7239 22.7726C24.4752 21.5335 23.1072 21.4096 22.672 20.3565C22.2367 14.4711 20.9932 9.39099 20.6201 3.81534Z" fill="#4C1145" fill-opacity="0.6"/>
</svg>
