<svg width="42" height="50" viewBox="0 0 42 50" fill="none" xmlns="http://www.w3.org/2000/svg">
<path d="M26.451 31.5695C27.7091 32.1986 29.2424 31.9234 30.815 31.5695C31.3654 33.8105 30.4218 36.0515 31.3261 37.978C31.9552 37.86 31.8765 38.4498 32.6235 38.2139C33.9209 35.9729 32.5842 34.8327 32.8594 31.8054C34.2354 31.4123 36.9089 32.7883 37.9704 31.0191C37.5773 30.9798 37.0269 31.0978 36.9482 30.7439C37.3807 30.7439 37.6166 30.5473 37.7346 30.2328C36.7517 28.9354 34.5107 30.2328 32.8594 29.4465C32.9774 27.638 32.5056 26.8124 32.8594 25.3577C29.9501 21.3475 30.2646 28.5422 30.5398 29.7217C28.7313 29.9969 27.198 29.0533 26.1758 29.9969C26.1758 30.5867 26.6082 30.7439 26.4117 31.5302L26.451 31.5695Z" fill="#4C1145" fill-opacity="0.6"/>
<path d="M23.8932 32.3563C20.9446 28.3855 21.6129 20.7976 16.7378 18.7925C13.5926 26.2231 10.9584 33.6931 8.00977 40.2981C8.87471 40.4553 8.87473 41.0451 9.81831 40.534C11.3909 38.3323 11.5875 34.7939 13.6712 33.1033C16.384 32.7888 18.1532 33.2999 20.8266 33.1033C22.3599 35.8554 21.8882 37.8605 23.1463 41.045C24.4437 41.163 24.9941 40.2587 25.4659 40.2587C25.0727 38.0964 23.2249 34.558 23.9326 32.317L23.8932 32.3563ZM14.143 31.0589C15.4011 27.7171 16.3447 26.2624 16.9737 22.6061C19.3327 24.7291 19.4506 27.7171 20.3155 31.0589C18.8609 30.9803 16.3447 30.6658 14.1823 31.0589H14.143Z" fill="#4C1145" fill-opacity="0.6"/>
<path d="M1.36524 49.4973C11.8625 50.0084 22.517 49.1041 32.4638 49.1434C34.5082 49.1434 36.5526 49.1434 38.5184 49.2614C42.1747 38.3317 40.3269 28.031 41.0739 16.9833C39.3833 13.5629 37.4569 10.4963 35.1766 8.01941C34.2723 6.99721 32.9356 6.36815 32.11 5.46389C31.992 5.30663 32.0313 4.40237 31.8741 4.16648C31.4416 3.57674 30.0656 2.90839 29.0434 2.12208C26.8417 0.431514 26.7237 0.0383627 24.1682 0.313571C16.8162 1.21783 6.55487 0.470819 0.578913 2.63317C0.264389 4.79553 0.303717 6.95788 0.500295 9.08091C0.814819 12.6193 1.52249 16.1577 1.60112 19.7747C1.75839 29.2891 0.893447 40.8085 1.32592 49.4973H1.36524ZM26.9596 3.38018C31.4023 6.64336 35.2159 10.4963 37.7321 15.6859C34.4689 15.9611 30.5767 14.6637 26.4485 15.6859C26.0554 10.8894 26.881 7.58694 26.9596 3.38018ZM2.38742 4.67757C9.18901 2.39727 18.8213 2.82976 24.6793 2.12208C25.7802 7.11515 23.4999 12.5407 24.9152 17.4944C29.3186 16.7868 33.9185 17.3765 38.2432 17.7696C38.9509 19.0277 38.9902 20.9542 39.0295 22.3695C39.0688 30.272 39.1868 37.7812 37.221 47.217C24.758 46.9417 14.5359 47.7674 3.13443 47.4529C3.13443 32.9061 4.07801 21.1115 2.34813 4.67757H2.38742Z" fill="#4C1145" fill-opacity="0.6"/>
</svg>
