<svg width="47" height="56" viewBox="0 0 47 56" fill="none" xmlns="http://www.w3.org/2000/svg">
<path d="M1.3803 28.053C0.219605 29.5038 1.38029 30.5678 2.34754 31.5351C2.009 31.8252 1.71884 32.1638 1.3803 32.5023C1.96065 32.6957 2.6861 31.5834 2.97627 32.5023C2.6861 32.599 1.57374 33.3728 2.34754 33.4696C2.44426 33.0343 3.02459 33.131 3.31477 32.8408C4.66891 35.0655 6.5551 36.7582 8.05433 38.8378C10.9561 39.1279 14.0513 38.8378 18.7908 38.8378C19.9515 35.3073 21.2572 31.8252 23.8204 29.6973C25.0295 35.8393 26.0935 43.2388 27.3025 49.8644C27.6411 51.7505 28.0764 53.8785 29.5272 55.2326C32.2839 54.0236 34.4602 54.8457 36.443 55.2326C36.4914 54.9425 36.6848 54.749 36.8299 54.5555C37.4586 53.9268 38.4259 53.6367 37.7004 52.3792C41.3276 50.8316 42.585 46.9626 46.5508 45.7536C46.5508 44.9314 46.4541 43.9642 46.8893 43.5289C46.5024 43.4805 45.9705 43.5773 45.9221 43.1904C46.3573 43.0937 46.2606 42.5133 46.5508 42.2231C44.8581 41.3043 45.4384 38.596 44.9548 36.2262C44.3744 33.1794 42.6334 29.794 43.3588 27.0857C42.585 20.3633 40.0702 14.2697 39.5866 8.46619C39.3447 5.56444 40.2637 2.37255 37.9907 0.292969C34.17 0.824955 30.3494 1.59875 26.3353 0.292969C22.5147 2.66273 20.0965 6.43497 15.9374 8.46619C15.5021 9.57852 14.9218 10.5941 14.3898 11.6581C11.343 17.7518 7.23218 22.8298 3.605 28.3431C2.87957 28.2464 2.39591 27.8595 1.3803 28.053ZM16.8079 36.2262C14.8734 35.791 14.0029 36.468 11.1495 36.5648C13.8578 31.0031 18.0653 26.8923 20.9187 21.4273C22.2245 22.5396 22.3212 24.861 22.8048 26.7955C20.4834 29.6005 17.8719 32.1638 16.8079 36.2746V36.2262ZM36.0561 3.14633C39.2964 18.0903 41.0858 29.6489 43.3105 44.1093C41.3276 45.6085 39.3447 48.7521 37.3135 49.139C35.6208 34.2917 32.1871 22.4913 30.0592 5.95136C26.8672 5.903 24.836 7.01534 21.8376 7.20879C24.7877 2.75945 29.4789 3.19468 36.0078 3.09796L36.0561 3.14633ZM7.03869 27.7628C9.94044 22.5397 14.6799 16.5427 18.0653 10.7392C21.5474 11.0294 23.4335 9.14327 27.496 8.85309C28.6567 14.6566 30.3977 20.847 30.9781 27.7628C31.2682 27.6177 31.5584 27.4726 31.6068 27.1341C31.365 34.195 35.0405 42.5133 35.0889 51.412C33.0093 51.6054 32.3806 52.3792 30.6879 52.3792C29.4788 43.9158 25.5615 35.0655 26.2869 25.925C25.9967 25.0061 25.8033 25.5865 25.0295 25.5865C24.159 22.7331 23.7237 19.7346 23.1434 16.7845C20.3384 16.1074 20.4834 18.7674 19.3711 20.5568C17.7268 23.2651 14.4865 24.9578 16.2276 26.5537C13.3258 27.7144 11.2946 32.2605 9.31173 35.404C6.70016 34.872 6.11985 32.2605 4.28207 31.0031C4.3788 30.5678 5.05585 30.7612 5.53947 30.7129C4.52386 29.8907 5.78129 28.5849 7.13544 27.8595L7.03869 27.7628Z" fill="#4C1145" fill-opacity="0.6"/>
</svg>
