<svg width="37" height="70" viewBox="0 0 37 70" fill="none" xmlns="http://www.w3.org/2000/svg">
<path d="M23.4999 61.2162C23.4999 61.2162 23.2083 61.0079 23.0833 60.9245C20.0836 58.5497 14.9589 60.3829 14.2506 63.6327C13.4173 67.4657 16.9588 69.6322 19.9586 69.0489C20.1252 69.0489 20.2502 68.9656 20.4168 68.9239C23.4999 68.049 24.2499 64.6326 23.4999 61.2162ZM16.1672 65.2992C16.5421 62.966 18.6669 61.2161 21.3334 62.0494C23.1666 66.7157 17.5421 68.7156 16.1672 65.2992Z" fill="#68135D"/>
<path d="M5.04196 4.72119C3.41708 6.17942 2.41716 8.05429 1.7922 10.1375C0.833938 13.3872 0.833887 17.2203 0.958878 21.0533C-0.207703 22.7199 0.000615358 24.3031 0.958878 25.5114C2.37544 27.3029 5.45858 28.2611 8.54168 27.3029C9.54161 26.0529 9.79159 24.0114 10.1666 22.1365C9.24996 20.6783 9.0833 18.5952 9.37494 16.4704C9.74992 14.0122 10.7915 11.5124 12.3331 9.92914C13.0414 9.92914 13.583 9.67918 14.0829 9.4292C14.7912 9.05422 15.4579 8.55424 16.3745 8.30426C21.3741 7.05435 27.9569 10.8041 28.3319 14.8038C28.4985 16.387 27.9986 17.6369 27.207 18.6368C25.5404 20.8033 22.4157 22.0533 19.9992 23.4282C19.7909 23.5532 19.5825 23.6365 19.3742 23.7615C18.1659 25.3447 17.416 27.0529 16.916 28.8444C16.0411 31.9275 16.0411 35.2606 15.9994 38.7603C15.9994 40.3436 15.9578 41.9268 15.8328 43.5933C15.5412 47.5097 13.1247 53.5926 17.9993 55.8007C20.1658 54.9258 21.6657 54.8842 22.624 53.0926C23.249 46.8014 22.3323 37.8854 23.6239 32.4692C23.7905 31.7609 23.9989 31.1359 24.2489 30.5526C25.0405 28.7194 26.4987 27.5112 28.0819 26.4696C30.4984 24.8864 33.2899 23.7198 34.8314 21.595C38.0395 17.137 36.5396 12.4706 34.2898 7.22103C33.2065 6.51275 32.1233 5.76277 31.5817 4.51286C29.4568 3.22129 27.0403 2.26306 24.4988 1.55478C24.0406 1.42979 23.5822 1.34643 23.1656 1.2631C16.7077 -0.15346 9.70824 0.554847 5.00025 4.80453L5.04196 4.72119ZM6.95845 25.6363C2.87541 26.9696 0.625592 20.6784 6.12519 21.0117C6.4585 21.8866 7.29177 22.2199 7.75007 22.9282C7.50008 24.3864 7.45843 24.4281 6.91681 25.6363H6.95845ZM33.0399 20.7617C32.2066 21.8866 29.8734 23.0115 28.1652 24.3031C24.0822 27.3862 20.4575 31.0526 21.1241 38.1771C21.0824 38.3854 21.2491 38.427 21.4157 38.427C21.2907 38.802 21.1657 38.427 20.8741 38.427C20.7074 43.8016 20.9991 49.2179 20.3325 52.801C15.9578 54.7592 17.541 47.968 17.8744 44.9265C17.9577 44.0516 17.5827 43.0934 17.5827 42.2184C17.7077 37.5521 18.6243 30.8026 20.0408 26.7196C23.7489 23.0532 31.665 20.5534 30.6234 14.5122C29.4985 7.80432 19.3742 4.5962 12.4164 7.72097C12.2914 7.76264 11.9581 8.34592 11.5831 8.55423C8.99997 9.9708 7.16676 13.7622 6.95845 19.1368C5.2919 18.8868 3.41707 19.0535 2.62546 19.4284C2.75045 11.7207 4.87525 6.13775 11.0415 3.6796C14.4162 2.34636 19.2075 2.13805 21.9157 3.6796C22.3323 3.55461 22.1657 2.80464 22.999 3.13795C31.79 4.38786 38.1229 13.8872 33.0399 20.8033V20.7617Z" fill="#68135D"/>
</svg>
