<svg width="79" height="70" viewBox="0 0 79 70" fill="none" xmlns="http://www.w3.org/2000/svg">
<path d="M10.6558 57.8669C15.0748 60.5862 19.1539 64.1554 25.1025 65.0902C32.1558 66.1949 40.4838 63.9005 46.6874 62.8807C64.8731 59.9914 82.9738 39.8511 70.4818 21.3255C69.377 19.6259 60.5391 11.5528 59.4343 10.788C52.296 6.1141 41.1637 3.81964 33.9404 5.77418C29.1815 7.04888 19.7488 11.7228 17.2844 13.5074C5.21723 22.5152 -0.306585 47.5843 10.6558 57.7819V57.8669ZM61.6438 29.0587C62.5786 29.0587 63.0885 28.6338 63.3435 27.9539C66.5727 28.4638 64.4482 31.3531 66.0628 32.9678C62.4936 42.8254 55.7802 57.527 40.5688 58.4617C37.5945 58.6317 31.9008 58.2068 27.8218 57.8669C24.9325 57.6969 20.9384 57.8669 21.1934 53.9578C21.7033 53.9578 21.6183 53.278 21.7032 52.8531C31.306 54.1278 44.4778 54.2977 52.211 47.8392C57.6497 43.3353 60.1991 38.2365 61.6438 28.9737V29.0587ZM55.5253 12.9975C60.7941 16.0567 57.3099 25.4895 58.8396 27.3591C54.5056 30.6733 46.0925 31.863 40.5688 26.7642C38.6992 21.4955 41.6735 16.9915 43.883 14.0172C47.5371 14.1872 51.3613 12.1477 55.5253 12.9125V12.9975ZM16.2645 29.0587C18.389 26.5943 19.2388 22.9401 25.6973 22.4302C30.0313 22.0903 36.3198 22.9401 37.3395 27.4441C39.8889 38.9163 17.2843 49.5389 11.3357 39.0863C10.4009 34.2425 15.0749 30.5883 16.3496 29.1437L16.2645 29.0587Z" fill="#FFEEE0"/>
<path d="M40.6645 26.8477C46.1882 31.9465 54.6012 30.6718 58.9352 27.4426C57.4055 25.488 60.8047 16.0553 55.621 13.081C51.4569 12.3162 47.6329 14.3557 43.9788 14.1857C41.7693 17.16 38.795 21.664 40.6645 26.9327V26.8477ZM43.9788 20.1343C46.0183 17.6699 50.0972 15.7154 54.5162 17.33C55.196 20.3892 55.366 20.8991 55.1111 24.5532C53.1566 23.5335 53.7514 19.9644 52.3067 18.4347C51.202 19.3695 49.5024 19.7094 48.9925 21.239C48.2277 24.0434 50.0972 24.1284 50.0972 26.2529C47.4628 26.2529 45.9333 25.2331 43.9788 24.5532V20.1343Z" fill="#4C1145" fill-opacity="0.6"/>
<path d="M0.750093 36.7822C2.02479 39.9264 -0.864421 44.3454 2.4498 47.8296C1.6 47.9145 0.410194 47.6596 0.240234 48.4244C3.38449 50.8038 4.40426 55.3078 6.3588 58.9619C13.752 69.3294 34.7421 73.0686 47.3192 66.1852C52.248 65.3354 55.9021 63.3809 60.3211 61.5963C61.5958 61.0864 62.9554 60.5765 64.485 60.0666C67.5443 54.9678 75.1075 51.9086 77.232 45.1102C80.4612 34.8276 77.2321 25.1399 72.8131 17.4067C63.1254 9.50359 52.5029 -2.64853 34.5722 1.34553C21.6552 4.23485 10.5228 14.2625 6.10387 23.0154C6.10387 23.1854 5.84899 23.3553 5.76401 23.5253C3.97943 28.0292 3.04455 32.4482 0.750093 36.7822ZM17.4062 13.4977C19.8706 11.7131 29.3033 7.03919 34.0622 5.76449C41.2005 3.80995 52.4179 6.01943 59.5562 10.7783C60.6609 11.5431 69.4988 19.6162 70.6036 21.3158C83.0956 39.8414 64.9949 59.9817 46.8092 62.871C40.6057 63.8908 32.2777 66.1852 25.2243 65.0805C19.2758 64.1457 15.2817 60.5765 10.7778 57.8572C-0.184618 47.5746 5.33907 22.5905 17.4062 13.5827V13.4977Z" fill="#4C1145" fill-opacity="0.6"/>
<path d="M37.2681 27.3502C36.2483 22.8463 29.9598 21.9965 25.6259 22.3364C19.2524 22.8463 18.3176 26.5004 16.1931 28.9648C14.9184 30.4095 10.2445 34.0637 11.1793 38.9075C17.2129 49.36 39.7325 38.7375 37.1831 27.2652L37.2681 27.3502ZM33.444 27.9451C34.0389 34.4036 29.9598 32.2791 30.1298 35.1684C28.3452 33.6387 29.7049 31.6842 27.9204 29.6447C26.2208 29.3898 25.9657 30.6645 24.0962 30.2396C22.2266 32.3641 22.3966 36.0182 23.5014 38.5676C20.6121 39.8423 16.0231 40.6921 14.6634 36.868C15.9381 29.4747 25.1159 23.0163 33.5289 28.0301L33.444 27.9451Z" fill="#4C1145" fill-opacity="0.6"/>
<path d="M52.248 47.8316C44.5148 54.2901 31.4279 54.0351 21.7402 52.8454C21.6552 53.2703 21.7403 53.9502 21.2304 53.9502C20.9754 57.8592 24.9695 57.6043 27.8588 57.8592C31.9378 58.1142 37.6315 58.624 40.6058 58.4541C55.8172 57.5193 62.4456 42.8178 66.0998 32.9601C64.4002 31.3455 66.6097 28.5411 63.3805 27.9463C63.1255 28.6261 62.7005 29.051 61.6808 29.051C60.2361 38.3138 57.6867 43.3276 52.248 47.9166V47.8316Z" fill="#4C1145" fill-opacity="0.6"/>
</svg>
