<svg width="77" height="38" viewBox="0 0 77 38" fill="none" xmlns="http://www.w3.org/2000/svg">
<path d="M20.2189 16.324C20.4676 24.1712 17.1513 32.8444 21.877 37.3049C30.9968 35.0747 33.6498 26.4014 42.4379 23.8408C49.5679 26.8145 55.703 30.6967 65.6519 30.8619C65.3202 28.9621 66.5638 28.4665 67.31 27.6405C64.1595 26.071 65.1544 20.7019 65.1544 17.3978C63.5792 14.7545 62.3356 11.8634 62.4185 7.15512C67.7245 2.03378 72.2015 -3.91359 77.0101 -9.53054C71.7041 -15.6431 58.1073 -15.9735 49.9824 -12.2564C42.355 -18.4516 38.1268 -25.3902 27.8463 -29.5203C25.2762 -22.1687 25.0275 -14.8997 24.0326 -5.81343C15.3274 -3.41797 6.29049 -1.27032 0.238281 4.92485C3.96909 12.4417 14.9128 11.4504 20.2189 16.2413V16.324ZM25.1104 -0.857309C25.1933 -2.26155 25.6078 -2.26155 27.2659 -2.50936C27.1001 -8.37412 28.7583 -17.13 30.4993 -22.9947C37.7122 -19.3602 43.267 -14.1562 46.7491 -6.80465C54.0449 -9.77833 61.7552 -12.6694 69.963 -8.95233C67.31 -1.84853 61.092 1.62076 56.4492 6.65949C60.0142 10.707 60.7603 20.2889 60.7603 26.071C55.7859 24.7494 50.8944 24.0886 47.2465 22.2713C45.2568 21.3627 44.5106 19.1324 42.355 19.0498C34.0643 18.6368 30.8309 30.3663 23.4522 31.4402C24.1155 27.5579 23.4522 21.1149 25.6078 14.1763C20.6334 9.63317 11.9282 8.80717 5.62723 5.58569C10.4358 1.70338 18.312 -1.76593 25.1104 -0.857309Z" fill="#4C1145" fill-opacity="0.6"/>
</svg>
