<svg width="76" height="81" viewBox="0 0 76 81" fill="none" xmlns="http://www.w3.org/2000/svg">
<path d="M34.4114 14.8363C30.6806 13.8726 28.9533 17.0391 27.6406 19.7925C28.1933 21.0315 30.3352 23.0965 32.1315 21.5821C31.9242 20.4808 35.7241 19.5171 35.3095 16.626C35.1023 15.9377 33.9278 16.2819 34.4114 14.8363Z" fill="#4C1145" fill-opacity="0.6"/>
<path d="M57.3377 25.573C59.9631 24.9535 59.6868 18.6206 57.8214 16.6244C53.3997 16.5556 51.9488 25.7795 57.3377 25.573Z" fill="#4C1145" fill-opacity="0.6"/>
<path d="M37.1359 41.2651C35.8232 39.7507 34.5796 37.7545 31.747 38.9935C29.1907 42.16 30.6415 48.8371 35.3395 45.7395C35.1323 43.4679 36.7905 42.986 37.1359 41.2651Z" fill="#4C1145" fill-opacity="0.6"/>
<path d="M17.2575 42.1685C11.5922 42.5126 11.0395 51.5988 15.4612 52.0118C19.8138 52.4249 20.0901 44.9907 17.2575 42.1685Z" fill="#4C1145" fill-opacity="0.6"/>
<path d="M22.2462 60.5487C19.3444 56.6939 15.7518 60.7552 16.3736 66.8127C19.2063 67.9141 20.5189 68.4648 22.6607 66.3997C22.5225 64.2658 22.108 64.1281 23.5589 63.2332C20.8644 63.2332 22.6607 61.1682 22.1771 60.5487H22.2462Z" fill="#4C1145" fill-opacity="0.6"/>
<path d="M1.05813 35.9037C3.47625 50.4279 5.20343 66.6042 10.9378 80.3024C18.8831 78.5815 25.792 78.5127 32.0791 75.3462C37.9516 75.3462 44.2388 74.1761 49.835 72.1799C51.0095 71.7669 52.115 71.3538 53.2204 70.872C54.6713 69.8395 55.5694 72.3175 57.2967 70.872C60.8893 61.2351 66.9691 53.9386 71.1835 44.99C71.529 44.3016 71.8744 43.751 72.1508 43.0626C73.1871 42.5808 74.2234 42.1677 74.8452 41.2728C74.8452 40.5845 74.7071 39.6208 75.2598 39.4832C74.2925 37.4869 73.4634 35.353 72.5653 33.2879C68.0054 22.6185 64.4128 11.3984 61.3038 0.93541C49.4896 -0.510129 37.8135 7.47478 23.0284 7.19944C19.0212 11.5361 15.2905 16.148 11.6288 20.8288C9.34881 23.7199 7.13792 26.6109 4.99615 29.6397C4.16708 29.7085 2.92351 35.1465 0.919922 35.9037H1.05813ZM12.8033 75.8281C9.69425 65.2275 6.2398 46.7796 4.71984 37.6934C16.1195 33.7698 31.5264 31.4983 43.8934 30.0528C46.0351 43.1315 51.4932 52.2865 52.4604 66.8107C42.3734 71.4915 25.8611 73.2813 12.8033 75.7593V75.8281ZM22.2684 13.9453C22.3375 14.2894 22.7521 14.3583 22.7521 14.8401C23.7194 15.8727 22.5448 13.9453 22.7521 13.0505C25.4466 10.3659 29.1083 11.1231 32.6318 10.3659C40.6461 8.57619 48.7296 4.79021 57.8494 4.51487C61.0966 12.4998 63.8601 21.7237 66.8309 30.0528C67.729 32.6685 70.1472 34.7335 70.009 38.5883C69.7327 43.3379 63.031 51.8735 60.0602 56.9673C58.8166 59.17 58.1257 61.7857 56.4675 63.2313C55.4312 60.0649 54.9476 52.08 51.9768 47.5369C50.3877 41.204 49.6969 30.0528 45.2061 25.0966C33.5991 29.6398 19.9885 28.8137 7.41431 33.6321C11.7669 25.7849 15.7741 19.934 22.2684 13.8765V13.9453Z" fill="#4C1145" fill-opacity="0.6"/>
</svg>
