<svg width="100" height="100" viewBox="0 0 100 100" fill="none" xmlns="http://www.w3.org/2000/svg">
<g clip-path="url(#clip0_4978_67411)">
<path d="M90 0H10C4.47715 0 0 4.47715 0 10V90C0 95.5229 4.47715 100 10 100H90C95.5229 100 100 95.5229 100 90V10C100 4.47715 95.5229 0 90 0Z" fill="#594AF1"/>
<path d="M50.0076 18.0996C55.6476 18.0996 60.5676 19.2096 64.7676 21.4296C68.9676 23.6496 72.2076 26.9496 74.4876 31.3296C76.8276 35.6496 77.9976 40.8996 77.9976 47.0796V81.9996H66.2976V65.7996H33.5376V81.9996H22.0176V47.0796C22.0176 40.8996 23.1576 35.6496 25.4376 31.3296C27.7776 26.9496 31.0476 23.6496 35.2476 21.4296C39.4476 19.2096 44.3676 18.0996 50.0076 18.0996ZM66.2976 55.9896V45.9996C66.2976 40.1796 64.8576 35.7996 61.9776 32.8596C59.0976 29.8596 55.0776 28.3596 49.9176 28.3596C44.7576 28.3596 40.7376 29.8596 37.8576 32.8596C34.9776 35.7996 33.5376 40.1796 33.5376 45.9996V55.9896H66.2976Z" fill="white"/>
</g>
<defs>
<clipPath id="clip0_4978_67411">
<rect width="100" height="100" fill="white"/>
</clipPath>
</defs>
</svg>
