<svg viewBox="0 0 220 160" fill="none" xmlns="http://www.w3.org/2000/svg">
<circle cx="110" cy="80" r="80" fill="#EBE9EB"/>
<circle cx="26" cy="20" r="8" fill="#F5F5F5"/>
<circle cx="198" cy="126" r="6" fill="#F5F5F5"/>
<circle cx="25" cy="138" r="10" fill="#F5F5F5"/>
<circle cx="210" cy="46" r="10" fill="#F5F5F5"/>
<circle cx="191" cy="11" r="7" fill="#F5F5F5"/>
<g filter="url(#filter0_ddd_4513_43392)">
<path fill-rule="evenodd" clip-rule="evenodd" d="M113.486 16C96.7495 16 81.9448 24.2701 72.9354 36.9466C69.9934 36.2528 66.9253 35.8857 63.7714 35.8857C41.8063 35.8857 24 53.692 24 75.6571C24 97.6223 41.8063 115.429 63.7714 115.429H163.2C182.42 115.429 198 99.8481 198 80.6286C198 61.4091 182.42 45.8286 163.2 45.8286C161.835 45.8286 160.488 45.9072 159.164 46.0601C151.546 28.3784 133.961 16 113.486 16Z" fill="#FAFAFA"/>
<circle cx="63.7714" cy="75.6571" r="39.7714" fill="url(#paint0_linear_4513_43392)"/>
<circle cx="113.486" cy="65.7143" r="49.7143" fill="url(#paint1_linear_4513_43392)"/>
<circle cx="163.2" cy="80.6286" r="34.8" fill="url(#paint2_linear_4513_43392)"/>
</g>
<path d="M82 115C82 99.536 94.536 87 110 87C125.464 87 138 99.536 138 115C138 130.464 125.464 143 110 143C94.536 143 82 130.464 82 115Z" fill="#F5F4F5"/>
<path d="M110 110.333V115M110 119.667H110.012M121.667 115C121.667 121.443 116.443 126.667 110 126.667C103.557 126.667 98.3333 121.443 98.3333 115C98.3333 108.557 103.557 103.333 110 103.333C116.443 103.333 121.667 108.557 121.667 115Z" stroke="#625362" stroke-width="1.5" stroke-linecap="round" stroke-linejoin="round"/>
<defs>
<filter id="filter0_ddd_4513_43392" x="4" y="16" width="214" height="139.429" filterUnits="userSpaceOnUse" color-interpolation-filters="sRGB">
<feFlood flood-opacity="0" result="BackgroundImageFix"/>
<feColorMatrix in="SourceAlpha" type="matrix" values="0 0 0 0 0 0 0 0 0 0 0 0 0 0 0 0 0 0 127 0" result="hardAlpha"/>
<feMorphology radius="1.5" operator="erode" in="SourceAlpha" result="effect1_dropShadow_4513_43392"/>
<feOffset dy="3"/>
<feGaussianBlur stdDeviation="1.5"/>
<feComposite in2="hardAlpha" operator="out"/>
<feColorMatrix type="matrix" values="0 0 0 0 0.0392157 0 0 0 0 0.0496732 0 0 0 0 0.0705882 0 0 0 0.04 0"/>
<feBlend mode="normal" in2="BackgroundImageFix" result="effect1_dropShadow_4513_43392"/>
<feColorMatrix in="SourceAlpha" type="matrix" values="0 0 0 0 0 0 0 0 0 0 0 0 0 0 0 0 0 0 127 0" result="hardAlpha"/>
<feMorphology radius="4" operator="erode" in="SourceAlpha" result="effect2_dropShadow_4513_43392"/>
<feOffset dy="8"/>
<feGaussianBlur stdDeviation="4"/>
<feComposite in2="hardAlpha" operator="out"/>
<feColorMatrix type="matrix" values="0 0 0 0 0.0392157 0 0 0 0 0.0496732 0 0 0 0 0.0705882 0 0 0 0.03 0"/>
<feBlend mode="normal" in2="effect1_dropShadow_4513_43392" result="effect2_dropShadow_4513_43392"/>
<feColorMatrix in="SourceAlpha" type="matrix" values="0 0 0 0 0 0 0 0 0 0 0 0 0 0 0 0 0 0 127 0" result="hardAlpha"/>
<feMorphology radius="4" operator="erode" in="SourceAlpha" result="effect3_dropShadow_4513_43392"/>
<feOffset dy="20"/>
<feGaussianBlur stdDeviation="12"/>
<feComposite in2="hardAlpha" operator="out"/>
<feColorMatrix type="matrix" values="0 0 0 0 0.0392157 0 0 0 0 0.0496732 0 0 0 0 0.0705882 0 0 0 0.08 0"/>
<feBlend mode="normal" in2="effect2_dropShadow_4513_43392" result="effect3_dropShadow_4513_43392"/>
<feBlend mode="normal" in="SourceGraphic" in2="effect3_dropShadow_4513_43392" result="shape"/>
</filter>
<linearGradient id="paint0_linear_4513_43392" x1="33.2326" y1="49.3796" x2="103.543" y2="115.429" gradientUnits="userSpaceOnUse">
<stop stop-color="#F5F4F5"/>
<stop offset="0.350715" stop-color="white"/>
</linearGradient>
<linearGradient id="paint1_linear_4513_43392" x1="75.3122" y1="32.8673" x2="163.2" y2="115.428" gradientUnits="userSpaceOnUse">
<stop stop-color="#F5F4F5"/>
<stop offset="0.350715" stop-color="white"/>
</linearGradient>
<linearGradient id="paint2_linear_4513_43392" x1="136.479" y1="57.6357" x2="198" y2="115.429" gradientUnits="userSpaceOnUse">
<stop stop-color="#F5F4F5"/>
<stop offset="0.350715" stop-color="white"/>
</linearGradient>
</defs>
</svg>
