<svg width="1440" height="994" viewBox="0 0 1440 994" fill="none" xmlns="http://www.w3.org/2000/svg">
<g opacity="0.16" clip-path="url(#clip0_4921_65999)">
<path d="M2660.89 62.6502V65.6102C2446.32 64.9702 2231.73 64.6702 2017.14 64.7002C1632.65 64.7602 1248.15 65.8902 863.66 68.1002C477.19 70.3202 90.74 73.6302 -295.7 78.0202C-295.81 78.0202 -295.91 78.0202 -296.01 77.9902C-297.51 77.7302 -297.51 75.3902 -296.01 75.1002C-295.91 75.0702 -295.81 75.0602 -295.7 75.0602C-78.82 72.6002 138.07 70.4702 354.95 68.6902C739.43 65.5302 1123.93 63.4502 1508.42 62.4402C1892.57 61.4402 2276.73 61.5102 2660.88 62.6502H2660.89Z" fill="#116069"/>
<path d="M2660.89 681.27V684.22C2453.25 671.99 2245.42 662.93 2037.5 657.12C1642.57 646.1 1247.3 646.68 852.4 658.87C469.05 670.71 86.05 693.54 -296 727.2V724.24C-86.64 705.79 123 690.57 332.83 678.66C727.29 656.29 1122.41 645.5 1517.5 646.34C1898.87 647.15 2280.19 658.83 2660.89 681.25V681.27Z" fill="#116069"/>
<path d="M2660.89 391.27V394.23C2448.89 377.28 2236.14 372.83 2023.53 371.4C1631.58 368.77 1239.57 371.54 847.68 378.39C466.35 385.05 85.09 396 -296.01 411.19V408.24C-86.84 399.89 122.39 392.82 331.65 387.05C723.63 376.24 1115.72 369.94 1507.83 368.15C1703.62 367.26 1899.44 367.02 2095.22 369.05C2283.94 371.01 2472.72 376.23 2660.88 391.28L2660.89 391.27Z" fill="#116069"/>
<path d="M2659.46 212.62C2441.41 208.04 2223.35 204.74 2005.26 202.78C1618.66 199.3 1232.01 199.97 845.42 204.78C464.87 209.52 84.37 218.28 -296 231.04V228.08C-86.05 221.04 123.95 215.21 333.97 210.6C720.49 202.13 1107.11 197.82 1493.74 197.64C1882.35 197.45 2270.95 201.48 2659.47 209.65C2661.37 209.69 2661.37 212.65 2659.47 212.61L2659.46 212.62Z" fill="#116069"/>
<path d="M2663.42 551.69C2662.57 551.65 2661.73 551.61 2660.89 551.57C2444.13 541.19 2227.24 533.59 2010.28 528.87C1622.2 520.4 1233.93 521.01 845.88 530.69C465.01 540.19 84.48 559.16 -296 578.37V575.41C-85.85 564.79 124.29 554.24 334.51 545.32C722.6 528.86 1110.91 519.5 1499.38 520C1886.7 520.5 2274.01 530.08 2660.9 548.6C2661.75 548.64 2662.59 548.68 2663.43 548.72C2665.32 548.81 2665.33 551.77 2663.43 551.68L2663.42 551.69Z" fill="#116069"/>
<path d="M2660.89 822.66V825.62C2455.12 814.64 2249.18 806.88 2043.18 802.42C1649.62 793.88 1255.8 797.26 862.44 812.51C475.61 827.51 89.25 854.08 -296 892.01V889.04C-81.77 867.95 132.8 850.35 347.61 836.33C740.43 810.69 1134.02 796.94 1527.67 795.09C1905.58 793.31 2283.52 802.54 2660.9 822.66H2660.89Z" fill="#116069"/>
<path d="M2660.89 937.12V940.08C2447.61 938.99 2234.32 939.3 2021.04 941.08C1632.09 944.3 1243.18 952.33 854.43 965.13C470.76 977.78 87.25 995.09 -296 1017.04V1014.08C-83.14 1001.89 129.8 991.1 342.81 981.79C731.41 964.79 1120.2 952.57 1509.09 945.13C1892.97 937.8 2276.95 935.15 2660.9 937.12H2660.89Z" fill="#116069"/>
<path d="M1216.73 2944.89H1213.78C1213.15 2892.75 1212.5 2840.61 1211.84 2788.47C1211.84 2787.48 1211.82 2786.5 1211.8 2785.51C1211.1 2729.24 1210.38 2672.98 1209.64 2616.72C1209.64 2615.73 1209.64 2614.75 1209.6 2613.76C1209.01 2567.28 1208.4 2520.79 1207.78 2474.3C1207.78 2473.31 1207.76 2472.33 1207.74 2471.34C1207.24 2433.23 1206.72 2395.11 1206.21 2357C1206.12 2350.59 1206.03 2344.2 1205.94 2337.79C1205.94 2336.8 1205.92 2335.82 1205.9 2334.83C1205.51 2305.41 1205.1 2275.98 1204.69 2246.56C1204.69 2245.57 1204.67 2244.59 1204.65 2243.6C1204.17 2208.31 1203.67 2173.04 1203.18 2137.76C1203.18 2136.75 1203.15 2135.78 1203.13 2134.79C1202.55 2093.17 1201.97 2051.54 1201.36 2009.92C1201.36 2008.92 1201.34 2007.93 1201.32 2006.94C1200.8 1969.73 1200.26 1932.53 1199.71 1895.33C1199.69 1894.34 1199.68 1893.36 1199.66 1892.37C1199.28 1865.69 1198.88 1839.01 1198.49 1812.32C1198.49 1811.33 1198.46 1810.35 1198.44 1809.36C1198.02 1779.95 1197.57 1750.54 1197.14 1721.12C1197.12 1720.14 1197.11 1719.16 1197.09 1718.17C1196.53 1680.56 1195.96 1642.95 1195.38 1605.33C1195.38 1604.47 1195.36 1603.61 1195.34 1602.75C1194.83 1568.78 1194.31 1534.79 1193.77 1500.81C1193.77 1499.82 1193.74 1498.84 1193.72 1497.84C1193.2 1463.51 1192.67 1429.17 1192.11 1394.83C1192.11 1393.84 1192.09 1392.86 1192.06 1391.87C1191.54 1357.73 1191 1323.59 1190.45 1289.45C1190.43 1288.49 1190.41 1287.54 1190.4 1286.59C1189.78 1247.58 1189.15 1208.57 1188.51 1169.56C1188.51 1168.57 1188.49 1167.58 1188.47 1166.59C1188.28 1154.89 1188.09 1143.19 1187.9 1131.49C1187.55 1110.22 1187.2 1088.95 1186.85 1067.68C1186.85 1066.69 1186.83 1065.71 1186.8 1064.72C1186.21 1028.26 1185.61 991.81 1184.99 955.35C1184.99 954.37 1184.96 953.39 1184.94 952.4C1184.11 902.5 1183.27 852.59 1182.42 802.68C1182.42 801.69 1182.39 800.71 1182.37 799.73C1181.53 750.28 1180.67 700.83 1179.82 651.39C1179.8 650.39 1179.78 649.41 1179.76 648.42C1179.05 607.14 1178.32 565.86 1177.59 524.59C1177.59 523.64 1177.56 522.7 1177.54 521.75C1176.67 472.37 1175.79 422.99 1174.9 373.6C1174.88 372.63 1174.86 371.67 1174.84 370.7C1173.83 314.35 1172.8 258 1171.76 201.65C1171.74 200.66 1171.73 199.68 1171.7 198.69C1170.89 154.63 1170.07 110.57 1169.25 66.5199C1169.25 65.5299 1169.22 64.5499 1169.2 63.5599C1168.73 38.3499 1168.25 13.1499 1167.77 -12.0601H1170.73C1171.21 13.1399 1171.69 38.3499 1172.16 63.5499C1172.18 64.5399 1172.2 65.5199 1172.21 66.5099C1173.04 110.56 1173.86 154.62 1174.66 198.67C1174.68 199.66 1174.7 200.64 1174.72 201.63C1175.75 257.98 1176.78 314.32 1177.8 370.67C1177.82 371.64 1177.84 372.6 1177.85 373.57C1178.75 422.95 1179.63 472.34 1180.49 521.72C1180.52 522.67 1180.54 523.61 1180.54 524.56C1180.94 546.71 1181.34 568.86 1181.72 591.01C1182.06 610.13 1182.39 629.26 1182.72 648.38C1182.74 649.37 1182.76 650.35 1182.77 651.35C1183.64 700.79 1184.49 750.23 1185.33 799.67C1185.35 800.65 1185.36 801.63 1185.38 802.62C1186.23 852.51 1187.08 902.42 1187.9 952.32C1187.92 953.31 1187.94 954.29 1187.95 955.28C1188.56 991.74 1189.17 1028.2 1189.76 1064.66C1189.78 1065.65 1189.8 1066.63 1189.81 1067.62C1190.36 1100.6 1190.89 1133.59 1191.43 1166.57C1191.45 1167.56 1191.47 1168.55 1191.48 1169.54C1192.12 1208.55 1192.74 1247.56 1193.36 1286.57C1193.38 1287.52 1193.4 1288.47 1193.41 1289.42C1193.96 1323.54 1194.49 1357.66 1195.03 1391.78C1195.05 1392.77 1195.07 1393.75 1195.08 1394.74C1195.62 1429.09 1196.16 1463.44 1196.69 1497.79C1196.71 1498.78 1196.73 1499.76 1196.74 1500.75C1197.27 1534.75 1197.79 1568.76 1198.31 1602.76C1198.33 1603.62 1198.34 1604.48 1198.35 1605.34C1198.93 1642.93 1199.49 1680.52 1200.06 1718.12C1200.08 1719.11 1200.09 1720.09 1200.1 1721.08C1200.55 1750.48 1200.99 1779.89 1201.42 1809.29C1201.44 1810.28 1201.45 1811.25 1201.47 1812.24C1201.49 1813.67 1201.51 1815.09 1201.53 1816.52C1201.9 1841.78 1202.27 1867.05 1202.63 1892.32C1202.65 1893.31 1202.67 1894.28 1202.68 1895.27C1203.22 1932.49 1203.76 1969.69 1204.29 2006.91C1204.31 2007.9 1204.33 2008.89 1204.34 2009.89C1204.94 2051.51 1205.53 2093.14 1206.1 2134.76C1206.12 2135.75 1206.14 2136.73 1206.15 2137.73C1206.64 2173.01 1207.14 2208.28 1207.62 2243.56C1207.64 2244.55 1207.65 2245.53 1207.66 2246.52C1208.07 2275.94 1208.48 2305.36 1208.87 2334.78C1208.89 2335.77 1208.9 2336.75 1208.91 2337.74C1209.52 2382.27 1210.12 2426.8 1210.7 2471.33C1210.72 2472.32 1210.73 2473.3 1210.74 2474.29C1211.36 2520.78 1211.97 2567.27 1212.57 2613.77C1212.59 2614.76 1212.6 2615.75 1212.61 2616.74C1213.34 2672.99 1214.06 2729.25 1214.76 2785.5C1214.78 2786.49 1214.79 2787.47 1214.8 2788.46C1215.46 2840.61 1216.1 2892.76 1216.73 2944.91V2944.89Z" fill="#116069"/>
<path d="M417.5 -12C416.57 14.74 415.65 41.48 414.72 68.21C414.69 69.21 414.65 70.19 414.62 71.18C413.03 117.12 411.44 163.06 409.85 209C409.82 210 409.78 210.98 409.75 211.97C407.75 269.69 405.76 327.41 403.76 385.13C403.72 386.13 403.69 387.11 403.66 388.1C401.88 439.64 400.09 491.18 398.31 542.71C398.27 543.71 398.24 544.7 398.2 545.7C397.69 560.55 397.17 575.41 396.66 590.26C395.67 618.63 394.66 646.98 393.64 675.35C393.6 676.35 393.56 677.34 393.53 678.33C391.66 730.13 389.76 781.95 388.03 833.76C387.99 834.76 387.96 835.75 387.93 836.75C386.33 884.51 384.86 932.28 383.67 980.05C383.64 981.04 383.62 982.02 383.6 983.01C382.7 1019.08 381.96 1055.17 381.43 1091.24C381.43 1092.24 381.4 1093.23 381.39 1094.22C380.97 1124.14 380.69 1154.07 380.59 1183.99C380.59 1184.98 380.59 1185.97 380.59 1186.97C380.57 1192.2 380.56 1197.45 380.56 1202.68C380.54 1234.82 380.83 1266.95 381.32 1299.07C381.34 1300.07 381.35 1301.07 381.37 1302.07C381.98 1340.64 382.9 1379.21 383.96 1417.76C383.98 1418.75 384.01 1419.73 384.04 1420.72C384.92 1452.49 385.89 1484.25 386.88 1516.01C386.91 1517 386.94 1517.98 386.97 1518.97C387.94 1549.98 388.9 1581 389.79 1612C389.82 1613.01 389.85 1614 389.87 1615.01C391.09 1657.88 392.16 1700.76 392.85 1743.63C392.87 1744.62 392.89 1745.6 392.9 1746.59C393.24 1768.48 393.49 1790.37 393.61 1812.26C393.66 1821.87 393.7 1831.48 393.71 1841.09C393.71 1842.08 393.71 1843.06 393.71 1844.05C393.76 1869.87 393.68 1895.7 393.49 1921.52C393.49 1922.52 393.49 1923.5 393.47 1924.5C393.21 1958.58 392.77 1992.67 392.15 2026.75C392.13 2027.74 392.11 2028.72 392.09 2029.71C391.31 2071.93 390.26 2114.15 388.98 2156.35C388.95 2157.34 388.92 2158.33 388.88 2159.32C387.8 2194.93 386.53 2230.53 385.13 2266.13C385.09 2267.13 385.05 2268.11 385.01 2269.11C383.77 2300.3 382.42 2331.48 380.97 2362.67C380.93 2363.66 380.88 2364.65 380.83 2365.64C378.86 2408.15 376.69 2450.65 374.38 2493.15C374.33 2494.15 374.27 2495.14 374.22 2496.14C371.81 2540.44 369.23 2584.73 366.54 2629.01C366.48 2630.01 366.42 2631 366.35 2631.99C362.92 2688.46 359.28 2744.9 355.54 2801.35C355.47 2802.34 355.4 2803.33 355.34 2804.32C352.23 2851.2 349.03 2898.07 345.81 2944.94H342.85C346.07 2898.09 349.26 2851.25 352.37 2804.4C352.44 2803.4 352.5 2802.42 352.56 2801.43C356.32 2744.99 359.95 2688.55 363.39 2632.09C363.45 2631.09 363.51 2630.1 363.57 2629.11C366.26 2584.84 368.83 2540.55 371.24 2496.27C371.3 2495.27 371.35 2494.28 371.4 2493.28C373.72 2450.79 375.87 2408.29 377.86 2365.78C377.91 2364.78 377.96 2363.8 378 2362.8C378.2 2358.52 378.39 2354.25 378.59 2349.98C379.81 2323.06 380.97 2296.14 382.03 2269.23C382.07 2268.23 382.11 2267.24 382.15 2266.25C383.55 2230.65 384.81 2195.05 385.91 2159.44C385.94 2158.45 385.97 2157.47 386 2156.47C387.28 2114.27 388.34 2072.04 389.12 2029.82C389.14 2028.82 389.15 2027.84 389.18 2026.85C389.79 1992.79 390.24 1958.72 390.5 1924.65C390.5 1923.65 390.52 1922.67 390.52 1921.67C390.72 1895.85 390.79 1870.02 390.75 1844.2V1841.24C390.68 1809.74 390.44 1778.23 390.01 1746.73C390.01 1745.74 389.99 1744.76 389.97 1743.77C389.94 1741.58 389.91 1739.4 389.88 1737.22C389.28 1696.5 388.35 1655.8 387.28 1615.11C387.25 1614.1 387.22 1613.1 387.19 1612.1C386.37 1581.08 385.46 1550.06 384.54 1519.05C384.51 1518.06 384.48 1517.08 384.45 1516.08C383.5 1484.32 382.55 1452.57 381.68 1420.81C381.65 1419.82 381.62 1418.84 381.59 1417.85C380.53 1379.29 379.58 1340.72 378.9 1302.15C378.88 1301.15 378.86 1300.15 378.85 1299.15C378.19 1261.8 377.79 1224.46 377.77 1187.09C377.77 1186.09 377.77 1185.1 377.77 1184.1C377.77 1165.3 377.86 1146.51 378.07 1127.7C378.19 1116.58 378.34 1105.47 378.5 1094.36C378.5 1093.36 378.52 1092.38 378.54 1091.38C379.07 1055.3 379.79 1019.21 380.67 983.14C380.69 982.14 380.71 981.16 380.74 980.17C381.9 932.42 383.31 884.68 384.87 836.94C384.9 835.94 384.94 834.96 384.97 833.96C386.67 782.14 388.54 730.31 390.42 678.5C390.46 677.5 390.5 676.52 390.53 675.52C392.12 632.28 393.71 589.05 395.23 545.82C395.28 544.82 395.31 543.83 395.34 542.83C395.68 533.62 396 524.41 396.32 515.2C397.79 472.86 399.25 430.52 400.72 388.18C400.75 387.19 400.78 386.21 400.82 385.21C402.81 327.49 404.81 269.76 406.81 212.03C406.84 211.04 406.87 210.06 406.91 209.06C408.5 163.11 410.08 117.16 411.68 71.2C411.71 70.21 411.75 69.23 411.78 68.24C412.71 41.5 413.63 14.75 414.56 -12H417.52L417.5 -12Z" fill="#116069"/>
<path d="M797.03 2346.41C797.03 2347.4 797.03 2348.37 797.03 2349.36C796.9 2392.5 796.63 2435.62 796.17 2478.75C796.17 2479.74 796.15 2480.73 796.14 2481.72C795.66 2527.06 794.98 2572.41 794.09 2617.74C794.07 2618.74 794.05 2619.73 794.02 2620.72C792.9 2677.68 791.42 2734.64 789.54 2791.58C789.51 2792.57 789.48 2793.55 789.44 2794.54C787.78 2844.67 785.8 2894.79 783.48 2944.91H780.52C782.86 2894.82 784.84 2844.72 786.5 2794.6C786.54 2793.61 786.57 2792.63 786.6 2791.64C788.48 2734.7 789.97 2677.74 791.1 2620.77C791.12 2619.77 791.14 2618.79 791.16 2617.79C792.06 2572.46 792.73 2527.13 793.21 2481.79C793.23 2480.8 793.24 2479.81 793.24 2478.82C793.68 2437.63 793.95 2396.44 794.09 2355.25C794.09 2353.32 794.09 2351.4 794.09 2349.46C794.09 2348.46 794.09 2347.49 794.09 2346.5C794.19 2316.36 794.21 2286.22 794.17 2256.07V2253.1C794.13 2217.61 794 2182.11 793.81 2146.62C793.81 2145.63 793.81 2144.65 793.81 2143.66C793.58 2101.94 793.26 2060.24 792.84 2018.51C792.84 2017.52 792.82 2016.54 792.81 2015.56C792.47 1979.6 792.05 1943.64 791.59 1907.68C791.59 1906.69 791.57 1905.71 791.55 1904.72C791.22 1878.72 790.86 1852.72 790.48 1826.72C790.46 1825.73 790.45 1824.75 790.44 1823.76C789.98 1793.01 789.49 1762.26 788.99 1731.5C788.97 1730.51 788.96 1729.54 788.94 1728.55C788.27 1687.85 787.55 1647.16 786.8 1606.47C786.8 1605.47 786.77 1604.48 786.75 1603.49C786.18 1572.04 785.59 1540.59 785 1509.15C784.98 1508.16 784.96 1507.18 784.94 1506.19C784.31 1473.38 783.68 1440.57 783.05 1407.76C783.03 1406.77 783.01 1405.8 782.99 1404.81C782.27 1367.91 781.55 1331 780.85 1294.09C780.83 1293.06 780.81 1292.01 780.79 1290.98C780.04 1252.36 779.31 1213.75 778.61 1175.13L778.55 1172.17C778.31 1159.11 778.08 1146.04 777.84 1132.98C777.51 1114.82 777.19 1096.66 776.86 1078.5C776.86 1077.51 776.83 1076.53 776.81 1075.54C776.17 1039.61 775.53 1003.7 774.89 967.77C774.87 966.78 774.85 965.8 774.83 964.81C773.95 915.27 773.07 865.72 772.18 816.18C772.18 815.2 772.15 814.22 772.13 813.23C771.23 762.68 770.33 712.12 769.42 661.57C769.42 660.58 769.39 659.6 769.37 658.61C768.62 616.66 767.87 574.7 767.12 532.74C767.12 531.83 767.09 530.93 767.07 530.02C766.18 479.97 765.29 429.92 764.39 379.86C764.39 378.87 764.36 377.89 764.34 376.89C763.32 319.87 762.3 262.85 761.28 205.83C761.26 204.84 761.24 203.86 761.22 202.87C760.43 158.14 759.63 113.4 758.82 68.6797C758.82 67.6797 758.79 66.6997 758.77 65.6997C758.31 39.7797 757.84 13.8597 757.38 -12.0703H760.34C760.8 13.8397 761.27 39.7597 761.73 65.6797C761.75 66.6797 761.76 67.6597 761.78 68.6597C762.58 113.39 763.38 158.11 764.18 202.83C764.18 203.82 764.21 204.8 764.23 205.79C765.25 262.81 766.26 319.82 767.29 376.84C767.29 377.83 767.32 378.81 767.34 379.8C768.24 429.85 769.12 479.89 770.02 529.94C770.04 530.85 770.06 531.75 770.07 532.66C770.44 553.58 770.82 574.48 771.19 595.4C771.56 616.43 771.94 637.48 772.32 658.51C772.32 659.5 772.35 660.47 772.38 661.46C773.28 712 774.2 762.55 775.13 813.09C775.13 814.08 775.16 815.06 775.18 816.05C776.09 865.61 776.99 915.16 777.91 964.71C777.93 965.7 777.95 966.67 777.96 967.66C778.62 1003.59 779.28 1039.5 779.94 1075.43C779.96 1076.42 779.98 1077.4 779.99 1078.39C780.57 1109.62 781.14 1140.87 781.7 1172.1C781.72 1173.09 781.74 1174.06 781.76 1175.05C782.47 1213.68 783.17 1252.3 783.86 1290.93C783.88 1291.96 783.9 1293 783.91 1294.03C784.58 1330.91 785.24 1367.8 785.89 1404.7C785.91 1405.69 785.93 1406.67 785.94 1407.66C786.52 1440.48 787.09 1473.3 787.66 1506.12C787.68 1507.1 787.69 1508.08 787.71 1509.07C788.25 1540.53 788.79 1571.99 789.33 1603.45C789.33 1604.45 789.36 1605.44 789.38 1606.43C790.06 1647.11 790.74 1687.78 791.4 1728.46C791.4 1729.45 791.43 1730.42 791.45 1731.41C791.92 1760.8 792.39 1790.2 792.85 1819.59C792.87 1820.94 792.89 1822.29 792.91 1823.64C792.93 1824.63 792.95 1825.61 792.96 1826.6C793.36 1852.6 793.75 1878.61 794.11 1904.61C794.11 1905.6 794.13 1906.58 794.15 1907.57C794.64 1943.54 795.1 1979.5 795.48 2015.47C795.5 2016.45 795.51 2017.43 795.52 2018.41C795.97 2060.14 796.35 2101.84 796.61 2143.57C796.61 2144.56 796.61 2145.54 796.63 2146.53C796.85 2182.01 797 2217.51 797.06 2253V2255.97C797.11 2286.11 797.09 2316.24 797 2346.38L797.03 2346.41Z" fill="#116069"/>
<path d="M97.0399 2944.89H94.0499C92.2799 2900.6 90.4599 2856.31 88.6499 2812.02C88.6099 2811.03 88.5699 2810.06 88.5299 2809.07C86.2799 2753.85 84.0299 2698.65 81.8499 2643.44C81.7999 2642.45 81.7599 2641.47 81.7299 2640.48C80.0099 2597.1 78.3399 2553.73 76.7399 2510.36C76.7099 2509.37 76.6699 2508.39 76.6299 2507.4C75.0799 2465.12 73.6099 2422.84 72.2299 2380.55C72.1999 2379.55 72.1699 2378.57 72.1399 2377.58C71.6999 2363.94 71.2599 2350.29 70.8499 2336.64C70.2899 2318.27 69.7899 2299.9 69.3699 2281.51C69.3499 2280.52 69.3199 2279.53 69.2999 2278.54C68.5099 2243.04 68.0399 2207.54 68.0199 2172.03V2169.06C68.0199 2126.01 68.7099 2082.95 70.3299 2039.9C70.3599 2038.89 70.3999 2037.92 70.4399 2036.93C70.4899 2035.76 70.5299 2034.59 70.5799 2033.42C71.7999 2002.65 73.3999 1971.91 75.1699 1941.16C75.2299 1940.16 75.2799 1939.18 75.3399 1938.19C76.8799 1911.65 78.5299 1885.12 80.1699 1858.59C80.2299 1857.54 80.2999 1856.48 80.3599 1855.44C82.2799 1824.15 84.1699 1792.84 85.7899 1761.54C85.8499 1760.54 85.8999 1759.56 85.9499 1758.56C86.5299 1747.14 87.0799 1735.71 87.5899 1724.29C88.9799 1692.59 89.8099 1660.91 90.1699 1629.24C90.1899 1628.23 90.1999 1627.23 90.2099 1626.23C90.5599 1593.21 90.4299 1560.21 89.8999 1527.21C89.8999 1526.22 89.8699 1525.24 89.8499 1524.24C89.3499 1492.99 88.4999 1461.74 87.4199 1430.51C87.3799 1429.51 87.3499 1428.53 87.3099 1427.54C85.9599 1389.09 84.2499 1350.64 82.3699 1312.2C82.3299 1311.2 82.2799 1310.21 82.2299 1309.21C80.4699 1273.2 78.5499 1237.2 76.6599 1201.19C76.5999 1200.19 76.5499 1199.21 76.4999 1198.21C75.1599 1172.93 73.8399 1147.66 72.5699 1122.38C72.3599 1118.24 72.1599 1114.09 71.9499 1109.95C71.8999 1108.96 71.8499 1107.98 71.7999 1106.99C70.0299 1070.53 68.4199 1034.06 67.1699 997.58C67.1299 996.59 67.0999 995.61 67.0699 994.61C65.5399 949.69 64.5799 904.76 64.4799 859.82C64.4799 858.83 64.4799 857.84 64.4799 856.84C64.4499 843.06 64.5199 829.27 64.6799 815.49C65.1199 776.44 66.2899 737.41 67.8999 698.4C67.9399 697.4 67.9799 696.42 68.0199 695.42C69.9199 650.25 72.4299 605.11 75.1399 559.98C75.1899 558.98 75.2599 557.99 75.3199 556.99C76.1699 542.86 77.0399 528.72 77.9099 514.59C80.3199 475.55 82.7899 436.46 85.0399 397.36C85.0999 396.37 85.1599 395.38 85.2099 394.39C88.5499 336.07 91.4099 277.69 92.9299 219.32C92.9599 218.33 92.9799 217.35 93.0099 216.36C94.1999 168.87 94.5199 121.37 93.4699 73.8997C93.4499 72.9097 93.4199 71.9297 93.3999 70.9397C92.7599 43.2597 91.6599 15.5897 89.9999 -12.0703H92.9599C94.6199 15.5897 95.7099 43.2397 96.3499 70.9097C96.3799 71.8997 96.3999 72.8797 96.4199 73.8697C97.4599 121.33 97.1499 168.81 95.9499 216.28C95.9299 217.27 95.8999 218.25 95.8699 219.24C94.3499 277.6 91.4899 335.97 88.1499 394.3C88.0999 395.29 88.0399 396.27 87.9799 397.26C84.9199 450.49 81.4699 503.7 78.2799 556.85C78.2199 557.85 78.1599 558.83 78.0999 559.83C77.5299 569.31 76.9699 578.79 76.4199 588.28C74.3699 623.91 72.5399 659.55 71.0699 695.2C71.0299 696.2 70.9799 697.19 70.9499 698.19C68.7999 750.96 67.4799 803.77 67.4599 856.6V859.58C67.4599 869.44 67.5199 879.3 67.6199 889.17C67.9699 924.28 68.8299 959.38 70.0199 994.47C70.0499 995.46 70.0899 996.45 70.1199 997.44C71.3699 1033.91 72.9799 1070.38 74.7699 1106.84C74.8199 1107.83 74.8699 1108.81 74.9199 1109.8C76.3299 1138.54 77.8599 1167.28 79.3899 1196.02C79.4299 1196.7 79.4599 1197.39 79.4999 1198.07C79.5599 1199.06 79.6099 1200.05 79.6599 1201.04C81.5899 1237.09 83.4299 1273.11 85.0799 1309.1C85.1199 1310.1 85.1699 1311.09 85.2099 1312.09C86.9599 1350.57 88.4899 1389.02 89.6799 1427.47C89.7099 1428.46 89.7399 1429.45 89.7699 1430.44C90.7299 1461.69 91.4499 1492.94 91.8899 1524.19C91.8899 1525.18 91.9199 1526.16 91.9299 1527.16C92.3699 1560.13 92.4899 1593.12 92.2099 1626.12C92.2099 1627.12 92.2099 1628.12 92.1899 1629.12C91.7999 1672.18 90.7099 1715.27 88.7799 1758.42C88.7399 1759.42 88.6899 1760.41 88.6399 1761.4C88.0799 1773.77 87.4499 1786.14 86.7399 1798.51C85.6599 1817.44 84.5099 1836.38 83.3599 1855.31C83.2899 1856.36 83.2299 1857.42 83.1599 1858.47C81.5399 1884.98 79.8999 1911.51 78.3799 1938.03C78.3199 1939.03 78.2599 1940.01 78.2099 1941.01C76.3799 1972.94 74.7199 2004.88 73.4699 2036.84C73.4299 2037.83 73.3899 2038.81 73.3599 2039.8C72.4799 2062.41 71.8199 2085.04 71.4399 2107.68C71.0999 2128.1 70.9399 2148.52 70.9399 2168.95C70.9399 2169.94 70.9399 2170.92 70.9399 2171.91C70.9599 2207.41 71.4499 2242.91 72.2599 2278.42C72.2799 2279.43 72.2999 2280.4 72.3299 2281.39C73.0599 2313.41 74.0399 2345.42 75.1599 2377.43C75.1899 2378.42 75.2199 2379.4 75.2599 2380.39C75.6099 2390.56 75.9799 2400.72 76.3499 2410.9C77.5299 2443.01 78.7499 2475.12 79.9699 2507.24C79.9999 2508.23 80.0399 2509.21 80.0899 2510.2C81.7299 2553.59 83.3999 2596.97 85.0899 2640.34C85.1299 2641.33 85.1699 2642.32 85.1999 2643.31C87.3599 2698.53 89.5299 2753.76 91.7099 2808.97C91.7499 2809.96 91.7899 2810.94 91.8299 2811.93C93.5699 2856.25 95.3199 2900.58 97.0499 2944.9L97.0399 2944.89Z" fill="#116069"/>
<path d="M581.72 2024.13C581.75 2066.03 581.72 2107.93 581.62 2149.83C581.62 2150.82 581.62 2151.8 581.62 2152.79C581.54 2188.35 581.41 2223.89 581.25 2259.45C581.25 2260.44 581.25 2261.42 581.23 2262.41C581.08 2293.05 580.89 2323.67 580.67 2354.3C580.67 2355.29 580.67 2356.27 580.65 2357.26C580.34 2399.95 579.97 2442.63 579.53 2485.29C579.53 2486.29 579.51 2487.27 579.5 2488.26C579.04 2533.02 578.49 2577.78 577.88 2622.53C577.88 2623.52 577.86 2624.51 577.84 2625.5C577.06 2682.32 576.16 2739.14 575.16 2795.96C575.14 2796.95 575.12 2797.93 575.1 2798.92C574.23 2847.59 573.29 2896.25 572.24 2944.92H569.28C570.32 2896.28 571.28 2847.63 572.14 2798.99C572.17 2798 572.18 2797.02 572.2 2796.03C573.22 2739.22 574.1 2682.41 574.89 2625.58C574.89 2624.59 574.92 2623.6 574.93 2622.6C575.54 2577.85 576.07 2533.1 576.54 2488.36C576.54 2487.36 576.56 2486.38 576.57 2485.39C576.98 2445.69 577.34 2405.99 577.63 2366.29C577.65 2363.32 577.67 2360.36 577.69 2357.39C577.69 2356.39 577.71 2355.41 577.71 2354.42C577.94 2323.78 578.12 2293.15 578.27 2262.52C578.27 2261.52 578.27 2260.54 578.27 2259.55C578.45 2224 578.58 2188.45 578.66 2152.89V2149.93C578.76 2108.02 578.79 2066.12 578.76 2024.22C578.76 2023.22 578.76 2022.24 578.76 2021.25C578.73 1986.2 578.66 1951.15 578.53 1916.1C578.53 1915.11 578.53 1914.13 578.53 1913.13C578.45 1887.32 578.33 1861.49 578.19 1835.68C578.19 1834.69 578.19 1833.71 578.17 1832.72C578 1801.46 577.81 1770.2 577.57 1738.95C577.57 1737.96 577.55 1736.98 577.55 1735.99C577.21 1693.9 576.83 1651.83 576.38 1609.74C576.38 1608.74 576.36 1607.75 576.34 1606.75C576 1575.87 575.64 1544.99 575.24 1514.12C575.24 1513.13 575.21 1512.15 575.2 1511.16C574.78 1478.94 574.31 1446.72 573.81 1414.5C573.81 1413.52 573.79 1412.54 573.77 1411.55C573.18 1373.57 572.54 1335.59 571.84 1297.6C571.84 1296.59 571.81 1295.58 571.79 1294.56C571.09 1256.51 570.34 1218.48 569.54 1180.43C569.51 1179.44 569.49 1178.45 569.47 1177.46C569.13 1161.18 568.77 1144.9 568.41 1128.62C568.09 1114.47 567.77 1100.31 567.43 1086.16C567.41 1085.17 567.39 1084.19 567.36 1083.2C566.52 1047.3 565.64 1011.42 564.7 975.53C564.67 974.54 564.65 973.56 564.62 972.57C563.35 923.89 561.99 875.21 560.54 826.54C560.51 825.55 560.48 824.57 560.45 823.58C558.93 772.46 557.32 721.33 555.6 670.22C555.57 669.22 555.54 668.24 555.5 667.25C554.08 624.75 552.58 582.25 551.03 539.75C551 538.79 550.96 537.84 550.93 536.88C549.07 486.1 547.12 435.32 545.07 384.55C545.03 383.55 544.99 382.56 544.94 381.57C542.62 324.19 540.19 266.81 537.64 209.45C537.6 208.46 537.55 207.48 537.5 206.49C535.48 161.07 533.38 115.65 531.2 70.25C531.16 69.25 531.11 68.27 531.06 67.28C529.79 40.84 528.5 14.39 527.18 -12.04H530.14C531.47 14.39 532.76 40.83 534.03 67.26C534.07 68.25 534.12 69.24 534.17 70.23C536.35 115.63 538.45 161.03 540.47 206.43C540.52 207.42 540.56 208.4 540.6 209.39C543.16 266.75 545.61 324.13 547.92 381.5C547.96 382.5 548 383.49 548.04 384.48C550.09 435.24 552.04 486 553.9 536.77C553.93 537.73 553.97 538.68 554.01 539.64C554.57 555.02 555.12 570.4 555.67 585.78C556.64 612.89 557.56 640.01 558.48 667.12C558.51 668.11 558.54 669.09 558.57 670.08C560.28 721.19 561.9 772.3 563.42 823.41C563.45 824.4 563.48 825.38 563.51 826.38C564.96 875.07 566.32 923.76 567.58 972.46C567.61 973.45 567.64 974.42 567.66 975.41C568.6 1011.3 569.49 1047.19 570.33 1083.08C570.35 1084.07 570.38 1085.05 570.4 1086.04C571.11 1116.49 571.79 1146.93 572.44 1177.38C572.46 1178.37 572.48 1179.35 572.5 1180.34C573.31 1218.39 574.06 1256.43 574.75 1294.49C574.78 1295.51 574.8 1296.52 574.81 1297.54C575.51 1335.51 576.15 1373.48 576.74 1411.45C576.76 1412.44 576.77 1413.42 576.78 1414.4C577.28 1446.63 577.75 1478.85 578.16 1511.08C578.18 1512.07 578.2 1513.05 578.2 1514.05C578.61 1544.93 578.98 1575.81 579.31 1606.69C579.31 1607.69 579.33 1608.68 579.34 1609.68C579.79 1651.75 580.19 1693.8 580.5 1735.87C580.52 1736.86 580.52 1737.84 580.52 1738.84C580.75 1766.96 580.93 1795.08 581.09 1823.2C581.11 1826.33 581.13 1829.46 581.14 1832.59C581.14 1833.58 581.14 1834.56 581.16 1835.55C581.3 1861.36 581.41 1887.19 581.51 1913C581.51 1913.99 581.51 1914.98 581.51 1915.97C581.63 1951.04 581.7 1986.1 581.73 2021.17C581.73 2022.16 581.73 2023.14 581.73 2024.13H581.72Z" fill="#116069"/>
<path d="M263.12 72.43C263.21 119.08 260.5 165.8 256.61 212.36C256.52 213.35 256.44 214.34 256.35 215.33C255.36 226.98 254.31 238.62 253.21 250.24C248.79 296.73 244.3 343.19 240.06 389.67C239.97 390.67 239.88 391.65 239.79 392.65C235.02 445.07 230.57 497.51 226.95 550.05C226.88 551.05 226.81 552.04 226.75 553.04C225.85 565.93 225.03 578.81 224.25 591.72C222.37 622.96 220.69 654.22 219.21 685.47C219.16 686.47 219.11 687.47 219.07 688.47C216.6 740.84 214.67 793.21 213.24 845.6C213.2 846.6 213.18 847.59 213.15 848.59C211.88 894.99 210.97 941.39 210.39 987.8C210.37 988.79 210.36 989.78 210.35 990.77C209.9 1027.06 209.64 1063.35 209.56 1099.64C209.56 1100.64 209.56 1101.62 209.56 1102.61C209.49 1132.2 209.54 1161.8 209.69 1191.4C209.69 1192.4 209.69 1193.39 209.71 1194.39C209.9 1231.05 210.23 1267.7 210.7 1304.36C210.72 1305.36 210.73 1306.35 210.74 1307.35C211.24 1346.05 211.87 1384.74 212.63 1423.44C212.63 1424.43 212.66 1425.41 212.69 1426.41C213.29 1457.85 213.97 1489.3 214.72 1520.74C214.74 1521.73 214.76 1522.71 214.79 1523.7C215.54 1555.56 216.35 1587.41 217.2 1619.26C217.23 1620.27 217.25 1621.27 217.28 1622.28C218.43 1665.43 219.67 1708.57 220.93 1751.7C220.97 1752.69 221 1753.67 221.02 1754.66C221.62 1774.97 222.22 1795.29 222.83 1815.59C223.17 1826.71 223.5 1837.84 223.83 1848.95C223.87 1849.98 223.9 1851.01 223.92 1852.03C224.71 1878 225.49 1903.98 226.27 1929.96C226.29 1930.95 226.32 1931.93 226.36 1932.92C227.34 1965.89 228.3 1998.87 229.23 2031.85C229.26 2032.84 229.29 2033.81 229.31 2034.8C230.52 2077.29 231.67 2119.78 232.73 2162.28C232.75 2163.27 232.78 2164.25 232.8 2165.25C233.69 2200.76 234.51 2236.28 235.23 2271.81L235.29 2274.77C235.94 2306.3 236.51 2337.82 237.01 2369.35C237.03 2370.35 237.04 2371.33 237.06 2372.32C237.71 2414.63 238.21 2456.95 238.53 2499.27C238.53 2500.26 238.55 2501.25 238.55 2502.25C238.87 2546.1 238.98 2589.95 238.85 2633.8V2636.77C238.66 2692.73 238.07 2748.7 237 2804.65C236.98 2805.64 236.96 2806.62 236.94 2807.61C236.05 2853.39 234.83 2899.18 233.23 2944.96H230.27C231.87 2899.21 233.1 2853.45 234 2807.69C234.02 2806.7 234.04 2805.73 234.06 2804.74C235.13 2748.8 235.74 2692.84 235.92 2636.89C235.92 2635.9 235.92 2634.91 235.92 2633.91C236.07 2590.07 235.96 2546.23 235.63 2502.39C235.63 2501.39 235.63 2500.41 235.6 2499.41C235.3 2457.09 234.8 2414.78 234.13 2372.47C234.13 2371.47 234.11 2370.49 234.09 2369.5C234.03 2365.54 233.97 2361.59 233.9 2357.63C233.45 2330.04 232.93 2302.46 232.36 2274.89C232.34 2273.89 232.32 2272.92 232.3 2271.93C231.56 2236.4 230.74 2200.89 229.85 2165.37C229.83 2164.37 229.81 2163.39 229.78 2162.39C228.72 2119.89 227.56 2077.39 226.35 2034.9C226.33 2033.9 226.3 2032.93 226.27 2031.94C225.33 1998.98 224.37 1966.03 223.38 1933.08C223.35 1932.09 223.32 1931.11 223.29 1930.12C222.52 1904.14 221.73 1878.15 220.95 1852.17C220.92 1851.14 220.89 1850.11 220.86 1849.08C219.91 1817.66 218.98 1786.23 218.05 1754.8C218.02 1753.81 217.99 1752.82 217.96 1751.83C216.7 1708.7 215.47 1665.56 214.31 1622.42C214.28 1621.41 214.25 1620.41 214.23 1619.4C213.37 1587.53 212.56 1555.66 211.81 1523.78C211.79 1522.79 211.77 1521.81 211.74 1520.81C211 1489.38 210.32 1457.94 209.71 1426.49C209.69 1425.49 209.67 1424.51 209.66 1423.52C208.91 1384.83 208.27 1346.14 207.78 1307.44C207.76 1306.44 207.75 1305.45 207.74 1304.44C207.28 1267.8 206.93 1231.17 206.74 1194.52C206.74 1193.52 206.74 1192.53 206.74 1191.53C206.65 1173.84 206.59 1156.14 206.58 1138.43C206.58 1126.53 206.58 1114.65 206.61 1102.75C206.61 1101.75 206.61 1100.77 206.61 1099.77C206.69 1063.48 206.95 1027.18 207.4 990.89C207.4 989.9 207.42 988.91 207.44 987.92C208.02 941.54 208.93 895.15 210.2 848.78C210.22 847.78 210.25 846.8 210.28 845.8C211.73 793.39 213.64 741.01 216.11 688.64C216.16 687.63 216.2 686.64 216.26 685.64C218.35 641.45 220.82 597.3 223.74 553.16C223.8 552.16 223.86 551.16 223.93 550.16C224.36 543.57 224.82 536.96 225.27 530.37C228.45 484.42 232.47 438.56 236.77 392.73C236.86 391.74 236.96 390.75 237.05 389.75C242.17 335.2 247.65 280.68 252.48 226.09C252.8 222.52 253.11 218.96 253.41 215.4C253.5 214.41 253.58 213.42 253.66 212.43C257.57 165.88 260.29 119.13 260.21 72.46C260.21 71.47 260.21 70.48 260.21 69.49C260.09 42.29 259.01 15.1 256.63 -12H259.57C261.93 15.1 263 42.27 263.12 69.46C263.12 70.45 263.12 71.44 263.12 72.43Z" fill="#116069"/>
<path d="M916.52 2012.63C916.52 2013.62 916.52 2014.6 916.49 2015.58C916.04 2057.28 915.08 2098.98 913.79 2140.68C913.76 2141.67 913.73 2142.65 913.7 2143.64C912.59 2179.12 911.24 2214.61 909.72 2250.08C909.68 2251.08 909.64 2252.06 909.59 2253.05C908.32 2283.01 906.93 2312.97 905.49 2342.93C905.45 2343.92 905.4 2344.9 905.35 2345.89C903.26 2389.37 901.07 2432.83 898.94 2476.31C898.89 2477.3 898.85 2478.28 898.79 2479.27C896.57 2524.9 894.42 2570.55 892.56 2616.19C892.52 2617.18 892.48 2618.17 892.44 2619.16C890.12 2676.06 888.24 2732.97 887.2 2789.89C887.17 2790.88 887.15 2791.86 887.14 2792.85C886.22 2843.53 885.96 2894.22 886.63 2944.91H883.66C882.99 2894.24 883.24 2843.57 884.14 2792.9C884.14 2791.91 884.16 2790.93 884.19 2789.94C885.22 2733.02 887.08 2676.11 889.37 2619.2C889.41 2618.21 889.45 2617.23 889.49 2616.24C891.34 2570.6 893.48 2524.96 895.7 2479.34C895.75 2478.35 895.79 2477.37 895.85 2476.38C897.85 2435.27 899.92 2394.16 901.91 2353.07C902.03 2350.71 902.14 2348.35 902.26 2345.99C902.31 2344.99 902.35 2344.01 902.4 2343.02C903.84 2313.06 905.22 2283.09 906.47 2253.13C906.52 2252.13 906.56 2251.15 906.6 2250.16C908.08 2214.68 909.4 2179.19 910.47 2143.71C910.5 2142.72 910.53 2141.74 910.56 2140.75C911.81 2099.06 912.72 2057.37 913.16 2015.66C913.16 2014.68 913.18 2013.7 913.19 2012.71C913.56 1976.31 913.57 1939.91 913.13 1903.51C913.13 1902.52 913.11 1901.55 913.09 1900.56C912.76 1874.38 912.2 1848.21 911.38 1822.03C911.35 1821.04 911.32 1820.07 911.29 1819.08C910.35 1790.32 909.1 1761.56 907.5 1732.8C907.41 1731.19 907.32 1729.6 907.22 1727.99C907.17 1727 907.11 1726.02 907.05 1725.03C904.76 1685.24 902.1 1645.46 899.59 1605.67C899.52 1604.68 899.45 1603.7 899.4 1602.7C897.37 1570.74 895.45 1538.77 893.91 1506.78C893.86 1505.79 893.81 1504.81 893.76 1503.82C892.53 1477.97 891.55 1452.1 890.96 1426.22C890.79 1418.93 890.67 1411.64 890.59 1404.35C890.57 1403.36 890.56 1402.38 890.55 1401.39C890.15 1365.14 890.65 1328.9 891.71 1292.67C891.74 1291.63 891.78 1290.58 891.81 1289.54C892.98 1250.66 894.8 1211.78 896.84 1172.93C896.89 1171.94 896.94 1170.96 896.99 1169.97C897.87 1153.28 898.78 1136.6 899.71 1119.91C900.55 1104.81 901.33 1089.71 902.07 1074.62C902.12 1073.63 902.16 1072.64 902.21 1071.65C903.95 1035.57 905.4 999.48 906.56 963.41C906.6 962.42 906.63 961.44 906.66 960.45C908.25 910.53 909.28 860.63 909.76 810.7C909.76 809.71 909.78 808.73 909.79 807.74C910.25 757.56 910.15 707.37 909.49 657.18C909.49 656.18 909.47 655.2 909.45 654.21C908.89 612.57 907.94 570.9 906.61 529.23C906.58 528.32 906.55 527.42 906.52 526.51C906.18 515.95 905.82 505.4 905.43 494.84C903.98 455.7 902.28 416.57 900.36 377.45C900.3 376.46 900.25 375.48 900.21 374.49C897.4 317.7 894.17 260.94 890.63 204.19C890.57 203.2 890.51 202.22 890.44 201.23C887.67 156.8 884.71 112.38 881.66 67.9499L881.45 64.9899C879.69 39.2999 877.87 13.6299 876.05 -12.0601H879.01C880.83 13.6199 882.65 39.2899 884.42 64.9699C884.48 65.9599 884.55 66.9399 884.62 67.9299C887.69 112.34 890.63 156.77 893.41 201.2L893.59 204.16C897.13 260.9 900.36 317.67 903.16 374.44L903.31 377.4C905.74 427.07 907.84 476.74 909.5 526.44C909.53 527.35 909.56 528.25 909.59 529.16C910.05 543.04 910.48 556.92 910.86 570.79C911.64 598.57 912.26 626.34 912.72 654.12C912.74 655.11 912.76 656.09 912.77 657.08C913.6 707.25 913.88 757.43 913.52 807.61C913.52 808.6 913.52 809.58 913.5 810.57C913.33 834.04 913.01 857.5 912.54 880.96C912.01 907.43 911.2 933.9 910.19 960.34C910.15 961.33 910.11 962.31 910.07 963.3C908.69 999.4 906.95 1035.49 905.09 1071.57L904.94 1074.53C903.29 1106.33 901.57 1138.12 899.92 1169.92C899.86 1170.91 899.81 1171.89 899.76 1172.88C899.38 1180.21 899 1187.54 898.64 1194.87C897.04 1226.43 895.78 1257.97 894.94 1289.5C894.91 1290.54 894.88 1291.59 894.86 1292.63C893.92 1328.84 893.55 1365.05 893.86 1401.28C893.86 1402.27 893.86 1403.25 893.88 1404.24C894.2 1436.59 895.07 1468.95 896.59 1501.33C896.63 1502.14 896.67 1502.95 896.71 1503.75C896.75 1504.74 896.8 1505.72 896.85 1506.71C898.4 1538.71 900.32 1570.7 902.34 1602.67C902.4 1603.66 902.46 1604.65 902.53 1605.64C905.04 1645.41 907.7 1685.17 909.99 1724.94C910.05 1725.93 910.1 1726.91 910.16 1727.89C911.68 1754.55 913.02 1781.22 914.03 1807.9C914.17 1811.59 914.31 1815.27 914.42 1818.95C914.46 1819.94 914.5 1820.92 914.52 1821.9C915.42 1848.09 916.03 1874.27 916.38 1900.44C916.4 1901.43 916.41 1902.41 916.42 1903.39C916.89 1939.81 916.88 1976.21 916.5 2012.62L916.52 2012.63Z" fill="#116069"/>
<path d="M1071.45 2009.34V2012.3C1071.51 2052.8 1071.08 2093.3 1069.76 2133.78C1069.72 2134.94 1069.68 2136.12 1069.64 2137.28C1069.61 2138.27 1069.57 2139.25 1069.53 2140.24C1068.27 2175.7 1066.1 2211.11 1063.48 2246.48C1063.41 2247.47 1063.33 2248.46 1063.25 2249.45C1061.04 2279.18 1058.52 2308.87 1055.98 2338.58C1055.9 2339.57 1055.81 2340.56 1055.73 2341.55C1052.96 2373.88 1050.18 2406.22 1047.75 2438.59C1046.87 2450.24 1046.08 2461.87 1045.37 2473.5C1045.31 2474.49 1045.25 2475.48 1045.19 2476.47C1042.45 2522.58 1041.1 2568.57 1041.47 2614.57C1041.47 2615.57 1041.47 2616.55 1041.49 2617.54C1041.88 2659.39 1043.72 2701.26 1047.23 2743.27C1048.46 2757.99 1049.77 2772.71 1051.09 2787.45C1051.18 2788.44 1051.27 2789.42 1051.36 2790.41C1055.97 2841.87 1060.6 2893.37 1061.96 2944.93H1058.99C1057.62 2893.39 1052.98 2841.91 1048.37 2790.45L1048.1 2787.49C1045.67 2760.31 1043.27 2733.13 1041.38 2705.95C1039.33 2676.46 1038.32 2647 1038.12 2617.57C1038.12 2616.58 1038.12 2615.6 1038.1 2614.61C1037.86 2568.54 1039.59 2522.52 1042.39 2476.52C1042.45 2475.53 1042.51 2474.55 1042.58 2473.56C1044.83 2437.06 1047.74 2400.57 1050.89 2364.07C1051.53 2356.59 1052.17 2349.12 1052.8 2341.65C1052.88 2340.65 1052.97 2339.67 1053.05 2338.68C1055.55 2308.95 1057.92 2279.26 1060.02 2249.54C1060.09 2248.55 1060.16 2247.56 1060.23 2246.57C1062.71 2211.19 1064.79 2175.78 1066.22 2140.33C1066.27 2139.34 1066.31 2138.36 1066.34 2137.37C1067.38 2111.15 1068.06 2084.9 1068.3 2058.61C1068.44 2043.2 1068.49 2027.79 1068.49 2012.38C1068.49 2011.39 1068.49 2010.41 1068.49 2009.42C1068.46 1972.56 1068.08 1935.69 1067.54 1898.83C1067.54 1897.85 1067.51 1896.87 1067.49 1895.88C1067.11 1869.44 1066.65 1842.99 1066.19 1816.55C1066.17 1815.56 1066.16 1814.59 1066.14 1813.6C1065.78 1792.5 1065.41 1771.4 1065.1 1750.29C1064.97 1741.52 1064.83 1732.74 1064.71 1723.96C1064.69 1722.97 1064.68 1722 1064.66 1721.01C1064.08 1682.41 1063.5 1643.82 1062.92 1605.23C1062.9 1604.29 1062.89 1603.36 1062.87 1602.43C1062.38 1569.4 1061.87 1536.37 1061.38 1503.35C1061.36 1502.35 1061.34 1501.37 1061.33 1500.38C1060.82 1466.59 1060.31 1432.81 1059.8 1399.02C1059.78 1398.03 1059.77 1397.05 1059.75 1396.06C1059.22 1360.97 1058.7 1325.88 1058.16 1290.8C1058.14 1289.79 1058.13 1288.79 1058.11 1287.78C1057.52 1248.77 1056.94 1209.77 1056.35 1170.76C1056.33 1169.77 1056.32 1168.8 1056.3 1167.81C1056.11 1155.35 1055.93 1142.89 1055.74 1130.43C1055.43 1110.48 1055.14 1090.53 1054.83 1070.58C1054.83 1069.59 1054.8 1068.61 1054.79 1067.62C1054.24 1031.41 1053.7 995.2 1053.14 958.98C1053.14 957.99 1053.11 957.01 1053.1 956.02C1052.34 906.04 1051.59 856.07 1050.83 806.09C1050.83 805.1 1050.8 804.13 1050.79 803.14C1050.04 753.35 1049.28 703.55 1048.53 653.76C1048.53 652.77 1048.5 651.79 1048.48 650.8C1047.86 609.36 1047.24 567.92 1046.61 526.48C1046.61 525.55 1046.58 524.63 1046.56 523.7C1045.82 474.22 1045.07 424.75 1044.32 375.27C1044.32 374.29 1044.29 373.32 1044.28 372.34C1043.42 315.78 1042.57 259.22 1041.72 202.66C1041.7 201.67 1041.69 200.69 1041.67 199.7C1041.01 155.5 1040.34 111.32 1039.67 67.1202C1039.67 66.1302 1039.64 65.1502 1039.62 64.1602C1039.25 38.7602 1038.86 13.3502 1038.48 -12.0498H1041.44C1041.82 13.3502 1042.21 38.7502 1042.58 64.1502C1042.6 65.1402 1042.62 66.1202 1042.63 67.1102C1043.3 111.3 1043.97 155.48 1044.63 199.67C1044.65 200.66 1044.66 201.64 1044.68 202.63C1045.53 259.19 1046.39 315.74 1047.24 372.3C1047.24 373.28 1047.27 374.25 1047.28 375.23C1048.03 424.7 1048.78 474.18 1049.53 523.65C1049.53 524.58 1049.55 525.5 1049.57 526.43C1049.88 546.45 1050.17 566.46 1050.48 586.47C1050.81 607.89 1051.13 629.31 1051.45 650.72C1051.47 651.71 1051.48 652.69 1051.5 653.68C1052.25 703.46 1053 753.26 1053.76 803.04C1053.76 804.03 1053.79 805 1053.8 805.99C1054.56 855.97 1055.31 905.94 1056.07 955.92C1056.07 956.91 1056.1 957.89 1056.11 958.88C1056.66 995.1 1057.2 1031.31 1057.76 1067.54C1057.76 1068.53 1057.79 1069.51 1057.8 1070.5C1058.29 1102.92 1058.79 1135.34 1059.27 1167.76C1059.29 1168.75 1059.3 1169.72 1059.32 1170.71C1059.91 1209.72 1060.49 1248.73 1061.08 1287.74C1061.1 1288.75 1061.11 1289.74 1061.13 1290.75C1061.66 1325.82 1062.18 1360.88 1062.72 1395.95C1062.74 1396.94 1062.75 1397.91 1062.77 1398.9C1063.27 1432.7 1063.79 1466.5 1064.3 1500.3C1064.3 1501.29 1064.33 1502.28 1064.34 1503.27C1064.84 1536.32 1065.35 1569.36 1065.84 1602.4C1065.86 1603.34 1065.87 1604.26 1065.89 1605.2C1066.47 1643.77 1067.05 1682.34 1067.63 1720.9C1067.63 1721.89 1067.66 1722.87 1067.67 1723.86C1068.12 1753.72 1068.58 1783.6 1069.03 1813.46C1069.03 1814.45 1069.06 1815.43 1069.07 1816.42C1069.12 1819.66 1069.17 1822.91 1069.22 1826.15C1069.57 1849.35 1069.96 1872.55 1070.32 1895.77C1070.32 1896.76 1070.35 1897.73 1070.36 1898.72C1070.93 1935.58 1071.39 1972.46 1071.47 2009.33L1071.45 2009.34Z" fill="#116069"/>
<path d="M1330.08 2470.42C1330.08 2471.41 1330.05 2472.39 1330.02 2473.38C1329.17 2520.23 1327.79 2567.06 1325.87 2613.89C1325.84 2614.88 1325.8 2615.86 1325.75 2616.85C1323.44 2672.76 1320.38 2728.67 1316.53 2784.55C1316.47 2785.54 1316.4 2786.52 1316.32 2787.51C1312.69 2840 1308.38 2892.47 1303.37 2944.91H1300.42C1305.46 2892.51 1309.83 2840.05 1313.54 2787.54C1313.61 2786.54 1313.68 2785.56 1313.75 2784.57C1317.67 2728.7 1320.84 2672.79 1323.25 2616.84C1323.29 2615.85 1323.33 2614.87 1323.37 2613.88C1325.37 2567.07 1326.83 2520.24 1327.76 2473.39C1327.78 2472.4 1327.8 2471.42 1327.82 2470.43C1328.7 2425.35 1329.07 2380.26 1328.95 2335.17C1328.95 2334.18 1328.95 2333.2 1328.95 2332.21C1328.95 2329.49 1328.93 2326.76 1328.92 2324.04C1328.8 2297.49 1328.48 2270.94 1327.96 2244.42C1327.96 2243.42 1327.93 2242.44 1327.9 2241.45C1327.21 2206.24 1326.18 2171.07 1324.85 2135.9C1324.81 2134.91 1324.78 2133.93 1324.74 2132.94C1323.15 2091.32 1321.15 2049.71 1318.8 2008.13C1318.75 2007.13 1318.69 2006.13 1318.63 2005.13C1316.5 1967.68 1314.09 1930.23 1311.43 1892.81L1311.22 1889.85C1309.31 1863 1307.28 1836.17 1305.13 1809.33C1305.05 1808.35 1304.97 1807.37 1304.89 1806.39C1302.61 1777.93 1300.22 1749.47 1297.72 1721.01L1297.57 1719.35C1297.49 1718.36 1297.4 1717.38 1297.31 1716.39C1294.07 1679.47 1290.81 1642.56 1287.7 1605.62C1287.63 1604.8 1287.56 1603.98 1287.5 1603.17C1284.58 1568.54 1281.81 1533.91 1279.32 1499.25L1279.11 1496.29C1277.29 1470.84 1275.62 1445.39 1274.16 1419.91C1273.63 1410.7 1273.13 1401.49 1272.68 1392.28C1272.63 1391.29 1272.58 1390.32 1272.53 1389.33C1270.88 1355.8 1269.66 1322.25 1268.8 1288.7C1268.78 1287.77 1268.75 1286.86 1268.73 1285.94C1267.75 1247 1267.25 1208.04 1267.09 1169.07C1267.09 1168.08 1267.09 1167.1 1267.09 1166.1C1267.03 1150.07 1267.03 1134.05 1267.09 1118.01C1267.15 1100.73 1267.22 1083.45 1267.3 1066.19C1267.3 1065.19 1267.3 1064.21 1267.32 1063.22C1267.49 1026.56 1267.71 989.92 1267.99 953.26L1268.02 950.3C1268.39 900.51 1268.87 850.71 1269.41 800.92C1269.41 799.93 1269.41 798.95 1269.44 797.97C1269.96 748.74 1270.56 699.5 1271.2 650.26C1271.22 649.27 1271.23 648.28 1271.24 647.29C1271.78 606.08 1272.36 564.86 1272.96 523.65C1272.98 522.68 1272.99 521.73 1273 520.76C1273.72 471.35 1274.47 421.95 1275.23 372.54C1275.23 371.59 1275.26 370.64 1275.28 369.68C1276.14 313.48 1277.01 257.27 1277.88 201.07C1277.88 200.08 1277.91 199.09 1277.93 198.1C1278.6 154.08 1279.27 110.07 1279.91 66.0597C1279.93 65.0697 1279.95 64.0897 1279.96 63.0997C1280.32 38.0397 1280.69 12.9797 1281.03 -12.0703H1284.05C1283.72 12.9797 1283.41 38.0397 1283.08 63.0897C1283.06 64.0797 1283.05 65.0597 1283.04 66.0497C1282.47 110.06 1281.91 154.08 1281.34 198.09C1281.32 199.08 1281.31 200.07 1281.3 201.06C1280.57 257.26 1279.85 313.45 1279.13 369.65C1279.11 370.6 1279.1 371.55 1279.09 372.5C1278.45 421.91 1277.82 471.32 1277.18 520.73C1277.18 521.7 1277.15 522.65 1277.14 523.62C1276.87 544.11 1276.62 564.6 1276.35 585.09C1276.08 605.81 1275.79 626.53 1275.48 647.24C1275.48 648.23 1275.45 649.21 1275.43 650.2C1274.7 699.42 1273.88 748.65 1273.1 797.89C1273.08 798.88 1273.07 799.86 1273.05 800.85C1272.27 850.63 1271.52 900.43 1270.97 950.22C1270.95 951.21 1270.94 952.19 1270.93 953.18C1270.52 989.85 1270.2 1026.5 1270.04 1063.17C1270.04 1064.16 1270.02 1065.14 1270.04 1066.13C1269.89 1099.45 1269.87 1132.77 1270.02 1166.08C1270.02 1167.08 1270.02 1168.06 1270.02 1169.05C1270.05 1176.7 1270.1 1184.34 1270.15 1191.98C1270.37 1223.32 1271 1254.63 1271.96 1285.9C1271.99 1286.83 1272.02 1287.74 1272.05 1288.66C1273.11 1322.2 1274.57 1355.71 1276.34 1389.2C1276.39 1390.18 1276.44 1391.16 1276.5 1392.15C1278.34 1426.85 1280.51 1461.54 1282.92 1496.2L1283.13 1499.16C1285.54 1533.84 1288.2 1568.51 1290.98 1603.17C1291.04 1603.99 1291.1 1604.81 1291.18 1605.61C1294.14 1642.51 1297.24 1679.4 1300.39 1716.32C1300.47 1717.31 1300.56 1718.29 1300.64 1719.28C1302.78 1744.4 1304.93 1769.54 1307.06 1794.68C1307.39 1798.54 1307.71 1802.41 1308.03 1806.27C1308.12 1807.26 1308.2 1808.23 1308.28 1809.22C1310.5 1836.06 1312.56 1862.9 1314.44 1889.75C1314.52 1890.74 1314.59 1891.72 1314.66 1892.71C1317.29 1930.14 1319.62 1967.6 1321.62 2005.06C1321.68 2006.06 1321.73 2007.05 1321.78 2008.05C1324 2049.64 1325.82 2091.26 1327.25 2132.87C1327.29 2133.86 1327.32 2134.84 1327.35 2135.83C1328.55 2171.01 1329.46 2206.19 1330.08 2241.38C1330.11 2242.37 1330.12 2243.35 1330.14 2244.35C1330.65 2273.61 1330.96 2302.88 1331.07 2332.14C1331.07 2333.13 1331.07 2334.11 1331.07 2335.1C1331.22 2380.2 1330.89 2425.29 1330.08 2470.39V2470.42Z" fill="#116069"/>
<path d="M1440.64 2470.07C1440.64 2471.06 1440.64 2472.04 1440.64 2473.03C1440.7 2520.19 1440.14 2567.36 1438.83 2614.52C1438.81 2615.51 1438.78 2616.49 1438.75 2617.48C1437.19 2672.94 1434.62 2728.36 1430.86 2783.71C1430.8 2784.7 1430.73 2785.69 1430.66 2786.68C1427.02 2839.51 1422.31 2892.27 1416.36 2944.91H1413.46C1413.66 2943.2 1413.85 2941.51 1414.04 2939.8C1419.77 2888.85 1424.3 2837.81 1427.8 2786.68C1427.88 2785.69 1427.94 2784.71 1428.01 2783.72C1431.77 2728.37 1434.31 2672.93 1435.85 2617.45C1435.88 2616.46 1435.91 2615.48 1435.93 2614.49C1437.21 2567.35 1437.76 2520.18 1437.69 2473.02C1437.69 2472.03 1437.69 2471.05 1437.69 2470.06C1437.62 2424.71 1436.98 2379.36 1435.89 2334.04C1435.89 2333.76 1435.89 2333.48 1435.87 2333.2C1435.85 2332.21 1435.82 2331.23 1435.79 2330.24C1435.08 2301.1 1434.17 2271.95 1433.1 2242.82C1433.08 2241.82 1433.04 2240.84 1433 2239.85C1431.71 2204.74 1430.19 2169.64 1428.5 2134.56C1428.46 2133.57 1428.41 2132.59 1428.36 2131.61C1426.34 2090 1424.07 2048.39 1421.64 2006.81C1421.59 2005.8 1421.53 2004.8 1421.46 2003.79C1419.25 1966.12 1416.92 1928.45 1414.5 1890.79C1414.43 1889.8 1414.37 1888.82 1414.3 1887.83C1412.57 1860.8 1410.79 1833.79 1409.01 1806.77C1408.94 1805.78 1408.88 1804.8 1408.81 1803.82C1407.09 1777.69 1405.34 1751.57 1403.61 1725.45C1403.44 1722.91 1403.27 1720.37 1403.11 1717.83C1403.04 1716.84 1402.97 1715.86 1402.91 1714.87C1400.51 1678.64 1398.12 1642.4 1395.81 1606.15C1395.76 1605.37 1395.71 1604.58 1395.66 1603.8C1393.4 1568.33 1391.21 1532.84 1389.14 1497.36C1389.08 1496.37 1389.02 1495.39 1388.97 1494.4C1386.92 1459.2 1385 1424.01 1383.24 1388.81L1383.09 1385.85C1381.47 1353.15 1379.99 1320.43 1378.71 1287.71C1378.67 1286.82 1378.64 1285.93 1378.6 1285.03C1377.09 1246.26 1375.85 1207.46 1374.94 1168.66C1374.91 1167.67 1374.88 1166.69 1374.87 1165.7C1374.48 1149.27 1374.16 1132.84 1373.9 1116.41C1373.63 1099.11 1373.46 1081.82 1373.39 1064.55C1373.39 1063.56 1373.39 1062.58 1373.39 1061.59C1373.25 1024.62 1373.56 987.7 1374.29 950.81C1374.31 949.82 1374.33 948.84 1374.35 947.86C1375.36 898.27 1377.14 848.74 1379.64 799.26L1379.79 796.3C1382.3 747.31 1385.52 698.37 1389.4 649.42C1389.48 648.42 1389.56 647.44 1389.64 646.45C1392.93 605.3 1396.69 564.16 1400.9 522.99C1401 522 1401.11 521.03 1401.21 520.04C1401.52 517.05 1401.82 514.06 1402.14 511.07C1406.97 464.73 1411.81 418.12 1415.76 371.42C1415.85 370.47 1415.93 369.54 1416 368.6C1420.7 312.68 1424.1 256.59 1424.69 200.63C1424.71 199.64 1424.72 198.66 1424.72 197.67C1425.11 153.54 1423.74 109.48 1419.86 65.6202C1419.78 64.6302 1419.69 63.6402 1419.6 62.6402C1417.32 37.6702 1414.23 12.7702 1410.19 -12.0498H1413.37C1417.44 12.8002 1420.55 37.6902 1422.82 62.6302C1422.92 63.6302 1423.01 64.6102 1423.1 65.6102C1427.01 109.54 1428.38 153.58 1427.98 197.66C1427.98 198.65 1427.96 199.63 1427.95 200.62C1427.33 256.59 1423.87 312.63 1419.11 368.58C1419.03 369.52 1418.95 370.46 1418.87 371.4C1414.61 421.05 1409.35 470.63 1404.16 520.04C1404.06 521.03 1403.95 522.01 1403.85 522.99C1401.89 541.69 1399.95 560.36 1398.07 578.99C1395.81 601.46 1393.75 623.94 1391.87 646.44C1391.79 647.43 1391.7 648.41 1391.62 649.41C1387.57 698.34 1384.39 747.29 1382.01 796.28C1381.95 797.27 1381.9 798.25 1381.86 799.24C1379.47 848.74 1377.91 898.26 1377.08 947.8C1377.05 948.79 1377.04 949.76 1377.03 950.75C1376.42 987.67 1376.22 1024.6 1376.39 1061.55C1376.39 1062.54 1376.39 1063.52 1376.41 1064.51C1376.58 1098.23 1377.06 1131.96 1377.83 1165.69C1377.85 1166.68 1377.87 1167.67 1377.9 1168.66C1378.07 1176.22 1378.25 1183.79 1378.46 1191.35C1379.3 1222.58 1380.34 1253.8 1381.55 1285.01C1381.59 1285.91 1381.62 1286.8 1381.66 1287.69C1382.94 1320.39 1384.41 1353.08 1386.04 1385.76L1386.19 1388.72C1387.94 1423.94 1389.87 1459.15 1391.91 1494.36C1391.97 1495.35 1392.03 1496.32 1392.09 1497.31C1394.15 1532.82 1396.34 1568.31 1398.61 1603.82C1398.66 1604.6 1398.71 1605.38 1398.76 1606.17C1401.07 1642.39 1403.45 1678.61 1405.85 1714.83C1405.92 1715.82 1405.98 1716.8 1406.05 1717.79C1407.94 1746.34 1409.84 1774.91 1411.74 1803.46C1411.74 1803.56 1411.74 1803.65 1411.76 1803.75C1411.83 1804.74 1411.89 1805.72 1411.96 1806.71C1413.74 1833.73 1415.52 1860.75 1417.24 1887.78C1417.31 1888.77 1417.38 1889.75 1417.44 1890.74C1419.85 1928.4 1422.2 1966.08 1424.41 2003.76C1424.48 2004.77 1424.54 2005.77 1424.59 2006.78C1427.02 2048.37 1429.3 2089.97 1431.32 2131.57C1431.37 2132.56 1431.42 2133.54 1431.47 2134.53C1433.16 2169.62 1434.67 2204.71 1435.96 2239.82C1436 2240.81 1436.03 2241.79 1436.07 2242.79C1437.13 2271.92 1438.03 2301.05 1438.75 2330.2C1438.78 2331.19 1438.8 2332.17 1438.83 2333.16C1439.51 2361.38 1440.02 2389.6 1440.34 2417.83C1440.54 2435.24 1440.65 2452.65 1440.67 2470.07H1440.64Z" fill="#116069"/>
<path d="M698.25 2944.89H695.29C694.8 2895.38 694.21 2845.87 693.53 2796.38C693.53 2795.39 693.51 2794.41 693.49 2793.42C692.72 2736.53 691.82 2679.64 690.8 2622.75C690.8 2621.76 690.77 2620.78 690.75 2619.79C689.94 2574.78 689.06 2529.75 688.1 2484.74C688.1 2483.75 688.07 2482.76 688.04 2481.77C687.13 2438.93 686.16 2396.12 685.1 2353.28C685.08 2352.28 685.06 2351.31 685.03 2350.32C685.03 2349.89 685.01 2349.45 685 2349.02C684.26 2319.1 683.5 2289.18 682.69 2259.26C682.67 2258.27 682.64 2257.28 682.61 2256.29C681.66 2220.8 680.66 2185.29 679.61 2149.8C679.58 2148.81 679.56 2147.83 679.52 2146.84C678.3 2105.07 677 2063.3 675.64 2021.54C675.61 2020.55 675.58 2019.58 675.54 2018.59C674.39 1983.14 673.18 1947.69 671.93 1912.24C671.89 1911.25 671.86 1910.27 671.82 1909.27C670.9 1883.43 669.97 1857.58 669 1831.74C668.97 1830.75 668.93 1829.77 668.89 1828.78C667.82 1799.96 666.71 1771.14 665.58 1742.32C665.49 1740.11 665.4 1737.89 665.31 1735.69C665.27 1734.7 665.23 1733.72 665.19 1732.73C663.54 1691.19 661.76 1649.65 659.89 1608.13C659.86 1607.13 659.81 1606.15 659.76 1605.15C658.37 1574.15 656.94 1543.15 655.47 1512.17C655.43 1511.18 655.38 1510.2 655.33 1509.21C653.8 1476.8 652.24 1444.4 650.68 1412.01C650.63 1411.02 650.58 1410.05 650.53 1409.06C648.71 1371.45 646.88 1333.84 645.08 1296.22C645.02 1295.2 644.97 1294.18 644.93 1293.16C643.09 1254.93 641.27 1216.68 639.52 1178.44C639.47 1177.45 639.43 1176.47 639.38 1175.48C638.68 1160.17 637.98 1144.86 637.3 1129.55C636.62 1114.21 635.98 1098.87 635.4 1083.52C635.36 1082.53 635.32 1081.55 635.29 1080.55C633.95 1044.68 632.94 1008.8 632.42 972.92C632.4 971.93 632.39 970.95 632.38 969.96C631.73 922.3 631.95 874.63 633.41 826.96C633.45 825.54 633.5 824.11 633.55 822.69C633.58 821.7 633.61 820.72 633.65 819.72C635.33 768.59 638.13 717.51 641.43 666.45C641.49 665.46 641.55 664.47 641.62 663.48C644.36 621.08 647.44 578.69 650.45 536.3C650.52 535.36 650.59 534.43 650.66 533.49C650.76 532.15 650.85 530.81 650.95 529.47C654.45 480.38 657.86 431.18 660.62 381.94C660.67 380.95 660.73 379.96 660.79 378.97C663.96 321.75 666.24 264.47 666.73 207.22C666.73 206.24 666.75 205.26 666.75 204.27C667.09 159.25 666.32 114.23 663.99 69.2799C663.94 68.2899 663.89 67.3099 663.83 66.3099C662.45 40.1599 660.53 14.0199 658 -12.0801H660.94C663.46 14.0199 665.38 40.1499 666.76 66.2899C666.82 67.2899 666.87 68.2699 666.92 69.2599C669.24 114.21 670 159.21 669.67 204.22C669.67 205.21 669.67 206.19 669.65 207.18C669.16 264.42 666.89 321.67 663.72 378.9C663.67 379.9 663.61 380.88 663.55 381.88C660.73 432.42 657.21 482.95 653.62 533.39C653.55 534.33 653.49 535.26 653.42 536.2C652.14 554.2 650.85 572.2 649.58 590.17C647.86 614.55 646.18 638.95 644.6 663.35C644.53 664.34 644.47 665.32 644.4 666.31C641.12 717.36 638.31 768.44 636.63 819.56C636.59 820.55 636.56 821.54 636.53 822.53C635.76 846.32 635.24 870.14 635.02 893.95C634.79 919.25 634.89 944.54 635.26 969.83C635.26 970.82 635.28 971.8 635.3 972.79C635.83 1008.68 636.88 1044.55 638.23 1080.42C638.27 1081.41 638.31 1082.39 638.35 1083.38C639.52 1114.05 640.92 1144.73 642.41 1175.38C642.46 1176.37 642.51 1177.35 642.56 1178.34C642.88 1184.79 643.19 1191.24 643.52 1197.69C645.12 1229.49 646.69 1261.28 648.25 1293.08C648.31 1294.1 648.36 1295.11 648.41 1296.14C650.25 1333.73 652.08 1371.33 653.86 1408.94C653.91 1409.93 653.96 1410.9 654 1411.89C655.54 1444.3 657.05 1476.71 658.53 1509.11C658.57 1510.1 658.62 1511.08 658.66 1512.07C660.08 1543.07 661.46 1574.08 662.81 1605.08C662.85 1606.08 662.9 1607.07 662.94 1608.07C664.74 1649.57 666.49 1691.09 668.14 1732.6C668.19 1733.59 668.23 1734.57 668.26 1735.56C669.27 1760.5 670.24 1785.43 671.18 1810.38C671.41 1816.46 671.63 1822.55 671.86 1828.63C671.9 1829.62 671.94 1830.6 671.97 1831.6C672.94 1857.44 673.87 1883.29 674.78 1909.13C674.82 1910.13 674.86 1911.11 674.89 1912.1C676.14 1947.56 677.34 1983.03 678.5 2018.49C678.54 2019.48 678.57 2020.45 678.6 2021.44C679.96 2063.2 681.26 2104.97 682.49 2146.74C682.52 2147.73 682.55 2148.7 682.58 2149.69C683.61 2185.18 684.62 2220.68 685.57 2256.18C685.6 2257.18 685.63 2258.16 685.65 2259.15C686.47 2289.5 687.24 2319.85 687.99 2350.19C688.01 2351.18 688.04 2352.16 688.06 2353.15C689.1 2395.99 690.09 2438.82 691 2481.66C691.02 2482.66 691.05 2483.64 691.06 2484.63C692.03 2529.65 692.9 2574.68 693.71 2619.7C693.73 2620.7 693.75 2621.68 693.76 2622.67C694.79 2679.56 695.68 2736.45 696.45 2793.34C696.48 2794.33 696.49 2795.31 696.5 2796.3C697.18 2845.83 697.77 2895.35 698.26 2944.87L698.25 2944.89Z" fill="#116069"/>
</g>
<defs>
<clipPath id="clip0_4921_65999">
<rect width="1806" height="1214" fill="white" transform="translate(-240 -12)"/>
</clipPath>
</defs>
</svg>
