<svg width="2074" height="1432" viewBox="0 0 2074 1432" fill="none" xmlns="http://www.w3.org/2000/svg">
<g clip-path="url(#clip0_7603_75818)">
<rect width="2073.6" height="1948.32" transform="translate(0 -152.64)" fill="#FFEEE0"/>
<g clip-path="url(#clip1_7603_75818)">
<mask id="path-3-inside-1_7603_75818" fill="white">
<path d="M-69.1172 -14.3994H69.1228V123.841H-69.1172V-14.3994Z"/>
</mask>
<path d="M69.1228 123.841V125.281H70.5628V123.841H69.1228ZM67.6828 -14.3994V123.841H70.5628V-14.3994H67.6828ZM69.1228 122.401H-69.1172V125.281H69.1228V122.401Z" fill="#460E3E" fill-opacity="0.06" mask="url(#path-3-inside-1_7603_75818)"/>
<mask id="path-5-inside-2_7603_75818" fill="white">
<path d="M69.1211 -14.3994H207.361V123.841H69.1211V-14.3994Z"/>
</mask>
<path d="M69.1211 -14.3994H207.361V123.841H69.1211V-14.3994Z" fill="#ED52D8" fill-opacity="0.05"/>
<path d="M207.361 123.841V125.281H208.801V123.841H207.361ZM205.921 -14.3994V123.841H208.801V-14.3994H205.921ZM207.361 122.401H69.1211V125.281H207.361V122.401Z" fill="#460E3E" fill-opacity="0.06" mask="url(#path-5-inside-2_7603_75818)"/>
<mask id="path-7-inside-3_7603_75818" fill="white">
<path d="M207.363 -14.3994H345.603V123.841H207.363V-14.3994Z"/>
</mask>
<path d="M345.603 123.841V125.281H347.043V123.841H345.603ZM344.163 -14.3994V123.841H347.043V-14.3994H344.163ZM345.603 122.401H207.363V125.281H345.603V122.401Z" fill="#460E3E" fill-opacity="0.06" mask="url(#path-7-inside-3_7603_75818)"/>
<mask id="path-9-inside-4_7603_75818" fill="white">
<path d="M345.602 -14.3994H483.842V123.841H345.602V-14.3994Z"/>
</mask>
<path d="M345.602 -14.3994H483.842V123.841H345.602V-14.3994Z" fill="#D6FBFF" fill-opacity="0.2"/>
<path d="M483.842 123.841V125.281H485.282V123.841H483.842ZM482.402 -14.3994V123.841H485.282V-14.3994H482.402ZM483.842 122.401H345.602V125.281H483.842V122.401Z" fill="#460E3E" fill-opacity="0.06" mask="url(#path-9-inside-4_7603_75818)"/>
<mask id="path-11-inside-5_7603_75818" fill="white">
<path d="M483.844 -14.3994H622.084V123.841H483.844V-14.3994Z"/>
</mask>
<path d="M622.084 123.841V125.281H623.524V123.841H622.084ZM620.644 -14.3994V123.841H623.524V-14.3994H620.644ZM622.084 122.401H483.844V125.281H622.084V122.401Z" fill="#460E3E" fill-opacity="0.06" mask="url(#path-11-inside-5_7603_75818)"/>
<mask id="path-13-inside-6_7603_75818" fill="white">
<path d="M622.082 -14.3994H760.322V123.841H622.082V-14.3994Z"/>
</mask>
<path d="M760.322 123.841V125.281H761.762V123.841H760.322ZM758.882 -14.3994V123.841H761.762V-14.3994H758.882ZM760.322 122.401H622.082V125.281H760.322V122.401Z" fill="#460E3E" fill-opacity="0.06" mask="url(#path-13-inside-6_7603_75818)"/>
<mask id="path-15-inside-7_7603_75818" fill="white">
<path d="M760.32 -14.3994H898.56V123.841H760.32V-14.3994Z"/>
</mask>
<path d="M898.56 123.841V125.281H900V123.841H898.56ZM897.12 -14.3994V123.841H900V-14.3994H897.12ZM898.56 122.401H760.32V125.281H898.56V122.401Z" fill="#460E3E" fill-opacity="0.06" mask="url(#path-15-inside-7_7603_75818)"/>
<mask id="path-17-inside-8_7603_75818" fill="white">
<path d="M898.562 -14.3994H1036.8V123.841H898.562V-14.3994Z"/>
</mask>
<path d="M1036.8 123.841V125.281H1038.24V123.841H1036.8ZM1035.36 -14.3994V123.841H1038.24V-14.3994H1035.36ZM1036.8 122.401H898.562V125.281H1036.8V122.401Z" fill="#460E3E" fill-opacity="0.06" mask="url(#path-17-inside-8_7603_75818)"/>
<mask id="path-19-inside-9_7603_75818" fill="white">
<path d="M1036.8 -14.3994H1175.04V123.841H1036.8V-14.3994Z"/>
</mask>
<path d="M1175.04 123.841V125.281H1176.48V123.841H1175.04ZM1173.6 -14.3994V123.841H1176.48V-14.3994H1173.6ZM1175.04 122.401H1036.8V125.281H1175.04V122.401Z" fill="#460E3E" fill-opacity="0.06" mask="url(#path-19-inside-9_7603_75818)"/>
<mask id="path-21-inside-10_7603_75818" fill="white">
<path d="M1175.04 -14.3994H1313.28V123.841H1175.04V-14.3994Z"/>
</mask>
<path d="M1313.28 123.841V125.281H1314.72V123.841H1313.28ZM1311.84 -14.3994V123.841H1314.72V-14.3994H1311.84ZM1313.28 122.401H1175.04V125.281H1313.28V122.401Z" fill="#460E3E" fill-opacity="0.06" mask="url(#path-21-inside-10_7603_75818)"/>
<mask id="path-23-inside-11_7603_75818" fill="white">
<path d="M1313.28 -14.3994H1451.52V123.841H1313.28V-14.3994Z"/>
</mask>
<path d="M1451.52 123.841V125.281H1452.96V123.841H1451.52ZM1450.08 -14.3994V123.841H1452.96V-14.3994H1450.08ZM1451.52 122.401H1313.28V125.281H1451.52V122.401Z" fill="#460E3E" fill-opacity="0.06" mask="url(#path-23-inside-11_7603_75818)"/>
<mask id="path-25-inside-12_7603_75818" fill="white">
<path d="M1451.52 -14.3994H1589.76V123.841H1451.52V-14.3994Z"/>
</mask>
<path d="M1589.76 123.841V125.281H1591.2V123.841H1589.76ZM1588.32 -14.3994V123.841H1591.2V-14.3994H1588.32ZM1589.76 122.401H1451.52V125.281H1589.76V122.401Z" fill="#460E3E" fill-opacity="0.06" mask="url(#path-25-inside-12_7603_75818)"/>
<mask id="path-27-inside-13_7603_75818" fill="white">
<path d="M1589.76 -14.3994H1728V123.841H1589.76V-14.3994Z"/>
</mask>
<path d="M1589.76 -14.3994H1728V123.841H1589.76V-14.3994Z" fill="#D6FBFF" fill-opacity="0.3"/>
<path d="M1728 123.841V125.281H1729.44V123.841H1728ZM1726.56 -14.3994V123.841H1729.44V-14.3994H1726.56ZM1728 122.401H1589.76V125.281H1728V122.401Z" fill="#460E3E" fill-opacity="0.06" mask="url(#path-27-inside-13_7603_75818)"/>
<mask id="path-29-inside-14_7603_75818" fill="white">
<path d="M1728 -14.3994H1866.24V123.841H1728V-14.3994Z"/>
</mask>
<path d="M1866.24 123.841V125.281H1867.68V123.841H1866.24ZM1864.8 -14.3994V123.841H1867.68V-14.3994H1864.8ZM1866.24 122.401H1728V125.281H1866.24V122.401Z" fill="#460E3E" fill-opacity="0.06" mask="url(#path-29-inside-14_7603_75818)"/>
<mask id="path-31-inside-15_7603_75818" fill="white">
<path d="M1866.24 -14.3994H2004.48V123.841H1866.24V-14.3994Z"/>
</mask>
<path d="M2004.48 123.841V125.281H2005.92V123.841H2004.48ZM2003.04 -14.3994V123.841H2005.92V-14.3994H2003.04ZM2004.48 122.401H1866.24V125.281H2004.48V122.401Z" fill="#460E3E" fill-opacity="0.06" mask="url(#path-31-inside-15_7603_75818)"/>
<mask id="path-33-inside-16_7603_75818" fill="white">
<path d="M2004.48 -14.3994H2142.72V123.841H2004.48V-14.3994Z"/>
</mask>
<path d="M2142.72 123.841V125.281H2144.16V123.841H2142.72ZM2141.28 -14.3994V123.841H2144.16V-14.3994H2141.28ZM2142.72 122.401H2004.48V125.281H2142.72V122.401Z" fill="#460E3E" fill-opacity="0.06" mask="url(#path-33-inside-16_7603_75818)"/>
<mask id="path-35-inside-17_7603_75818" fill="white">
<path d="M-69.1172 123.84H69.1228V262.08H-69.1172V123.84Z"/>
</mask>
<path d="M69.1228 262.08V263.52H70.5628V262.08H69.1228ZM67.6828 123.84V262.08H70.5628V123.84H67.6828ZM69.1228 260.64H-69.1172V263.52H69.1228V260.64Z" fill="#460E3E" fill-opacity="0.06" mask="url(#path-35-inside-17_7603_75818)"/>
<mask id="path-37-inside-18_7603_75818" fill="white">
<path d="M69.1211 123.84H207.361V262.08H69.1211V123.84Z"/>
</mask>
<path d="M207.361 262.08V263.52H208.801V262.08H207.361ZM205.921 123.84V262.08H208.801V123.84H205.921ZM207.361 260.64H69.1211V263.52H207.361V260.64Z" fill="#460E3E" fill-opacity="0.06" mask="url(#path-37-inside-18_7603_75818)"/>
<mask id="path-39-inside-19_7603_75818" fill="white">
<path d="M207.363 123.84H345.603V262.08H207.363V123.84Z"/>
</mask>
<path d="M345.603 262.08V263.52H347.043V262.08H345.603ZM344.163 123.84V262.08H347.043V123.84H344.163ZM345.603 260.64H207.363V263.52H345.603V260.64Z" fill="#460E3E" fill-opacity="0.06" mask="url(#path-39-inside-19_7603_75818)"/>
<mask id="path-41-inside-20_7603_75818" fill="white">
<path d="M345.602 123.84H483.842V262.08H345.602V123.84Z"/>
</mask>
<path d="M483.842 262.08V263.52H485.282V262.08H483.842ZM482.402 123.84V262.08H485.282V123.84H482.402ZM483.842 260.64H345.602V263.52H483.842V260.64Z" fill="#460E3E" fill-opacity="0.06" mask="url(#path-41-inside-20_7603_75818)"/>
<mask id="path-43-inside-21_7603_75818" fill="white">
<path d="M483.844 123.84H622.084V262.08H483.844V123.84Z"/>
</mask>
<path d="M622.084 262.08V263.52H623.524V262.08H622.084ZM620.644 123.84V262.08H623.524V123.84H620.644ZM622.084 260.64H483.844V263.52H622.084V260.64Z" fill="#460E3E" fill-opacity="0.06" mask="url(#path-43-inside-21_7603_75818)"/>
<mask id="path-45-inside-22_7603_75818" fill="white">
<path d="M622.082 123.84H760.322V262.08H622.082V123.84Z"/>
</mask>
<path d="M622.082 123.84H760.322V262.08H622.082V123.84Z" fill="#FFD6FA" fill-opacity="0.4"/>
<path d="M760.322 262.08V263.52H761.762V262.08H760.322ZM758.882 123.84V262.08H761.762V123.84H758.882ZM760.322 260.64H622.082V263.52H760.322V260.64Z" fill="#460E3E" fill-opacity="0.06" mask="url(#path-45-inside-22_7603_75818)"/>
<mask id="path-47-inside-23_7603_75818" fill="white">
<path d="M760.32 123.84H898.56V262.08H760.32V123.84Z"/>
</mask>
<path d="M898.56 262.08V263.52H900V262.08H898.56ZM897.12 123.84V262.08H900V123.84H897.12ZM898.56 260.64H760.32V263.52H898.56V260.64Z" fill="#460E3E" fill-opacity="0.06" mask="url(#path-47-inside-23_7603_75818)"/>
<mask id="path-49-inside-24_7603_75818" fill="white">
<path d="M898.562 123.84H1036.8V262.08H898.562V123.84Z"/>
</mask>
<path d="M1036.8 262.08V263.52H1038.24V262.08H1036.8ZM1035.36 123.84V262.08H1038.24V123.84H1035.36ZM1036.8 260.64H898.562V263.52H1036.8V260.64Z" fill="#460E3E" fill-opacity="0.06" mask="url(#path-49-inside-24_7603_75818)"/>
<mask id="path-51-inside-25_7603_75818" fill="white">
<path d="M1036.8 123.84H1175.04V262.08H1036.8V123.84Z"/>
</mask>
<path d="M1175.04 262.08V263.52H1176.48V262.08H1175.04ZM1173.6 123.84V262.08H1176.48V123.84H1173.6ZM1175.04 260.64H1036.8V263.52H1175.04V260.64Z" fill="#460E3E" fill-opacity="0.06" mask="url(#path-51-inside-25_7603_75818)"/>
<mask id="path-53-inside-26_7603_75818" fill="white">
<path d="M1175.04 123.84H1313.28V262.08H1175.04V123.84Z"/>
</mask>
<path d="M1175.04 123.84H1313.28V262.08H1175.04V123.84Z" fill="#3AE2EE" fill-opacity="0.14"/>
<path d="M1313.28 262.08V263.52H1314.72V262.08H1313.28ZM1311.84 123.84V262.08H1314.72V123.84H1311.84ZM1313.28 260.64H1175.04V263.52H1313.28V260.64Z" fill="#460E3E" fill-opacity="0.06" mask="url(#path-53-inside-26_7603_75818)"/>
<mask id="path-55-inside-27_7603_75818" fill="white">
<path d="M1313.28 123.84H1451.52V262.08H1313.28V123.84Z"/>
</mask>
<path d="M1451.52 262.08V263.52H1452.96V262.08H1451.52ZM1450.08 123.84V262.08H1452.96V123.84H1450.08ZM1451.52 260.64H1313.28V263.52H1451.52V260.64Z" fill="#460E3E" fill-opacity="0.06" mask="url(#path-55-inside-27_7603_75818)"/>
<mask id="path-57-inside-28_7603_75818" fill="white">
<path d="M1451.52 123.84H1589.76V262.08H1451.52V123.84Z"/>
</mask>
<path d="M1589.76 262.08V263.52H1591.2V262.08H1589.76ZM1588.32 123.84V262.08H1591.2V123.84H1588.32ZM1589.76 260.64H1451.52V263.52H1589.76V260.64Z" fill="#460E3E" fill-opacity="0.06" mask="url(#path-57-inside-28_7603_75818)"/>
<mask id="path-59-inside-29_7603_75818" fill="white">
<path d="M1589.76 123.84H1728V262.08H1589.76V123.84Z"/>
</mask>
<path d="M1728 262.08V263.52H1729.44V262.08H1728ZM1726.56 123.84V262.08H1729.44V123.84H1726.56ZM1728 260.64H1589.76V263.52H1728V260.64Z" fill="#460E3E" fill-opacity="0.06" mask="url(#path-59-inside-29_7603_75818)"/>
<mask id="path-61-inside-30_7603_75818" fill="white">
<path d="M1728 123.84H1866.24V262.08H1728V123.84Z"/>
</mask>
<path d="M1866.24 262.08V263.52H1867.68V262.08H1866.24ZM1864.8 123.84V262.08H1867.68V123.84H1864.8ZM1866.24 260.64H1728V263.52H1866.24V260.64Z" fill="#460E3E" fill-opacity="0.06" mask="url(#path-61-inside-30_7603_75818)"/>
<mask id="path-63-inside-31_7603_75818" fill="white">
<path d="M1866.24 123.84H2004.48V262.08H1866.24V123.84Z"/>
</mask>
<path d="M2004.48 262.08V263.52H2005.92V262.08H2004.48ZM2003.04 123.84V262.08H2005.92V123.84H2003.04ZM2004.48 260.64H1866.24V263.52H2004.48V260.64Z" fill="#460E3E" fill-opacity="0.06" mask="url(#path-63-inside-31_7603_75818)"/>
<mask id="path-65-inside-32_7603_75818" fill="white">
<path d="M2004.48 123.84H2142.72V262.08H2004.48V123.84Z"/>
</mask>
<path d="M2004.48 123.84H2142.72V262.08H2004.48V123.84Z" fill="#4C1145" fill-opacity="0.1"/>
<path d="M2142.72 262.08V263.52H2144.16V262.08H2142.72ZM2141.28 123.84V262.08H2144.16V123.84H2141.28ZM2142.72 260.64H2004.48V263.52H2142.72V260.64Z" fill="#460E3E" fill-opacity="0.06" mask="url(#path-65-inside-32_7603_75818)"/>
<mask id="path-67-inside-33_7603_75818" fill="white">
<path d="M-69.1172 262.08H69.1228V400.32H-69.1172V262.08Z"/>
</mask>
<path d="M-69.1172 262.08H69.1228V400.32H-69.1172V262.08Z" fill="#D6FBFF" fill-opacity="0.3"/>
<path d="M69.1228 400.32V401.76H70.5628V400.32H69.1228ZM67.6828 262.08V400.32H70.5628V262.08H67.6828ZM69.1228 398.88H-69.1172V401.76H69.1228V398.88Z" fill="#460E3E" fill-opacity="0.06" mask="url(#path-67-inside-33_7603_75818)"/>
<mask id="path-69-inside-34_7603_75818" fill="white">
<path d="M69.1211 262.081H207.361V400.321H69.1211V262.081Z"/>
</mask>
<path d="M207.361 400.321V401.761H208.801V400.321H207.361ZM205.921 262.081V400.321H208.801V262.081H205.921ZM207.361 398.881H69.1211V401.761H207.361V398.881Z" fill="#460E3E" fill-opacity="0.06" mask="url(#path-69-inside-34_7603_75818)"/>
<mask id="path-71-inside-35_7603_75818" fill="white">
<path d="M207.363 262.08H345.603V400.32H207.363V262.08Z"/>
</mask>
<path d="M345.603 400.32V401.76H347.043V400.32H345.603ZM344.163 262.08V400.32H347.043V262.08H344.163ZM345.603 398.88H207.363V401.76H345.603V398.88Z" fill="#460E3E" fill-opacity="0.06" mask="url(#path-71-inside-35_7603_75818)"/>
<mask id="path-73-inside-36_7603_75818" fill="white">
<path d="M345.602 262.08H483.842V400.32H345.602V262.08Z"/>
</mask>
<path d="M483.842 400.32V401.76H485.282V400.32H483.842ZM482.402 262.08V400.32H485.282V262.08H482.402ZM483.842 398.88H345.602V401.76H483.842V398.88Z" fill="#460E3E" fill-opacity="0.06" mask="url(#path-73-inside-36_7603_75818)"/>
<mask id="path-75-inside-37_7603_75818" fill="white">
<path d="M483.844 262.08H622.084V400.32H483.844V262.08Z"/>
</mask>
<path d="M622.084 400.32V401.76H623.524V400.32H622.084ZM620.644 262.08V400.32H623.524V262.08H620.644ZM622.084 398.88H483.844V401.76H622.084V398.88Z" fill="#460E3E" fill-opacity="0.06" mask="url(#path-75-inside-37_7603_75818)"/>
<mask id="path-77-inside-38_7603_75818" fill="white">
<path d="M622.082 262.08H760.322V400.32H622.082V262.08Z"/>
</mask>
<path d="M760.322 400.32V401.76H761.762V400.32H760.322ZM758.882 262.08V400.32H761.762V262.08H758.882ZM760.322 398.88H622.082V401.76H760.322V398.88Z" fill="#460E3E" fill-opacity="0.06" mask="url(#path-77-inside-38_7603_75818)"/>
<mask id="path-79-inside-39_7603_75818" fill="white">
<path d="M760.32 262.081H898.56V400.321H760.32V262.081Z"/>
</mask>
<path d="M898.56 400.321V401.761H900V400.321H898.56ZM897.12 262.081V400.321H900V262.081H897.12ZM898.56 398.881H760.32V401.761H898.56V398.881Z" fill="#460E3E" fill-opacity="0.06" mask="url(#path-79-inside-39_7603_75818)"/>
<mask id="path-81-inside-40_7603_75818" fill="white">
<path d="M898.562 262.08H1036.8V400.32H898.562V262.08Z"/>
</mask>
<path d="M1036.8 400.32V401.76H1038.24V400.32H1036.8ZM1035.36 262.08V400.32H1038.24V262.08H1035.36ZM1036.8 398.88H898.562V401.76H1036.8V398.88Z" fill="#460E3E" fill-opacity="0.06" mask="url(#path-81-inside-40_7603_75818)"/>
<mask id="path-83-inside-41_7603_75818" fill="white">
<path d="M1036.8 262.08H1175.04V400.32H1036.8V262.08Z"/>
</mask>
<path d="M1175.04 400.32V401.76H1176.48V400.32H1175.04ZM1173.6 262.08V400.32H1176.48V262.08H1173.6ZM1175.04 398.88H1036.8V401.76H1175.04V398.88Z" fill="#460E3E" fill-opacity="0.06" mask="url(#path-83-inside-41_7603_75818)"/>
<mask id="path-85-inside-42_7603_75818" fill="white">
<path d="M1175.04 262.08H1313.28V400.32H1175.04V262.08Z"/>
</mask>
<path d="M1313.28 400.32V401.76H1314.72V400.32H1313.28ZM1311.84 262.08V400.32H1314.72V262.08H1311.84ZM1313.28 398.88H1175.04V401.76H1313.28V398.88Z" fill="#460E3E" fill-opacity="0.06" mask="url(#path-85-inside-42_7603_75818)"/>
<mask id="path-87-inside-43_7603_75818" fill="white">
<path d="M1313.28 262.08H1451.52V400.32H1313.28V262.08Z"/>
</mask>
<path d="M1451.52 400.32V401.76H1452.96V400.32H1451.52ZM1450.08 262.08V400.32H1452.96V262.08H1450.08ZM1451.52 398.88H1313.28V401.76H1451.52V398.88Z" fill="#460E3E" fill-opacity="0.06" mask="url(#path-87-inside-43_7603_75818)"/>
<mask id="path-89-inside-44_7603_75818" fill="white">
<path d="M1451.52 262.081H1589.76V400.321H1451.52V262.081Z"/>
</mask>
<path d="M1589.76 400.321V401.761H1591.2V400.321H1589.76ZM1588.32 262.081V400.321H1591.2V262.081H1588.32ZM1589.76 398.881H1451.52V401.761H1589.76V398.881Z" fill="#460E3E" fill-opacity="0.06" mask="url(#path-89-inside-44_7603_75818)"/>
<mask id="path-91-inside-45_7603_75818" fill="white">
<path d="M1589.76 262.08H1728V400.32H1589.76V262.08Z"/>
</mask>
<path d="M1589.76 262.08H1728V400.32H1589.76V262.08Z" fill="#F3B690" fill-opacity="0.2"/>
<path d="M1728 400.32V401.76H1729.44V400.32H1728ZM1726.56 262.08V400.32H1729.44V262.08H1726.56ZM1728 398.88H1589.76V401.76H1728V398.88Z" fill="#460E3E" fill-opacity="0.06" mask="url(#path-91-inside-45_7603_75818)"/>
<mask id="path-93-inside-46_7603_75818" fill="white">
<path d="M1728 262.081H1866.24V400.321H1728V262.081Z"/>
</mask>
<path d="M1866.24 400.321V401.761H1867.68V400.321H1866.24ZM1864.8 262.081V400.321H1867.68V262.081H1864.8ZM1866.24 398.881H1728V401.761H1866.24V398.881Z" fill="#460E3E" fill-opacity="0.06" mask="url(#path-93-inside-46_7603_75818)"/>
<mask id="path-95-inside-47_7603_75818" fill="white">
<path d="M1866.24 262.081H2004.48V400.321H1866.24V262.081Z"/>
</mask>
<path d="M2004.48 400.321V401.761H2005.92V400.321H2004.48ZM2003.04 262.081V400.321H2005.92V262.081H2003.04ZM2004.48 398.881H1866.24V401.761H2004.48V398.881Z" fill="#460E3E" fill-opacity="0.06" mask="url(#path-95-inside-47_7603_75818)"/>
<mask id="path-97-inside-48_7603_75818" fill="white">
<path d="M2004.48 262.08H2142.72V400.32H2004.48V262.08Z"/>
</mask>
<path d="M2142.72 400.32V401.76H2144.16V400.32H2142.72ZM2141.28 262.08V400.32H2144.16V262.08H2141.28ZM2142.72 398.88H2004.48V401.76H2142.72V398.88Z" fill="#460E3E" fill-opacity="0.06" mask="url(#path-97-inside-48_7603_75818)"/>
<mask id="path-99-inside-49_7603_75818" fill="white">
<path d="M-69.1172 400.32H69.1228V538.56H-69.1172V400.32Z"/>
</mask>
<path d="M69.1228 538.56V540H70.5628V538.56H69.1228ZM67.6828 400.32V538.56H70.5628V400.32H67.6828ZM69.1228 537.12H-69.1172V540H69.1228V537.12Z" fill="#460E3E" fill-opacity="0.06" mask="url(#path-99-inside-49_7603_75818)"/>
<mask id="path-101-inside-50_7603_75818" fill="white">
<path d="M69.1211 400.32H207.361V538.56H69.1211V400.32Z"/>
</mask>
<path d="M207.361 538.56V540H208.801V538.56H207.361ZM205.921 400.32V538.56H208.801V400.32H205.921ZM207.361 537.12H69.1211V540H207.361V537.12Z" fill="#460E3E" fill-opacity="0.06" mask="url(#path-101-inside-50_7603_75818)"/>
<mask id="path-103-inside-51_7603_75818" fill="white">
<path d="M207.363 400.32H345.603V538.56H207.363V400.32Z"/>
</mask>
<path d="M345.603 538.56V540H347.043V538.56H345.603ZM344.163 400.32V538.56H347.043V400.32H344.163ZM345.603 537.12H207.363V540H345.603V537.12Z" fill="#460E3E" fill-opacity="0.06" mask="url(#path-103-inside-51_7603_75818)"/>
<mask id="path-105-inside-52_7603_75818" fill="white">
<path d="M345.602 400.32H483.842V538.56H345.602V400.32Z"/>
</mask>
<path d="M483.842 538.56V540H485.282V538.56H483.842ZM482.402 400.32V538.56H485.282V400.32H482.402ZM483.842 537.12H345.602V540H483.842V537.12Z" fill="#460E3E" fill-opacity="0.06" mask="url(#path-105-inside-52_7603_75818)"/>
<mask id="path-107-inside-53_7603_75818" fill="white">
<path d="M483.844 400.32H622.084V538.56H483.844V400.32Z"/>
</mask>
<path d="M622.084 538.56V540H623.524V538.56H622.084ZM620.644 400.32V538.56H623.524V400.32H620.644ZM622.084 537.12H483.844V540H622.084V537.12Z" fill="#460E3E" fill-opacity="0.06" mask="url(#path-107-inside-53_7603_75818)"/>
<mask id="path-109-inside-54_7603_75818" fill="white">
<path d="M622.082 400.32H760.322V538.56H622.082V400.32Z"/>
</mask>
<path d="M760.322 538.56V540H761.762V538.56H760.322ZM758.882 400.32V538.56H761.762V400.32H758.882ZM760.322 537.12H622.082V540H760.322V537.12Z" fill="#460E3E" fill-opacity="0.06" mask="url(#path-109-inside-54_7603_75818)"/>
<mask id="path-111-inside-55_7603_75818" fill="white">
<path d="M760.32 400.32H898.56V538.56H760.32V400.32Z"/>
</mask>
<path d="M760.32 400.32H898.56V538.56H760.32V400.32Z" fill="#E351D0" fill-opacity="0.05"/>
<path d="M898.56 538.56V540H900V538.56H898.56ZM897.12 400.32V538.56H900V400.32H897.12ZM898.56 537.12H760.32V540H898.56V537.12Z" fill="#460E3E" fill-opacity="0.06" mask="url(#path-111-inside-55_7603_75818)"/>
<mask id="path-113-inside-56_7603_75818" fill="white">
<path d="M898.562 400.32H1036.8V538.56H898.562V400.32Z"/>
</mask>
<path d="M1036.8 538.56V540H1038.24V538.56H1036.8ZM1035.36 400.32V538.56H1038.24V400.32H1035.36ZM1036.8 537.12H898.562V540H1036.8V537.12Z" fill="#460E3E" fill-opacity="0.06" mask="url(#path-113-inside-56_7603_75818)"/>
<mask id="path-115-inside-57_7603_75818" fill="white">
<path d="M1036.8 400.32H1175.04V538.56H1036.8V400.32Z"/>
</mask>
<path d="M1175.04 538.56V540H1176.48V538.56H1175.04ZM1173.6 400.32V538.56H1176.48V400.32H1173.6ZM1175.04 537.12H1036.8V540H1175.04V537.12Z" fill="#460E3E" fill-opacity="0.06" mask="url(#path-115-inside-57_7603_75818)"/>
<mask id="path-117-inside-58_7603_75818" fill="white">
<path d="M1175.04 400.32H1313.28V538.56H1175.04V400.32Z"/>
</mask>
<path d="M1313.28 538.56V540H1314.72V538.56H1313.28ZM1311.84 400.32V538.56H1314.72V400.32H1311.84ZM1313.28 537.12H1175.04V540H1313.28V537.12Z" fill="#460E3E" fill-opacity="0.06" mask="url(#path-117-inside-58_7603_75818)"/>
<mask id="path-119-inside-59_7603_75818" fill="white">
<path d="M1313.28 400.32H1451.52V538.56H1313.28V400.32Z"/>
</mask>
<path d="M1451.52 538.56V540H1452.96V538.56H1451.52ZM1450.08 400.32V538.56H1452.96V400.32H1450.08ZM1451.52 537.12H1313.28V540H1451.52V537.12Z" fill="#460E3E" fill-opacity="0.06" mask="url(#path-119-inside-59_7603_75818)"/>
<mask id="path-121-inside-60_7603_75818" fill="white">
<path d="M1451.52 400.32H1589.76V538.56H1451.52V400.32Z"/>
</mask>
<path d="M1589.76 538.56V540H1591.2V538.56H1589.76ZM1588.32 400.32V538.56H1591.2V400.32H1588.32ZM1589.76 537.12H1451.52V540H1589.76V537.12Z" fill="#460E3E" fill-opacity="0.06" mask="url(#path-121-inside-60_7603_75818)"/>
<mask id="path-123-inside-61_7603_75818" fill="white">
<path d="M1589.76 400.32H1728V538.56H1589.76V400.32Z"/>
</mask>
<path d="M1728 538.56V540H1729.44V538.56H1728ZM1726.56 400.32V538.56H1729.44V400.32H1726.56ZM1728 537.12H1589.76V540H1728V537.12Z" fill="#460E3E" fill-opacity="0.06" mask="url(#path-123-inside-61_7603_75818)"/>
<mask id="path-125-inside-62_7603_75818" fill="white">
<path d="M1728 400.32H1866.24V538.56H1728V400.32Z"/>
</mask>
<path d="M1866.24 538.56V540H1867.68V538.56H1866.24ZM1864.8 400.32V538.56H1867.68V400.32H1864.8ZM1866.24 537.12H1728V540H1866.24V537.12Z" fill="#460E3E" fill-opacity="0.06" mask="url(#path-125-inside-62_7603_75818)"/>
<mask id="path-127-inside-63_7603_75818" fill="white">
<path d="M1866.24 400.32H2004.48V538.56H1866.24V400.32Z"/>
</mask>
<path d="M2004.48 538.56V540H2005.92V538.56H2004.48ZM2003.04 400.32V538.56H2005.92V400.32H2003.04ZM2004.48 537.12H1866.24V540H2004.48V537.12Z" fill="#460E3E" fill-opacity="0.06" mask="url(#path-127-inside-63_7603_75818)"/>
<mask id="path-129-inside-64_7603_75818" fill="white">
<path d="M2004.48 400.32H2142.72V538.56H2004.48V400.32Z"/>
</mask>
<path d="M2142.72 538.56V540H2144.16V538.56H2142.72ZM2141.28 400.32V538.56H2144.16V400.32H2141.28ZM2142.72 537.12H2004.48V540H2142.72V537.12Z" fill="#460E3E" fill-opacity="0.06" mask="url(#path-129-inside-64_7603_75818)"/>
<mask id="path-131-inside-65_7603_75818" fill="white">
<path d="M-69.1172 538.561H69.1228V676.801H-69.1172V538.561Z"/>
</mask>
<path d="M69.1228 676.801V678.241H70.5628V676.801H69.1228ZM67.6828 538.561V676.801H70.5628V538.561H67.6828ZM69.1228 675.361H-69.1172V678.241H69.1228V675.361Z" fill="#460E3E" fill-opacity="0.06" mask="url(#path-131-inside-65_7603_75818)"/>
<mask id="path-133-inside-66_7603_75818" fill="white">
<path d="M69.1211 538.561H207.361V676.801H69.1211V538.561Z"/>
</mask>
<path d="M207.361 676.801V678.241H208.801V676.801H207.361ZM205.921 538.561V676.801H208.801V538.561H205.921ZM207.361 675.361H69.1211V678.241H207.361V675.361Z" fill="#460E3E" fill-opacity="0.06" mask="url(#path-133-inside-66_7603_75818)"/>
<mask id="path-135-inside-67_7603_75818" fill="white">
<path d="M207.363 538.561H345.603V676.801H207.363V538.561Z"/>
</mask>
<path d="M345.603 676.801V678.241H347.043V676.801H345.603ZM344.163 538.561V676.801H347.043V538.561H344.163ZM345.603 675.361H207.363V678.241H345.603V675.361Z" fill="#460E3E" fill-opacity="0.06" mask="url(#path-135-inside-67_7603_75818)"/>
<mask id="path-137-inside-68_7603_75818" fill="white">
<path d="M345.602 538.561H483.842V676.801H345.602V538.561Z"/>
</mask>
<path d="M345.602 538.561H483.842V676.801H345.602V538.561Z" fill="#FFDBC4" fill-opacity="0.2"/>
<path d="M483.842 676.801V678.241H485.282V676.801H483.842ZM482.402 538.561V676.801H485.282V538.561H482.402ZM483.842 675.361H345.602V678.241H483.842V675.361Z" fill="#460E3E" fill-opacity="0.06" mask="url(#path-137-inside-68_7603_75818)"/>
<mask id="path-139-inside-69_7603_75818" fill="white">
<path d="M483.844 538.561H622.084V676.801H483.844V538.561Z"/>
</mask>
<path d="M622.084 676.801V678.241H623.524V676.801H622.084ZM620.644 538.561V676.801H623.524V538.561H620.644ZM622.084 675.361H483.844V678.241H622.084V675.361Z" fill="#460E3E" fill-opacity="0.06" mask="url(#path-139-inside-69_7603_75818)"/>
<mask id="path-141-inside-70_7603_75818" fill="white">
<path d="M622.082 538.561H760.322V676.801H622.082V538.561Z"/>
</mask>
<path d="M760.322 676.801V678.241H761.762V676.801H760.322ZM758.882 538.561V676.801H761.762V538.561H758.882ZM760.322 675.361H622.082V678.241H760.322V675.361Z" fill="#460E3E" fill-opacity="0.06" mask="url(#path-141-inside-70_7603_75818)"/>
<mask id="path-143-inside-71_7603_75818" fill="white">
<path d="M760.32 538.561H898.56V676.801H760.32V538.561Z"/>
</mask>
<path d="M898.56 676.801V678.241H900V676.801H898.56ZM897.12 538.561V676.801H900V538.561H897.12ZM898.56 675.361H760.32V678.241H898.56V675.361Z" fill="#460E3E" fill-opacity="0.06" mask="url(#path-143-inside-71_7603_75818)"/>
<mask id="path-145-inside-72_7603_75818" fill="white">
<path d="M898.562 538.561H1036.8V676.801H898.562V538.561Z"/>
</mask>
<path d="M1036.8 676.801V678.241H1038.24V676.801H1036.8ZM1035.36 538.561V676.801H1038.24V538.561H1035.36ZM1036.8 675.361H898.562V678.241H1036.8V675.361Z" fill="#460E3E" fill-opacity="0.06" mask="url(#path-145-inside-72_7603_75818)"/>
<mask id="path-147-inside-73_7603_75818" fill="white">
<path d="M1036.8 538.561H1175.04V676.801H1036.8V538.561Z"/>
</mask>
<path d="M1175.04 676.801V678.241H1176.48V676.801H1175.04ZM1173.6 538.561V676.801H1176.48V538.561H1173.6ZM1175.04 675.361H1036.8V678.241H1175.04V675.361Z" fill="#460E3E" fill-opacity="0.06" mask="url(#path-147-inside-73_7603_75818)"/>
<mask id="path-149-inside-74_7603_75818" fill="white">
<path d="M1175.04 538.561H1313.28V676.801H1175.04V538.561Z"/>
</mask>
<path d="M1175.04 538.561H1313.28V676.801H1175.04V538.561Z" fill="#FDE0CE" fill-opacity="0.25"/>
<path d="M1313.28 676.801V678.241H1314.72V676.801H1313.28ZM1311.84 538.561V676.801H1314.72V538.561H1311.84ZM1313.28 675.361H1175.04V678.241H1313.28V675.361Z" fill="#460E3E" fill-opacity="0.06" mask="url(#path-149-inside-74_7603_75818)"/>
<mask id="path-151-inside-75_7603_75818" fill="white">
<path d="M1313.28 538.561H1451.52V676.801H1313.28V538.561Z"/>
</mask>
<path d="M1451.52 676.801V678.241H1452.96V676.801H1451.52ZM1450.08 538.561V676.801H1452.96V538.561H1450.08ZM1451.52 675.361H1313.28V678.241H1451.52V675.361Z" fill="#460E3E" fill-opacity="0.06" mask="url(#path-151-inside-75_7603_75818)"/>
<mask id="path-153-inside-76_7603_75818" fill="white">
<path d="M1451.52 538.561H1589.76V676.801H1451.52V538.561Z"/>
</mask>
<path d="M1589.76 676.801V678.241H1591.2V676.801H1589.76ZM1588.32 538.561V676.801H1591.2V538.561H1588.32ZM1589.76 675.361H1451.52V678.241H1589.76V675.361Z" fill="#460E3E" fill-opacity="0.06" mask="url(#path-153-inside-76_7603_75818)"/>
<mask id="path-155-inside-77_7603_75818" fill="white">
<path d="M1589.76 538.561H1728V676.801H1589.76V538.561Z"/>
</mask>
<path d="M1728 676.801V678.241H1729.44V676.801H1728ZM1726.56 538.561V676.801H1729.44V538.561H1726.56ZM1728 675.361H1589.76V678.241H1728V675.361Z" fill="#460E3E" fill-opacity="0.06" mask="url(#path-155-inside-77_7603_75818)"/>
<mask id="path-157-inside-78_7603_75818" fill="white">
<path d="M1728 538.561H1866.24V676.801H1728V538.561Z"/>
</mask>
<path d="M1866.24 676.801V678.241H1867.68V676.801H1866.24ZM1864.8 538.561V676.801H1867.68V538.561H1864.8ZM1866.24 675.361H1728V678.241H1866.24V675.361Z" fill="#460E3E" fill-opacity="0.06" mask="url(#path-157-inside-78_7603_75818)"/>
<mask id="path-159-inside-79_7603_75818" fill="white">
<path d="M1866.24 538.561H2004.48V676.801H1866.24V538.561Z"/>
</mask>
<path d="M2004.48 676.801V678.241H2005.92V676.801H2004.48ZM2003.04 538.561V676.801H2005.92V538.561H2003.04ZM2004.48 675.361H1866.24V678.241H2004.48V675.361Z" fill="#460E3E" fill-opacity="0.06" mask="url(#path-159-inside-79_7603_75818)"/>
<mask id="path-161-inside-80_7603_75818" fill="white">
<path d="M2004.48 538.561H2142.72V676.801H2004.48V538.561Z"/>
</mask>
<path d="M2142.72 676.801V678.241H2144.16V676.801H2142.72ZM2141.28 538.561V676.801H2144.16V538.561H2141.28ZM2142.72 675.361H2004.48V678.241H2142.72V675.361Z" fill="#460E3E" fill-opacity="0.06" mask="url(#path-161-inside-80_7603_75818)"/>
<mask id="path-163-inside-81_7603_75818" fill="white">
<path d="M-69.1172 676.8H69.1228V815.04H-69.1172V676.8Z"/>
</mask>
<path d="M69.1228 815.04V816.48H70.5628V815.04H69.1228ZM67.6828 676.8V815.04H70.5628V676.8H67.6828ZM69.1228 813.6H-69.1172V816.48H69.1228V813.6Z" fill="#460E3E" fill-opacity="0.06" mask="url(#path-163-inside-81_7603_75818)"/>
<mask id="path-165-inside-82_7603_75818" fill="white">
<path d="M69.1211 676.8H207.361V815.04H69.1211V676.8Z"/>
</mask>
<path d="M69.1211 676.8H207.361V815.04H69.1211V676.8Z" fill="#D6FBFF" fill-opacity="0.2"/>
<path d="M207.361 815.04V816.48H208.801V815.04H207.361ZM205.921 676.8V815.04H208.801V676.8H205.921ZM207.361 813.6H69.1211V816.48H207.361V813.6Z" fill="#460E3E" fill-opacity="0.06" mask="url(#path-165-inside-82_7603_75818)"/>
<mask id="path-167-inside-83_7603_75818" fill="white">
<path d="M207.363 676.8H345.603V815.04H207.363V676.8Z"/>
</mask>
<path d="M345.603 815.04V816.48H347.043V815.04H345.603ZM344.163 676.8V815.04H347.043V676.8H344.163ZM345.603 813.6H207.363V816.48H345.603V813.6Z" fill="#460E3E" fill-opacity="0.06" mask="url(#path-167-inside-83_7603_75818)"/>
<mask id="path-169-inside-84_7603_75818" fill="white">
<path d="M345.602 676.8H483.842V815.04H345.602V676.8Z"/>
</mask>
<path d="M483.842 815.04V816.48H485.282V815.04H483.842ZM482.402 676.8V815.04H485.282V676.8H482.402ZM483.842 813.6H345.602V816.48H483.842V813.6Z" fill="#460E3E" fill-opacity="0.06" mask="url(#path-169-inside-84_7603_75818)"/>
<mask id="path-171-inside-85_7603_75818" fill="white">
<path d="M483.844 676.8H622.084V815.04H483.844V676.8Z"/>
</mask>
<path d="M622.084 815.04V816.48H623.524V815.04H622.084ZM620.644 676.8V815.04H623.524V676.8H620.644ZM622.084 813.6H483.844V816.48H622.084V813.6Z" fill="#460E3E" fill-opacity="0.06" mask="url(#path-171-inside-85_7603_75818)"/>
<mask id="path-173-inside-86_7603_75818" fill="white">
<path d="M622.082 676.8H760.322V815.04H622.082V676.8Z"/>
</mask>
<path d="M760.322 815.04V816.48H761.762V815.04H760.322ZM758.882 676.8V815.04H761.762V676.8H758.882ZM760.322 813.6H622.082V816.48H760.322V813.6Z" fill="#460E3E" fill-opacity="0.06" mask="url(#path-173-inside-86_7603_75818)"/>
<mask id="path-175-inside-87_7603_75818" fill="white">
<path d="M760.32 676.8H898.56V815.04H760.32V676.8Z"/>
</mask>
<path d="M898.56 815.04V816.48H900V815.04H898.56ZM897.12 676.8V815.04H900V676.8H897.12ZM898.56 813.6H760.32V816.48H898.56V813.6Z" fill="#460E3E" fill-opacity="0.06" mask="url(#path-175-inside-87_7603_75818)"/>
<mask id="path-177-inside-88_7603_75818" fill="white">
<path d="M898.562 676.8H1036.8V815.04H898.562V676.8Z"/>
</mask>
<path d="M1036.8 815.04V816.48H1038.24V815.04H1036.8ZM1035.36 676.8V815.04H1038.24V676.8H1035.36ZM1036.8 813.6H898.562V816.48H1036.8V813.6Z" fill="#460E3E" fill-opacity="0.06" mask="url(#path-177-inside-88_7603_75818)"/>
<mask id="path-179-inside-89_7603_75818" fill="white">
<path d="M1036.8 676.8H1175.04V815.04H1036.8V676.8Z"/>
</mask>
<path d="M1175.04 815.04V816.48H1176.48V815.04H1175.04ZM1173.6 676.8V815.04H1176.48V676.8H1173.6ZM1175.04 813.6H1036.8V816.48H1175.04V813.6Z" fill="#460E3E" fill-opacity="0.06" mask="url(#path-179-inside-89_7603_75818)"/>
<mask id="path-181-inside-90_7603_75818" fill="white">
<path d="M1175.04 676.8H1313.28V815.04H1175.04V676.8Z"/>
</mask>
<path d="M1313.28 815.04V816.48H1314.72V815.04H1313.28ZM1311.84 676.8V815.04H1314.72V676.8H1311.84ZM1313.28 813.6H1175.04V816.48H1313.28V813.6Z" fill="#460E3E" fill-opacity="0.06" mask="url(#path-181-inside-90_7603_75818)"/>
<mask id="path-183-inside-91_7603_75818" fill="white">
<path d="M1313.28 676.8H1451.52V815.04H1313.28V676.8Z"/>
</mask>
<path d="M1451.52 815.04V816.48H1452.96V815.04H1451.52ZM1450.08 676.8V815.04H1452.96V676.8H1450.08ZM1451.52 813.6H1313.28V816.48H1451.52V813.6Z" fill="#460E3E" fill-opacity="0.06" mask="url(#path-183-inside-91_7603_75818)"/>
<mask id="path-185-inside-92_7603_75818" fill="white">
<path d="M1451.52 676.8H1589.76V815.04H1451.52V676.8Z"/>
</mask>
<path d="M1589.76 815.04V816.48H1591.2V815.04H1589.76ZM1588.32 676.8V815.04H1591.2V676.8H1588.32ZM1589.76 813.6H1451.52V816.48H1589.76V813.6Z" fill="#460E3E" fill-opacity="0.06" mask="url(#path-185-inside-92_7603_75818)"/>
<mask id="path-187-inside-93_7603_75818" fill="white">
<path d="M1589.76 676.8H1728V815.04H1589.76V676.8Z"/>
</mask>
<path d="M1728 815.04V816.48H1729.44V815.04H1728ZM1726.56 676.8V815.04H1729.44V676.8H1726.56ZM1728 813.6H1589.76V816.48H1728V813.6Z" fill="#460E3E" fill-opacity="0.06" mask="url(#path-187-inside-93_7603_75818)"/>
<mask id="path-189-inside-94_7603_75818" fill="white">
<path d="M1728 676.8H1866.24V815.04H1728V676.8Z"/>
</mask>
<path d="M1866.24 815.04V816.48H1867.68V815.04H1866.24ZM1864.8 676.8V815.04H1867.68V676.8H1864.8ZM1866.24 813.6H1728V816.48H1866.24V813.6Z" fill="#460E3E" fill-opacity="0.06" mask="url(#path-189-inside-94_7603_75818)"/>
<mask id="path-191-inside-95_7603_75818" fill="white">
<path d="M1866.24 676.8H2004.48V815.04H1866.24V676.8Z"/>
</mask>
<path d="M1866.24 676.8H2004.48V815.04H1866.24V676.8Z" fill="#103D42" fill-opacity="0.05"/>
<path d="M2004.48 815.04V816.48H2005.92V815.04H2004.48ZM2003.04 676.8V815.04H2005.92V676.8H2003.04ZM2004.48 813.6H1866.24V816.48H2004.48V813.6Z" fill="#460E3E" fill-opacity="0.06" mask="url(#path-191-inside-95_7603_75818)"/>
<mask id="path-193-inside-96_7603_75818" fill="white">
<path d="M2004.48 676.8H2142.72V815.04H2004.48V676.8Z"/>
</mask>
<path d="M2142.72 815.04V816.48H2144.16V815.04H2142.72ZM2141.28 676.8V815.04H2144.16V676.8H2141.28ZM2142.72 813.6H2004.48V816.48H2142.72V813.6Z" fill="#460E3E" fill-opacity="0.06" mask="url(#path-193-inside-96_7603_75818)"/>
<mask id="path-195-inside-97_7603_75818" fill="white">
<path d="M-69.1172 815.04H69.1228V953.28H-69.1172V815.04Z"/>
</mask>
<path d="M69.1228 953.28V954.72H70.5628V953.28H69.1228ZM67.6828 815.04V953.28H70.5628V815.04H67.6828ZM69.1228 951.84H-69.1172V954.72H69.1228V951.84Z" fill="#460E3E" fill-opacity="0.06" mask="url(#path-195-inside-97_7603_75818)"/>
<mask id="path-197-inside-98_7603_75818" fill="white">
<path d="M69.1211 815.04H207.361V953.28H69.1211V815.04Z"/>
</mask>
<path d="M207.361 953.28V954.72H208.801V953.28H207.361ZM205.921 815.04V953.28H208.801V815.04H205.921ZM207.361 951.84H69.1211V954.72H207.361V951.84Z" fill="#460E3E" fill-opacity="0.06" mask="url(#path-197-inside-98_7603_75818)"/>
<mask id="path-199-inside-99_7603_75818" fill="white">
<path d="M207.363 815.04H345.603V953.28H207.363V815.04Z"/>
</mask>
<path d="M345.603 953.28V954.72H347.043V953.28H345.603ZM344.163 815.04V953.28H347.043V815.04H344.163ZM345.603 951.84H207.363V954.72H345.603V951.84Z" fill="#460E3E" fill-opacity="0.06" mask="url(#path-199-inside-99_7603_75818)"/>
<mask id="path-201-inside-100_7603_75818" fill="white">
<path d="M345.602 815.04H483.842V953.28H345.602V815.04Z"/>
</mask>
<path d="M483.842 953.28V954.72H485.282V953.28H483.842ZM482.402 815.04V953.28H485.282V815.04H482.402ZM483.842 951.84H345.602V954.72H483.842V951.84Z" fill="#460E3E" fill-opacity="0.06" mask="url(#path-201-inside-100_7603_75818)"/>
<mask id="path-203-inside-101_7603_75818" fill="white">
<path d="M483.844 815.04H622.084V953.28H483.844V815.04Z"/>
</mask>
<path d="M622.084 953.28V954.72H623.524V953.28H622.084ZM620.644 815.04V953.28H623.524V815.04H620.644ZM622.084 951.84H483.844V954.72H622.084V951.84Z" fill="#460E3E" fill-opacity="0.06" mask="url(#path-203-inside-101_7603_75818)"/>
<mask id="path-205-inside-102_7603_75818" fill="white">
<path d="M622.082 815.04H760.322V953.28H622.082V815.04Z"/>
</mask>
<path d="M760.322 953.28V954.72H761.762V953.28H760.322ZM758.882 815.04V953.28H761.762V815.04H758.882ZM760.322 951.84H622.082V954.72H760.322V951.84Z" fill="#460E3E" fill-opacity="0.06" mask="url(#path-205-inside-102_7603_75818)"/>
<mask id="path-207-inside-103_7603_75818" fill="white">
<path d="M760.32 815.04H898.56V953.28H760.32V815.04Z"/>
</mask>
<path d="M760.32 815.04H898.56V953.28H760.32V815.04Z" fill="#19C9DB" fill-opacity="0.1"/>
<path d="M898.56 953.28V954.72H900V953.28H898.56ZM897.12 815.04V953.28H900V815.04H897.12ZM898.56 951.84H760.32V954.72H898.56V951.84Z" fill="#460E3E" fill-opacity="0.06" mask="url(#path-207-inside-103_7603_75818)"/>
<mask id="path-209-inside-104_7603_75818" fill="white">
<path d="M898.562 815.04H1036.8V953.28H898.562V815.04Z"/>
</mask>
<path d="M1036.8 953.28V954.72H1038.24V953.28H1036.8ZM1035.36 815.04V953.28H1038.24V815.04H1035.36ZM1036.8 951.84H898.562V954.72H1036.8V951.84Z" fill="#460E3E" fill-opacity="0.06" mask="url(#path-209-inside-104_7603_75818)"/>
<mask id="path-211-inside-105_7603_75818" fill="white">
<path d="M1036.8 815.04H1175.04V953.28H1036.8V815.04Z"/>
</mask>
<path d="M1175.04 953.28V954.72H1176.48V953.28H1175.04ZM1173.6 815.04V953.28H1176.48V815.04H1173.6ZM1175.04 951.84H1036.8V954.72H1175.04V951.84Z" fill="#460E3E" fill-opacity="0.06" mask="url(#path-211-inside-105_7603_75818)"/>
<mask id="path-213-inside-106_7603_75818" fill="white">
<path d="M1175.04 815.04H1313.28V953.28H1175.04V815.04Z"/>
</mask>
<path d="M1313.28 953.28V954.72H1314.72V953.28H1313.28ZM1311.84 815.04V953.28H1314.72V815.04H1311.84ZM1313.28 951.84H1175.04V954.72H1313.28V951.84Z" fill="#460E3E" fill-opacity="0.06" mask="url(#path-213-inside-106_7603_75818)"/>
<mask id="path-215-inside-107_7603_75818" fill="white">
<path d="M1313.28 815.04H1451.52V953.28H1313.28V815.04Z"/>
</mask>
<path d="M1451.52 953.28V954.72H1452.96V953.28H1451.52ZM1450.08 815.04V953.28H1452.96V815.04H1450.08ZM1451.52 951.84H1313.28V954.72H1451.52V951.84Z" fill="#460E3E" fill-opacity="0.06" mask="url(#path-215-inside-107_7603_75818)"/>
<mask id="path-217-inside-108_7603_75818" fill="white">
<path d="M1451.52 815.04H1589.76V953.28H1451.52V815.04Z"/>
</mask>
<path d="M1589.76 953.28V954.72H1591.2V953.28H1589.76ZM1588.32 815.04V953.28H1591.2V815.04H1588.32ZM1589.76 951.84H1451.52V954.72H1589.76V951.84Z" fill="#460E3E" fill-opacity="0.06" mask="url(#path-217-inside-108_7603_75818)"/>
<mask id="path-219-inside-109_7603_75818" fill="white">
<path d="M1589.76 815.04H1728V953.28H1589.76V815.04Z"/>
</mask>
<path d="M1589.76 815.04H1728V953.28H1589.76V815.04Z" fill="#D6FBFF" fill-opacity="0.3"/>
<path d="M1728 953.28V954.72H1729.44V953.28H1728ZM1726.56 815.04V953.28H1729.44V815.04H1726.56ZM1728 951.84H1589.76V954.72H1728V951.84Z" fill="#460E3E" fill-opacity="0.06" mask="url(#path-219-inside-109_7603_75818)"/>
<mask id="path-221-inside-110_7603_75818" fill="white">
<path d="M1728 815.04H1866.24V953.28H1728V815.04Z"/>
</mask>
<path d="M1866.24 953.28V954.72H1867.68V953.28H1866.24ZM1864.8 815.04V953.28H1867.68V815.04H1864.8ZM1866.24 951.84H1728V954.72H1866.24V951.84Z" fill="#460E3E" fill-opacity="0.06" mask="url(#path-221-inside-110_7603_75818)"/>
<mask id="path-223-inside-111_7603_75818" fill="white">
<path d="M1866.24 815.04H2004.48V953.28H1866.24V815.04Z"/>
</mask>
<path d="M2004.48 953.28V954.72H2005.92V953.28H2004.48ZM2003.04 815.04V953.28H2005.92V815.04H2003.04ZM2004.48 951.84H1866.24V954.72H2004.48V951.84Z" fill="#460E3E" fill-opacity="0.06" mask="url(#path-223-inside-111_7603_75818)"/>
<mask id="path-225-inside-112_7603_75818" fill="white">
<path d="M2004.48 815.04H2142.72V953.28H2004.48V815.04Z"/>
</mask>
<path d="M2142.72 953.28V954.72H2144.16V953.28H2142.72ZM2141.28 815.04V953.28H2144.16V815.04H2141.28ZM2142.72 951.84H2004.48V954.72H2142.72V951.84Z" fill="#460E3E" fill-opacity="0.06" mask="url(#path-225-inside-112_7603_75818)"/>
<mask id="path-227-inside-113_7603_75818" fill="white">
<path d="M-69.1172 953.28H69.1228V1091.52H-69.1172V953.28Z"/>
</mask>
<path d="M69.1228 1091.52V1092.96H70.5628V1091.52H69.1228ZM67.6828 953.28V1091.52H70.5628V953.28H67.6828ZM69.1228 1090.08H-69.1172V1092.96H69.1228V1090.08Z" fill="#460E3E" fill-opacity="0.06" mask="url(#path-227-inside-113_7603_75818)"/>
<mask id="path-229-inside-114_7603_75818" fill="white">
<path d="M69.1211 953.28H207.361V1091.52H69.1211V953.28Z"/>
</mask>
<path d="M207.361 1091.52V1092.96H208.801V1091.52H207.361ZM205.921 953.28V1091.52H208.801V953.28H205.921ZM207.361 1090.08H69.1211V1092.96H207.361V1090.08Z" fill="#460E3E" fill-opacity="0.06" mask="url(#path-229-inside-114_7603_75818)"/>
<mask id="path-231-inside-115_7603_75818" fill="white">
<path d="M207.363 953.28H345.603V1091.52H207.363V953.28Z"/>
</mask>
<path d="M207.363 953.28H345.603V1091.52H207.363V953.28Z" fill="#ED8C54" fill-opacity="0.1"/>
<path d="M345.603 1091.52V1092.96H347.043V1091.52H345.603ZM344.163 953.28V1091.52H347.043V953.28H344.163ZM345.603 1090.08H207.363V1092.96H345.603V1090.08Z" fill="#460E3E" fill-opacity="0.06" mask="url(#path-231-inside-115_7603_75818)"/>
<mask id="path-233-inside-116_7603_75818" fill="white">
<path d="M345.602 953.28H483.842V1091.52H345.602V953.28Z"/>
</mask>
<path d="M483.842 1091.52V1092.96H485.282V1091.52H483.842ZM482.402 953.28V1091.52H485.282V953.28H482.402ZM483.842 1090.08H345.602V1092.96H483.842V1090.08Z" fill="#460E3E" fill-opacity="0.06" mask="url(#path-233-inside-116_7603_75818)"/>
<mask id="path-235-inside-117_7603_75818" fill="white">
<path d="M483.844 953.28H622.084V1091.52H483.844V953.28Z"/>
</mask>
<path d="M622.084 1091.52V1092.96H623.524V1091.52H622.084ZM620.644 953.28V1091.52H623.524V953.28H620.644ZM622.084 1090.08H483.844V1092.96H622.084V1090.08Z" fill="#460E3E" fill-opacity="0.06" mask="url(#path-235-inside-117_7603_75818)"/>
<mask id="path-237-inside-118_7603_75818" fill="white">
<path d="M622.082 953.28H760.322V1091.52H622.082V953.28Z"/>
</mask>
<path d="M760.322 1091.52V1092.96H761.762V1091.52H760.322ZM758.882 953.28V1091.52H761.762V953.28H758.882ZM760.322 1090.08H622.082V1092.96H760.322V1090.08Z" fill="#460E3E" fill-opacity="0.06" mask="url(#path-237-inside-118_7603_75818)"/>
<mask id="path-239-inside-119_7603_75818" fill="white">
<path d="M760.32 953.28H898.56V1091.52H760.32V953.28Z"/>
</mask>
<path d="M898.56 1091.52V1092.96H900V1091.52H898.56ZM897.12 953.28V1091.52H900V953.28H897.12ZM898.56 1090.08H760.32V1092.96H898.56V1090.08Z" fill="#460E3E" fill-opacity="0.06" mask="url(#path-239-inside-119_7603_75818)"/>
<mask id="path-241-inside-120_7603_75818" fill="white">
<path d="M898.562 953.28H1036.8V1091.52H898.562V953.28Z"/>
</mask>
<path d="M1036.8 1091.52V1092.96H1038.24V1091.52H1036.8ZM1035.36 953.28V1091.52H1038.24V953.28H1035.36ZM1036.8 1090.08H898.562V1092.96H1036.8V1090.08Z" fill="#460E3E" fill-opacity="0.06" mask="url(#path-241-inside-120_7603_75818)"/>
<mask id="path-243-inside-121_7603_75818" fill="white">
<path d="M1036.8 953.28H1175.04V1091.52H1036.8V953.28Z"/>
</mask>
<path d="M1175.04 1091.52V1092.96H1176.48V1091.52H1175.04ZM1173.6 953.28V1091.52H1176.48V953.28H1173.6ZM1175.04 1090.08H1036.8V1092.96H1175.04V1090.08Z" fill="#460E3E" fill-opacity="0.06" mask="url(#path-243-inside-121_7603_75818)"/>
<mask id="path-245-inside-122_7603_75818" fill="white">
<path d="M1175.04 953.28H1313.28V1091.52H1175.04V953.28Z"/>
</mask>
<path d="M1175.04 953.28H1313.28V1091.52H1175.04V953.28Z" fill="#FFD6FA" fill-opacity="0.2"/>
<path d="M1313.28 1091.52V1092.96H1314.72V1091.52H1313.28ZM1311.84 953.28V1091.52H1314.72V953.28H1311.84ZM1313.28 1090.08H1175.04V1092.96H1313.28V1090.08Z" fill="#460E3E" fill-opacity="0.06" mask="url(#path-245-inside-122_7603_75818)"/>
<mask id="path-247-inside-123_7603_75818" fill="white">
<path d="M1313.28 953.28H1451.52V1091.52H1313.28V953.28Z"/>
</mask>
<path d="M1451.52 1091.52V1092.96H1452.96V1091.52H1451.52ZM1450.08 953.28V1091.52H1452.96V953.28H1450.08ZM1451.52 1090.08H1313.28V1092.96H1451.52V1090.08Z" fill="#460E3E" fill-opacity="0.06" mask="url(#path-247-inside-123_7603_75818)"/>
<mask id="path-249-inside-124_7603_75818" fill="white">
<path d="M1451.52 953.28H1589.76V1091.52H1451.52V953.28Z"/>
</mask>
<path d="M1589.76 1091.52V1092.96H1591.2V1091.52H1589.76ZM1588.32 953.28V1091.52H1591.2V953.28H1588.32ZM1589.76 1090.08H1451.52V1092.96H1589.76V1090.08Z" fill="#460E3E" fill-opacity="0.06" mask="url(#path-249-inside-124_7603_75818)"/>
<mask id="path-251-inside-125_7603_75818" fill="white">
<path d="M1589.76 953.28H1728V1091.52H1589.76V953.28Z"/>
</mask>
<path d="M1728 1091.52V1092.96H1729.44V1091.52H1728ZM1726.56 953.28V1091.52H1729.44V953.28H1726.56ZM1728 1090.08H1589.76V1092.96H1728V1090.08Z" fill="#460E3E" fill-opacity="0.06" mask="url(#path-251-inside-125_7603_75818)"/>
<mask id="path-253-inside-126_7603_75818" fill="white">
<path d="M1728 953.28H1866.24V1091.52H1728V953.28Z"/>
</mask>
<path d="M1866.24 1091.52V1092.96H1867.68V1091.52H1866.24ZM1864.8 953.28V1091.52H1867.68V953.28H1864.8ZM1866.24 1090.08H1728V1092.96H1866.24V1090.08Z" fill="#460E3E" fill-opacity="0.06" mask="url(#path-253-inside-126_7603_75818)"/>
<mask id="path-255-inside-127_7603_75818" fill="white">
<path d="M1866.24 953.28H2004.48V1091.52H1866.24V953.28Z"/>
</mask>
<path d="M2004.48 1091.52V1092.96H2005.92V1091.52H2004.48ZM2003.04 953.28V1091.52H2005.92V953.28H2003.04ZM2004.48 1090.08H1866.24V1092.96H2004.48V1090.08Z" fill="#460E3E" fill-opacity="0.06" mask="url(#path-255-inside-127_7603_75818)"/>
<mask id="path-257-inside-128_7603_75818" fill="white">
<path d="M2004.48 953.28H2142.72V1091.52H2004.48V953.28Z"/>
</mask>
<path d="M2142.72 1091.52V1092.96H2144.16V1091.52H2142.72ZM2141.28 953.28V1091.52H2144.16V953.28H2141.28ZM2142.72 1090.08H2004.48V1092.96H2142.72V1090.08Z" fill="#460E3E" fill-opacity="0.06" mask="url(#path-257-inside-128_7603_75818)"/>
<mask id="path-259-inside-129_7603_75818" fill="white">
<path d="M-69.1172 1091.52H69.1228V1229.76H-69.1172V1091.52Z"/>
</mask>
<path d="M69.1228 1229.76V1231.2H70.5628V1229.76H69.1228ZM67.6828 1091.52V1229.76H70.5628V1091.52H67.6828ZM69.1228 1228.32H-69.1172V1231.2H69.1228V1228.32Z" fill="#460E3E" fill-opacity="0.06" mask="url(#path-259-inside-129_7603_75818)"/>
<mask id="path-261-inside-130_7603_75818" fill="white">
<path d="M69.1211 1091.52H207.361V1229.76H69.1211V1091.52Z"/>
</mask>
<path d="M207.361 1229.76V1231.2H208.801V1229.76H207.361ZM205.921 1091.52V1229.76H208.801V1091.52H205.921ZM207.361 1228.32H69.1211V1231.2H207.361V1228.32Z" fill="#460E3E" fill-opacity="0.06" mask="url(#path-261-inside-130_7603_75818)"/>
<mask id="path-263-inside-131_7603_75818" fill="white">
<path d="M207.363 1091.52H345.603V1229.76H207.363V1091.52Z"/>
</mask>
<path d="M345.603 1229.76V1231.2H347.043V1229.76H345.603ZM344.163 1091.52V1229.76H347.043V1091.52H344.163ZM345.603 1228.32H207.363V1231.2H345.603V1228.32Z" fill="#460E3E" fill-opacity="0.06" mask="url(#path-263-inside-131_7603_75818)"/>
<mask id="path-265-inside-132_7603_75818" fill="white">
<path d="M345.602 1091.52H483.842V1229.76H345.602V1091.52Z"/>
</mask>
<path d="M483.842 1229.76V1231.2H485.282V1229.76H483.842ZM482.402 1091.52V1229.76H485.282V1091.52H482.402ZM483.842 1228.32H345.602V1231.2H483.842V1228.32Z" fill="#460E3E" fill-opacity="0.06" mask="url(#path-265-inside-132_7603_75818)"/>
<mask id="path-267-inside-133_7603_75818" fill="white">
<path d="M483.844 1091.52H622.084V1229.76H483.844V1091.52Z"/>
</mask>
<path d="M622.084 1229.76V1231.2H623.524V1229.76H622.084ZM620.644 1091.52V1229.76H623.524V1091.52H620.644ZM622.084 1228.32H483.844V1231.2H622.084V1228.32Z" fill="#460E3E" fill-opacity="0.06" mask="url(#path-267-inside-133_7603_75818)"/>
<mask id="path-269-inside-134_7603_75818" fill="white">
<path d="M622.082 1091.52H760.322V1229.76H622.082V1091.52Z"/>
</mask>
<path d="M622.082 1091.52H760.322V1229.76H622.082V1091.52Z" fill="#FDD5ED" fill-opacity="0.3"/>
<path d="M760.322 1229.76V1231.2H761.762V1229.76H760.322ZM758.882 1091.52V1229.76H761.762V1091.52H758.882ZM760.322 1228.32H622.082V1231.2H760.322V1228.32Z" fill="#460E3E" fill-opacity="0.06" mask="url(#path-269-inside-134_7603_75818)"/>
<mask id="path-271-inside-135_7603_75818" fill="white">
<path d="M760.32 1091.52H898.56V1229.76H760.32V1091.52Z"/>
</mask>
<path d="M898.56 1229.76V1231.2H900V1229.76H898.56ZM897.12 1091.52V1229.76H900V1091.52H897.12ZM898.56 1228.32H760.32V1231.2H898.56V1228.32Z" fill="#460E3E" fill-opacity="0.06" mask="url(#path-271-inside-135_7603_75818)"/>
<mask id="path-273-inside-136_7603_75818" fill="white">
<path d="M898.562 1091.52H1036.8V1229.76H898.562V1091.52Z"/>
</mask>
<path d="M1036.8 1229.76V1231.2H1038.24V1229.76H1036.8ZM1035.36 1091.52V1229.76H1038.24V1091.52H1035.36ZM1036.8 1228.32H898.562V1231.2H1036.8V1228.32Z" fill="#460E3E" fill-opacity="0.06" mask="url(#path-273-inside-136_7603_75818)"/>
<mask id="path-275-inside-137_7603_75818" fill="white">
<path d="M1036.8 1091.52H1175.04V1229.76H1036.8V1091.52Z"/>
</mask>
<path d="M1175.04 1229.76V1231.2H1176.48V1229.76H1175.04ZM1173.6 1091.52V1229.76H1176.48V1091.52H1173.6ZM1175.04 1228.32H1036.8V1231.2H1175.04V1228.32Z" fill="#460E3E" fill-opacity="0.06" mask="url(#path-275-inside-137_7603_75818)"/>
<mask id="path-277-inside-138_7603_75818" fill="white">
<path d="M1175.04 1091.52H1313.28V1229.76H1175.04V1091.52Z"/>
</mask>
<path d="M1313.28 1229.76V1231.2H1314.72V1229.76H1313.28ZM1311.84 1091.52V1229.76H1314.72V1091.52H1311.84ZM1313.28 1228.32H1175.04V1231.2H1313.28V1228.32Z" fill="#460E3E" fill-opacity="0.06" mask="url(#path-277-inside-138_7603_75818)"/>
<mask id="path-279-inside-139_7603_75818" fill="white">
<path d="M1313.28 1091.52H1451.52V1229.76H1313.28V1091.52Z"/>
</mask>
<path d="M1451.52 1229.76V1231.2H1452.96V1229.76H1451.52ZM1450.08 1091.52V1229.76H1452.96V1091.52H1450.08ZM1451.52 1228.32H1313.28V1231.2H1451.52V1228.32Z" fill="#460E3E" fill-opacity="0.06" mask="url(#path-279-inside-139_7603_75818)"/>
<mask id="path-281-inside-140_7603_75818" fill="white">
<path d="M1451.52 1091.52H1589.76V1229.76H1451.52V1091.52Z"/>
</mask>
<path d="M1589.76 1229.76V1231.2H1591.2V1229.76H1589.76ZM1588.32 1091.52V1229.76H1591.2V1091.52H1588.32ZM1589.76 1228.32H1451.52V1231.2H1589.76V1228.32Z" fill="#460E3E" fill-opacity="0.06" mask="url(#path-281-inside-140_7603_75818)"/>
<mask id="path-283-inside-141_7603_75818" fill="white">
<path d="M1589.76 1091.52H1728V1229.76H1589.76V1091.52Z"/>
</mask>
<path d="M1589.76 1091.52H1728V1229.76H1589.76V1091.52Z" fill="#96DBD9" fill-opacity="0.2"/>
<path d="M1728 1229.76V1231.2H1729.44V1229.76H1728ZM1726.56 1091.52V1229.76H1729.44V1091.52H1726.56ZM1728 1228.32H1589.76V1231.2H1728V1228.32Z" fill="#460E3E" fill-opacity="0.06" mask="url(#path-283-inside-141_7603_75818)"/>
<mask id="path-285-inside-142_7603_75818" fill="white">
<path d="M1728 1091.52H1866.24V1229.76H1728V1091.52Z"/>
</mask>
<path d="M1866.24 1229.76V1231.2H1867.68V1229.76H1866.24ZM1864.8 1091.52V1229.76H1867.68V1091.52H1864.8ZM1866.24 1228.32H1728V1231.2H1866.24V1228.32Z" fill="#460E3E" fill-opacity="0.06" mask="url(#path-285-inside-142_7603_75818)"/>
<mask id="path-287-inside-143_7603_75818" fill="white">
<path d="M1866.24 1091.52H2004.48V1229.76H1866.24V1091.52Z"/>
</mask>
<path d="M2004.48 1229.76V1231.2H2005.92V1229.76H2004.48ZM2003.04 1091.52V1229.76H2005.92V1091.52H2003.04ZM2004.48 1228.32H1866.24V1231.2H2004.48V1228.32Z" fill="#460E3E" fill-opacity="0.06" mask="url(#path-287-inside-143_7603_75818)"/>
<mask id="path-289-inside-144_7603_75818" fill="white">
<path d="M2004.48 1091.52H2142.72V1229.76H2004.48V1091.52Z"/>
</mask>
<path d="M2004.48 1091.52H2142.72V1229.76H2004.48V1091.52Z" fill="#D6FBFF" fill-opacity="0.14"/>
<path d="M2142.72 1229.76V1231.2H2144.16V1229.76H2142.72ZM2141.28 1091.52V1229.76H2144.16V1091.52H2141.28ZM2142.72 1228.32H2004.48V1231.2H2142.72V1228.32Z" fill="#460E3E" fill-opacity="0.06" mask="url(#path-289-inside-144_7603_75818)"/>
<mask id="path-291-inside-145_7603_75818" fill="white">
<path d="M-69.1172 1229.76H69.1228V1368H-69.1172V1229.76Z"/>
</mask>
<path d="M69.1228 1368V1369.44H70.5628V1368H69.1228ZM67.6828 1229.76V1368H70.5628V1229.76H67.6828ZM69.1228 1366.56H-69.1172V1369.44H69.1228V1366.56Z" fill="#460E3E" fill-opacity="0.06" mask="url(#path-291-inside-145_7603_75818)"/>
<mask id="path-293-inside-146_7603_75818" fill="white">
<path d="M69.1211 1229.76H207.361V1368H69.1211V1229.76Z"/>
</mask>
<path d="M207.361 1368V1369.44H208.801V1368H207.361ZM205.921 1229.76V1368H208.801V1229.76H205.921ZM207.361 1366.56H69.1211V1369.44H207.361V1366.56Z" fill="#460E3E" fill-opacity="0.06" mask="url(#path-293-inside-146_7603_75818)"/>
<mask id="path-295-inside-147_7603_75818" fill="white">
<path d="M207.363 1229.76H345.603V1368H207.363V1229.76Z"/>
</mask>
<path d="M345.603 1368V1369.44H347.043V1368H345.603ZM344.163 1229.76V1368H347.043V1229.76H344.163ZM345.603 1366.56H207.363V1369.44H345.603V1366.56Z" fill="#460E3E" fill-opacity="0.06" mask="url(#path-295-inside-147_7603_75818)"/>
<mask id="path-297-inside-148_7603_75818" fill="white">
<path d="M345.602 1229.76H483.842V1368H345.602V1229.76Z"/>
</mask>
<path d="M345.602 1229.76H483.842V1368H345.602V1229.76Z" fill="#3AE2EE" fill-opacity="0.1"/>
<path d="M483.842 1368V1369.44H485.282V1368H483.842ZM482.402 1229.76V1368H485.282V1229.76H482.402ZM483.842 1366.56H345.602V1369.44H483.842V1366.56Z" fill="#460E3E" fill-opacity="0.06" mask="url(#path-297-inside-148_7603_75818)"/>
<mask id="path-299-inside-149_7603_75818" fill="white">
<path d="M483.844 1229.76H622.084V1368H483.844V1229.76Z"/>
</mask>
<path d="M622.084 1368V1369.44H623.524V1368H622.084ZM620.644 1229.76V1368H623.524V1229.76H620.644ZM622.084 1366.56H483.844V1369.44H622.084V1366.56Z" fill="#460E3E" fill-opacity="0.06" mask="url(#path-299-inside-149_7603_75818)"/>
<mask id="path-301-inside-150_7603_75818" fill="white">
<path d="M622.082 1229.76H760.322V1368H622.082V1229.76Z"/>
</mask>
<path d="M760.322 1368V1369.44H761.762V1368H760.322ZM758.882 1229.76V1368H761.762V1229.76H758.882ZM760.322 1366.56H622.082V1369.44H760.322V1366.56Z" fill="#460E3E" fill-opacity="0.06" mask="url(#path-301-inside-150_7603_75818)"/>
<mask id="path-303-inside-151_7603_75818" fill="white">
<path d="M760.32 1229.76H898.56V1368H760.32V1229.76Z"/>
</mask>
<path d="M898.56 1368V1369.44H900V1368H898.56ZM897.12 1229.76V1368H900V1229.76H897.12ZM898.56 1366.56H760.32V1369.44H898.56V1366.56Z" fill="#460E3E" fill-opacity="0.06" mask="url(#path-303-inside-151_7603_75818)"/>
<mask id="path-305-inside-152_7603_75818" fill="white">
<path d="M898.562 1229.76H1036.8V1368H898.562V1229.76Z"/>
</mask>
<path d="M1036.8 1368V1369.44H1038.24V1368H1036.8ZM1035.36 1229.76V1368H1038.24V1229.76H1035.36ZM1036.8 1366.56H898.562V1369.44H1036.8V1366.56Z" fill="#460E3E" fill-opacity="0.06" mask="url(#path-305-inside-152_7603_75818)"/>
<mask id="path-307-inside-153_7603_75818" fill="white">
<path d="M1036.8 1229.76H1175.04V1368H1036.8V1229.76Z"/>
</mask>
<path d="M1036.8 1229.76H1175.04V1368H1036.8V1229.76Z" fill="#D6FBFF" fill-opacity="0.2"/>
<path d="M1175.04 1368V1369.44H1176.48V1368H1175.04ZM1173.6 1229.76V1368H1176.48V1229.76H1173.6ZM1175.04 1366.56H1036.8V1369.44H1175.04V1366.56Z" fill="#460E3E" fill-opacity="0.06" mask="url(#path-307-inside-153_7603_75818)"/>
<mask id="path-309-inside-154_7603_75818" fill="white">
<path d="M1175.04 1229.76H1313.28V1368H1175.04V1229.76Z"/>
</mask>
<path d="M1313.28 1368V1369.44H1314.72V1368H1313.28ZM1311.84 1229.76V1368H1314.72V1229.76H1311.84ZM1313.28 1366.56H1175.04V1369.44H1313.28V1366.56Z" fill="#460E3E" fill-opacity="0.06" mask="url(#path-309-inside-154_7603_75818)"/>
<mask id="path-311-inside-155_7603_75818" fill="white">
<path d="M1313.28 1229.76H1451.52V1368H1313.28V1229.76Z"/>
</mask>
<path d="M1451.52 1368V1369.44H1452.96V1368H1451.52ZM1450.08 1229.76V1368H1452.96V1229.76H1450.08ZM1451.52 1366.56H1313.28V1369.44H1451.52V1366.56Z" fill="#460E3E" fill-opacity="0.06" mask="url(#path-311-inside-155_7603_75818)"/>
<mask id="path-313-inside-156_7603_75818" fill="white">
<path d="M1451.52 1229.76H1589.76V1368H1451.52V1229.76Z"/>
</mask>
<path d="M1589.76 1368V1369.44H1591.2V1368H1589.76ZM1588.32 1229.76V1368H1591.2V1229.76H1588.32ZM1589.76 1366.56H1451.52V1369.44H1589.76V1366.56Z" fill="#460E3E" fill-opacity="0.06" mask="url(#path-313-inside-156_7603_75818)"/>
<mask id="path-315-inside-157_7603_75818" fill="white">
<path d="M1589.76 1229.76H1728V1368H1589.76V1229.76Z"/>
</mask>
<path d="M1728 1368V1369.44H1729.44V1368H1728ZM1726.56 1229.76V1368H1729.44V1229.76H1726.56ZM1728 1366.56H1589.76V1369.44H1728V1366.56Z" fill="#460E3E" fill-opacity="0.06" mask="url(#path-315-inside-157_7603_75818)"/>
<mask id="path-317-inside-158_7603_75818" fill="white">
<path d="M1728 1229.76H1866.24V1368H1728V1229.76Z"/>
</mask>
<path d="M1866.24 1368V1369.44H1867.68V1368H1866.24ZM1864.8 1229.76V1368H1867.68V1229.76H1864.8ZM1866.24 1366.56H1728V1369.44H1866.24V1366.56Z" fill="#460E3E" fill-opacity="0.06" mask="url(#path-317-inside-158_7603_75818)"/>
<mask id="path-319-inside-159_7603_75818" fill="white">
<path d="M1866.24 1229.76H2004.48V1368H1866.24V1229.76Z"/>
</mask>
<path d="M2004.48 1368V1369.44H2005.92V1368H2004.48ZM2003.04 1229.76V1368H2005.92V1229.76H2003.04ZM2004.48 1366.56H1866.24V1369.44H2004.48V1366.56Z" fill="#460E3E" fill-opacity="0.06" mask="url(#path-319-inside-159_7603_75818)"/>
<mask id="path-321-inside-160_7603_75818" fill="white">
<path d="M2004.48 1229.76H2142.72V1368H2004.48V1229.76Z"/>
</mask>
<path d="M2142.72 1368V1369.44H2144.16V1368H2142.72ZM2141.28 1229.76V1368H2144.16V1229.76H2141.28ZM2142.72 1366.56H2004.48V1369.44H2142.72V1366.56Z" fill="#460E3E" fill-opacity="0.06" mask="url(#path-321-inside-160_7603_75818)"/>
<mask id="path-323-inside-161_7603_75818" fill="white">
<path d="M-69.1172 1368H69.1228V1506.24H-69.1172V1368Z"/>
</mask>
<path d="M-69.1172 1368H69.1228V1506.24H-69.1172V1368Z" fill="#D6FBFF"/>
<path d="M69.1228 1506.24V1507.68H70.5628V1506.24H69.1228ZM67.6828 1368V1506.24H70.5628V1368H67.6828ZM69.1228 1504.8H-69.1172V1507.68H69.1228V1504.8Z" fill="#460E3E" fill-opacity="0.06" mask="url(#path-323-inside-161_7603_75818)"/>
<mask id="path-325-inside-162_7603_75818" fill="white">
<path d="M69.1211 1368H207.361V1506.24H69.1211V1368Z"/>
</mask>
<path d="M207.361 1506.24V1507.68H208.801V1506.24H207.361ZM205.921 1368V1506.24H208.801V1368H205.921ZM207.361 1504.8H69.1211V1507.68H207.361V1504.8Z" fill="#460E3E" fill-opacity="0.06" mask="url(#path-325-inside-162_7603_75818)"/>
<mask id="path-327-inside-163_7603_75818" fill="white">
<path d="M207.363 1368H345.603V1506.24H207.363V1368Z"/>
</mask>
<path d="M345.603 1506.24V1507.68H347.043V1506.24H345.603ZM344.163 1368V1506.24H347.043V1368H344.163ZM345.603 1504.8H207.363V1507.68H345.603V1504.8Z" fill="#460E3E" fill-opacity="0.06" mask="url(#path-327-inside-163_7603_75818)"/>
<mask id="path-329-inside-164_7603_75818" fill="white">
<path d="M345.602 1368H483.842V1506.24H345.602V1368Z"/>
</mask>
<path d="M483.842 1506.24V1507.68H485.282V1506.24H483.842ZM482.402 1368V1506.24H485.282V1368H482.402ZM483.842 1504.8H345.602V1507.68H483.842V1504.8Z" fill="#460E3E" fill-opacity="0.06" mask="url(#path-329-inside-164_7603_75818)"/>
<mask id="path-331-inside-165_7603_75818" fill="white">
<path d="M483.844 1368H622.084V1506.24H483.844V1368Z"/>
</mask>
<path d="M622.084 1506.24V1507.68H623.524V1506.24H622.084ZM620.644 1368V1506.24H623.524V1368H620.644ZM622.084 1504.8H483.844V1507.68H622.084V1504.8Z" fill="#460E3E" fill-opacity="0.06" mask="url(#path-331-inside-165_7603_75818)"/>
<mask id="path-333-inside-166_7603_75818" fill="white">
<path d="M622.082 1368H760.322V1506.24H622.082V1368Z"/>
</mask>
<path d="M760.322 1506.24V1507.68H761.762V1506.24H760.322ZM758.882 1368V1506.24H761.762V1368H758.882ZM760.322 1504.8H622.082V1507.68H760.322V1504.8Z" fill="#460E3E" fill-opacity="0.06" mask="url(#path-333-inside-166_7603_75818)"/>
<mask id="path-335-inside-167_7603_75818" fill="white">
<path d="M760.32 1368H898.56V1506.24H760.32V1368Z"/>
</mask>
<path d="M898.56 1506.24V1507.68H900V1506.24H898.56ZM897.12 1368V1506.24H900V1368H897.12ZM898.56 1504.8H760.32V1507.68H898.56V1504.8Z" fill="#460E3E" fill-opacity="0.06" mask="url(#path-335-inside-167_7603_75818)"/>
<mask id="path-337-inside-168_7603_75818" fill="white">
<path d="M898.562 1368H1036.8V1506.24H898.562V1368Z"/>
</mask>
<path d="M1036.8 1506.24V1507.68H1038.24V1506.24H1036.8ZM1035.36 1368V1506.24H1038.24V1368H1035.36ZM1036.8 1504.8H898.562V1507.68H1036.8V1504.8Z" fill="#460E3E" fill-opacity="0.06" mask="url(#path-337-inside-168_7603_75818)"/>
<mask id="path-339-inside-169_7603_75818" fill="white">
<path d="M1036.8 1368H1175.04V1506.24H1036.8V1368Z"/>
</mask>
<path d="M1175.04 1506.24V1507.68H1176.48V1506.24H1175.04ZM1173.6 1368V1506.24H1176.48V1368H1173.6ZM1175.04 1504.8H1036.8V1507.68H1175.04V1504.8Z" fill="#460E3E" fill-opacity="0.06" mask="url(#path-339-inside-169_7603_75818)"/>
<mask id="path-341-inside-170_7603_75818" fill="white">
<path d="M1175.04 1368H1313.28V1506.24H1175.04V1368Z"/>
</mask>
<path d="M1313.28 1506.24V1507.68H1314.72V1506.24H1313.28ZM1311.84 1368V1506.24H1314.72V1368H1311.84ZM1313.28 1504.8H1175.04V1507.68H1313.28V1504.8Z" fill="#460E3E" fill-opacity="0.06" mask="url(#path-341-inside-170_7603_75818)"/>
<mask id="path-343-inside-171_7603_75818" fill="white">
<path d="M1313.28 1368H1451.52V1506.24H1313.28V1368Z"/>
</mask>
<path d="M1451.52 1506.24V1507.68H1452.96V1506.24H1451.52ZM1450.08 1368V1506.24H1452.96V1368H1450.08ZM1451.52 1504.8H1313.28V1507.68H1451.52V1504.8Z" fill="#460E3E" fill-opacity="0.06" mask="url(#path-343-inside-171_7603_75818)"/>
<mask id="path-345-inside-172_7603_75818" fill="white">
<path d="M1451.52 1368H1589.76V1506.24H1451.52V1368Z"/>
</mask>
<path d="M1589.76 1506.24V1507.68H1591.2V1506.24H1589.76ZM1588.32 1368V1506.24H1591.2V1368H1588.32ZM1589.76 1504.8H1451.52V1507.68H1589.76V1504.8Z" fill="#460E3E" fill-opacity="0.06" mask="url(#path-345-inside-172_7603_75818)"/>
<mask id="path-347-inside-173_7603_75818" fill="white">
<path d="M1589.76 1368H1728V1506.24H1589.76V1368Z"/>
</mask>
<path d="M1589.76 1368H1728V1506.24H1589.76V1368Z" fill="#D6FBFF" fill-opacity="0.2"/>
<path d="M1728 1506.24V1507.68H1729.44V1506.24H1728ZM1726.56 1368V1506.24H1729.44V1368H1726.56ZM1728 1504.8H1589.76V1507.68H1728V1504.8Z" fill="#460E3E" fill-opacity="0.06" mask="url(#path-347-inside-173_7603_75818)"/>
<mask id="path-349-inside-174_7603_75818" fill="white">
<path d="M1728 1368H1866.24V1506.24H1728V1368Z"/>
</mask>
<path d="M1866.24 1506.24V1507.68H1867.68V1506.24H1866.24ZM1864.8 1368V1506.24H1867.68V1368H1864.8ZM1866.24 1504.8H1728V1507.68H1866.24V1504.8Z" fill="#460E3E" fill-opacity="0.06" mask="url(#path-349-inside-174_7603_75818)"/>
<mask id="path-351-inside-175_7603_75818" fill="white">
<path d="M1866.24 1368H2004.48V1506.24H1866.24V1368Z"/>
</mask>
<path d="M2004.48 1506.24V1507.68H2005.92V1506.24H2004.48ZM2003.04 1368V1506.24H2005.92V1368H2003.04ZM2004.48 1504.8H1866.24V1507.68H2004.48V1504.8Z" fill="#460E3E" fill-opacity="0.06" mask="url(#path-351-inside-175_7603_75818)"/>
<mask id="path-353-inside-176_7603_75818" fill="white">
<path d="M2004.48 1368H2142.72V1506.24H2004.48V1368Z"/>
</mask>
<path d="M2142.72 1506.24V1507.68H2144.16V1506.24H2142.72ZM2141.28 1368V1506.24H2144.16V1368H2141.28ZM2142.72 1504.8H2004.48V1507.68H2142.72V1504.8Z" fill="#460E3E" fill-opacity="0.06" mask="url(#path-353-inside-176_7603_75818)"/>
</g>
<rect x="-344.878" y="-151.92" width="2763.36" height="2072.16" stroke="#460E3E" stroke-opacity="0.06" stroke-width="1.44"/>
</g>
<defs>
<clipPath id="clip0_7603_75818">
<rect width="2073.6" height="1948.32" fill="white" transform="translate(0 -152.64)"/>
</clipPath>
<clipPath id="clip1_7603_75818">
<rect x="-345.598" y="-152.64" width="2764.8" height="2073.6" fill="white"/>
</clipPath>
</defs>
</svg>
