<svg viewBox="0 0 234 151" fill="none" xmlns="http://www.w3.org/2000/svg">
<path d="M201.892 65.3214C210.695 64.0795 218.183 56.4224 219.229 47.5938C218.482 55.1958 225.736 62.3789 232.806 65.2708C229.186 65.4754 223.441 68.6082 221.584 71.7234C219.728 74.8386 219.036 78.507 218.695 82.1161C218.502 73.1676 210.508 65.0981 201.891 65.3214H201.892Z" stroke="#010101" stroke-width="1.65" stroke-linecap="round" stroke-linejoin="round"/>
<path d="M1.19531 116.689C6.61281 115.925 11.2218 111.212 11.8653 105.779C11.4055 110.458 15.8704 114.878 20.222 116.658C17.9945 116.785 14.458 118.712 13.3162 120.629C12.1744 122.547 11.7487 124.804 11.5386 127.026C11.4187 121.519 6.49841 116.553 1.19531 116.689Z" stroke="#010101" stroke-width="1.65" stroke-linecap="round" stroke-linejoin="round"/>
<path d="M98.8398 8.79883C101.155 15.0807 103.771 21.2517 106.675 27.2841" stroke="#010101" stroke-width="1.98" stroke-linecap="round" stroke-linejoin="round"/>
<path d="M145.639 21.2802C149.101 15.6913 154.572 7.08756 158.033 1.5" stroke="#010101" stroke-width="1.98" stroke-linecap="round" stroke-linejoin="round"/>
<path d="M102.227 40.4682C93.8682 42.0988 86.5405 47.3711 80.7047 53.5736C70.5682 64.3466 65.062 79.8965 68.1781 94.3579C69.5362 100.661 72.4421 106.578 76.2521 111.781C85.2529 124.074 99.5225 132.363 114.658 134.106C132.177 136.124 139.745 127.269 143.375 123.738C152.992 114.375 161.197 100.533 160 86.0289C158.496 67.8106 145.038 32.1156 102.227 40.4664L102.227 40.4682Z" fill="#55D087" stroke="#010101" stroke-width="1.98" stroke-linecap="round" stroke-linejoin="round"/>
<path d="M160.188 48.1884C168.189 47.4756 176.161 46.4301 184.076 45.0547" stroke="#010101" stroke-width="1.98" stroke-linecap="round" stroke-linejoin="round"/>
<path d="M144.357 70.6704C132.011 86.1568 118.914 101.044 105.128 115.263C97.3541 107.278 89.5817 99.2926 82.5994 91.5501C85.422 88.2996 88.3678 86.9622 91.9436 83.7988C96.1581 87.9074 100.084 91.2517 104.789 96.5217C115.136 85.7391 125.482 74.9575 135.829 64.1748C138.642 66.417 141.457 68.6599 144.357 70.6704Z" fill="white" stroke="#010101" stroke-width="1.98" stroke-linecap="round" stroke-linejoin="round"/>
</svg>
