<svg viewBox="0 0 1920 1214" fill="none" xmlns="http://www.w3.org/2000/svg">
<g clip-path="url(#clip0_4487_27808)">
<path d="M1763.54 1053.19C1770.26 1047.83 1776.99 1042.44 1784.41 1037.63C1784.64 1037.49 1784.86 1037.36 1785.03 1037.23C1788.54 1035.57 1791.58 1032.76 1790.6 1029.48C1790.29 1025.94 1785.76 1023.26 1781.15 1023.22C1775.02 1023.36 1770.99 1027.66 1766.47 1030.28C1760.7 1034.35 1755.27 1038.64 1749.84 1042.94C1748.04 1044.29 1747 1046.17 1747 1048.07C1746.75 1054.28 1757.83 1057.74 1763.54 1053.19Z" fill="#F994EC"/>
<path d="M1836.06 543.603C1840.92 535.362 1846.32 527.311 1852.2 519.449C1854.54 515.676 1858.9 511.841 1857.77 507.457C1856.93 498.583 1839.26 496.328 1834.29 504.358C1828.21 512.199 1822.56 520.25 1817.38 528.449C1815.22 532.58 1810.86 536.669 1812.77 541.305C1815.33 549.251 1830.86 550.79 1836.06 543.603Z" fill="#F994EC"/>
<path d="M1783.94 319.434C1778.82 323.059 1773.99 326.937 1770.11 331.363C1763.81 339.351 1762.54 348.857 1763.13 357.962C1763.83 361.629 1763.24 365.865 1767.21 368.626C1774.1 374.148 1787.57 369.975 1787.23 362.409C1786.14 348.794 1786.45 347.023 1790.97 340.511C1791.17 340.279 1791.31 340.11 1791.45 339.963C1791.59 339.836 1791.71 339.71 1791.85 339.604C1797.44 334.356 1808.19 327.296 1800.9 320.319C1797.19 316.231 1788.39 315.872 1783.94 319.434Z" fill="#F994EC"/>
<path d="M1949.98 959.291C1949.65 955.519 1944.84 952.673 1939.94 952.652C1934.82 952.842 1930.55 955.498 1926.36 957.479C1920.99 960.282 1915.87 963.359 1910.66 966.373C1906.64 968.987 1900.85 971.284 1901.1 975.857C1900.79 982.518 1912.63 986.185 1918.71 981.316C1928.8 975.141 1928.35 975.162 1938.96 969.577C1944.19 967.322 1951.59 964.792 1949.98 959.291Z" fill="#F994EC"/>
<path d="M1892.78 61.3324C1884.96 68.6249 1879.06 74.7792 1873.91 79.3528C1871.01 82.5775 1866.71 85.1066 1864.04 88.3524C1861.79 91.6824 1865.73 95.9398 1870.62 95.8345C1876.92 95.5815 1879.45 90.2704 1883.11 87.13C1884.63 85.6546 1890.14 80.4276 1894.67 75.6854C1897.39 72.1868 1902.4 69.3836 1903.83 65.4845C1905.02 60.9952 1896.89 58.0234 1892.78 61.3324Z" fill="#F994EC"/>
<path d="M1886.73 207.223C1885.55 207.329 1883.78 208.214 1882.74 208.846C1881.95 209.247 1881.14 209.626 1880.29 209.942C1879.73 210.09 1879.08 210.237 1878.47 210.385C1875.91 211.396 1860.24 211.207 1849.5 210.005C1855.6 210.659 1842.24 208.951 1839.65 208.551C1832.85 207.792 1826.15 205.263 1819.32 205.326C1809.33 206.001 1808.38 217.234 1818.05 219.068C1832.96 222.398 1848.26 224.885 1863.78 225.728C1873.82 226.318 1884.99 226.677 1893.62 222.187C1898.32 220.122 1901.7 215.675 1899.02 211.734C1897.28 208.108 1891.57 206.275 1886.73 207.223Z" fill="#F994EC"/>
<path d="M1949.98 959.291C1949.65 955.519 1944.84 952.673 1939.94 952.652C1934.82 952.842 1930.55 955.498 1926.36 957.479C1920.99 960.282 1915.87 963.359 1910.66 966.373C1906.64 968.987 1900.85 971.284 1901.1 975.857C1900.79 982.518 1912.63 986.185 1918.71 981.316C1928.8 975.141 1928.35 975.162 1938.96 969.577C1944.19 967.322 1951.59 964.792 1949.98 959.291Z" fill="#F994EC"/>
<path d="M1892.78 61.3324C1884.96 68.6249 1879.06 74.7792 1873.91 79.3528C1871.01 82.5775 1866.71 85.1066 1864.04 88.3524C1861.79 91.6824 1865.73 95.9398 1870.62 95.8345C1876.92 95.5815 1879.45 90.2704 1883.11 87.13C1884.63 85.6546 1890.14 80.4276 1894.67 75.6854C1897.39 72.1868 1902.4 69.3836 1903.83 65.4845C1905.02 60.9952 1896.89 58.0234 1892.78 61.3324Z" fill="#F994EC"/>
<path d="M1886.73 207.223C1885.55 207.329 1883.78 208.214 1882.74 208.846C1881.95 209.247 1881.14 209.626 1880.29 209.942C1879.73 210.09 1879.08 210.237 1878.47 210.385C1875.91 211.396 1860.24 211.207 1849.5 210.005C1855.6 210.659 1842.24 208.951 1839.65 208.551C1832.85 207.792 1826.15 205.263 1819.32 205.326C1809.33 206.001 1808.38 217.234 1818.05 219.068C1832.96 222.398 1848.26 224.885 1863.78 225.728C1873.82 226.318 1884.99 226.677 1893.62 222.187C1898.32 220.122 1901.7 215.675 1899.02 211.734C1897.28 208.108 1891.57 206.275 1886.73 207.223Z" fill="#F994EC"/>
<path d="M1346.92 853.795C1343.38 850.507 1341.38 845.491 1335.48 844.206C1327.35 842.309 1319.84 849.601 1324.37 855.018C1334.77 867.369 1351.34 883.408 1356.68 890.742C1360.51 895.063 1370.04 894.452 1373.28 889.983C1376.03 886.422 1374.06 882.164 1371.03 879.087C1362.9 870.72 1354.77 862.331 1346.92 853.795Z" fill="#F994EC"/>
<path d="M1859.42 662.136C1870.51 654.148 1876.33 651.577 1891.23 644.158C1897.22 643.441 1902.23 639.374 1900.37 634.652C1896.49 625.843 1882.99 629.805 1876.05 634.147C1869.47 637.097 1863.28 640.512 1857.2 644.031C1852.51 647.172 1846.37 649.806 1843.42 654.043C1838.89 661.251 1852.11 667.848 1859.42 662.136Z" fill="#F994EC"/>
<path d="M1801.91 846.997C1811.22 851.339 1823.09 843.541 1818.9 836.016C1818.59 835.005 1818.28 834.014 1818.02 833.002C1816.87 820.841 1819.97 815.319 1825.79 801.093C1826.86 798.142 1829.95 795.339 1828.99 792.177C1827.98 783.663 1810.91 782.862 1808.12 791.103C1804.22 797.13 1795.13 817.659 1795.22 831.422C1795.33 836.775 1794.88 843.92 1801.91 846.997Z" fill="#F994EC"/>
<path d="M982.619 913.762C971.172 909.441 973.31 910.917 966.306 907.755C954.522 899.388 953.847 897.934 945.213 887.206C939.981 881.852 938.491 872.494 929.294 870.408C919.338 868.089 910.113 877.026 915.681 883.665C924.063 898.587 938.266 914.436 946.535 921.054C950.922 924.701 956.659 927.293 962.369 929.59C966.166 930.981 969.569 933.426 973.956 933.574C989.144 935.681 996.344 918.947 982.619 913.762Z" fill="#F994EC"/>
<path d="M1676.58 866.64C1674.05 861.118 1674.22 854.627 1670.23 849.632C1663.76 842.782 1648.8 848.451 1651.98 856.439C1656.39 872.289 1663.23 890.478 1666.12 900.067C1674.28 909.046 1690.48 901.817 1685.64 891.869C1683.48 883.312 1679.34 875.113 1676.58 866.64Z" fill="#F994EC"/>
<path d="M1602.25 989.41C1608.16 991.623 1615.75 987.745 1615.53 982.855V953.748C1615.33 944.327 1596.6 944.327 1596.34 953.748V976.848C1596.37 981.316 1595.19 987.576 1602.25 989.41Z" fill="#F994EC"/>
<path d="M1529.66 797.869C1525.61 805.14 1522.15 812.601 1519.25 820.188C1518.24 822.844 1516.75 825.816 1518.97 828.387C1522.49 833.256 1533.03 832.223 1534.78 826.828C1537.08 820.294 1539.9 813.866 1542.99 807.522C1544.12 804.634 1547.13 801.831 1546.45 798.733C1545.72 791.925 1531.74 791.272 1529.66 797.869Z" fill="#F994EC"/>
<path d="M1804.92 1124.99C1800.76 1116.56 1783.15 1119.3 1783.4 1128.24C1784.58 1142.7 1789.98 1164.18 1786.61 1171.05C1786.55 1171.19 1786.5 1171.28 1786.44 1171.38C1785.32 1173.15 1783.77 1175.79 1782.9 1177.24C1782.84 1177.33 1782.76 1177.41 1782.7 1177.5C1782.76 1177.45 1782.78 1177.41 1782.84 1177.35C1782.84 1177.37 1782.81 1177.37 1782.81 1177.39C1782.76 1177.43 1782.7 1177.5 1782.67 1177.54C1782.67 1177.56 1782.64 1177.56 1782.64 1177.58L1782.62 1177.6C1779.92 1179.65 1778.34 1182.51 1779.13 1185.4C1779.69 1191.87 1790.77 1195.73 1797.89 1192.21C1804.72 1189.11 1805.96 1182.95 1809 1177.87C1813.05 1168.96 1810.71 1159.41 1809.39 1150.31C1807.53 1141.94 1807.31 1133.19 1804.92 1124.99Z" fill="#F994EC"/>
<path d="M1782.67 1177.54C1782.67 1177.52 1782.7 1177.52 1782.7 1177.5C1782.67 1177.54 1782.64 1177.56 1782.59 1177.6C1782.62 1177.58 1782.64 1177.56 1782.67 1177.54Z" fill="#F994EC"/>
<path d="M1618.76 725.623C1623.63 717.382 1629.03 709.331 1634.9 701.469C1637.24 697.696 1641.6 693.861 1640.47 689.477C1639.63 680.603 1621.97 678.348 1616.99 686.378C1610.91 694.219 1605.26 702.27 1600.09 710.469C1597.92 714.6 1593.56 718.689 1595.47 723.325C1598.03 731.271 1613.56 732.81 1618.76 725.623Z" fill="#F994EC"/>
<path d="M1756.24 616.932C1756.24 616.89 1756.26 616.89 1756.26 616.805C1759.58 608.522 1759.78 608.775 1767.74 599.67C1771.9 594.422 1780.73 588.057 1773.79 581.987C1760.6 572.44 1753.11 583.779 1746.53 591.345C1739.73 598.638 1733.9 606.836 1732.55 615.794C1732.81 627.133 1754.49 627.47 1756.24 616.932Z" fill="#F994EC"/>
<path d="M1640.78 1093.23C1632.96 1100.52 1627.06 1106.68 1621.91 1111.25C1619.01 1114.48 1614.71 1117.01 1612.04 1120.25C1609.79 1123.58 1613.73 1127.84 1618.62 1127.73C1624.92 1127.48 1627.45 1122.17 1631.11 1119.03C1632.63 1117.55 1638.14 1112.33 1642.67 1107.59C1645.39 1104.09 1650.4 1101.28 1651.83 1097.38C1653.02 1092.9 1644.89 1089.92 1640.78 1093.23Z" fill="#F994EC"/>
<path d="M1444.33 979.188C1435.22 993.162 1428.04 1003.91 1418.37 1005.11C1417.69 1005.28 1416.96 1005.41 1416.48 1005.49C1415.81 1005.55 1415.16 1005.68 1414.57 1005.91C1409.57 1007.18 1408.33 1012.59 1412.1 1015.25C1415.42 1017.8 1420.34 1016.87 1424.28 1015.78C1442.61 1011.52 1449.7 996.766 1458.08 985.216C1463.28 978.472 1449.64 972.486 1444.33 979.188Z" fill="#F994EC"/>
<path d="M1756.24 616.932C1756.24 616.89 1756.26 616.89 1756.26 616.805C1759.58 608.522 1759.78 608.775 1767.74 599.67C1771.9 594.422 1780.73 588.057 1773.79 581.987C1760.6 572.44 1753.11 583.779 1746.53 591.345C1739.73 598.638 1733.9 606.836 1732.55 615.794C1732.81 627.133 1754.49 627.47 1756.24 616.932Z" fill="#F994EC"/>
<path d="M1640.78 1093.23C1632.96 1100.52 1627.06 1106.68 1621.91 1111.25C1619.01 1114.48 1614.71 1117.01 1612.04 1120.25C1609.79 1123.58 1613.73 1127.84 1618.62 1127.73C1624.92 1127.48 1627.45 1122.17 1631.11 1119.03C1632.63 1117.55 1638.14 1112.33 1642.67 1107.59C1645.39 1104.09 1650.4 1101.28 1651.83 1097.38C1653.02 1092.9 1644.89 1089.92 1640.78 1093.23Z" fill="#F994EC"/>
<path d="M1444.33 979.188C1435.22 993.162 1428.04 1003.91 1418.37 1005.11C1417.69 1005.28 1416.96 1005.41 1416.48 1005.49C1415.81 1005.55 1415.16 1005.68 1414.57 1005.91C1409.57 1007.18 1408.33 1012.59 1412.1 1015.25C1415.42 1017.8 1420.34 1016.87 1424.28 1015.78C1442.61 1011.52 1449.7 996.766 1458.08 985.216C1463.28 978.472 1449.64 972.486 1444.33 979.188Z" fill="#F994EC"/>
<path d="M1498.44 1136.65C1497.26 1136.76 1495.49 1137.64 1494.45 1138.27C1493.66 1138.67 1492.85 1139.05 1492 1139.37C1491.44 1139.52 1490.79 1139.66 1490.18 1139.81C1487.62 1140.82 1471.95 1140.63 1461.21 1139.43C1467.31 1140.09 1453.95 1138.38 1451.36 1137.98C1444.56 1137.22 1437.86 1134.69 1431.03 1134.75C1421.04 1135.43 1420.09 1146.66 1429.76 1148.5C1444.67 1151.83 1459.97 1154.31 1475.49 1155.16C1485.53 1155.75 1496.7 1156.1 1505.33 1151.62C1510.03 1149.55 1513.41 1145.1 1510.73 1141.16C1508.99 1137.54 1503.28 1135.7 1498.44 1136.65Z" fill="#F994EC"/>
<path d="M478.517 719.793C477.055 715.524 477.886 710.28 473.257 706.931C466.953 702.207 456.399 705.962 457.631 712.507C460.513 727.46 466.995 748.013 467.956 756.583C469.13 761.883 478.008 764.877 483.247 762.069C487.584 759.896 488.043 755.343 486.926 751.452C484.005 740.921 481.096 730.371 478.517 719.793Z" fill="#F994EC"/>
<path d="M630.991 831.392C645.114 828.341 651.685 828.196 668.944 827.077C674.695 828.661 681.316 826.87 682.119 821.943C683.242 812.593 669.052 811.132 660.547 812.447C653.096 812.649 645.757 813.414 638.464 814.316C632.606 815.389 625.725 815.475 620.859 818.18C613.025 822.967 621.441 833.801 630.991 831.392Z" fill="#F994EC"/>
<path d="M753.896 944.696C754.081 944.702 754.229 944.716 754.378 944.731L753.958 944.698C753.933 944.687 753.908 944.677 753.896 944.696Z" fill="#F994EC"/>
<path d="M749.424 926.503C736.438 925.235 723.426 924.496 710.458 923.682C707.454 923.73 704.636 924.747 702.747 926.43C696.127 931.931 703.159 942.45 713.195 942.004C731.341 942.966 738.923 943.452 752.142 944.535C752.807 944.575 753.4 944.633 753.881 944.668C753.585 944.639 753.252 944.619 752.807 944.575C753.191 944.617 753.549 944.648 753.943 944.67C755.202 944.768 755.621 944.801 754.363 944.703C756.041 944.834 757.733 944.995 759.411 945.126C765.735 946.265 772.335 942.682 772.018 937.525C772.149 927.835 758.402 927.496 749.424 926.503Z" fill="#F994EC"/>
<path d="M482.699 975.944C488.785 983.301 503.516 980.713 503.689 972.402C503.94 971.379 504.181 970.375 504.482 969.373C509.807 958.028 515.471 954.222 528.136 943.616C530.638 941.365 534.881 939.998 535.676 936.805C539.22 928.786 524.315 921.723 517.506 928.085C510.845 932.042 491.957 947.092 484.836 959.476C482.137 964.323 477.997 970.569 482.699 975.944Z" fill="#F994EC"/>
<path d="M697.63 1039.56C698.929 1036.74 701.618 1034.16 701.407 1030.98C702.138 1020.9 683.107 1016.4 678.202 1025.36C671.99 1035.54 667.026 1046.21 661.294 1056.59C659.209 1061.24 655.263 1065.59 654.825 1070.65C654.061 1078.2 666.52 1083.92 674.108 1079.88C681.466 1074.78 683.207 1066.03 687.493 1059.22C690.926 1052.68 693.995 1046.01 697.63 1039.56Z" fill="#F994EC"/>
<path d="M906.42 1077.78C906.574 1073.26 908.948 1068.33 905.144 1064.1C899.575 1057.31 885.728 1058.97 884.638 1066.6C883.218 1077.59 881.903 1088.67 879.031 1099.41C878.971 1099.62 878.905 1099.73 878.878 1099.88C876.581 1105.22 871.603 1111.24 878.011 1116.43C881.628 1120.07 888.516 1120.83 892.987 1118.64C898.461 1115.48 899.202 1109.26 901.495 1104.41C904.136 1095.74 904.935 1086.67 906.42 1077.78Z" fill="#F994EC"/>
<path d="M1044.02 1024.18C1054.1 1030.44 1064.47 1036.48 1074.08 1043.2C1080.13 1049.23 1092.2 1046.64 1091.14 1039.09C1090.17 1034.09 1083.56 1031.3 1079.08 1028.06C1070.2 1022.88 1061.95 1016.48 1052.49 1012.12C1042.98 1008.93 1036.16 1018.86 1044.02 1024.18Z" fill="#F994EC"/>
<path d="M660.035 1212.36C665.971 1208.57 667.964 1201.97 672.191 1197.03C675.357 1191.28 682.029 1186.38 682.816 1179.92C683.576 1169.53 663.92 1164.87 658.863 1174.14C653.927 1180.78 649.106 1187.5 644.386 1194.25C642.777 1197.02 639.777 1199.53 640.107 1202.84C639.323 1210.64 652.185 1216.53 660.035 1212.36Z" fill="#F994EC"/>
<path d="M483.446 1166.41C475.431 1158.27 476.578 1160.39 471.946 1154.95C465.744 1143.06 465.898 1141.51 463.758 1128.67C461.862 1121.92 465.417 1112.96 458.253 1107.67C450.529 1101.89 437.576 1106.48 439.103 1114.51C438.823 1131.02 443.283 1150.53 447.244 1159.54C449.276 1164.44 453.07 1168.9 456.993 1173.09C459.674 1175.75 461.45 1179.21 465.311 1180.97C477.841 1188.51 493.054 1176.16 483.446 1166.41Z" fill="#F994EC"/>
<path d="M359.939 946.998C360.554 941.101 364.1 935.337 363.128 929.369C360.903 920.816 344.508 920.344 343.184 928.695C338.86 944.563 335.483 963.429 333.068 973.113C335.694 984.203 354.015 983.735 354.875 973.008C357.406 964.523 357.982 955.627 359.939 946.998Z" fill="#F994EC"/>
<path d="M340.031 1226.59C340.704 1217.47 323.468 1213.39 319.022 1221.51C312.522 1234.92 306.138 1256.21 299.516 1261.12C299.388 1261.23 299.294 1261.29 299.188 1261.36C297.253 1262.53 294.487 1264.32 292.944 1265.3C292.849 1265.36 292.729 1265.4 292.635 1265.46C292.707 1265.44 292.754 1265.41 292.838 1265.37C292.827 1265.39 292.802 1265.38 292.791 1265.4C292.718 1265.42 292.635 1265.46 292.587 1265.48C292.576 1265.5 292.551 1265.49 292.54 1265.51L292.504 1265.52C289.011 1266.35 286.099 1268.34 285.296 1271.22C282.417 1277.24 290.346 1284.82 298.574 1284.3C306.328 1284.06 310.657 1279 316.04 1275.57C324.337 1269.07 327.234 1259.63 330.809 1250.97C333.518 1242.77 337.89 1234.84 340.031 1226.59Z" fill="#F994EC"/>
<path d="M1114.87 1212.53C1110.09 1209.66 1103.81 1209.1 1098.25 1207.83C1092.43 1207.16 1086.36 1205 1080.59 1205.43C1069.17 1206.43 1070.19 1220.12 1081.66 1222.05C1088.31 1223.11 1094.98 1224.09 1101.61 1225.24C1104.67 1225.59 1107.83 1226.88 1110.85 1226.27C1119.01 1225.71 1121.34 1216.88 1114.87 1212.53Z" fill="#F994EC"/>
<path d="M1276.16 1107.2C1269.67 1108.55 1263.3 1110.24 1257.5 1112.77C1247.67 1117.59 1241.57 1125.66 1237.33 1134.05C1236.05 1137.6 1233.3 1141.18 1235.42 1145.14C1238.72 1152.65 1252.99 1153.91 1256.64 1147C1262.78 1134.37 1263.98 1132.89 1271.45 1128.73C1271.75 1128.6 1271.96 1128.5 1272.17 1128.42C1272.36 1128.36 1272.53 1128.29 1272.71 1128.24C1280.48 1125.61 1293.81 1123.27 1290.92 1114.3C1289.73 1109.25 1282.01 1105.66 1276.16 1107.2Z" fill="#F994EC"/>
<path d="M1168.85 966.541C1168.86 966.522 1168.86 966.522 1168.85 966.541C1169.15 966.994 1169.41 967.359 1168.82 966.386C1167.85 962.721 1167.39 959.035 1166.79 955.334C1165.65 947.462 1165.07 939.57 1165.13 931.728C1165.28 930.239 1165.48 925.157 1163.8 924.11C1160.16 919.665 1151.07 920.74 1150.35 925.747C1149.63 939.515 1150.96 953.406 1153.32 967.273C1153.97 973.481 1162.27 978.326 1168.32 973.578C1170.39 971.756 1170.51 968.85 1168.85 966.541Z" fill="#F994EC"/>
<path d="M209.313 1137.08C198.482 1140.72 189.963 1144.05 182.951 1146.24C178.665 1148.06 173.48 1148.73 169.384 1150.65C165.623 1152.8 166.931 1158.08 171.379 1159.81C177.166 1161.92 182.215 1158.1 187.139 1156.64C189.274 1155.88 196.955 1153.23 203.499 1150.66C207.778 1148.53 213.737 1147.88 217.063 1144.91C220.471 1141.32 214.729 1135.63 209.313 1137.08Z" fill="#F994EC"/>
<path d="M92.6161 961.699C77.1298 970.855 65.0717 977.838 55.7594 975.32C55.0653 975.221 54.3428 975.062 53.8696 974.96C53.2307 974.766 52.5839 974.639 51.9326 974.628C46.7778 973.902 42.8346 978.304 44.8287 982.089C46.474 985.611 51.3767 986.608 55.484 987.088C74.1697 990.081 88.2461 979.473 101.809 972.221C110.006 968.101 100.892 957.659 92.6161 961.699Z" fill="#F994EC"/>
<path d="M1168.85 966.541C1168.86 966.522 1168.86 966.522 1168.85 966.541C1169.15 966.994 1169.41 967.359 1168.82 966.386C1167.85 962.721 1167.39 959.035 1166.79 955.334C1165.65 947.462 1165.07 939.57 1165.13 931.728C1165.28 930.239 1165.48 925.157 1163.8 924.11C1160.16 919.665 1151.07 920.74 1150.35 925.747C1149.63 939.515 1150.96 953.406 1153.32 967.273C1153.97 973.481 1162.27 978.326 1168.32 973.578C1170.39 971.756 1170.51 968.85 1168.85 966.541Z" fill="#F994EC"/>
<path d="M209.313 1137.08C198.482 1140.72 189.963 1144.05 182.951 1146.24C178.665 1148.06 173.48 1148.73 169.384 1150.65C165.623 1152.8 166.931 1158.08 171.379 1159.81C177.166 1161.92 182.215 1158.1 187.139 1156.64C189.274 1155.88 196.955 1153.23 203.499 1150.66C207.778 1148.53 213.737 1147.88 217.063 1144.91C220.471 1141.32 214.729 1135.63 209.313 1137.08Z" fill="#F994EC"/>
<path d="M488.209 -18.7159C484.666 -22.0038 482.669 -27.02 476.762 -28.3057C468.634 -30.2025 461.125 -22.9101 465.653 -17.4935C476.059 -5.1427 492.625 10.8964 497.969 18.231C501.794 22.5517 511.328 21.9405 514.562 17.4723C517.319 13.9103 515.35 9.65292 512.312 6.57577C504.184 -1.79156 496.056 -10.18 488.209 -18.7159Z" fill="#F994EC"/>
<path d="M683.425 24.786C694.506 16.798 700.328 14.2267 715.234 6.80783C721.225 6.09124 726.231 2.02349 724.375 -2.69762C720.494 -11.5076 706.994 -7.54519 700.047 -3.20345C693.466 -0.252758 687.278 3.16161 681.203 6.68136C676.506 9.82175 670.375 12.4563 667.422 16.6926C662.894 23.9008 676.112 30.4977 683.425 24.786Z" fill="#F994EC"/>
<path d="M852.991 80.8067C853.159 80.7435 853.3 80.7013 853.441 80.6592L853.047 80.7856C853.019 80.7856 852.991 80.7856 852.991 80.8067Z" fill="#F994EC"/>
<path d="M839.463 66.1383C827.144 69.8266 815.078 73.9998 803.013 78.0886C800.341 79.2478 798.344 81.2079 797.528 83.4209C794.463 90.8187 806.275 97.6475 815.05 93.5165C831.841 87.6362 838.9 85.2546 851.331 81.3133C851.95 81.1025 852.512 80.9339 852.962 80.7864C852.681 80.8707 852.372 80.9761 851.95 81.1025C852.316 80.9971 852.653 80.8917 853.019 80.7653C854.2 80.3859 854.594 80.2595 853.413 80.6388C854.988 80.133 856.591 79.6482 858.166 79.1424C864.438 77.8146 868.488 72.145 865.506 67.6347C860.556 58.888 848.041 63.6934 839.463 66.1383Z" fill="#F994EC"/>
<path d="M625.909 209.647C635.219 213.989 647.087 206.19 642.897 198.666C642.587 197.655 642.278 196.664 642.025 195.652C640.872 183.491 643.965 177.969 649.787 163.743C650.856 160.792 653.95 157.989 652.994 154.827C651.981 146.312 634.909 145.512 632.125 153.752C628.215 159.78 619.131 180.309 619.215 194.072C619.328 199.425 618.878 206.57 625.909 209.647Z" fill="#F994EC"/>
<path d="M852.091 186.863C851.781 183.849 852.85 180.54 850.994 177.758C846.381 168.442 826.947 171.477 827.228 181.341C826.975 192.785 828.1 204.209 828.381 215.653C828.944 220.606 827.678 225.981 829.928 230.681C833.191 237.741 847.366 238.247 852.063 231.798C856 224.484 852.991 215.991 853.272 208.277C852.934 201.132 852.203 194.008 852.091 186.863Z" fill="#F994EC"/>
<path d="M1059.48 143.573C1057.26 139.463 1056.81 134.152 1051.19 131.77C1042.64 127.744 1031.08 134.384 1034.09 141.634C1038.56 152.024 1043.17 162.457 1046.21 173.164C1046.27 173.375 1046.27 173.501 1046.32 173.649C1047.05 179.297 1045.73 186.548 1054.2 188.824C1059.34 190.742 1065.92 188.866 1068.79 185.241C1072.06 180.372 1069.47 174.513 1068.99 169.307C1066.82 160.539 1062.8 152.109 1059.48 143.573Z" fill="#F994EC"/>
<path d="M1154.97 44.3237C1167.29 46.1995 1179.75 47.7592 1191.9 50.2251C1200.48 53.3866 1209.95 46.5789 1205.06 40.1928C1201.57 36.0618 1194.18 36.0196 1188.47 34.7761C1177.78 33.4272 1167.03 30.7505 1156.26 30.3501C1146.05 31.0245 1145.13 42.469 1154.97 44.3237Z" fill="#F994EC"/>
<path d="M1204.19 302.045C1202.25 297.24 1202.75 291.465 1198.65 287.355C1190.32 278.545 1171.06 285.838 1175.16 296.123C1178.45 308.832 1181.77 322.068 1182.11 327.632C1183.85 335.493 1178.62 347.423 1191.22 351.111C1197.35 353.387 1205.2 351.153 1208.6 346.854C1212.4 340.868 1209.84 333.702 1209.76 327.295C1208.63 318.801 1206.47 310.392 1204.19 302.045Z" fill="#F994EC"/>
<path d="M908.706 355.938C912.053 350.332 910.394 343.672 911.603 337.665C911.434 331.321 914.866 324.45 912.194 318.359C907.441 308.748 887.359 311.867 887.669 322.068C886.713 329.867 885.897 337.686 885.194 345.505C885.194 348.582 883.816 351.955 885.841 354.8C889.216 362.092 903.841 362.598 908.706 355.938Z" fill="#F994EC"/>
<path d="M726.175 380.323C714.728 376.003 716.866 377.478 709.863 374.317C698.078 365.949 697.403 364.495 688.769 353.767C683.538 348.414 682.047 339.056 672.85 336.969C662.894 334.651 653.669 343.587 659.238 350.226C667.619 365.148 681.822 380.998 690.091 387.616C694.478 391.262 700.216 393.854 705.925 396.152C709.722 397.543 713.125 399.988 717.513 400.135C732.7 402.243 739.9 385.508 726.175 380.323Z" fill="#F994EC"/>
<path d="M500.584 229.29C498.053 223.768 498.222 217.277 494.228 212.282C487.759 205.432 472.797 211.101 475.975 219.089C480.391 234.939 487.225 253.128 490.122 262.717C498.278 271.696 514.478 264.467 509.641 254.519C507.475 245.962 503.341 237.763 500.584 229.29Z" fill="#F994EC"/>
<path d="M426.25 352.06C432.156 354.273 439.75 350.395 439.525 345.505V316.399C439.328 306.978 420.597 306.978 420.344 316.399V339.499C420.372 343.967 419.191 350.226 426.25 352.06Z" fill="#F994EC"/>
<path d="M353.66 160.518C349.61 167.79 346.15 175.251 343.253 182.838C342.241 185.494 340.75 188.466 342.972 191.037C346.488 195.906 357.035 194.873 358.778 189.477C361.085 182.944 363.897 176.515 366.991 170.171C368.116 167.284 371.125 164.481 370.45 161.383C369.719 154.575 355.741 153.922 353.66 160.518Z" fill="#F994EC"/>
<path d="M628.918 487.645C624.756 479.214 607.15 481.954 607.403 490.89C608.584 505.349 613.984 526.826 610.609 533.696C610.553 533.844 610.497 533.928 610.44 534.034C609.315 535.804 607.768 538.439 606.897 539.893C606.84 539.977 606.756 540.061 606.7 540.146C606.756 540.104 606.784 540.061 606.84 539.998C606.84 540.019 606.812 540.019 606.812 540.04C606.756 540.083 606.7 540.146 606.672 540.188C606.672 540.209 606.643 540.209 606.643 540.23L606.615 540.251C603.915 542.296 602.34 545.162 603.128 548.049C603.69 554.52 614.772 558.377 621.887 554.857C628.722 551.759 629.959 545.605 632.997 540.525C637.047 531.61 634.712 522.062 633.39 512.957C631.534 504.59 631.309 495.843 628.918 487.645Z" fill="#F994EC"/>
<path d="M606.672 540.188C606.672 540.167 606.701 540.167 606.701 540.146C606.672 540.188 606.644 540.209 606.587 540.251C606.616 540.23 606.644 540.209 606.672 540.188Z" fill="#F994EC"/>
<path d="M935.369 529.65C935.594 529.777 935.903 529.966 936.213 530.135C934.188 529.144 921.953 520.63 914.978 515.002C909.747 511.503 906.175 506.192 899.96 503.747C889.272 499.954 879.456 511.019 887.95 517.11C898.553 526.615 910 535.615 921.756 544.319C926.538 549.82 938.266 550.284 942.766 544.193C947.294 538.629 942.006 532.559 935.369 529.65Z" fill="#F994EC"/>
<path d="M827.678 619.794C827.65 619.667 827.537 619.351 827.312 618.803C823.825 610.288 818.453 602.258 813.39 594.228C808.244 587.673 805.319 579.306 798.512 573.763C789.709 568.199 776.772 576.798 782.762 584.133C793.197 600.656 800.425 609.424 806.359 623.946C806.753 624.747 807.344 625.822 807.681 626.433C809.34 631.955 817.553 635.411 824.387 632.376C830.406 629.847 831.053 624.051 827.706 619.899C827.734 619.857 827.706 619.836 827.678 619.794Z" fill="#F994EC"/>
<path d="M1172.49 475.715C1168.33 472.511 1161.16 472.069 1156.32 474.64C1142.99 477.506 1130.08 481.406 1116.92 484.672C1110.95 486.59 1103.05 486.843 1099.51 491.438C1093.94 498.056 1103.13 507.034 1113.12 504.695C1130.16 500.754 1146.78 495.716 1164.14 492.576C1174.54 490.721 1180.56 482.08 1172.49 475.715Z" fill="#F994EC"/>
<path d="M1317.05 187.053C1311.26 186.252 1305.32 188.086 1299.67 189.013C1294.1 190.573 1287.52 190.889 1282.57 193.418C1272.84 198.561 1280.91 210.469 1292.22 207.94C1298.74 206.422 1305.24 204.82 1311.79 203.387C1314.72 202.565 1318.23 202.544 1320.62 200.879C1327.66 197.338 1325.12 188.549 1317.05 187.053Z" fill="#F994EC"/>
<path d="M1326.5 359.563C1326.95 363.041 1326.25 367.046 1330.02 369.638C1336.32 374.696 1348.61 370.881 1348.3 363.968C1348.61 356.254 1347.15 348.583 1346.3 340.932C1345.91 337.391 1346.61 333.302 1342.79 330.668C1336.43 325.567 1323.97 329.424 1324.28 336.4C1324.67 344.136 1326.19 351.828 1326.5 359.563Z" fill="#F994EC"/>
<path d="M1326.42 522.547C1322.4 537.617 1317.05 552.476 1313.71 567.63C1311.57 573.404 1316.88 579.917 1325.27 579.791C1331.71 579.791 1337.33 575.681 1337.25 570.812C1337.36 570.159 1337.44 569.484 1337.53 568.831C1337.56 568.662 1337.58 568.515 1337.64 568.304C1340.51 556.817 1344.14 545.457 1346.95 533.971C1347.77 529.523 1351.08 524.697 1347.65 520.482C1342.9 513.927 1328.75 515.297 1326.42 522.547Z" fill="#F994EC"/>
<path d="M1176.4 589.844C1170.58 599.75 1161.55 612.29 1157.7 613.239C1148.56 617.812 1140.51 620.236 1134.21 622.091C1133.76 622.217 1133.28 622.302 1132.81 622.407C1132.81 622.407 1132.81 622.407 1132.78 622.407C1126.14 622.323 1120.66 627.297 1122.77 632.165C1124.54 637.561 1134.3 639.205 1139.22 635.727C1139.42 635.664 1139.58 635.601 1139.78 635.538C1139.61 635.601 1139.44 635.643 1139.28 635.706C1139.78 635.538 1140.29 635.39 1140.79 635.221C1141.38 635.053 1144.7 634.02 1145.88 633.451C1151.59 630.69 1158.03 628.814 1163.15 625.421C1162.45 625.821 1162.06 626.053 1161.83 626.18C1161.8 626.201 1161.8 626.201 1161.78 626.201C1161.49 626.369 1161.58 626.327 1161.86 626.159C1167.09 623.313 1172.18 620.32 1175.28 615.958C1179.92 610.372 1183.77 604.45 1187.31 598.443C1188.49 596.104 1190.88 593.785 1189.82 591.172C1188.38 586.577 1179.41 585.671 1176.4 589.844Z" fill="#F994EC"/>
<path d="M1034.28 667.805C1034.03 667.742 1033.81 667.679 1033.61 667.616C1029.36 666.182 1025.42 664.286 1021.4 662.515C1020.39 662.115 1018.22 660.998 1017.02 660.386C1015.86 659.628 1014.77 658.848 1013.61 658.089C1011.84 656.761 1009.37 655.982 1006.83 655.982C998.594 655.771 994.037 664.012 1000.06 668.248C1010.07 675.899 1029.39 683.128 1035.55 683.57C1043.45 684.793 1049.67 677.522 1045.45 672.484C1043.23 669.407 1038.36 668.796 1034.28 667.805Z" fill="#F994EC"/>
<path d="M1453.46 419.504C1460.18 414.151 1466.9 408.755 1474.33 403.95C1474.55 403.802 1474.78 403.676 1474.95 403.549C1478.46 401.884 1481.5 399.081 1480.52 395.793C1480.21 392.253 1475.68 389.576 1471.07 389.534C1464.93 389.681 1460.91 393.981 1456.38 396.594C1450.62 400.662 1445.19 404.962 1439.76 409.261C1437.96 410.61 1436.92 412.486 1436.92 414.383C1436.67 420.6 1447.75 424.057 1453.46 419.504Z" fill="#F994EC"/>
<path d="M1458.86 256.732C1463.73 248.491 1469.13 240.44 1475 232.578C1477.34 228.805 1481.7 224.969 1480.57 220.586C1479.73 211.712 1462.07 209.457 1457.09 217.487C1451.01 225.328 1445.36 233.379 1440.18 241.578C1438.02 245.709 1433.66 249.797 1435.57 254.434C1438.13 262.38 1453.66 263.919 1458.86 256.732Z" fill="#F994EC"/>
<path d="M1406.74 32.563C1401.62 36.1882 1396.79 40.0662 1392.91 44.4923C1386.61 52.4802 1385.34 61.9857 1385.93 71.0907C1386.63 74.758 1386.04 78.9943 1390.01 81.7553C1396.9 87.2773 1410.37 83.1042 1410.03 75.5378C1408.94 61.9224 1409.25 60.152 1413.77 53.6394C1413.97 53.4076 1414.11 53.239 1414.25 53.0914C1414.39 52.965 1414.51 52.8385 1414.65 52.7331C1420.24 47.4851 1430.99 40.4245 1423.7 33.4482C1419.99 29.3594 1411.19 29.0011 1406.74 32.563Z" fill="#F994EC"/>
<path d="M1639.9 325.609C1639.56 321.836 1634.75 318.991 1629.86 318.97C1624.74 319.159 1620.47 321.815 1616.27 323.796C1610.9 326.599 1605.78 329.677 1600.58 332.69C1596.56 335.304 1590.77 337.601 1591.02 342.175C1590.71 348.835 1602.55 352.502 1608.62 347.634C1618.72 341.458 1618.27 341.479 1628.87 335.894C1634.11 333.639 1641.5 331.11 1639.9 325.609Z" fill="#F994EC"/>
<path d="M1596.33 148.041C1596.33 147.999 1596.36 147.999 1596.36 147.914C1599.68 139.631 1599.88 139.884 1607.84 130.779C1612 125.531 1620.83 119.166 1613.88 113.096C1600.69 103.548 1593.21 114.888 1586.63 122.454C1579.83 129.746 1574 137.945 1572.65 146.903C1572.91 158.242 1594.59 158.579 1596.33 148.041Z" fill="#F994EC"/>
<path d="M1548.04 493.271C1544.36 506.676 1539.58 531.63 1538.48 538.312C1537.83 541.557 1535.84 545.098 1538.37 548.133C1541.35 552.159 1549.23 552.875 1553.47 549.587C1557.04 546.784 1556.65 542.485 1557.66 538.902C1558.2 534.181 1559.04 530.513 1560.73 522.062C1562.3 513.694 1564.02 505.327 1566.24 497.044C1566.92 495.21 1566.55 493.208 1565.28 491.585C1561.49 486.253 1549.96 487.37 1548.04 493.271Z" fill="#F994EC"/>
<path d="M1475.17 657.625C1465.22 658.089 1454.67 656.571 1444.99 658.236C1434.67 661.103 1438.02 673.201 1448.96 673.032C1462.32 673.053 1475.71 672.885 1489.07 673.011C1489.94 673.285 1491.01 673.559 1491.79 673.517C1498.57 674.529 1504.59 669.133 1502.65 664.243C1498.77 655.771 1484.57 657.941 1475.17 657.625Z" fill="#F994EC"/>
<path d="M1286.09 717.104C1280.49 731.014 1273.38 751.037 1268.65 754.177C1261.56 758.181 1264.85 766.97 1273.97 766.97C1279.03 766.991 1282.18 763.809 1284.96 761.069C1293.2 751.226 1296.07 739.402 1301.08 728.527C1302.23 724.27 1306.39 719.612 1303.16 715.417C1299.36 710.169 1287.97 711.265 1286.09 717.104Z" fill="#F994EC"/>
<path d="M464.781 455.882C456.963 463.175 451.056 469.329 445.909 473.903C443.013 477.127 438.709 479.656 436.038 482.902C433.788 486.232 437.725 490.49 442.619 490.384C448.919 490.131 451.45 484.82 455.106 481.68C456.625 480.204 462.138 474.977 466.666 470.235C469.394 466.737 474.4 463.933 475.834 460.034C477.016 455.545 468.888 452.573 464.781 455.882Z" fill="#F994EC"/>
<path d="M692.988 664.201C689.388 664.075 686.575 665.719 683.931 667.321C679.122 669.913 674.285 672.505 669.475 675.14C659.378 681.147 647.847 686.057 638.256 692.359C630.55 699.209 642.475 709.263 652.6 704.605C668.997 695.668 686.181 687.153 701.65 677.437C707.5 672.442 701.735 664.012 692.988 664.201Z" fill="#F994EC"/>
<path d="M965.406 739.106C963.325 736.493 961.638 733.163 957.25 732.404C949.797 730.655 942.906 737.357 947.069 742.331C953.228 750.382 959.866 758.223 966.784 765.916C970.553 769.204 973.169 773.882 978.456 775.885C983.941 777.971 990.972 774.325 990.775 769.794C989.088 763.429 985.6 763.85 982.394 759.361C976.488 752.722 970.778 745.998 965.406 739.106Z" fill="#F994EC"/>
<path d="M268.328 341.838C259.216 355.812 252.044 366.561 242.369 367.762C241.694 367.931 240.963 368.057 240.484 368.142C239.809 368.205 239.163 368.331 238.572 368.563C233.566 369.828 232.328 375.244 236.097 377.9C239.416 380.45 244.338 379.523 248.275 378.427C266.613 374.169 273.7 359.416 282.081 347.866C287.284 341.122 273.644 335.136 268.328 341.838Z" fill="#F994EC"/>
<path d="M458.734 601.773C457.553 601.878 455.781 602.764 454.74 603.396C453.953 603.796 453.137 604.176 452.294 604.492C451.731 604.639 451.084 604.787 450.466 604.934C447.906 605.946 432.24 605.756 421.497 604.555C427.6 605.209 414.24 603.501 411.653 603.101C404.847 602.342 398.153 599.813 391.319 599.876C381.334 600.551 380.378 611.784 390.053 613.618C404.959 616.948 420.259 619.435 435.784 620.278C445.825 620.868 456.991 621.227 465.625 616.737C470.322 614.672 473.697 610.225 471.025 606.283C469.281 602.658 463.572 600.825 458.734 601.773Z" fill="#F994EC"/>
<path d="M1046.01 363.673C1040.44 371.282 1032.48 383.928 1028.77 386.605C1022.56 390.967 1024.22 389.45 1016.03 394.508C1015.86 394.614 1015.75 394.698 1015.67 394.761C1014.63 395.33 1013.61 395.941 1012.63 396.553C1013.25 396.068 1008.49 398.555 1008.13 399.841C1007.73 400.241 1004.84 403.929 1009.25 407.576C1012.97 410.547 1019.35 409.493 1022.02 406.437C1026.94 403.719 1026.77 403.171 1030.85 401.126C1036.48 397.501 1042.47 393.897 1045.87 388.818C1050.79 381.757 1056.56 374.739 1060.27 367.341C1061.85 361.334 1049.89 358.278 1046.01 363.673Z" fill="#F994EC"/>
<path d="M786.531 795.845C785.828 795.95 784.534 796.625 784.084 796.857C784.253 796.772 784.506 796.625 785.012 796.33C784.759 796.435 784.534 796.541 784.281 796.667C783.69 797.004 783.1 797.32 782.594 797.721C780.737 798.522 778.769 799.154 776.997 800.039C774.494 800.714 774.016 800.967 770.809 801.578C767.294 802.21 760.29 801.915 753.822 801.746C753.597 801.683 753.428 801.662 753.344 801.641C753.062 801.536 752.781 801.43 752.472 801.325C747.325 799.28 742.094 797.363 736.975 795.297C735.428 794.623 733.544 794.433 731.828 794.791C726.287 795.782 725.219 801.894 730.225 803.938C736.862 806.383 743.303 809.229 750.222 811.231C757.647 811.863 765.55 812.158 772.919 811.083C779.781 809.608 779.809 809.545 784.478 807.69C786.7 806.636 789.287 805.898 791.144 804.444C791.228 804.402 791.341 804.339 791.453 804.297C791.481 804.297 791.481 804.276 791.509 804.276C791.819 804.107 792.184 803.917 792.578 803.643C792.494 803.685 792.437 803.707 792.353 803.749C793.422 803.011 794.209 802.063 794.294 800.967C795.165 797.805 790.609 794.897 786.531 795.845Z" fill="#F994EC"/>
<path d="M1168.98 848.155C1168.89 848.05 1168.81 847.945 1168.69 847.797C1164.7 842.296 1161.02 836.5 1159.36 823.454C1159.13 817.531 1158.82 811.588 1159.05 805.644C1159.22 803.052 1159.75 800.101 1156.94 798.162C1152.33 794.474 1143.33 797.256 1143.55 802.314C1142.88 815.361 1142.37 828.765 1147.49 841.39C1149.99 846.617 1150.64 848.282 1153.73 853.087C1154.91 854.225 1155.62 855.574 1156.99 856.586C1156.49 856.122 1155.19 854.773 1156.21 855.891C1157.33 857.577 1159.47 859.01 1161.97 859.41C1166.08 860.232 1171.11 859.157 1172.6 855.912C1174.46 853.087 1172.46 849.631 1168.98 848.155Z" fill="#F994EC"/>
<path d="M1639.9 325.609C1639.56 321.836 1634.75 318.991 1629.86 318.97C1624.74 319.159 1620.47 321.815 1616.27 323.796C1610.9 326.599 1605.78 329.677 1600.58 332.69C1596.56 335.304 1590.77 337.601 1591.02 342.175C1590.71 348.835 1602.55 352.502 1608.62 347.634C1618.72 341.458 1618.27 341.479 1628.87 335.894C1634.11 333.639 1641.5 331.11 1639.9 325.609Z" fill="#F994EC"/>
<path d="M1596.33 148.041C1596.33 147.999 1596.36 147.999 1596.36 147.914C1599.68 139.631 1599.88 139.884 1607.84 130.779C1612 125.531 1620.83 119.166 1613.88 113.096C1600.69 103.548 1593.21 114.888 1586.63 122.454C1579.83 129.746 1574 137.945 1572.65 146.903C1572.91 158.242 1594.59 158.579 1596.33 148.041Z" fill="#F994EC"/>
<path d="M1548.04 493.271C1544.36 506.676 1539.58 531.63 1538.48 538.312C1537.83 541.557 1535.84 545.098 1538.37 548.133C1541.35 552.159 1549.23 552.875 1553.47 549.587C1557.04 546.784 1556.65 542.485 1557.66 538.902C1558.2 534.181 1559.04 530.513 1560.73 522.062C1562.3 513.694 1564.02 505.327 1566.24 497.044C1566.92 495.21 1566.55 493.208 1565.28 491.585C1561.49 486.253 1549.96 487.37 1548.04 493.271Z" fill="#F994EC"/>
<path d="M1475.17 657.625C1465.22 658.089 1454.67 656.571 1444.99 658.236C1434.67 661.103 1438.02 673.201 1448.96 673.032C1462.32 673.053 1475.71 672.885 1489.07 673.011C1489.94 673.285 1491.01 673.559 1491.79 673.517C1498.57 674.529 1504.59 669.133 1502.65 664.243C1498.77 655.771 1484.57 657.941 1475.17 657.625Z" fill="#F994EC"/>
<path d="M1286.09 717.104C1280.49 731.014 1273.38 751.037 1268.65 754.177C1261.56 758.181 1264.85 766.97 1273.97 766.97C1279.03 766.991 1282.18 763.809 1284.96 761.069C1293.2 751.226 1296.07 739.402 1301.08 728.527C1302.23 724.27 1306.39 719.612 1303.16 715.417C1299.36 710.169 1287.97 711.265 1286.09 717.104Z" fill="#F994EC"/>
<path d="M464.781 455.882C456.963 463.175 451.056 469.329 445.909 473.903C443.013 477.127 438.709 479.656 436.038 482.902C433.788 486.232 437.725 490.49 442.619 490.384C448.919 490.131 451.45 484.82 455.106 481.68C456.625 480.204 462.138 474.977 466.666 470.235C469.394 466.737 474.4 463.933 475.834 460.034C477.016 455.545 468.888 452.573 464.781 455.882Z" fill="#F994EC"/>
<path d="M692.988 664.201C689.388 664.075 686.575 665.719 683.931 667.321C679.122 669.913 674.285 672.505 669.475 675.14C659.378 681.147 647.847 686.057 638.256 692.359C630.55 699.209 642.475 709.263 652.6 704.605C668.997 695.668 686.181 687.153 701.65 677.437C707.5 672.442 701.735 664.012 692.988 664.201Z" fill="#F994EC"/>
<path d="M965.406 739.106C963.325 736.493 961.638 733.163 957.25 732.404C949.797 730.655 942.906 737.357 947.069 742.331C953.228 750.382 959.866 758.223 966.784 765.916C970.553 769.204 973.169 773.882 978.456 775.885C983.941 777.971 990.972 774.325 990.775 769.794C989.088 763.429 985.6 763.85 982.394 759.361C976.488 752.722 970.778 745.998 965.406 739.106Z" fill="#F994EC"/>
<path d="M268.328 341.838C259.216 355.812 252.044 366.561 242.369 367.762C241.694 367.931 240.963 368.057 240.484 368.142C239.809 368.205 239.163 368.331 238.572 368.563C233.566 369.828 232.328 375.244 236.097 377.9C239.416 380.45 244.338 379.523 248.275 378.427C266.613 374.169 273.7 359.416 282.081 347.866C287.284 341.122 273.644 335.136 268.328 341.838Z" fill="#F994EC"/>
<path d="M458.734 601.773C457.553 601.878 455.781 602.764 454.74 603.396C453.953 603.796 453.137 604.176 452.294 604.492C451.731 604.639 451.084 604.787 450.466 604.934C447.906 605.946 432.24 605.756 421.497 604.555C427.6 605.209 414.24 603.501 411.653 603.101C404.847 602.342 398.153 599.813 391.319 599.876C381.334 600.551 380.378 611.784 390.053 613.618C404.959 616.948 420.259 619.435 435.784 620.278C445.825 620.868 456.991 621.227 465.625 616.737C470.322 614.672 473.697 610.225 471.025 606.283C469.281 602.658 463.572 600.825 458.734 601.773Z" fill="#F994EC"/>
<path d="M1046.01 363.673C1040.44 371.282 1032.48 383.928 1028.77 386.605C1022.56 390.967 1024.22 389.45 1016.03 394.508C1015.86 394.614 1015.75 394.698 1015.67 394.761C1014.63 395.33 1013.61 395.941 1012.63 396.553C1013.25 396.068 1008.49 398.555 1008.13 399.841C1007.73 400.241 1004.84 403.929 1009.25 407.576C1012.97 410.547 1019.35 409.493 1022.02 406.437C1026.94 403.719 1026.77 403.171 1030.85 401.126C1036.48 397.501 1042.47 393.897 1045.87 388.818C1050.79 381.757 1056.56 374.739 1060.27 367.341C1061.85 361.334 1049.89 358.278 1046.01 363.673Z" fill="#F994EC"/>
<path d="M786.531 795.845C785.828 795.95 784.534 796.625 784.084 796.857C784.253 796.772 784.506 796.625 785.012 796.33C784.759 796.435 784.534 796.541 784.281 796.667C783.69 797.004 783.1 797.32 782.594 797.721C780.737 798.522 778.769 799.154 776.997 800.039C774.494 800.714 774.016 800.967 770.809 801.578C767.294 802.21 760.29 801.915 753.822 801.746C753.597 801.683 753.428 801.662 753.344 801.641C753.062 801.536 752.781 801.43 752.472 801.325C747.325 799.28 742.094 797.363 736.975 795.297C735.428 794.623 733.544 794.433 731.828 794.791C726.287 795.782 725.219 801.894 730.225 803.938C736.862 806.383 743.303 809.229 750.222 811.231C757.647 811.863 765.55 812.158 772.919 811.083C779.781 809.608 779.809 809.545 784.478 807.69C786.7 806.636 789.287 805.898 791.144 804.444C791.228 804.402 791.341 804.339 791.453 804.297C791.481 804.297 791.481 804.276 791.509 804.276C791.819 804.107 792.184 803.917 792.578 803.643C792.494 803.685 792.437 803.707 792.353 803.749C793.422 803.011 794.209 802.063 794.294 800.967C795.165 797.805 790.609 794.897 786.531 795.845Z" fill="#F994EC"/>
<path d="M1168.98 848.155C1168.89 848.05 1168.81 847.945 1168.69 847.797C1164.7 842.296 1161.02 836.5 1159.36 823.454C1159.13 817.531 1158.82 811.588 1159.05 805.644C1159.22 803.052 1159.75 800.101 1156.94 798.162C1152.33 794.474 1143.33 797.256 1143.55 802.314C1142.88 815.361 1142.37 828.765 1147.49 841.39C1149.99 846.617 1150.64 848.282 1153.73 853.087C1154.91 854.225 1155.62 855.574 1156.99 856.586C1156.49 856.122 1155.19 854.773 1156.21 855.891C1157.33 857.577 1159.47 859.01 1161.97 859.41C1166.08 860.232 1171.11 859.157 1172.6 855.912C1174.46 853.087 1172.46 849.631 1168.98 848.155Z" fill="#F994EC"/>
<path d="M26.0529 564.741C20.2592 563.941 14.3248 565.774 8.67171 566.701C3.10296 568.261 -3.47834 568.577 -8.42834 571.106C-18.1596 576.249 -10.0877 588.157 1.21852 585.628C7.74352 584.111 14.2405 582.509 20.7936 581.076C23.7186 580.254 27.2342 580.233 29.6248 578.568C36.656 575.027 34.1248 566.238 26.0529 564.741Z" fill="#F994EC"/>
<path d="M35.5029 737.252C35.9529 740.73 35.2497 744.734 39.0185 747.327C45.3185 752.385 57.6091 748.57 57.2997 741.657C57.6091 733.943 56.1466 726.272 55.3029 718.621C54.9091 715.08 55.6123 710.991 51.7873 708.357C45.431 703.256 32.9717 707.113 33.281 714.089C33.6748 721.824 35.1935 729.517 35.5029 737.252Z" fill="#F994EC"/>
<path d="M35.4185 900.237C31.3966 915.306 26.0529 930.165 22.706 945.319C20.5685 951.094 25.8841 957.607 34.2654 957.48C40.706 957.48 46.331 953.37 46.2466 948.501C46.3591 947.848 46.4435 947.174 46.5279 946.52C46.556 946.352 46.5842 946.204 46.6404 945.993C49.5092 934.507 53.1373 923.147 55.9498 911.66C56.7654 907.213 60.0842 902.386 56.6529 898.171C51.8998 891.616 37.7529 892.986 35.4185 900.237Z" fill="#F994EC"/>
<path d="M162.459 797.193C169.181 791.84 175.903 786.444 183.328 781.639C183.553 781.491 183.778 781.365 183.947 781.238C187.462 779.573 190.5 776.77 189.515 773.482C189.206 769.942 184.678 767.265 180.066 767.223C173.934 767.37 169.912 771.67 165.384 774.283C159.619 778.351 154.191 782.651 148.762 786.95C146.962 788.299 145.922 790.175 145.922 792.072C145.669 798.289 156.75 801.746 162.459 797.193Z" fill="#F994EC"/>
<path d="M167.859 634.421C172.725 626.18 178.125 618.128 184.003 610.267C186.338 606.494 190.697 602.658 189.572 598.275C188.728 589.401 171.066 587.146 166.088 595.176C160.013 603.017 154.359 611.068 149.184 619.267C147.019 623.398 142.659 627.486 144.572 632.123C147.131 640.069 162.656 641.608 167.859 634.421Z" fill="#F994EC"/>
<path d="M115.743 410.252C110.625 413.877 105.787 417.755 101.906 422.181C95.606 430.169 94.3404 439.675 94.931 448.78C95.6341 452.447 95.0435 456.683 99.0092 459.444C105.9 464.966 119.372 460.793 119.034 453.227C117.937 439.611 118.247 437.841 122.775 431.328C122.972 431.097 123.112 430.928 123.253 430.78C123.394 430.654 123.506 430.527 123.647 430.422C129.243 425.174 139.987 418.113 132.703 411.137C128.99 407.048 120.187 406.69 115.743 410.252Z" fill="#F994EC"/>
<path d="M348.9 703.297C348.563 699.525 343.753 696.679 338.859 696.658C333.741 696.848 329.466 699.503 325.275 701.485C319.903 704.288 314.784 707.365 309.581 710.379C305.559 712.992 299.766 715.29 300.019 719.863C299.709 726.523 311.55 730.191 317.625 725.322C327.722 719.147 327.272 719.168 337.875 713.583C343.106 711.327 350.503 708.798 348.9 703.297Z" fill="#F994EC"/>
<path d="M305.335 525.73C305.335 525.688 305.363 525.688 305.363 525.603C308.681 517.32 308.878 517.573 316.838 508.468C321 503.22 329.831 496.855 322.885 490.785C309.694 481.237 302.213 492.577 295.631 500.143C288.825 507.435 283.003 515.634 281.653 524.592C281.906 535.931 303.591 536.268 305.335 525.73Z" fill="#F994EC"/>
<path d="M257.044 870.961C253.36 884.365 248.578 909.32 247.481 916.001C246.834 919.247 244.838 922.788 247.369 925.823C250.35 929.848 258.225 930.565 262.472 927.277C266.044 924.474 265.65 920.174 266.663 916.591C267.197 911.87 268.041 908.203 269.728 899.751C271.303 891.384 273.019 883.016 275.241 874.733C275.916 872.9 275.55 870.897 274.285 869.275C270.488 863.942 258.956 865.059 257.044 870.961Z" fill="#F994EC"/>
<path d="M184.172 1035.31C174.216 1035.78 163.669 1034.26 153.994 1035.92C143.672 1038.79 147.019 1050.89 157.959 1050.72C171.319 1050.74 184.706 1050.57 198.066 1050.7C198.937 1050.97 200.006 1051.25 200.794 1051.21C207.572 1052.22 213.591 1046.82 211.65 1041.93C207.769 1033.46 193.566 1035.63 184.172 1035.31Z" fill="#F994EC"/>
<path d="M-4.91238 1094.79C-10.5093 1108.7 -17.6248 1128.72 -22.3498 1131.87C-29.4373 1135.87 -26.1468 1144.66 -17.0343 1144.66C-11.9718 1144.68 -8.82174 1141.5 -6.03737 1138.76C2.20326 1128.91 5.07204 1117.09 10.0783 1106.22C11.2314 1101.96 15.3939 1097.3 12.1595 1093.11C8.36264 1087.86 -3.02801 1088.95 -4.91238 1094.79Z" fill="#F994EC"/>
<path d="M348.9 703.297C348.563 699.525 343.753 696.679 338.859 696.658C333.741 696.848 329.466 699.503 325.275 701.485C319.903 704.288 314.784 707.365 309.581 710.379C305.559 712.992 299.766 715.29 300.019 719.863C299.709 726.523 311.55 730.191 317.625 725.322C327.722 719.147 327.272 719.168 337.875 713.583C343.106 711.327 350.503 708.798 348.9 703.297Z" fill="#F994EC"/>
<path d="M305.335 525.73C305.335 525.688 305.363 525.688 305.363 525.603C308.681 517.32 308.878 517.573 316.838 508.468C321 503.22 329.831 496.855 322.885 490.785C309.694 481.237 302.213 492.577 295.631 500.143C288.825 507.435 283.003 515.634 281.653 524.592C281.906 535.931 303.591 536.268 305.335 525.73Z" fill="#F994EC"/>
<path d="M257.044 870.961C253.36 884.365 248.578 909.32 247.481 916.001C246.834 919.247 244.838 922.788 247.369 925.823C250.35 929.848 258.225 930.565 262.472 927.277C266.044 924.474 265.65 920.174 266.663 916.591C267.197 911.87 268.041 908.203 269.728 899.751C271.303 891.384 273.019 883.016 275.241 874.733C275.916 872.9 275.55 870.897 274.285 869.275C270.488 863.942 258.956 865.059 257.044 870.961Z" fill="#F994EC"/>
<path d="M184.172 1035.31C174.216 1035.78 163.669 1034.26 153.994 1035.92C143.672 1038.79 147.019 1050.89 157.959 1050.72C171.319 1050.74 184.706 1050.57 198.066 1050.7C198.937 1050.97 200.006 1051.25 200.794 1051.21C207.572 1052.22 213.591 1046.82 211.65 1041.93C207.769 1033.46 193.566 1035.63 184.172 1035.31Z" fill="#F994EC"/>
<path d="M-4.91238 1094.79C-10.5093 1108.7 -17.6248 1128.72 -22.3498 1131.87C-29.4373 1135.87 -26.1468 1144.66 -17.0343 1144.66C-11.9718 1144.68 -8.82174 1141.5 -6.03737 1138.76C2.20326 1128.91 5.07204 1117.09 10.0783 1106.22C11.2314 1101.96 15.3939 1097.3 12.1595 1093.11C8.36264 1087.86 -3.02801 1088.95 -4.91238 1094.79Z" fill="#F994EC"/>
<path d="M97.371 15.7266C85.8809 27.758 73.3145 39.109 62.3862 51.467C57.4478 55.8561 58.8135 63.6772 66.4024 66.6787C72.1834 69.0724 79.3815 67.474 81.8517 63.0727C82.2943 62.528 82.7227 61.954 83.1401 61.3989C83.2535 61.258 83.3559 61.1361 83.5166 60.9678C92.0981 51.7238 101.295 42.8756 109.826 33.6107C112.884 29.9221 118.386 26.8234 117.511 21.7645C116.672 14.1146 103.258 10.0864 97.371 15.7266Z" fill="#F994EC"/>
<path d="M311.607 71.8181C301.29 82.4805 283.95 103.102 279.471 108.691C277.193 111.364 273.55 113.8 274.235 117.465C274.805 122.187 281.499 125.757 287.03 124.384C291.702 123.195 293.597 119.19 296.38 116.35C299.328 112.311 302.003 109.333 307.937 102.374C313.726 95.449 319.642 88.5763 325.967 81.9674C327.532 80.5724 328.251 78.6393 327.963 76.7123C327.344 70.5149 316.409 67.2319 311.607 71.8181Z" fill="#F994EC"/>
<path d="M160.255 192.255C151.076 188.971 142.402 183.689 132.848 181.588C122.084 180.324 118.762 192.427 128.67 196.342C140.65 201.326 152.755 206.15 164.68 211.229C165.319 211.799 166.135 212.442 166.864 212.697C172.419 216.124 180.643 213.518 181.458 208.408C182.405 199.36 168.521 196.03 160.255 192.255Z" fill="#F994EC"/>
<path d="M311.607 71.8181C301.29 82.4805 283.95 103.102 279.471 108.691C277.193 111.364 273.55 113.8 274.235 117.465C274.805 122.187 281.499 125.757 287.03 124.384C291.702 123.195 293.597 119.19 296.38 116.35C299.328 112.311 302.003 109.333 307.937 102.374C313.726 95.449 319.642 88.5763 325.967 81.9674C327.532 80.5724 328.251 78.6393 327.963 76.7123C327.344 70.5149 316.409 67.2319 311.607 71.8181Z" fill="#F994EC"/>
<path d="M160.255 192.255C151.076 188.971 142.402 183.689 132.848 181.588C122.084 180.324 118.762 192.427 128.67 196.342C140.65 201.326 152.755 206.15 164.68 211.229C165.319 211.799 166.135 212.442 166.864 212.697C172.419 216.124 180.643 213.518 181.458 208.408C182.405 199.36 168.521 196.03 160.255 192.255Z" fill="#F994EC"/>
</g>
<defs>
<clipPath id="clip0_4487_27808">
<rect width="100%" height="100%" fill="white"/>
</clipPath>
</defs>
</svg>
