<svg viewBox="0 0 1806 1214" fill="none" xmlns="http://www.w3.org/2000/svg">
<g opacity="0.1" clip-path="url(#clip0_4483_33967)">
<path d="M2900.89 74.6502V77.6102C2686.32 76.9702 2471.73 76.6702 2257.14 76.7002C1872.65 76.7602 1488.15 77.8902 1103.66 80.1002C717.19 82.3202 330.74 85.6302 -55.7 90.0202C-55.81 90.0202 -55.91 90.0202 -56.01 89.9902C-57.51 89.7302 -57.51 87.3902 -56.01 87.1002C-55.91 87.0702 -55.81 87.0602 -55.7 87.0602C161.18 84.6002 378.07 82.4702 594.95 80.6902C979.43 77.5302 1363.93 75.4502 1748.42 74.4402C2132.57 73.4402 2516.73 73.5102 2900.88 74.6502H2900.89Z" fill="#ED52D8"/>
<path d="M2900.89 693.27V696.22C2693.25 683.99 2485.42 674.93 2277.5 669.12C1882.57 658.1 1487.3 658.68 1092.4 670.87C709.05 682.71 326.05 705.54 -56 739.2V736.24C153.36 717.79 363 702.57 572.83 690.66C967.29 668.29 1362.41 657.5 1757.5 658.34C2138.87 659.15 2520.19 670.83 2900.89 693.25V693.27Z" fill="#ED52D8"/>
<path d="M2900.89 403.27V406.23C2688.89 389.28 2476.14 384.83 2263.53 383.4C1871.58 380.77 1479.57 383.54 1087.68 390.39C706.35 397.05 325.09 408 -56.01 423.19V420.24C153.16 411.89 362.39 404.82 571.65 399.05C963.63 388.24 1355.72 381.94 1747.83 380.15C1943.62 379.26 2139.44 379.02 2335.22 381.05C2523.94 383.01 2712.72 388.23 2900.88 403.28L2900.89 403.27Z" fill="#ED52D8"/>
<path d="M2899.46 224.62C2681.41 220.04 2463.35 216.74 2245.26 214.78C1858.66 211.3 1472.01 211.97 1085.42 216.78C704.87 221.52 324.37 230.28 -56 243.04V240.08C153.95 233.04 363.95 227.21 573.97 222.6C960.49 214.13 1347.11 209.82 1733.74 209.64C2122.35 209.45 2510.95 213.48 2899.47 221.65C2901.37 221.69 2901.37 224.65 2899.47 224.61L2899.46 224.62Z" fill="#ED52D8"/>
<path d="M2903.42 563.69C2902.57 563.65 2901.73 563.61 2900.89 563.57C2684.13 553.19 2467.24 545.59 2250.28 540.87C1862.2 532.4 1473.93 533.01 1085.88 542.69C705.01 552.19 324.48 571.16 -56 590.37V587.41C154.15 576.79 364.29 566.24 574.51 557.32C962.6 540.86 1350.91 531.5 1739.38 532C2126.7 532.5 2514.01 542.08 2900.9 560.6C2901.75 560.64 2902.59 560.68 2903.43 560.72C2905.32 560.81 2905.33 563.77 2903.43 563.68L2903.42 563.69Z" fill="#ED52D8"/>
<path d="M2900.89 834.66V837.62C2695.12 826.64 2489.18 818.88 2283.18 814.42C1889.62 805.88 1495.8 809.26 1102.44 824.51C715.61 839.51 329.25 866.08 -56 904.01V901.04C158.23 879.95 372.8 862.35 587.61 848.33C980.43 822.69 1374.02 808.94 1767.67 807.09C2145.58 805.31 2523.52 814.54 2900.9 834.66H2900.89Z" fill="#ED52D8"/>
<path d="M2900.89 949.12V952.08C2687.61 950.99 2474.32 951.3 2261.04 953.08C1872.09 956.3 1483.18 964.33 1094.43 977.13C710.76 989.78 327.25 1007.09 -56 1029.04V1026.08C156.86 1013.89 369.8 1003.1 582.81 993.79C971.41 976.79 1360.2 964.57 1749.09 957.13C2132.97 949.8 2516.95 947.15 2900.9 949.12H2900.89Z" fill="#ED52D8"/>
<path d="M2900.89 1055.8V1058.76C2852.37 1064.14 2803.74 1067.97 2755.05 1070.65C2754.06 1070.71 2753.08 1070.76 2752.09 1070.81C2705.55 1073.33 2658.94 1074.81 2612.31 1075.62C2611.32 1075.64 2610.34 1075.66 2609.35 1075.67C2503.42 1077.44 2397.36 1075.76 2291.5 1074.86C1901.01 1071.55 1510.47 1075.69 1120.14 1087.3C727.82 1098.96 335.74 1118.19 -55.85 1144.87C-57.75 1145 -57.74 1142.04 -55.85 1141.91C164.78 1126.87 385.58 1114.18 606.49 1103.91C996.56 1085.77 1386.99 1075.07 1777.48 1071.84C1972.45 1070.23 2167.42 1070.65 2362.37 1072.57C2444.64 1073.38 2527.03 1074.09 2609.35 1072.71C2610.34 1072.71 2611.32 1072.68 2612.31 1072.66C2658.93 1071.85 2705.53 1070.37 2752.07 1067.85C2753.06 1067.8 2754.03 1067.75 2755.02 1067.69C2803.72 1065.01 2852.36 1061.18 2900.88 1055.8H2900.89Z" fill="#ED52D8"/>
<path d="M2900.89 1183.63V1186.59C2852.53 1186.28 2804.16 1185.98 2755.8 1185.66C2754.81 1185.66 2753.83 1185.66 2752.84 1185.64C2705.87 1185.34 2658.92 1185.05 2611.95 1184.74C2610.96 1184.74 2609.98 1184.74 2608.99 1184.72C2496.14 1184.01 2383.29 1183.29 2270.44 1182.6C1871.9 1180.17 1473.31 1178.55 1074.82 1186.03C697.55 1193.11 320.34 1208.36 -55.8501 1238.28V1235.32C144.27 1219.39 344.7 1207.59 545.27 1199.02C943.04 1182.01 1341.24 1177.52 1739.33 1177.6C2029.22 1177.66 2319.12 1179.59 2609 1181.61C2609.99 1181.61 2610.97 1181.63 2611.96 1181.63C2658.92 1181.97 2705.86 1182.29 2752.82 1182.62C2753.81 1182.62 2754.79 1182.64 2755.78 1182.64C2804.15 1182.99 2852.52 1183.31 2900.89 1183.63Z" fill="#ED52D8"/>
<path d="M1456.73 2956.89H1453.78C1453.15 2904.75 1452.5 2852.61 1451.84 2800.47C1451.84 2799.48 1451.82 2798.5 1451.8 2797.51C1451.1 2741.24 1450.38 2684.98 1449.64 2628.72C1449.64 2627.73 1449.64 2626.75 1449.6 2625.76C1449.01 2579.28 1448.4 2532.79 1447.78 2486.3C1447.78 2485.31 1447.76 2484.33 1447.74 2483.34C1447.24 2445.23 1446.72 2407.11 1446.21 2369C1446.12 2362.59 1446.03 2356.2 1445.94 2349.79C1445.94 2348.8 1445.92 2347.82 1445.9 2346.83C1445.51 2317.41 1445.1 2287.98 1444.69 2258.56C1444.69 2257.57 1444.67 2256.59 1444.65 2255.6C1444.17 2220.31 1443.67 2185.04 1443.18 2149.76C1443.18 2148.75 1443.15 2147.78 1443.13 2146.79C1442.55 2105.17 1441.97 2063.54 1441.36 2021.92C1441.36 2020.92 1441.34 2019.93 1441.32 2018.94C1440.8 1981.73 1440.26 1944.53 1439.71 1907.33C1439.69 1906.34 1439.68 1905.36 1439.66 1904.37C1439.28 1877.69 1438.88 1851.01 1438.49 1824.32C1438.49 1823.33 1438.46 1822.35 1438.44 1821.36C1438.02 1791.95 1437.57 1762.54 1437.14 1733.12C1437.12 1732.14 1437.11 1731.16 1437.09 1730.17C1436.53 1692.56 1435.96 1654.95 1435.38 1617.33C1435.38 1616.47 1435.36 1615.61 1435.34 1614.75C1434.83 1580.78 1434.31 1546.79 1433.77 1512.81C1433.77 1511.82 1433.74 1510.84 1433.72 1509.84C1433.2 1475.51 1432.67 1441.17 1432.11 1406.83C1432.11 1405.84 1432.09 1404.86 1432.06 1403.87C1431.54 1369.73 1431 1335.59 1430.45 1301.45C1430.43 1300.49 1430.41 1299.54 1430.4 1298.59C1429.78 1259.58 1429.15 1220.57 1428.51 1181.56C1428.51 1180.57 1428.49 1179.58 1428.47 1178.59C1428.28 1166.89 1428.09 1155.19 1427.9 1143.49C1427.55 1122.22 1427.2 1100.95 1426.85 1079.68C1426.85 1078.69 1426.83 1077.71 1426.8 1076.72C1426.21 1040.26 1425.61 1003.81 1424.99 967.35C1424.99 966.37 1424.96 965.39 1424.94 964.4C1424.11 914.5 1423.27 864.59 1422.42 814.68C1422.42 813.69 1422.39 812.71 1422.37 811.73C1421.53 762.28 1420.67 712.83 1419.82 663.39C1419.8 662.39 1419.78 661.41 1419.76 660.42C1419.05 619.14 1418.32 577.86 1417.59 536.59C1417.59 535.64 1417.56 534.7 1417.54 533.75C1416.67 484.37 1415.79 434.99 1414.9 385.6C1414.88 384.63 1414.86 383.67 1414.84 382.7C1413.83 326.35 1412.8 270 1411.76 213.65C1411.74 212.66 1411.73 211.68 1411.7 210.69C1410.89 166.63 1410.07 122.57 1409.25 78.5199C1409.25 77.5299 1409.22 76.5499 1409.2 75.5599C1408.73 50.3499 1408.25 25.1499 1407.77 -0.0600586H1410.73C1411.21 25.1399 1411.69 50.3499 1412.16 75.5499C1412.18 76.5399 1412.2 77.5199 1412.21 78.5099C1413.04 122.56 1413.86 166.62 1414.66 210.67C1414.68 211.66 1414.7 212.64 1414.72 213.63C1415.75 269.98 1416.78 326.32 1417.8 382.67C1417.82 383.64 1417.84 384.6 1417.85 385.57C1418.75 434.95 1419.63 484.34 1420.49 533.72C1420.52 534.67 1420.54 535.61 1420.54 536.56C1420.94 558.71 1421.34 580.86 1421.72 603.01C1422.06 622.13 1422.39 641.26 1422.72 660.38C1422.74 661.37 1422.76 662.35 1422.77 663.35C1423.64 712.79 1424.49 762.23 1425.33 811.67C1425.35 812.65 1425.36 813.63 1425.38 814.62C1426.23 864.51 1427.08 914.42 1427.9 964.32C1427.92 965.31 1427.94 966.29 1427.95 967.28C1428.56 1003.74 1429.17 1040.2 1429.76 1076.66C1429.78 1077.65 1429.8 1078.63 1429.81 1079.62C1430.36 1112.6 1430.89 1145.59 1431.43 1178.57C1431.45 1179.56 1431.47 1180.55 1431.48 1181.54C1432.12 1220.55 1432.74 1259.56 1433.36 1298.57C1433.38 1299.52 1433.4 1300.47 1433.41 1301.42C1433.96 1335.54 1434.49 1369.66 1435.03 1403.78C1435.05 1404.77 1435.07 1405.75 1435.08 1406.74C1435.62 1441.09 1436.16 1475.44 1436.69 1509.79C1436.71 1510.78 1436.73 1511.76 1436.74 1512.75C1437.27 1546.75 1437.79 1580.76 1438.31 1614.76C1438.33 1615.62 1438.34 1616.48 1438.35 1617.34C1438.93 1654.93 1439.49 1692.52 1440.06 1730.12C1440.08 1731.11 1440.09 1732.09 1440.1 1733.08C1440.55 1762.48 1440.99 1791.89 1441.42 1821.29C1441.44 1822.28 1441.45 1823.25 1441.47 1824.24C1441.49 1825.67 1441.51 1827.09 1441.53 1828.52C1441.9 1853.78 1442.27 1879.05 1442.63 1904.32C1442.65 1905.31 1442.67 1906.28 1442.68 1907.27C1443.22 1944.49 1443.76 1981.69 1444.29 2018.91C1444.31 2019.9 1444.33 2020.89 1444.34 2021.89C1444.94 2063.51 1445.53 2105.14 1446.1 2146.76C1446.12 2147.75 1446.14 2148.73 1446.15 2149.73C1446.64 2185.01 1447.14 2220.28 1447.62 2255.56C1447.64 2256.55 1447.65 2257.53 1447.66 2258.52C1448.07 2287.94 1448.48 2317.36 1448.87 2346.78C1448.89 2347.77 1448.9 2348.75 1448.91 2349.74C1449.52 2394.27 1450.12 2438.8 1450.7 2483.33C1450.72 2484.32 1450.73 2485.3 1450.74 2486.29C1451.36 2532.78 1451.97 2579.27 1452.57 2625.77C1452.59 2626.76 1452.6 2627.75 1452.61 2628.74C1453.34 2684.99 1454.06 2741.25 1454.76 2797.5C1454.78 2798.49 1454.79 2799.47 1454.8 2800.46C1455.46 2852.61 1456.1 2904.76 1456.73 2956.91V2956.89Z" fill="#ED52D8"/>
<path d="M657.5 0C656.57 26.74 655.65 53.48 654.72 80.21C654.69 81.21 654.65 82.19 654.62 83.18C653.03 129.12 651.44 175.06 649.85 221C649.82 222 649.78 222.98 649.75 223.97C647.75 281.69 645.76 339.41 643.76 397.13C643.72 398.13 643.69 399.11 643.66 400.1C641.88 451.64 640.09 503.18 638.31 554.71C638.27 555.71 638.24 556.7 638.2 557.7C637.69 572.55 637.17 587.41 636.66 602.26C635.67 630.63 634.66 658.98 633.64 687.35C633.6 688.35 633.56 689.34 633.53 690.33C631.66 742.13 629.76 793.95 628.03 845.76C627.99 846.76 627.96 847.75 627.93 848.75C626.33 896.51 624.86 944.28 623.67 992.05C623.64 993.04 623.62 994.02 623.6 995.01C622.7 1031.08 621.96 1067.17 621.43 1103.24C621.43 1104.24 621.4 1105.23 621.39 1106.22C620.97 1136.14 620.69 1166.07 620.59 1195.99C620.59 1196.98 620.59 1197.97 620.59 1198.97C620.57 1204.2 620.56 1209.45 620.56 1214.68C620.54 1246.82 620.83 1278.95 621.32 1311.07C621.34 1312.07 621.35 1313.07 621.37 1314.07C621.98 1352.64 622.9 1391.21 623.96 1429.76C623.98 1430.75 624.01 1431.73 624.04 1432.72C624.92 1464.49 625.89 1496.25 626.88 1528.01C626.91 1529 626.94 1529.98 626.97 1530.97C627.94 1561.98 628.9 1593 629.79 1624C629.82 1625.01 629.85 1626 629.87 1627.01C631.09 1669.88 632.16 1712.76 632.85 1755.63C632.87 1756.62 632.89 1757.6 632.9 1758.59C633.24 1780.48 633.49 1802.37 633.61 1824.26C633.66 1833.87 633.7 1843.48 633.71 1853.09C633.71 1854.08 633.71 1855.06 633.71 1856.05C633.76 1881.87 633.68 1907.7 633.49 1933.52C633.49 1934.52 633.49 1935.5 633.47 1936.5C633.21 1970.58 632.77 2004.67 632.15 2038.75C632.13 2039.74 632.11 2040.72 632.09 2041.71C631.31 2083.93 630.26 2126.15 628.98 2168.35C628.95 2169.34 628.92 2170.33 628.88 2171.32C627.8 2206.93 626.53 2242.53 625.13 2278.13C625.09 2279.13 625.05 2280.11 625.01 2281.11C623.77 2312.3 622.42 2343.48 620.97 2374.67C620.93 2375.66 620.88 2376.65 620.83 2377.64C618.86 2420.15 616.69 2462.65 614.38 2505.15C614.33 2506.15 614.27 2507.14 614.22 2508.14C611.81 2552.44 609.23 2596.73 606.54 2641.01C606.48 2642.01 606.42 2643 606.35 2643.99C602.92 2700.46 599.28 2756.9 595.54 2813.35C595.47 2814.34 595.4 2815.33 595.34 2816.32C592.23 2863.2 589.03 2910.07 585.81 2956.94H582.85C586.07 2910.09 589.26 2863.25 592.37 2816.4C592.44 2815.4 592.5 2814.42 592.56 2813.43C596.32 2756.99 599.95 2700.55 603.39 2644.09C603.45 2643.09 603.51 2642.1 603.57 2641.11C606.26 2596.84 608.83 2552.55 611.24 2508.27C611.3 2507.27 611.35 2506.28 611.4 2505.28C613.72 2462.79 615.87 2420.29 617.86 2377.78C617.91 2376.78 617.96 2375.8 618 2374.8C618.2 2370.52 618.39 2366.25 618.59 2361.98C619.81 2335.06 620.97 2308.14 622.03 2281.23C622.07 2280.23 622.11 2279.24 622.15 2278.25C623.55 2242.65 624.81 2207.05 625.91 2171.44C625.94 2170.45 625.97 2169.47 626 2168.47C627.28 2126.27 628.34 2084.04 629.12 2041.82C629.14 2040.82 629.15 2039.84 629.18 2038.85C629.79 2004.79 630.24 1970.72 630.5 1936.65C630.5 1935.65 630.52 1934.67 630.52 1933.67C630.72 1907.85 630.79 1882.02 630.75 1856.2V1853.24C630.68 1821.74 630.44 1790.23 630.01 1758.73C630.01 1757.74 629.99 1756.76 629.97 1755.77C629.94 1753.58 629.91 1751.4 629.88 1749.22C629.28 1708.5 628.35 1667.8 627.28 1627.11C627.25 1626.1 627.22 1625.1 627.19 1624.1C626.37 1593.08 625.46 1562.06 624.54 1531.05C624.51 1530.06 624.48 1529.08 624.45 1528.08C623.5 1496.32 622.55 1464.57 621.68 1432.81C621.65 1431.82 621.62 1430.84 621.59 1429.85C620.53 1391.29 619.58 1352.72 618.9 1314.15C618.88 1313.15 618.86 1312.15 618.85 1311.15C618.19 1273.8 617.79 1236.46 617.77 1199.09C617.77 1198.09 617.77 1197.1 617.77 1196.1C617.77 1177.3 617.86 1158.51 618.07 1139.7C618.19 1128.58 618.34 1117.47 618.5 1106.36C618.5 1105.36 618.52 1104.38 618.54 1103.38C619.07 1067.3 619.79 1031.21 620.67 995.14C620.69 994.14 620.71 993.16 620.74 992.17C621.9 944.42 623.31 896.68 624.87 848.94C624.9 847.94 624.94 846.96 624.97 845.96C626.67 794.14 628.54 742.31 630.42 690.5C630.46 689.5 630.5 688.52 630.53 687.52C632.12 644.28 633.71 601.05 635.23 557.82C635.28 556.82 635.31 555.83 635.34 554.83C635.68 545.62 636 536.41 636.32 527.2C637.79 484.86 639.25 442.52 640.72 400.18C640.75 399.19 640.78 398.21 640.82 397.21C642.81 339.49 644.81 281.76 646.81 224.03C646.84 223.04 646.87 222.06 646.91 221.06C648.5 175.11 650.08 129.16 651.68 83.2C651.71 82.21 651.75 81.23 651.78 80.24C652.71 53.5 653.63 26.75 654.56 0H657.52L657.5 0Z" fill="#ED52D8"/>
<path d="M1037.03 2358.41C1037.03 2359.4 1037.03 2360.37 1037.03 2361.36C1036.9 2404.5 1036.63 2447.62 1036.17 2490.75C1036.17 2491.74 1036.15 2492.73 1036.14 2493.72C1035.66 2539.06 1034.98 2584.41 1034.09 2629.74C1034.07 2630.74 1034.05 2631.73 1034.02 2632.72C1032.9 2689.68 1031.42 2746.64 1029.54 2803.58C1029.51 2804.57 1029.48 2805.55 1029.44 2806.54C1027.78 2856.67 1025.8 2906.79 1023.48 2956.91H1020.52C1022.86 2906.82 1024.84 2856.72 1026.5 2806.6C1026.54 2805.61 1026.57 2804.63 1026.6 2803.64C1028.48 2746.7 1029.97 2689.74 1031.1 2632.77C1031.12 2631.77 1031.14 2630.79 1031.16 2629.79C1032.06 2584.46 1032.73 2539.13 1033.21 2493.79C1033.23 2492.8 1033.24 2491.81 1033.24 2490.82C1033.68 2449.63 1033.95 2408.44 1034.09 2367.25C1034.09 2365.32 1034.09 2363.4 1034.09 2361.46C1034.09 2360.46 1034.09 2359.49 1034.09 2358.5C1034.19 2328.36 1034.21 2298.22 1034.17 2268.07V2265.1C1034.13 2229.61 1034 2194.11 1033.81 2158.62C1033.81 2157.63 1033.81 2156.65 1033.81 2155.66C1033.58 2113.94 1033.26 2072.24 1032.84 2030.51C1032.84 2029.52 1032.82 2028.54 1032.81 2027.56C1032.47 1991.6 1032.05 1955.64 1031.59 1919.68C1031.59 1918.69 1031.57 1917.71 1031.55 1916.72C1031.22 1890.72 1030.86 1864.72 1030.48 1838.72C1030.46 1837.73 1030.45 1836.75 1030.44 1835.76C1029.98 1805.01 1029.49 1774.26 1028.99 1743.5C1028.97 1742.51 1028.96 1741.54 1028.94 1740.55C1028.27 1699.85 1027.55 1659.16 1026.8 1618.47C1026.8 1617.47 1026.77 1616.48 1026.75 1615.49C1026.18 1584.04 1025.59 1552.59 1025 1521.15C1024.98 1520.16 1024.96 1519.18 1024.94 1518.19C1024.31 1485.38 1023.68 1452.57 1023.05 1419.76C1023.03 1418.77 1023.01 1417.8 1022.99 1416.81C1022.27 1379.91 1021.55 1343 1020.85 1306.09C1020.83 1305.06 1020.81 1304.01 1020.79 1302.98C1020.04 1264.36 1019.31 1225.75 1018.61 1187.13L1018.55 1184.17C1018.31 1171.11 1018.08 1158.04 1017.84 1144.98C1017.51 1126.82 1017.19 1108.66 1016.86 1090.5C1016.86 1089.51 1016.83 1088.53 1016.81 1087.54C1016.17 1051.61 1015.53 1015.7 1014.89 979.77C1014.87 978.78 1014.85 977.8 1014.83 976.81C1013.95 927.27 1013.07 877.72 1012.18 828.18C1012.18 827.2 1012.15 826.22 1012.13 825.23C1011.23 774.68 1010.33 724.12 1009.42 673.57C1009.42 672.58 1009.39 671.6 1009.37 670.61C1008.62 628.66 1007.87 586.7 1007.12 544.74C1007.12 543.83 1007.09 542.93 1007.07 542.02C1006.18 491.97 1005.29 441.92 1004.39 391.86C1004.39 390.87 1004.36 389.89 1004.34 388.89C1003.32 331.87 1002.3 274.85 1001.28 217.83C1001.26 216.84 1001.24 215.86 1001.22 214.87C1000.43 170.14 999.63 125.4 998.82 80.6797C998.82 79.6797 998.79 78.6997 998.77 77.6997C998.31 51.7797 997.84 25.8597 997.38 -0.0703125H1000.34C1000.8 25.8397 1001.27 51.7597 1001.73 77.6797C1001.75 78.6797 1001.76 79.6597 1001.78 80.6597C1002.58 125.39 1003.38 170.11 1004.18 214.83C1004.18 215.82 1004.21 216.8 1004.23 217.79C1005.25 274.81 1006.26 331.82 1007.29 388.84C1007.29 389.83 1007.32 390.81 1007.34 391.8C1008.24 441.85 1009.12 491.89 1010.02 541.94C1010.04 542.85 1010.06 543.75 1010.07 544.66C1010.44 565.58 1010.82 586.48 1011.19 607.4C1011.56 628.43 1011.94 649.48 1012.32 670.51C1012.32 671.5 1012.35 672.47 1012.38 673.46C1013.28 724 1014.2 774.55 1015.13 825.09C1015.13 826.08 1015.16 827.06 1015.18 828.05C1016.09 877.61 1016.99 927.16 1017.91 976.71C1017.93 977.7 1017.95 978.67 1017.96 979.66C1018.62 1015.59 1019.28 1051.5 1019.94 1087.43C1019.96 1088.42 1019.98 1089.4 1019.99 1090.39C1020.57 1121.62 1021.14 1152.87 1021.7 1184.1C1021.72 1185.09 1021.74 1186.06 1021.76 1187.05C1022.47 1225.68 1023.17 1264.3 1023.86 1302.93C1023.88 1303.96 1023.9 1305 1023.91 1306.03C1024.58 1342.91 1025.24 1379.8 1025.89 1416.7C1025.91 1417.69 1025.93 1418.67 1025.94 1419.66C1026.52 1452.48 1027.09 1485.3 1027.66 1518.12C1027.68 1519.1 1027.69 1520.08 1027.71 1521.07C1028.25 1552.53 1028.79 1583.99 1029.33 1615.45C1029.33 1616.45 1029.36 1617.44 1029.38 1618.43C1030.06 1659.11 1030.74 1699.78 1031.4 1740.46C1031.4 1741.45 1031.43 1742.42 1031.45 1743.41C1031.92 1772.8 1032.39 1802.2 1032.85 1831.59C1032.87 1832.94 1032.89 1834.29 1032.91 1835.64C1032.93 1836.63 1032.95 1837.61 1032.96 1838.6C1033.36 1864.6 1033.75 1890.61 1034.11 1916.61C1034.11 1917.6 1034.13 1918.58 1034.15 1919.57C1034.64 1955.54 1035.1 1991.5 1035.48 2027.47C1035.5 2028.45 1035.51 2029.43 1035.52 2030.41C1035.97 2072.14 1036.35 2113.84 1036.61 2155.57C1036.61 2156.56 1036.61 2157.54 1036.63 2158.53C1036.85 2194.01 1037 2229.51 1037.06 2265V2267.97C1037.11 2298.11 1037.09 2328.24 1037 2358.38L1037.03 2358.41Z" fill="#ED52D8"/>
<path d="M337.04 2956.89H334.05C332.28 2912.6 330.46 2868.31 328.65 2824.02C328.61 2823.03 328.57 2822.06 328.53 2821.07C326.28 2765.85 324.03 2710.65 321.85 2655.44C321.8 2654.45 321.76 2653.47 321.73 2652.48C320.01 2609.1 318.34 2565.73 316.74 2522.36C316.71 2521.37 316.67 2520.39 316.63 2519.4C315.08 2477.12 313.61 2434.84 312.23 2392.55C312.2 2391.55 312.17 2390.57 312.14 2389.58C311.7 2375.94 311.26 2362.29 310.85 2348.64C310.29 2330.27 309.79 2311.9 309.37 2293.51C309.35 2292.52 309.32 2291.53 309.3 2290.54C308.51 2255.04 308.04 2219.54 308.02 2184.03V2181.06C308.02 2138.01 308.71 2094.95 310.33 2051.9C310.36 2050.89 310.4 2049.92 310.44 2048.93C310.49 2047.76 310.53 2046.59 310.58 2045.42C311.8 2014.65 313.4 1983.91 315.17 1953.16C315.23 1952.16 315.28 1951.18 315.34 1950.19C316.88 1923.65 318.53 1897.12 320.17 1870.59C320.23 1869.54 320.3 1868.48 320.36 1867.44C322.28 1836.15 324.17 1804.84 325.79 1773.54C325.85 1772.54 325.9 1771.56 325.95 1770.56C326.53 1759.14 327.08 1747.71 327.59 1736.29C328.98 1704.59 329.81 1672.91 330.17 1641.24C330.19 1640.23 330.2 1639.23 330.21 1638.23C330.56 1605.21 330.43 1572.21 329.9 1539.21C329.9 1538.22 329.87 1537.24 329.85 1536.24C329.35 1504.99 328.5 1473.74 327.42 1442.51C327.38 1441.51 327.35 1440.53 327.31 1439.54C325.96 1401.09 324.25 1362.64 322.37 1324.2C322.33 1323.2 322.28 1322.21 322.23 1321.21C320.47 1285.2 318.55 1249.2 316.66 1213.19C316.6 1212.19 316.55 1211.21 316.5 1210.21C315.16 1184.93 313.84 1159.66 312.57 1134.38C312.36 1130.24 312.16 1126.09 311.95 1121.95C311.9 1120.96 311.85 1119.98 311.8 1118.99C310.03 1082.53 308.42 1046.06 307.17 1009.58C307.13 1008.59 307.1 1007.61 307.07 1006.61C305.54 961.69 304.58 916.76 304.48 871.82C304.48 870.83 304.48 869.84 304.48 868.84C304.45 855.06 304.52 841.27 304.68 827.49C305.12 788.44 306.29 749.41 307.9 710.4C307.94 709.4 307.98 708.42 308.02 707.42C309.92 662.25 312.43 617.11 315.14 571.98C315.19 570.98 315.26 569.99 315.32 568.99C316.17 554.86 317.04 540.72 317.91 526.59C320.32 487.55 322.79 448.46 325.04 409.36C325.1 408.37 325.16 407.38 325.21 406.39C328.55 348.07 331.41 289.69 332.93 231.32C332.96 230.33 332.98 229.35 333.01 228.36C334.2 180.87 334.52 133.37 333.47 85.8997C333.45 84.9097 333.42 83.9297 333.4 82.9397C332.76 55.2597 331.66 27.5897 330 -0.0703125H332.96C334.62 27.5897 335.71 55.2397 336.35 82.9097C336.38 83.8997 336.4 84.8797 336.42 85.8697C337.46 133.33 337.15 180.81 335.95 228.28C335.93 229.27 335.9 230.25 335.87 231.24C334.35 289.6 331.49 347.97 328.15 406.3C328.1 407.29 328.04 408.27 327.98 409.26C324.92 462.49 321.47 515.7 318.28 568.85C318.22 569.85 318.16 570.83 318.1 571.83C317.53 581.31 316.97 590.79 316.42 600.28C314.37 635.91 312.54 671.55 311.07 707.2C311.03 708.2 310.98 709.19 310.95 710.19C308.8 762.96 307.48 815.77 307.46 868.6V871.58C307.46 881.44 307.52 891.3 307.62 901.17C307.97 936.28 308.83 971.38 310.02 1006.47C310.05 1007.46 310.09 1008.45 310.12 1009.44C311.37 1045.91 312.98 1082.38 314.77 1118.84C314.82 1119.83 314.87 1120.81 314.92 1121.8C316.33 1150.54 317.86 1179.28 319.39 1208.02C319.43 1208.7 319.46 1209.39 319.5 1210.07C319.56 1211.06 319.61 1212.05 319.66 1213.04C321.59 1249.09 323.43 1285.11 325.08 1321.1C325.12 1322.1 325.17 1323.09 325.21 1324.09C326.96 1362.57 328.49 1401.02 329.68 1439.47C329.71 1440.46 329.74 1441.45 329.77 1442.44C330.73 1473.69 331.45 1504.94 331.89 1536.19C331.89 1537.18 331.92 1538.16 331.93 1539.16C332.37 1572.13 332.49 1605.12 332.21 1638.12C332.21 1639.12 332.21 1640.12 332.19 1641.12C331.8 1684.18 330.71 1727.27 328.78 1770.42C328.74 1771.42 328.69 1772.41 328.64 1773.4C328.08 1785.77 327.45 1798.14 326.74 1810.51C325.66 1829.44 324.51 1848.38 323.36 1867.31C323.29 1868.36 323.23 1869.42 323.16 1870.47C321.54 1896.98 319.9 1923.51 318.38 1950.03C318.32 1951.03 318.26 1952.01 318.21 1953.01C316.38 1984.94 314.72 2016.88 313.47 2048.84C313.43 2049.83 313.39 2050.81 313.36 2051.8C312.48 2074.41 311.82 2097.04 311.44 2119.68C311.1 2140.1 310.94 2160.52 310.94 2180.95C310.94 2181.94 310.94 2182.92 310.94 2183.91C310.96 2219.41 311.45 2254.91 312.26 2290.42C312.28 2291.43 312.3 2292.4 312.33 2293.39C313.06 2325.41 314.04 2357.42 315.16 2389.43C315.19 2390.42 315.22 2391.4 315.26 2392.39C315.61 2402.56 315.98 2412.72 316.35 2422.9C317.53 2455.01 318.75 2487.12 319.97 2519.24C320 2520.23 320.04 2521.21 320.09 2522.2C321.73 2565.59 323.4 2608.97 325.09 2652.34C325.13 2653.33 325.17 2654.32 325.2 2655.31C327.36 2710.53 329.53 2765.76 331.71 2820.97C331.75 2821.96 331.79 2822.94 331.83 2823.93C333.57 2868.25 335.32 2912.58 337.05 2956.9L337.04 2956.89Z" fill="#ED52D8"/>
<path d="M1779.91 2956.89H1776.95C1776.89 2903.96 1776.83 2851.03 1776.76 2798.1V2795.13C1776.69 2740.22 1776.63 2685.31 1776.56 2630.4C1776.56 2629.41 1776.56 2628.43 1776.56 2627.44C1776.51 2579.98 1776.45 2532.53 1776.39 2485.08C1776.39 2484.09 1776.39 2483.12 1776.39 2482.13C1776.34 2437.36 1776.28 2392.6 1776.23 2347.83C1776.23 2346.43 1776.23 2345.02 1776.23 2343.62V2340.66C1776.2 2311.6 1776.16 2282.55 1776.13 2253.49C1776.13 2252.5 1776.13 2251.51 1776.13 2250.52C1776.09 2215.5 1776.05 2180.47 1776.01 2145.45C1776.01 2144.46 1776.01 2143.48 1776.01 2142.49C1775.97 2100.89 1775.92 2059.28 1775.86 2017.67C1775.86 2016.66 1775.86 2015.66 1775.86 2014.64C1775.82 1976.7 1775.77 1938.76 1775.72 1900.81C1775.72 1899.82 1775.72 1898.84 1775.72 1897.84C1775.69 1870.63 1775.66 1843.4 1775.62 1816.18C1775.62 1815.19 1775.62 1814.21 1775.62 1813.22C1775.59 1784.95 1775.56 1756.68 1775.52 1728.41C1775.52 1727.43 1775.52 1726.45 1775.52 1725.46C1775.49 1690 1775.44 1654.53 1775.4 1619.06C1775.4 1618.27 1775.4 1617.48 1775.4 1616.68C1775.36 1580.14 1775.32 1543.61 1775.27 1507.07V1504.11C1775.23 1468.08 1775.19 1432.04 1775.14 1396.01V1393.12C1775.1 1361.55 1775.06 1329.98 1775.02 1298.41V1295.72C1774.97 1257.33 1774.93 1218.95 1774.88 1180.56V1177.59C1774.88 1172.73 1774.88 1167.88 1774.86 1163.02C1774.83 1133.61 1774.79 1104.19 1774.75 1074.78V1071.81C1774.71 1034.4 1774.66 996.98 1774.62 959.57C1774.62 958.59 1774.62 957.61 1774.62 956.62C1774.57 907.74 1774.51 858.86 1774.45 809.97V807.02C1774.39 758.46 1774.33 709.9 1774.27 661.32V658.36C1774.22 617.24 1774.17 576.12 1774.12 534.99V532.03C1774.06 482.29 1774 432.53 1773.94 382.78V379.99C1773.87 324.18 1773.8 268.37 1773.74 212.55C1773.74 211.56 1773.74 210.58 1773.74 209.58C1773.69 165.48 1773.64 121.4 1773.59 77.2999C1773.59 76.3099 1773.59 75.3199 1773.59 74.3299C1773.56 49.5299 1773.53 24.7399 1773.5 -0.0600586H1776.46C1776.49 24.7299 1776.52 49.5299 1776.55 74.3199C1776.55 75.3099 1776.55 76.2999 1776.55 77.2899C1776.6 121.39 1776.65 165.48 1776.7 209.58C1776.7 210.57 1776.7 211.56 1776.7 212.55C1776.76 268.36 1776.83 324.16 1776.9 379.97V382.77C1776.96 432.52 1777.02 482.28 1777.08 532.03V535C1777.13 570.17 1777.17 605.33 1777.21 640.5C1777.21 646.45 1777.21 652.42 1777.23 658.37V661.33C1777.29 709.89 1777.35 758.44 1777.41 807.01V809.96C1777.47 858.83 1777.53 907.7 1777.59 956.57V959.51C1777.64 996.93 1777.68 1034.37 1777.73 1071.79V1074.76C1777.77 1109.04 1777.81 1143.31 1777.85 1177.59C1777.85 1178.58 1777.85 1179.57 1777.85 1180.56C1777.89 1218.94 1777.94 1257.32 1777.99 1295.7V1298.38C1778.03 1329.93 1778.06 1361.47 1778.1 1393.02C1778.1 1393.99 1778.1 1394.95 1778.1 1395.92C1778.14 1431.97 1778.18 1468.02 1778.23 1504.07V1507.03C1778.27 1543.59 1778.32 1580.14 1778.36 1616.7V1619.08C1778.41 1654.53 1778.45 1689.98 1778.49 1725.43V1728.39C1778.53 1756.65 1778.56 1784.92 1778.6 1813.17V1816.12C1778.6 1819.18 1778.6 1822.24 1778.6 1825.3C1778.63 1849.47 1778.66 1873.64 1778.69 1897.8V1900.76C1778.73 1938.72 1778.78 1976.66 1778.83 2014.62V2017.64C1778.88 2059.24 1778.93 2100.86 1778.98 2142.46V2145.43C1779.02 2180.45 1779.06 2215.47 1779.11 2250.49V2253.45C1779.14 2282.51 1779.18 2311.56 1779.21 2340.62C1779.21 2341.61 1779.21 2342.59 1779.21 2343.58C1779.26 2389.77 1779.32 2435.95 1779.37 2482.14C1779.37 2483.13 1779.37 2484.1 1779.37 2485.09C1779.42 2532.55 1779.48 2580.02 1779.54 2627.47V2630.44C1779.61 2685.33 1779.67 2740.23 1779.74 2795.12V2798.09C1779.8 2851.02 1779.87 2903.96 1779.93 2956.88L1779.91 2956.89Z" fill="#ED52D8"/>
<path d="M821.72 2036.13C821.75 2078.03 821.72 2119.93 821.62 2161.83C821.62 2162.82 821.62 2163.8 821.62 2164.79C821.54 2200.35 821.41 2235.89 821.25 2271.45C821.25 2272.44 821.25 2273.42 821.23 2274.41C821.08 2305.05 820.89 2335.67 820.67 2366.3C820.67 2367.29 820.67 2368.27 820.65 2369.26C820.34 2411.95 819.97 2454.63 819.53 2497.29C819.53 2498.29 819.51 2499.27 819.5 2500.26C819.04 2545.02 818.49 2589.78 817.88 2634.53C817.88 2635.52 817.86 2636.51 817.84 2637.5C817.06 2694.32 816.16 2751.14 815.16 2807.96C815.14 2808.95 815.12 2809.93 815.1 2810.92C814.23 2859.59 813.29 2908.25 812.24 2956.92H809.28C810.32 2908.28 811.28 2859.63 812.14 2810.99C812.17 2810 812.18 2809.02 812.2 2808.03C813.22 2751.22 814.1 2694.41 814.89 2637.58C814.89 2636.59 814.92 2635.6 814.93 2634.6C815.54 2589.85 816.07 2545.1 816.54 2500.36C816.54 2499.36 816.56 2498.38 816.57 2497.39C816.98 2457.69 817.34 2417.99 817.63 2378.29C817.65 2375.32 817.67 2372.36 817.69 2369.39C817.69 2368.39 817.71 2367.41 817.71 2366.42C817.94 2335.78 818.12 2305.15 818.27 2274.52C818.27 2273.52 818.27 2272.54 818.27 2271.55C818.45 2236 818.58 2200.45 818.66 2164.89V2161.93C818.76 2120.02 818.79 2078.12 818.76 2036.22C818.76 2035.22 818.76 2034.24 818.76 2033.25C818.73 1998.2 818.66 1963.15 818.53 1928.1C818.53 1927.11 818.53 1926.13 818.53 1925.13C818.45 1899.32 818.33 1873.49 818.19 1847.68C818.19 1846.69 818.19 1845.71 818.17 1844.72C818 1813.46 817.81 1782.2 817.57 1750.95C817.57 1749.96 817.55 1748.98 817.55 1747.99C817.21 1705.9 816.83 1663.83 816.38 1621.74C816.38 1620.74 816.36 1619.75 816.34 1618.75C816 1587.87 815.64 1556.99 815.24 1526.12C815.24 1525.13 815.21 1524.15 815.2 1523.16C814.78 1490.94 814.31 1458.72 813.81 1426.5C813.81 1425.52 813.79 1424.54 813.77 1423.55C813.18 1385.57 812.54 1347.59 811.84 1309.6C811.84 1308.59 811.81 1307.58 811.79 1306.56C811.09 1268.51 810.34 1230.48 809.54 1192.43C809.51 1191.44 809.49 1190.45 809.47 1189.46C809.13 1173.18 808.77 1156.9 808.41 1140.62C808.09 1126.47 807.77 1112.31 807.43 1098.16C807.41 1097.17 807.39 1096.19 807.36 1095.2C806.52 1059.3 805.64 1023.42 804.7 987.53C804.67 986.54 804.65 985.56 804.62 984.57C803.35 935.89 801.99 887.21 800.54 838.54C800.51 837.55 800.48 836.57 800.45 835.58C798.93 784.46 797.32 733.33 795.6 682.22C795.57 681.22 795.54 680.24 795.5 679.25C794.08 636.75 792.58 594.25 791.03 551.75C791 550.79 790.96 549.84 790.93 548.88C789.07 498.1 787.12 447.32 785.07 396.55C785.03 395.55 784.99 394.56 784.94 393.57C782.62 336.19 780.19 278.81 777.64 221.45C777.6 220.46 777.55 219.48 777.5 218.49C775.48 173.07 773.38 127.65 771.2 82.25C771.16 81.25 771.11 80.27 771.06 79.28C769.79 52.84 768.5 26.39 767.18 -0.0400391H770.14C771.47 26.39 772.76 52.83 774.03 79.26C774.07 80.25 774.12 81.24 774.17 82.23C776.35 127.63 778.45 173.03 780.47 218.43C780.52 219.42 780.56 220.4 780.6 221.39C783.16 278.75 785.61 336.13 787.92 393.5C787.96 394.5 788 395.49 788.04 396.48C790.09 447.24 792.04 498 793.9 548.77C793.93 549.73 793.97 550.68 794.01 551.64C794.57 567.02 795.12 582.4 795.67 597.78C796.64 624.89 797.56 652.01 798.48 679.12C798.51 680.11 798.54 681.09 798.57 682.08C800.28 733.19 801.9 784.3 803.42 835.41C803.45 836.4 803.48 837.38 803.51 838.38C804.96 887.07 806.32 935.76 807.58 984.46C807.61 985.45 807.64 986.42 807.66 987.41C808.6 1023.3 809.49 1059.19 810.33 1095.08C810.35 1096.07 810.38 1097.05 810.4 1098.04C811.11 1128.49 811.79 1158.93 812.44 1189.38C812.46 1190.37 812.48 1191.35 812.5 1192.34C813.31 1230.39 814.06 1268.43 814.75 1306.49C814.78 1307.51 814.8 1308.52 814.81 1309.54C815.51 1347.51 816.15 1385.48 816.74 1423.45C816.76 1424.44 816.77 1425.42 816.78 1426.4C817.28 1458.63 817.75 1490.85 818.16 1523.08C818.18 1524.07 818.2 1525.05 818.2 1526.05C818.61 1556.93 818.98 1587.81 819.31 1618.69C819.31 1619.69 819.33 1620.68 819.34 1621.68C819.79 1663.75 820.19 1705.8 820.5 1747.87C820.52 1748.86 820.52 1749.84 820.52 1750.84C820.75 1778.96 820.93 1807.08 821.09 1835.2C821.11 1838.33 821.13 1841.46 821.14 1844.59C821.14 1845.58 821.14 1846.56 821.16 1847.55C821.3 1873.36 821.41 1899.19 821.51 1925C821.51 1925.99 821.51 1926.98 821.51 1927.97C821.63 1963.04 821.7 1998.1 821.73 2033.17C821.73 2034.16 821.73 2035.14 821.73 2036.13H821.72Z" fill="#ED52D8"/>
<path d="M503.12 84.43C503.21 131.08 500.5 177.8 496.61 224.36C496.52 225.35 496.44 226.34 496.35 227.33C495.36 238.98 494.31 250.62 493.21 262.24C488.79 308.73 484.3 355.19 480.06 401.67C479.97 402.67 479.88 403.65 479.79 404.65C475.02 457.07 470.57 509.51 466.95 562.05C466.88 563.05 466.81 564.04 466.75 565.04C465.85 577.93 465.03 590.81 464.25 603.72C462.37 634.96 460.69 666.22 459.21 697.47C459.16 698.47 459.11 699.47 459.07 700.47C456.6 752.84 454.67 805.21 453.24 857.6C453.2 858.6 453.18 859.59 453.15 860.59C451.88 906.99 450.97 953.39 450.39 999.8C450.37 1000.79 450.36 1001.78 450.35 1002.77C449.9 1039.06 449.64 1075.35 449.56 1111.64C449.56 1112.64 449.56 1113.62 449.56 1114.61C449.49 1144.2 449.54 1173.8 449.69 1203.4C449.69 1204.4 449.69 1205.39 449.71 1206.39C449.9 1243.05 450.23 1279.7 450.7 1316.36C450.72 1317.36 450.73 1318.35 450.74 1319.35C451.24 1358.05 451.87 1396.74 452.63 1435.44C452.63 1436.43 452.66 1437.41 452.69 1438.41C453.29 1469.85 453.97 1501.3 454.72 1532.74C454.74 1533.73 454.76 1534.71 454.79 1535.7C455.54 1567.56 456.35 1599.41 457.2 1631.26C457.23 1632.27 457.25 1633.27 457.28 1634.28C458.43 1677.43 459.67 1720.57 460.93 1763.7C460.97 1764.69 461 1765.67 461.02 1766.66C461.62 1786.97 462.22 1807.29 462.83 1827.59C463.17 1838.71 463.5 1849.84 463.83 1860.95C463.87 1861.98 463.9 1863.01 463.92 1864.03C464.71 1890 465.49 1915.98 466.27 1941.96C466.29 1942.95 466.32 1943.93 466.36 1944.92C467.34 1977.89 468.3 2010.87 469.23 2043.85C469.26 2044.84 469.29 2045.81 469.31 2046.8C470.52 2089.29 471.67 2131.78 472.73 2174.28C472.75 2175.27 472.78 2176.25 472.8 2177.25C473.69 2212.76 474.51 2248.28 475.23 2283.81L475.29 2286.77C475.94 2318.3 476.51 2349.82 477.01 2381.35C477.03 2382.35 477.04 2383.33 477.06 2384.32C477.71 2426.63 478.21 2468.95 478.53 2511.27C478.53 2512.26 478.55 2513.25 478.55 2514.25C478.87 2558.1 478.98 2601.95 478.85 2645.8V2648.77C478.66 2704.73 478.07 2760.7 477 2816.65C476.98 2817.64 476.96 2818.62 476.94 2819.61C476.05 2865.39 474.83 2911.18 473.23 2956.96H470.27C471.87 2911.21 473.1 2865.45 474 2819.69C474.02 2818.7 474.04 2817.73 474.06 2816.74C475.13 2760.8 475.74 2704.84 475.92 2648.89C475.92 2647.9 475.92 2646.91 475.92 2645.91C476.07 2602.07 475.96 2558.23 475.63 2514.39C475.63 2513.39 475.63 2512.41 475.6 2511.41C475.3 2469.09 474.8 2426.78 474.13 2384.47C474.13 2383.47 474.11 2382.49 474.09 2381.5C474.03 2377.54 473.97 2373.59 473.9 2369.63C473.45 2342.04 472.93 2314.46 472.36 2286.89C472.34 2285.89 472.32 2284.92 472.3 2283.93C471.56 2248.4 470.74 2212.89 469.85 2177.37C469.83 2176.37 469.81 2175.39 469.78 2174.39C468.72 2131.89 467.56 2089.39 466.35 2046.9C466.33 2045.9 466.3 2044.93 466.27 2043.94C465.33 2010.98 464.37 1978.03 463.38 1945.08C463.35 1944.09 463.32 1943.11 463.29 1942.12C462.52 1916.14 461.73 1890.15 460.95 1864.17C460.92 1863.14 460.89 1862.11 460.86 1861.08C459.91 1829.66 458.98 1798.23 458.05 1766.8C458.02 1765.81 457.99 1764.82 457.96 1763.83C456.7 1720.7 455.47 1677.56 454.31 1634.42C454.28 1633.41 454.25 1632.41 454.23 1631.4C453.37 1599.53 452.56 1567.66 451.81 1535.78C451.79 1534.79 451.77 1533.81 451.74 1532.81C451 1501.38 450.32 1469.94 449.71 1438.49C449.69 1437.49 449.67 1436.51 449.66 1435.52C448.91 1396.83 448.27 1358.14 447.78 1319.44C447.76 1318.44 447.75 1317.45 447.74 1316.44C447.28 1279.8 446.93 1243.17 446.74 1206.52C446.74 1205.52 446.74 1204.53 446.74 1203.53C446.65 1185.84 446.59 1168.14 446.58 1150.43C446.58 1138.53 446.58 1126.65 446.61 1114.75C446.61 1113.75 446.61 1112.77 446.61 1111.77C446.69 1075.48 446.95 1039.18 447.4 1002.89C447.4 1001.9 447.42 1000.91 447.44 999.92C448.02 953.54 448.93 907.15 450.2 860.78C450.22 859.78 450.25 858.8 450.28 857.8C451.73 805.39 453.64 753.01 456.11 700.64C456.16 699.63 456.2 698.64 456.26 697.64C458.35 653.45 460.82 609.3 463.74 565.16C463.8 564.16 463.86 563.16 463.93 562.16C464.36 555.57 464.82 548.96 465.27 542.37C468.45 496.42 472.47 450.56 476.77 404.73C476.86 403.74 476.96 402.75 477.05 401.75C482.17 347.2 487.65 292.68 492.48 238.09C492.8 234.52 493.11 230.96 493.41 227.4C493.5 226.41 493.58 225.42 493.66 224.43C497.57 177.88 500.29 131.13 500.21 84.46C500.21 83.47 500.21 82.48 500.21 81.49C500.09 54.29 499.01 27.1 496.63 0H499.57C501.93 27.1 503 54.27 503.12 81.46C503.12 82.45 503.12 83.44 503.12 84.43Z" fill="#ED52D8"/>
<path d="M220.07 1776.45C220.07 1777.44 220.05 1778.42 220.04 1779.42C219.71 1810.38 219.02 1841.35 218.05 1872.35C218.02 1873.38 217.99 1874.42 217.95 1875.46C217.91 1876.84 217.87 1878.23 217.82 1879.61C216.99 1905.11 216.16 1930.6 215.32 1956.09C215.29 1957.08 215.25 1958.07 215.22 1959.07C214.19 1990.13 213.15 2021.18 212.09 2052.24C212.06 2053.23 212.03 2054.21 211.99 2055.2C210.52 2098.66 209.02 2142.11 207.51 2185.57V2185.59C207.47 2186.58 207.44 2187.56 207.41 2188.55C206.17 2224.1 204.91 2259.65 203.64 2295.21C203.61 2296.21 203.57 2297.19 203.53 2298.18C202.38 2330.68 201.22 2363.16 200.05 2395.65C200.02 2396.65 199.98 2397.63 199.94 2398.62C198.41 2441.17 196.87 2483.69 195.33 2526.23C195.3 2527.22 195.26 2528.21 195.22 2529.2C193.65 2572.43 192.08 2615.67 190.5 2658.9C190.46 2659.9 190.42 2660.88 190.39 2661.87C188.39 2716.53 186.4 2771.19 184.41 2825.84C184.37 2826.83 184.33 2827.81 184.3 2828.8C182.74 2871.51 181.2 2914.21 179.66 2956.92H176.65C178.17 2914.24 179.68 2871.57 181.2 2828.91C181.23 2827.92 181.26 2826.94 181.3 2825.95C183.24 2771.31 185.18 2716.67 187.13 2662.04C187.16 2661.04 187.2 2660.05 187.24 2659.06C188.77 2615.84 190.31 2572.62 191.84 2529.4C191.88 2528.4 191.91 2527.42 191.95 2526.43C193.33 2487.51 194.72 2448.59 196.1 2409.67C196.23 2406.05 196.36 2402.44 196.49 2398.82C196.52 2397.82 196.56 2396.84 196.6 2395.85C197.76 2363.34 199 2330.84 200.25 2298.33C200.29 2297.33 200.33 2296.35 200.37 2295.36C201.74 2259.81 203.14 2224.26 204.52 2188.69C204.56 2187.69 204.6 2186.72 204.64 2185.72C206.34 2142.24 208 2098.77 209.56 2055.28C209.6 2054.29 209.64 2053.31 209.67 2052.32C210.79 2021.28 211.85 1990.24 212.83 1959.21C212.86 1958.21 212.89 1957.23 212.92 1956.24C213.77 1929.36 214.55 1902.47 215.25 1875.6C215.28 1874.57 215.31 1873.52 215.33 1872.49C215.9 1850.47 216.41 1828.45 216.87 1806.43C217.06 1797.48 217.18 1788.53 217.24 1779.59C217.24 1778.59 217.26 1777.61 217.26 1776.61C217.56 1734.03 216.65 1691.52 215.03 1649.05C214.99 1648.05 214.95 1647.06 214.91 1646.07C213.58 1611.64 211.79 1577.25 209.78 1542.86C209.72 1541.87 209.67 1540.89 209.61 1539.9C207.8 1508.83 205.82 1477.78 203.87 1446.72C203.81 1445.73 203.75 1444.75 203.68 1443.76C201.31 1405.83 199 1367.91 197.08 1329.95C197.03 1328.96 196.98 1327.98 196.93 1326.98C195.17 1291.55 193.75 1256.07 192.97 1220.57C192.95 1219.57 192.93 1218.59 192.91 1217.59C192.83 1214.26 192.77 1210.94 192.71 1207.61C192.25 1181.4 191.99 1155.18 191.88 1128.97C191.88 1127.98 191.88 1126.99 191.88 1126C191.75 1089.16 191.94 1052.31 192.35 1015.45C192.35 1014.46 192.37 1013.47 192.38 1012.48C192.88 968.63 193.7 924.78 194.67 880.93C194.69 879.93 194.71 878.95 194.74 877.95C195.91 824.76 197.32 771.56 198.67 718.38C198.69 717.39 198.71 716.41 198.74 715.41C199.7 677.61 200.61 639.81 201.4 602.02C201.57 593.84 201.74 585.66 201.91 577.48C201.93 576.49 201.95 575.5 201.97 574.51C203.09 520.81 204.22 467.12 205.34 413.42C205.36 412.43 205.38 411.45 205.4 410.46C206.62 351.89 207.84 293.34 209.07 234.77C209.09 233.78 209.11 232.8 209.14 231.81C210.15 183.58 211.15 135.35 212.16 87.1197C212.18 86.1297 212.2 85.1497 212.22 84.1597C212.81 56.0997 213.39 28.0297 213.98 -0.0302734H216.94C216.35 28.0197 215.77 56.0797 215.19 84.1297C215.16 85.1197 215.14 86.0997 215.12 87.0897C214.11 135.3 213.11 183.51 212.1 231.72C212.08 232.71 212.06 233.69 212.04 234.68C210.82 293.24 209.6 351.79 208.37 410.35C208.35 411.34 208.32 412.33 208.3 413.32C207.19 467.01 206.06 520.68 204.94 574.37C204.92 575.36 204.9 576.35 204.88 577.34C204.19 610.22 203.51 643.09 202.82 675.97C202.54 689.03 202.26 702.09 201.95 715.16C201.93 716.15 201.9 717.14 201.88 718.14C200.64 771.29 199.19 824.48 197.91 877.68C197.89 878.68 197.87 879.66 197.84 880.65C196.8 924.54 195.88 968.44 195.29 1012.33C195.29 1013.33 195.26 1014.31 195.25 1015.3C194.77 1052.15 194.53 1089.01 194.65 1125.84C194.65 1126.83 194.65 1127.81 194.65 1128.8C194.77 1158.35 195.12 1187.89 195.77 1217.42C195.79 1218.41 195.82 1219.4 195.84 1220.39C196.3 1240.9 196.92 1261.41 197.7 1281.91C198.27 1296.9 198.96 1311.87 199.75 1326.84C199.79 1327.84 199.85 1328.82 199.9 1329.81C201.9 1367.78 204.46 1405.71 207.1 1443.64C207.17 1444.63 207.24 1445.61 207.31 1446.6C209.47 1477.66 211.67 1508.71 213.63 1539.78C213.7 1540.77 213.76 1541.74 213.83 1542.73C214.62 1555.41 215.38 1568.08 216.08 1580.77C217.27 1602.44 218.19 1624.11 218.84 1645.77C218.88 1646.77 218.91 1647.76 218.93 1648.76C220.19 1691.32 220.48 1733.88 220.06 1776.45H220.07Z" fill="#ED52D8"/>
<path d="M98.6701 1878.48C98.6701 1879.5 98.6701 1880.51 98.6701 1881.52C98.5501 1908.81 98.2801 1936.08 97.8601 1963.37C97.8601 1964.36 97.8301 1965.34 97.8101 1966.34C97.3501 1996.29 96.7101 2026.24 95.9101 2056.18C95.8801 2057.17 95.8601 2058.15 95.8301 2059.13C94.6401 2103.15 93.1101 2147.13 91.2801 2191.1C91.2501 2192.09 91.2101 2193.07 91.1601 2194.06C89.6701 2229.61 88.0001 2265.13 86.1401 2300.66C86.0901 2301.66 86.0401 2302.64 85.9801 2303.63C84.2701 2336.59 82.3901 2369.54 80.3901 2402.49L80.2101 2405.45C77.6101 2448.25 74.7901 2491 71.8001 2533.76C71.7301 2534.76 71.6601 2535.75 71.5901 2536.74C68.5701 2579.78 65.3801 2622.82 62.0601 2665.84C61.9801 2666.83 61.9101 2667.81 61.8301 2668.81C57.6501 2722.78 53.2701 2776.75 48.7701 2830.69C48.6901 2831.68 48.6101 2832.66 48.5201 2833.65C45.0901 2874.76 41.5901 2915.85 38.0501 2956.94H35.0801C38.6201 2915.88 42.1201 2874.83 45.5401 2833.76C45.6301 2832.77 45.7201 2831.79 45.7901 2830.8C50.2901 2776.88 54.6701 2722.93 58.8401 2668.98C58.9201 2667.99 59.0001 2667 59.0701 2666.01C62.3901 2623 65.5801 2579.97 68.5901 2536.94C68.6701 2535.94 68.7401 2534.95 68.8001 2533.95C71.8001 2491.18 74.6101 2448.43 77.2201 2405.64L77.4001 2402.67C77.8801 2394.72 78.3601 2386.79 78.8201 2378.85C80.2901 2353.83 81.6901 2328.81 82.9901 2303.78C83.0501 2302.78 83.1001 2301.81 83.1501 2300.81C85.0001 2265.28 86.6901 2229.76 88.1801 2194.22C88.2201 2193.21 88.2601 2192.24 88.3001 2191.25C90.1301 2147.25 91.6601 2103.25 92.8501 2059.24C92.8801 2058.25 92.9101 2057.27 92.9301 2056.28C93.7301 2026.37 94.3701 1996.45 94.8401 1966.53C94.8601 1965.54 94.8701 1964.56 94.8901 1963.57C95.3001 1936.28 95.5801 1908.99 95.7001 1881.68C95.7001 1880.67 95.7001 1879.67 95.7001 1878.65C95.8301 1848.03 95.7501 1817.39 95.4601 1786.76C95.4601 1785.77 95.4601 1784.79 95.4401 1783.8C95.3601 1775.58 95.2601 1767.36 95.1501 1759.14C94.7101 1725.7 93.8801 1692.28 92.7601 1658.9C92.7201 1657.91 92.6901 1656.92 92.6501 1655.93C91.4101 1619.49 89.8001 1583.07 87.9401 1546.67C87.8801 1545.68 87.8301 1544.69 87.7801 1543.7C86.1701 1512.75 84.3701 1481.81 82.4401 1450.89C82.3801 1449.9 82.3201 1448.92 82.2501 1447.93C79.9101 1410.78 77.3801 1373.64 74.7401 1336.5C74.6701 1335.51 74.6001 1334.53 74.5201 1333.55C72.0501 1298.71 69.4801 1263.87 66.9001 1229.02C66.8301 1228.03 66.7601 1227.05 66.6801 1226.06C64.7501 1199.87 62.8101 1173.68 60.8901 1147.49C60.6401 1144.05 60.3901 1140.6 60.1401 1137.16C60.0701 1136.17 60.0001 1135.19 59.9301 1134.21C57.2901 1097.08 54.9201 1059.98 52.9201 1022.9C52.8601 1021.92 52.8101 1020.94 52.7601 1019.95C50.5101 977.97 48.7301 936.01 47.5601 894.07C47.5301 893.07 47.5001 892.09 47.4701 891.1C46.0001 837.55 45.5101 784.01 46.2501 730.44C46.2501 729.45 46.2801 728.46 46.2901 727.47C46.9901 679.99 48.6701 632.48 51.4901 584.93C51.5501 583.94 51.6101 582.96 51.6801 581.97C52.6801 565.5 53.8101 549.02 55.0901 532.53C58.0501 494.56 61.3601 456.55 64.6201 418.49C64.7001 417.49 64.7801 416.51 64.8701 415.52C69.9001 356.63 74.7501 297.66 77.8501 238.68C77.9101 237.69 77.9601 236.71 78.0101 235.71C80.5501 186.63 81.8701 137.53 81.0701 88.47C81.0701 87.48 81.0401 86.5 81.0201 85.51C80.5101 56.98 79.2701 28.46 77.1301 -0.0400391H80.0601C82.1901 28.45 83.4201 56.97 83.9301 85.48C83.9501 86.47 83.9701 87.45 83.9801 88.44C84.7901 137.49 83.4701 186.56 80.9201 235.62C80.8701 236.61 80.8201 237.6 80.7601 238.59C77.6701 297.54 72.8301 356.5 67.8101 415.41C67.7201 416.4 67.6301 417.39 67.5501 418.38C62.9001 472.91 58.1201 527.4 54.4301 581.83C54.3701 582.82 54.3001 583.8 54.2301 584.79C54.0201 587.85 53.8301 590.9 53.6301 593.96C50.7601 638.41 49.1001 682.86 48.4201 727.3C48.4001 728.29 48.3901 729.27 48.3801 730.27C47.6001 783.82 48.2301 837.36 49.8901 890.88C49.9101 891.87 49.9501 892.86 49.9801 893.85C51.3001 935.85 53.2301 977.84 55.6001 1019.8C55.6601 1020.79 55.7101 1021.77 55.7701 1022.75C57.8701 1059.85 60.3001 1096.94 62.9301 1134.02L63.1401 1136.98C64.8601 1161.26 66.6701 1185.52 68.5201 1209.78C68.9201 1215.14 69.3401 1220.5 69.7401 1225.87C69.8101 1226.86 69.8901 1227.83 69.9701 1228.82C72.6001 1263.68 75.1701 1298.53 77.6201 1333.39C77.6901 1334.37 77.7601 1335.35 77.8301 1336.34C80.4401 1373.51 82.9201 1410.68 85.1701 1447.84C85.2401 1448.83 85.3001 1449.81 85.3501 1450.8C87.2401 1481.74 88.9801 1512.68 90.5201 1543.63C90.5801 1544.62 90.6301 1545.6 90.6701 1546.59C92.4901 1582.94 94.0601 1619.31 95.3101 1655.7C95.3501 1656.7 95.3801 1657.68 95.4101 1658.67C96.8301 1700.29 97.8301 1741.94 98.3301 1783.63C98.3501 1784.62 98.3601 1785.6 98.3701 1786.59C98.5301 1800.39 98.6401 1814.2 98.6801 1828.01C98.7301 1844.83 98.7301 1861.67 98.6601 1878.49L98.6701 1878.48Z" fill="#ED52D8"/>
<path d="M1156.52 2024.63C1156.52 2025.62 1156.52 2026.6 1156.49 2027.58C1156.04 2069.28 1155.08 2110.98 1153.79 2152.68C1153.76 2153.67 1153.73 2154.65 1153.7 2155.64C1152.59 2191.12 1151.24 2226.61 1149.72 2262.08C1149.68 2263.08 1149.64 2264.06 1149.59 2265.05C1148.32 2295.01 1146.93 2324.97 1145.49 2354.93C1145.45 2355.92 1145.4 2356.9 1145.35 2357.89C1143.26 2401.37 1141.07 2444.83 1138.94 2488.31C1138.89 2489.3 1138.85 2490.28 1138.79 2491.27C1136.57 2536.9 1134.42 2582.55 1132.56 2628.19C1132.52 2629.18 1132.48 2630.17 1132.44 2631.16C1130.12 2688.06 1128.24 2744.97 1127.2 2801.89C1127.17 2802.88 1127.15 2803.86 1127.14 2804.85C1126.22 2855.53 1125.96 2906.22 1126.63 2956.91H1123.66C1122.99 2906.24 1123.24 2855.57 1124.14 2804.9C1124.14 2803.91 1124.16 2802.93 1124.19 2801.94C1125.22 2745.02 1127.08 2688.11 1129.37 2631.2C1129.41 2630.21 1129.45 2629.23 1129.49 2628.24C1131.34 2582.6 1133.48 2536.96 1135.7 2491.34C1135.75 2490.35 1135.79 2489.37 1135.85 2488.38C1137.85 2447.27 1139.92 2406.16 1141.91 2365.07C1142.03 2362.71 1142.14 2360.35 1142.26 2357.99C1142.31 2356.99 1142.35 2356.01 1142.4 2355.02C1143.84 2325.06 1145.22 2295.09 1146.47 2265.13C1146.52 2264.13 1146.56 2263.15 1146.6 2262.16C1148.08 2226.68 1149.4 2191.19 1150.47 2155.71C1150.5 2154.72 1150.53 2153.74 1150.56 2152.75C1151.81 2111.06 1152.72 2069.37 1153.16 2027.66C1153.16 2026.68 1153.18 2025.7 1153.19 2024.71C1153.56 1988.31 1153.57 1951.91 1153.13 1915.51C1153.13 1914.52 1153.11 1913.55 1153.09 1912.56C1152.76 1886.38 1152.2 1860.21 1151.38 1834.03C1151.35 1833.04 1151.32 1832.07 1151.29 1831.08C1150.35 1802.32 1149.1 1773.56 1147.5 1744.8C1147.41 1743.19 1147.32 1741.6 1147.22 1739.99C1147.17 1739 1147.11 1738.02 1147.05 1737.03C1144.76 1697.24 1142.1 1657.46 1139.59 1617.67C1139.52 1616.68 1139.45 1615.7 1139.4 1614.7C1137.37 1582.74 1135.45 1550.77 1133.91 1518.78C1133.86 1517.79 1133.81 1516.81 1133.76 1515.82C1132.53 1489.97 1131.55 1464.1 1130.96 1438.22C1130.79 1430.93 1130.67 1423.64 1130.59 1416.35C1130.57 1415.36 1130.56 1414.38 1130.55 1413.39C1130.15 1377.14 1130.65 1340.9 1131.71 1304.67C1131.74 1303.63 1131.78 1302.58 1131.81 1301.54C1132.98 1262.66 1134.8 1223.78 1136.84 1184.93C1136.89 1183.94 1136.94 1182.96 1136.99 1181.97C1137.87 1165.28 1138.78 1148.6 1139.71 1131.91C1140.55 1116.81 1141.33 1101.71 1142.07 1086.62C1142.12 1085.63 1142.16 1084.64 1142.21 1083.65C1143.95 1047.57 1145.4 1011.48 1146.56 975.41C1146.6 974.42 1146.63 973.44 1146.66 972.45C1148.25 922.53 1149.28 872.63 1149.76 822.7C1149.76 821.71 1149.78 820.73 1149.79 819.74C1150.25 769.56 1150.15 719.37 1149.49 669.18C1149.49 668.18 1149.47 667.2 1149.45 666.21C1148.89 624.57 1147.94 582.9 1146.61 541.23C1146.58 540.32 1146.55 539.42 1146.52 538.51C1146.18 527.95 1145.82 517.4 1145.43 506.84C1143.98 467.7 1142.28 428.57 1140.36 389.45C1140.3 388.46 1140.25 387.48 1140.21 386.49C1137.4 329.7 1134.17 272.94 1130.63 216.19C1130.57 215.2 1130.51 214.22 1130.44 213.23C1127.67 168.8 1124.71 124.38 1121.66 79.9499L1121.45 76.9899C1119.69 51.2999 1117.87 25.6299 1116.05 -0.0600586H1119.01C1120.83 25.6199 1122.65 51.2899 1124.42 76.9699C1124.48 77.9599 1124.55 78.9399 1124.62 79.9299C1127.69 124.34 1130.63 168.77 1133.41 213.2L1133.59 216.16C1137.13 272.9 1140.36 329.67 1143.16 386.44L1143.31 389.4C1145.74 439.07 1147.84 488.74 1149.5 538.44C1149.53 539.35 1149.56 540.25 1149.59 541.16C1150.05 555.04 1150.48 568.92 1150.86 582.79C1151.64 610.57 1152.26 638.34 1152.72 666.12C1152.74 667.11 1152.76 668.09 1152.77 669.08C1153.6 719.25 1153.88 769.43 1153.52 819.61C1153.52 820.6 1153.52 821.58 1153.5 822.57C1153.33 846.04 1153.01 869.5 1152.54 892.96C1152.01 919.43 1151.2 945.9 1150.19 972.34C1150.15 973.33 1150.11 974.31 1150.07 975.3C1148.69 1011.4 1146.95 1047.49 1145.09 1083.57L1144.94 1086.53C1143.29 1118.33 1141.57 1150.12 1139.92 1181.92C1139.86 1182.91 1139.81 1183.89 1139.76 1184.88C1139.38 1192.21 1139 1199.54 1138.64 1206.87C1137.04 1238.43 1135.78 1269.97 1134.94 1301.5C1134.91 1302.54 1134.88 1303.59 1134.86 1304.63C1133.92 1340.84 1133.55 1377.05 1133.86 1413.28C1133.86 1414.27 1133.86 1415.25 1133.88 1416.24C1134.2 1448.59 1135.07 1480.95 1136.59 1513.33C1136.63 1514.14 1136.67 1514.95 1136.71 1515.75C1136.75 1516.74 1136.8 1517.72 1136.85 1518.71C1138.4 1550.71 1140.32 1582.7 1142.34 1614.67C1142.4 1615.66 1142.46 1616.65 1142.53 1617.64C1145.04 1657.41 1147.7 1697.17 1149.99 1736.94C1150.05 1737.93 1150.1 1738.91 1150.16 1739.89C1151.68 1766.55 1153.02 1793.22 1154.03 1819.9C1154.17 1823.59 1154.31 1827.27 1154.42 1830.95C1154.46 1831.94 1154.5 1832.92 1154.52 1833.9C1155.42 1860.09 1156.03 1886.27 1156.38 1912.44C1156.4 1913.43 1156.41 1914.41 1156.42 1915.39C1156.89 1951.81 1156.88 1988.21 1156.5 2024.62L1156.52 2024.63Z" fill="#ED52D8"/>
<path d="M1311.45 2021.34V2024.3C1311.51 2064.8 1311.08 2105.3 1309.76 2145.78C1309.72 2146.94 1309.68 2148.12 1309.64 2149.28C1309.61 2150.27 1309.57 2151.25 1309.53 2152.24C1308.27 2187.7 1306.1 2223.11 1303.48 2258.48C1303.41 2259.47 1303.33 2260.46 1303.25 2261.45C1301.04 2291.18 1298.52 2320.87 1295.98 2350.58C1295.9 2351.57 1295.81 2352.56 1295.73 2353.55C1292.96 2385.88 1290.18 2418.22 1287.75 2450.59C1286.87 2462.24 1286.08 2473.87 1285.37 2485.5C1285.31 2486.49 1285.25 2487.48 1285.19 2488.47C1282.45 2534.58 1281.1 2580.57 1281.47 2626.57C1281.47 2627.57 1281.47 2628.55 1281.49 2629.54C1281.88 2671.39 1283.72 2713.26 1287.23 2755.27C1288.46 2769.99 1289.77 2784.71 1291.09 2799.45C1291.18 2800.44 1291.27 2801.42 1291.36 2802.41C1295.97 2853.87 1300.6 2905.37 1301.96 2956.93H1298.99C1297.62 2905.39 1292.98 2853.91 1288.37 2802.45L1288.1 2799.49C1285.67 2772.31 1283.27 2745.13 1281.38 2717.95C1279.33 2688.46 1278.32 2659 1278.12 2629.57C1278.12 2628.58 1278.12 2627.6 1278.1 2626.61C1277.86 2580.54 1279.59 2534.52 1282.39 2488.52C1282.45 2487.53 1282.51 2486.55 1282.58 2485.56C1284.83 2449.06 1287.74 2412.57 1290.89 2376.07C1291.53 2368.59 1292.17 2361.12 1292.8 2353.65C1292.88 2352.65 1292.97 2351.67 1293.05 2350.68C1295.55 2320.95 1297.92 2291.26 1300.02 2261.54C1300.09 2260.55 1300.16 2259.56 1300.23 2258.57C1302.71 2223.19 1304.79 2187.78 1306.22 2152.33C1306.27 2151.34 1306.31 2150.36 1306.34 2149.37C1307.38 2123.15 1308.06 2096.9 1308.3 2070.61C1308.44 2055.2 1308.49 2039.79 1308.49 2024.38C1308.49 2023.39 1308.49 2022.41 1308.49 2021.42C1308.46 1984.56 1308.08 1947.69 1307.54 1910.83C1307.54 1909.85 1307.51 1908.87 1307.49 1907.88C1307.11 1881.44 1306.65 1854.99 1306.19 1828.55C1306.17 1827.56 1306.16 1826.59 1306.14 1825.6C1305.78 1804.5 1305.41 1783.4 1305.1 1762.29C1304.97 1753.52 1304.83 1744.74 1304.71 1735.96C1304.69 1734.97 1304.68 1734 1304.66 1733.01C1304.08 1694.41 1303.5 1655.82 1302.92 1617.23C1302.9 1616.29 1302.89 1615.36 1302.87 1614.43C1302.38 1581.4 1301.87 1548.37 1301.38 1515.35C1301.36 1514.35 1301.34 1513.37 1301.33 1512.38C1300.82 1478.59 1300.31 1444.81 1299.8 1411.02C1299.78 1410.03 1299.77 1409.05 1299.75 1408.06C1299.22 1372.97 1298.7 1337.88 1298.16 1302.8C1298.14 1301.79 1298.13 1300.79 1298.11 1299.78C1297.52 1260.77 1296.94 1221.77 1296.35 1182.76C1296.33 1181.77 1296.32 1180.8 1296.3 1179.81C1296.11 1167.35 1295.93 1154.89 1295.74 1142.43C1295.43 1122.48 1295.14 1102.53 1294.83 1082.58C1294.83 1081.59 1294.8 1080.61 1294.79 1079.62C1294.24 1043.41 1293.7 1007.2 1293.14 970.98C1293.14 969.99 1293.11 969.01 1293.1 968.02C1292.34 918.04 1291.59 868.07 1290.83 818.09C1290.83 817.1 1290.8 816.13 1290.79 815.14C1290.04 765.35 1289.28 715.55 1288.53 665.76C1288.53 664.77 1288.5 663.79 1288.48 662.8C1287.86 621.36 1287.24 579.92 1286.61 538.48C1286.61 537.55 1286.58 536.63 1286.56 535.7C1285.82 486.22 1285.07 436.75 1284.32 387.27C1284.32 386.29 1284.29 385.32 1284.28 384.34C1283.42 327.78 1282.57 271.22 1281.72 214.66C1281.7 213.67 1281.69 212.69 1281.67 211.7C1281.01 167.5 1280.34 123.32 1279.67 79.1202C1279.67 78.1302 1279.64 77.1502 1279.62 76.1602C1279.25 50.7602 1278.86 25.3502 1278.48 -0.0498047H1281.44C1281.82 25.3502 1282.21 50.7502 1282.58 76.1502C1282.6 77.1402 1282.62 78.1202 1282.63 79.1102C1283.3 123.3 1283.97 167.48 1284.63 211.67C1284.65 212.66 1284.66 213.64 1284.68 214.63C1285.53 271.19 1286.39 327.74 1287.24 384.3C1287.24 385.28 1287.27 386.25 1287.28 387.23C1288.03 436.7 1288.78 486.18 1289.53 535.65C1289.53 536.58 1289.55 537.5 1289.57 538.43C1289.88 558.45 1290.17 578.46 1290.48 598.47C1290.81 619.89 1291.13 641.31 1291.45 662.72C1291.47 663.71 1291.48 664.69 1291.5 665.68C1292.25 715.46 1293 765.26 1293.76 815.04C1293.76 816.03 1293.79 817 1293.8 817.99C1294.56 867.97 1295.31 917.94 1296.07 967.92C1296.07 968.91 1296.1 969.89 1296.11 970.88C1296.66 1007.1 1297.2 1043.31 1297.76 1079.54C1297.76 1080.53 1297.79 1081.51 1297.8 1082.5C1298.29 1114.92 1298.79 1147.34 1299.27 1179.76C1299.29 1180.75 1299.3 1181.72 1299.32 1182.71C1299.91 1221.72 1300.49 1260.73 1301.08 1299.74C1301.1 1300.75 1301.11 1301.74 1301.13 1302.75C1301.66 1337.82 1302.18 1372.88 1302.72 1407.95C1302.74 1408.94 1302.75 1409.91 1302.77 1410.9C1303.27 1444.7 1303.79 1478.5 1304.3 1512.3C1304.3 1513.29 1304.33 1514.28 1304.34 1515.27C1304.84 1548.32 1305.35 1581.36 1305.84 1614.4C1305.86 1615.34 1305.87 1616.26 1305.89 1617.2C1306.47 1655.77 1307.05 1694.34 1307.63 1732.9C1307.63 1733.89 1307.66 1734.87 1307.67 1735.86C1308.12 1765.72 1308.58 1795.6 1309.03 1825.46C1309.03 1826.45 1309.06 1827.43 1309.07 1828.42C1309.12 1831.66 1309.17 1834.91 1309.22 1838.15C1309.57 1861.35 1309.96 1884.55 1310.32 1907.77C1310.32 1908.76 1310.35 1909.73 1310.36 1910.72C1310.93 1947.58 1311.39 1984.46 1311.47 2021.33L1311.45 2021.34Z" fill="#ED52D8"/>
<path d="M1570.08 2482.42C1570.08 2483.41 1570.05 2484.39 1570.02 2485.38C1569.17 2532.23 1567.79 2579.06 1565.87 2625.89C1565.84 2626.88 1565.8 2627.86 1565.75 2628.85C1563.44 2684.76 1560.38 2740.67 1556.53 2796.55C1556.47 2797.54 1556.4 2798.52 1556.32 2799.51C1552.69 2852 1548.38 2904.47 1543.37 2956.91H1540.42C1545.46 2904.51 1549.83 2852.05 1553.54 2799.54C1553.61 2798.54 1553.68 2797.56 1553.75 2796.57C1557.67 2740.7 1560.84 2684.79 1563.25 2628.84C1563.29 2627.85 1563.33 2626.87 1563.37 2625.88C1565.37 2579.07 1566.83 2532.24 1567.76 2485.39C1567.78 2484.4 1567.8 2483.42 1567.82 2482.43C1568.7 2437.35 1569.07 2392.26 1568.95 2347.17C1568.95 2346.18 1568.95 2345.2 1568.95 2344.21C1568.95 2341.49 1568.93 2338.76 1568.92 2336.04C1568.8 2309.49 1568.48 2282.94 1567.96 2256.42C1567.96 2255.42 1567.93 2254.44 1567.9 2253.45C1567.21 2218.24 1566.18 2183.07 1564.85 2147.9C1564.81 2146.91 1564.78 2145.93 1564.74 2144.94C1563.15 2103.32 1561.15 2061.71 1558.8 2020.13C1558.75 2019.13 1558.69 2018.13 1558.63 2017.13C1556.5 1979.68 1554.09 1942.23 1551.43 1904.81L1551.22 1901.85C1549.31 1875 1547.28 1848.17 1545.13 1821.33C1545.05 1820.35 1544.97 1819.37 1544.89 1818.39C1542.61 1789.93 1540.22 1761.47 1537.72 1733.01L1537.57 1731.35C1537.49 1730.36 1537.4 1729.38 1537.31 1728.39C1534.07 1691.47 1530.81 1654.56 1527.7 1617.62C1527.63 1616.8 1527.56 1615.98 1527.5 1615.17C1524.58 1580.54 1521.81 1545.91 1519.32 1511.25L1519.11 1508.29C1517.29 1482.84 1515.62 1457.39 1514.16 1431.91C1513.63 1422.7 1513.13 1413.49 1512.68 1404.28C1512.63 1403.29 1512.58 1402.32 1512.53 1401.33C1510.88 1367.8 1509.66 1334.25 1508.8 1300.7C1508.78 1299.77 1508.75 1298.86 1508.73 1297.94C1507.75 1259 1507.25 1220.04 1507.09 1181.07C1507.09 1180.08 1507.09 1179.1 1507.09 1178.1C1507.03 1162.07 1507.03 1146.05 1507.09 1130.01C1507.15 1112.73 1507.22 1095.45 1507.3 1078.19C1507.3 1077.19 1507.3 1076.21 1507.32 1075.22C1507.49 1038.56 1507.71 1001.92 1507.99 965.26L1508.02 962.3C1508.39 912.51 1508.87 862.71 1509.41 812.92C1509.41 811.93 1509.41 810.95 1509.44 809.97C1509.96 760.74 1510.56 711.5 1511.2 662.26C1511.22 661.27 1511.23 660.28 1511.24 659.29C1511.78 618.08 1512.36 576.86 1512.96 535.65C1512.98 534.68 1512.99 533.73 1513 532.76C1513.72 483.35 1514.47 433.95 1515.23 384.54C1515.23 383.59 1515.26 382.64 1515.28 381.68C1516.14 325.48 1517.01 269.27 1517.88 213.07C1517.88 212.08 1517.91 211.09 1517.93 210.1C1518.6 166.08 1519.27 122.07 1519.91 78.0597C1519.93 77.0697 1519.95 76.0897 1519.96 75.0997C1520.32 50.0397 1520.69 24.9797 1521.03 -0.0703125H1524.05C1523.72 24.9797 1523.41 50.0397 1523.08 75.0897C1523.06 76.0797 1523.05 77.0597 1523.04 78.0497C1522.47 122.06 1521.91 166.08 1521.34 210.09C1521.32 211.08 1521.31 212.07 1521.3 213.06C1520.57 269.26 1519.85 325.45 1519.13 381.65C1519.11 382.6 1519.1 383.55 1519.09 384.5C1518.45 433.91 1517.82 483.32 1517.18 532.73C1517.18 533.7 1517.15 534.65 1517.14 535.62C1516.87 556.11 1516.62 576.6 1516.35 597.09C1516.08 617.81 1515.79 638.53 1515.48 659.24C1515.48 660.23 1515.45 661.21 1515.43 662.2C1514.7 711.42 1513.88 760.65 1513.1 809.89C1513.08 810.88 1513.07 811.86 1513.05 812.85C1512.27 862.63 1511.52 912.43 1510.97 962.22C1510.95 963.21 1510.94 964.19 1510.93 965.18C1510.52 1001.85 1510.2 1038.5 1510.04 1075.17C1510.04 1076.16 1510.02 1077.14 1510.04 1078.13C1509.89 1111.45 1509.87 1144.77 1510.02 1178.08C1510.02 1179.08 1510.02 1180.06 1510.02 1181.05C1510.05 1188.7 1510.1 1196.34 1510.15 1203.98C1510.37 1235.32 1511 1266.63 1511.96 1297.9C1511.99 1298.83 1512.02 1299.74 1512.05 1300.66C1513.11 1334.2 1514.57 1367.71 1516.34 1401.2C1516.39 1402.18 1516.44 1403.16 1516.5 1404.15C1518.34 1438.85 1520.51 1473.54 1522.92 1508.2L1523.13 1511.16C1525.54 1545.84 1528.2 1580.51 1530.98 1615.17C1531.04 1615.99 1531.1 1616.81 1531.18 1617.61C1534.14 1654.51 1537.24 1691.4 1540.39 1728.32C1540.47 1729.31 1540.56 1730.29 1540.64 1731.28C1542.78 1756.4 1544.93 1781.54 1547.06 1806.68C1547.39 1810.54 1547.71 1814.41 1548.03 1818.27C1548.12 1819.26 1548.2 1820.23 1548.28 1821.22C1550.5 1848.06 1552.56 1874.9 1554.44 1901.75C1554.52 1902.74 1554.59 1903.72 1554.66 1904.71C1557.29 1942.14 1559.62 1979.6 1561.62 2017.06C1561.68 2018.06 1561.73 2019.05 1561.78 2020.05C1564 2061.64 1565.82 2103.26 1567.25 2144.87C1567.29 2145.86 1567.32 2146.84 1567.35 2147.83C1568.55 2183.01 1569.46 2218.19 1570.08 2253.38C1570.11 2254.37 1570.12 2255.35 1570.14 2256.35C1570.65 2285.61 1570.96 2314.88 1571.07 2344.14C1571.07 2345.13 1571.07 2346.11 1571.07 2347.1C1571.22 2392.2 1570.89 2437.29 1570.08 2482.39V2482.42Z" fill="#ED52D8"/>
<path d="M1680.64 2482.07C1680.64 2483.06 1680.64 2484.04 1680.64 2485.03C1680.7 2532.19 1680.14 2579.36 1678.83 2626.52C1678.81 2627.51 1678.78 2628.49 1678.75 2629.48C1677.19 2684.94 1674.62 2740.36 1670.86 2795.71C1670.8 2796.7 1670.73 2797.69 1670.66 2798.68C1667.02 2851.51 1662.31 2904.27 1656.36 2956.91H1653.46C1653.66 2955.2 1653.85 2953.51 1654.04 2951.8C1659.77 2900.85 1664.3 2849.81 1667.8 2798.68C1667.88 2797.69 1667.94 2796.71 1668.01 2795.72C1671.77 2740.37 1674.31 2684.93 1675.85 2629.45C1675.88 2628.46 1675.91 2627.48 1675.93 2626.49C1677.21 2579.35 1677.76 2532.18 1677.69 2485.02C1677.69 2484.03 1677.69 2483.05 1677.69 2482.06C1677.62 2436.71 1676.98 2391.36 1675.89 2346.04C1675.89 2345.76 1675.89 2345.48 1675.87 2345.2C1675.85 2344.21 1675.82 2343.23 1675.79 2342.24C1675.08 2313.1 1674.17 2283.95 1673.1 2254.82C1673.08 2253.82 1673.04 2252.84 1673 2251.85C1671.71 2216.74 1670.19 2181.64 1668.5 2146.56C1668.46 2145.57 1668.41 2144.59 1668.36 2143.61C1666.34 2102 1664.07 2060.39 1661.64 2018.81C1661.59 2017.8 1661.53 2016.8 1661.46 2015.79C1659.25 1978.12 1656.92 1940.45 1654.5 1902.79C1654.43 1901.8 1654.37 1900.82 1654.3 1899.83C1652.57 1872.8 1650.79 1845.79 1649.01 1818.77C1648.94 1817.78 1648.88 1816.8 1648.81 1815.82C1647.09 1789.69 1645.34 1763.57 1643.61 1737.45C1643.44 1734.91 1643.27 1732.37 1643.11 1729.83C1643.04 1728.84 1642.97 1727.86 1642.91 1726.87C1640.51 1690.64 1638.12 1654.4 1635.81 1618.15C1635.76 1617.37 1635.71 1616.58 1635.66 1615.8C1633.4 1580.33 1631.21 1544.84 1629.14 1509.36C1629.08 1508.37 1629.02 1507.39 1628.97 1506.4C1626.92 1471.2 1625 1436.01 1623.24 1400.81L1623.09 1397.85C1621.47 1365.15 1619.99 1332.43 1618.71 1299.71C1618.67 1298.82 1618.64 1297.93 1618.6 1297.03C1617.09 1258.26 1615.85 1219.46 1614.94 1180.66C1614.91 1179.67 1614.88 1178.69 1614.87 1177.7C1614.48 1161.27 1614.16 1144.84 1613.9 1128.41C1613.63 1111.11 1613.46 1093.82 1613.39 1076.55C1613.39 1075.56 1613.39 1074.58 1613.39 1073.59C1613.25 1036.62 1613.56 999.7 1614.29 962.81C1614.31 961.82 1614.33 960.84 1614.35 959.86C1615.36 910.27 1617.14 860.74 1619.64 811.26L1619.79 808.3C1622.3 759.31 1625.52 710.37 1629.4 661.42C1629.48 660.42 1629.56 659.44 1629.64 658.45C1632.93 617.3 1636.69 576.16 1640.9 534.99C1641 534 1641.11 533.03 1641.21 532.04C1641.52 529.05 1641.82 526.06 1642.14 523.07C1646.97 476.73 1651.81 430.12 1655.76 383.42C1655.85 382.47 1655.93 381.54 1656 380.6C1660.7 324.68 1664.1 268.59 1664.69 212.63C1664.71 211.64 1664.72 210.66 1664.72 209.67C1665.11 165.54 1663.74 121.48 1659.86 77.6202C1659.78 76.6302 1659.69 75.6402 1659.6 74.6402C1657.32 49.6702 1654.23 24.7702 1650.19 -0.0498047H1653.37C1657.44 24.8002 1660.55 49.6902 1662.82 74.6302C1662.92 75.6302 1663.01 76.6102 1663.1 77.6102C1667.01 121.54 1668.38 165.58 1667.98 209.66C1667.98 210.65 1667.96 211.63 1667.95 212.62C1667.33 268.59 1663.87 324.63 1659.11 380.58C1659.03 381.52 1658.95 382.46 1658.87 383.4C1654.61 433.05 1649.35 482.63 1644.16 532.04C1644.06 533.03 1643.95 534.01 1643.85 534.99C1641.89 553.69 1639.95 572.36 1638.07 590.99C1635.81 613.46 1633.75 635.94 1631.87 658.44C1631.79 659.43 1631.7 660.41 1631.62 661.41C1627.57 710.34 1624.39 759.29 1622.01 808.28C1621.95 809.27 1621.9 810.25 1621.86 811.24C1619.47 860.74 1617.91 910.26 1617.08 959.8C1617.05 960.79 1617.04 961.76 1617.03 962.75C1616.42 999.67 1616.22 1036.6 1616.39 1073.55C1616.39 1074.54 1616.39 1075.52 1616.41 1076.51C1616.58 1110.23 1617.06 1143.96 1617.83 1177.69C1617.85 1178.68 1617.87 1179.67 1617.9 1180.66C1618.07 1188.22 1618.25 1195.79 1618.46 1203.35C1619.3 1234.58 1620.34 1265.8 1621.55 1297.01C1621.59 1297.91 1621.62 1298.8 1621.66 1299.69C1622.94 1332.39 1624.41 1365.08 1626.04 1397.76L1626.19 1400.72C1627.94 1435.94 1629.87 1471.15 1631.91 1506.36C1631.97 1507.35 1632.03 1508.32 1632.09 1509.31C1634.15 1544.82 1636.34 1580.31 1638.61 1615.82C1638.66 1616.6 1638.71 1617.38 1638.76 1618.17C1641.07 1654.39 1643.45 1690.61 1645.85 1726.83C1645.92 1727.82 1645.98 1728.8 1646.05 1729.79C1647.94 1758.34 1649.84 1786.91 1651.74 1815.46C1651.74 1815.56 1651.74 1815.65 1651.76 1815.75C1651.83 1816.74 1651.89 1817.72 1651.96 1818.71C1653.74 1845.73 1655.52 1872.75 1657.24 1899.78C1657.31 1900.77 1657.38 1901.75 1657.44 1902.74C1659.85 1940.4 1662.2 1978.08 1664.41 2015.76C1664.48 2016.77 1664.54 2017.77 1664.59 2018.78C1667.02 2060.37 1669.3 2101.97 1671.32 2143.57C1671.37 2144.56 1671.42 2145.54 1671.47 2146.53C1673.16 2181.62 1674.67 2216.71 1675.96 2251.82C1676 2252.81 1676.03 2253.79 1676.07 2254.79C1677.13 2283.92 1678.03 2313.05 1678.75 2342.2C1678.78 2343.19 1678.8 2344.17 1678.83 2345.16C1679.51 2373.38 1680.02 2401.6 1680.34 2429.83C1680.54 2447.24 1680.65 2464.65 1680.67 2482.07H1680.64Z" fill="#ED52D8"/>
<path d="M938.25 2956.89H935.29C934.8 2907.38 934.21 2857.87 933.53 2808.38C933.53 2807.39 933.51 2806.41 933.49 2805.42C932.72 2748.53 931.82 2691.64 930.8 2634.75C930.8 2633.76 930.77 2632.78 930.75 2631.79C929.94 2586.78 929.06 2541.75 928.1 2496.74C928.1 2495.75 928.07 2494.76 928.04 2493.77C927.13 2450.93 926.16 2408.12 925.1 2365.28C925.08 2364.28 925.06 2363.31 925.03 2362.32C925.03 2361.89 925.01 2361.45 925 2361.02C924.26 2331.1 923.5 2301.18 922.69 2271.26C922.67 2270.27 922.64 2269.28 922.61 2268.29C921.66 2232.8 920.66 2197.29 919.61 2161.8C919.58 2160.81 919.56 2159.83 919.52 2158.84C918.3 2117.07 917 2075.3 915.64 2033.54C915.61 2032.55 915.58 2031.58 915.54 2030.59C914.39 1995.14 913.18 1959.69 911.93 1924.24C911.89 1923.25 911.86 1922.27 911.82 1921.27C910.9 1895.43 909.97 1869.58 909 1843.74C908.97 1842.75 908.93 1841.77 908.89 1840.78C907.82 1811.96 906.71 1783.14 905.58 1754.32C905.49 1752.11 905.4 1749.89 905.31 1747.69C905.27 1746.7 905.23 1745.72 905.19 1744.73C903.54 1703.19 901.76 1661.65 899.89 1620.13C899.86 1619.13 899.81 1618.15 899.76 1617.15C898.37 1586.15 896.94 1555.15 895.47 1524.17C895.43 1523.18 895.38 1522.2 895.33 1521.21C893.8 1488.8 892.24 1456.4 890.68 1424.01C890.63 1423.02 890.58 1422.05 890.53 1421.06C888.71 1383.45 886.88 1345.84 885.08 1308.22C885.02 1307.2 884.97 1306.18 884.93 1305.16C883.09 1266.93 881.27 1228.68 879.52 1190.44C879.47 1189.45 879.43 1188.47 879.38 1187.48C878.68 1172.17 877.98 1156.86 877.3 1141.55C876.62 1126.21 875.98 1110.87 875.4 1095.52C875.36 1094.53 875.32 1093.55 875.29 1092.55C873.95 1056.68 872.94 1020.8 872.42 984.92C872.4 983.93 872.39 982.95 872.38 981.96C871.73 934.3 871.95 886.63 873.41 838.96C873.45 837.54 873.5 836.11 873.55 834.69C873.58 833.7 873.61 832.72 873.65 831.72C875.33 780.59 878.13 729.51 881.43 678.45C881.49 677.46 881.55 676.47 881.62 675.48C884.36 633.08 887.44 590.69 890.45 548.3C890.52 547.36 890.59 546.43 890.66 545.49C890.76 544.15 890.85 542.81 890.95 541.47C894.45 492.38 897.86 443.18 900.62 393.94C900.67 392.95 900.73 391.96 900.79 390.97C903.96 333.75 906.24 276.47 906.73 219.22C906.73 218.24 906.75 217.26 906.75 216.27C907.09 171.25 906.32 126.23 903.99 81.2799C903.94 80.2899 903.89 79.3099 903.83 78.3099C902.45 52.1599 900.53 26.0199 898 -0.0800781H900.94C903.46 26.0199 905.38 52.1499 906.76 78.2899C906.82 79.2899 906.87 80.2699 906.92 81.2599C909.24 126.21 910 171.21 909.67 216.22C909.67 217.21 909.67 218.19 909.65 219.18C909.16 276.42 906.89 333.67 903.72 390.9C903.67 391.9 903.61 392.88 903.55 393.88C900.73 444.42 897.21 494.95 893.62 545.39C893.55 546.33 893.49 547.26 893.42 548.2C892.14 566.2 890.85 584.2 889.58 602.17C887.86 626.55 886.18 650.95 884.6 675.35C884.53 676.34 884.47 677.32 884.4 678.31C881.12 729.36 878.31 780.44 876.63 831.56C876.59 832.55 876.56 833.54 876.53 834.53C875.76 858.32 875.24 882.14 875.02 905.95C874.79 931.25 874.89 956.54 875.26 981.83C875.26 982.82 875.28 983.8 875.3 984.79C875.83 1020.68 876.88 1056.55 878.23 1092.42C878.27 1093.41 878.31 1094.39 878.35 1095.38C879.52 1126.05 880.92 1156.73 882.41 1187.38C882.46 1188.37 882.51 1189.35 882.56 1190.34C882.88 1196.79 883.19 1203.24 883.52 1209.69C885.12 1241.49 886.69 1273.28 888.25 1305.08C888.31 1306.1 888.36 1307.11 888.41 1308.14C890.25 1345.73 892.08 1383.33 893.86 1420.94C893.91 1421.93 893.96 1422.9 894 1423.89C895.54 1456.3 897.05 1488.71 898.53 1521.11C898.57 1522.1 898.62 1523.08 898.66 1524.07C900.08 1555.07 901.46 1586.08 902.81 1617.08C902.85 1618.08 902.9 1619.07 902.94 1620.07C904.74 1661.57 906.49 1703.09 908.14 1744.6C908.19 1745.59 908.23 1746.57 908.26 1747.56C909.27 1772.5 910.24 1797.43 911.18 1822.38C911.41 1828.46 911.63 1834.55 911.86 1840.63C911.9 1841.62 911.94 1842.6 911.97 1843.6C912.94 1869.44 913.87 1895.29 914.78 1921.13C914.82 1922.13 914.86 1923.11 914.89 1924.1C916.14 1959.56 917.34 1995.03 918.5 2030.49C918.54 2031.48 918.57 2032.45 918.6 2033.44C919.96 2075.2 921.26 2116.97 922.49 2158.74C922.52 2159.73 922.55 2160.7 922.58 2161.69C923.61 2197.18 924.62 2232.68 925.57 2268.18C925.6 2269.18 925.63 2270.16 925.65 2271.15C926.47 2301.5 927.24 2331.85 927.99 2362.19C928.01 2363.18 928.04 2364.16 928.06 2365.15C929.1 2407.99 930.09 2450.82 931 2493.66C931.02 2494.66 931.05 2495.64 931.06 2496.63C932.03 2541.65 932.9 2586.68 933.71 2631.7C933.73 2632.7 933.75 2633.68 933.76 2634.67C934.79 2691.56 935.68 2748.45 936.45 2805.34C936.48 2806.33 936.49 2807.31 936.5 2808.3C937.18 2857.83 937.77 2907.35 938.26 2956.87L938.25 2956.89Z" fill="#ED52D8"/>
</g>
<defs>
<clipPath id="clip0_4483_33967">
<rect width="100%" height="100%" fill="white"/>
</clipPath>
</defs>
</svg>
