<svg width="61" height="52" viewBox="0 0 61 52" fill="none" xmlns="http://www.w3.org/2000/svg">
<path d="M51.8446 8.79998C50.0445 7.29574 51.0316 3.88219 51.0897 2.37796C52.7737 3.76648 50.1606 1.16312 49.1734 0.873844C47.0829 0.237436 43.5408 0.700278 41.218 0.873844C28.7913 1.85738 19.7326 2.78302 9.45448 3.53513C8.17697 6.65932 7.71241 10.5356 7.5382 14.354C7.364 18.9246 7.59627 23.4373 7.5382 26.5037C4.34443 25.7515 -0.47527 26.2722 1.09258 30.2642C3.58953 30.6692 5.73809 32.347 6.37685 34.4298C6.89947 36.2233 5.27356 37.9012 5.21549 41.1989C5.21549 43.5131 7.53824 45.2488 5.21549 45.3645C7.82858 46.5795 11.7191 47.4472 15.4355 46.5215C16.0162 48.9514 17.8164 50.1664 19.2101 51.7864C21.0102 51.3235 21.5908 50.8606 22.6361 50.2821C22.6361 49.0671 23.9717 46.8109 24.9007 45.3645C30.7076 45.1331 36.2822 45.133 41.9148 45.0751C45.6312 45.0173 49.3476 44.9016 53.2382 44.6124C53.7027 43.9181 53.5286 42.6452 54.3996 42.3559C52.2511 33.7934 54.6319 23.5531 54.748 14.0648C57.0708 12.8499 59.9161 12.2135 60.7871 9.55212C57.8256 6.65936 55.3287 9.32068 51.6704 8.79998H51.8446ZM12.1257 5.73366C23.6233 6.37007 34.0756 3.59292 47.3152 3.82434C47.083 4.98144 47.4894 8.33712 47.3152 10.5935C34.424 14.3541 26.875 21.123 19.3261 30.2063C16.4227 29.3385 13.5774 29.165 11.3708 27.545C10.5578 18.6932 10.8482 13.0234 12.1257 5.67575V5.73366ZM9.861 43.4552C9.57066 42.1824 9.28031 40.0996 9.861 38.1903C11.2546 39.6946 11.545 42.2981 13.287 43.4552C12.8805 44.2073 11.2546 42.9923 9.861 43.4552ZM49.9863 41.1989C43.1923 41.8932 34.3659 42.1823 28.0364 41.6038C30.9398 37.0911 35.0047 33.0412 38.6049 28.7599C39.7082 27.4292 40.5792 25.2308 41.6245 24.2472C42.5535 23.3794 44.4118 22.8009 45.399 21.991C46.7345 20.8339 47.7798 18.404 50.6832 18.2304C51.0897 26.793 50.2187 31.595 49.9283 41.1989H49.9863ZM48.0701 14.8168C45.8054 17.5938 43.0762 19.9081 39.7663 21.5859C36.2241 26.6193 32.1593 31.1321 28.0364 35.5291C26.7008 39.1739 21.8231 42.3559 19.7326 46.4636C14.971 41.488 12.1256 34.6612 7.24784 29.8592C10.3255 31.4213 16.1324 32.2891 19.3842 34.7769C20.0811 34.4876 20.7779 34.1405 21.6489 34.0248C26.759 24.8258 35.7015 19.3875 44.7602 14.0648C47.6636 14.0648 48.1862 13.3126 50.7993 12.5605C51.9607 12.5605 49.4057 14.7589 48.1282 14.8168H48.0701Z" fill="#2A0926"/>
</svg>
