<svg width="234" height="150" viewBox="0 0 234 150" fill="none" xmlns="http://www.w3.org/2000/svg">
<g id="Group 48023">
<path id="Vector" d="M201.892 64.8214C210.695 63.5795 218.183 55.9224 219.229 47.0938C218.482 54.6958 225.736 61.8789 232.806 64.7708C229.186 64.9754 223.441 68.1082 221.584 71.2234C219.728 74.3386 219.036 78.007 218.695 81.6161C218.502 72.6676 210.508 64.5981 201.891 64.8214H201.892Z" stroke="#460E3E" stroke-width="1.65" stroke-linecap="round" stroke-linejoin="round"/>
<path id="Vector_2" d="M1.19531 116.189C6.61281 115.425 11.2218 110.712 11.8653 105.279C11.4055 109.958 15.8704 114.378 20.222 116.158C17.9945 116.285 14.458 118.212 13.3162 120.129C12.1744 122.047 11.7487 124.304 11.5386 126.526C11.4187 121.019 6.49841 116.053 1.19531 116.189Z" stroke="#460E3E" stroke-width="1.65" stroke-linecap="round" stroke-linejoin="round"/>
<path id="Vector_3" d="M98.8398 8.29883C101.155 14.5807 103.771 20.7517 106.675 26.7841" stroke="#460E3E" stroke-width="1.98" stroke-linecap="round" stroke-linejoin="round"/>
<path id="Vector_4" d="M145.641 20.7802C149.103 15.1913 154.574 6.58756 158.035 1" stroke="#460E3E" stroke-width="1.98" stroke-linecap="round" stroke-linejoin="round"/>
<path id="Vector_5" d="M102.227 39.9682C93.8682 41.5988 86.5405 46.8711 80.7047 53.0736C70.5682 63.8466 65.062 79.3965 68.1781 93.8579C69.5362 100.161 72.4421 106.078 76.2521 111.281C85.2529 123.574 99.5225 131.863 114.658 133.606C132.177 135.624 139.745 126.769 143.375 123.238C152.992 113.875 161.197 100.033 160 85.5289C158.496 67.3106 145.038 31.6156 102.227 39.9664L102.227 39.9682Z" fill="#20C77E" stroke="#460E3E" stroke-width="1.98" stroke-linecap="round" stroke-linejoin="round"/>
<path id="Vector_6" d="M160.188 47.6884C168.189 46.9756 176.161 45.9301 184.076 44.5547" stroke="#460E3E" stroke-width="1.98" stroke-linecap="round" stroke-linejoin="round"/>
<path id="Vector_7" d="M144.357 70.1704C132.011 85.6568 118.914 100.544 105.128 114.763C97.3541 106.778 89.5817 98.7926 82.5994 91.0501C85.422 87.7996 88.3678 86.4622 91.9436 83.2988C96.1581 87.4074 100.084 90.7517 104.789 96.0217C115.136 85.2391 125.482 74.4575 135.829 63.6748C138.642 65.917 141.457 68.1599 144.357 70.1704Z" fill="#F0FDF7" stroke="#460E3E" stroke-width="1.98" stroke-linecap="round" stroke-linejoin="round"/>
</g>
</svg>
