<svg width="92" height="32" viewBox="0 0 92 32" fill="none" xmlns="http://www.w3.org/2000/svg">
  <path d="M21.3544 13.8796C21.2847 14.0702 21.1774 14.2396 21.0379 14.3773C20.7965 14.6155 20.4584 14.7638 20.0882 14.7638H12.0405C11.6703 14.7638 11.3323 14.912 11.0908 15.1502C10.8494 15.3885 10.6992 15.722 10.6992 16.0873V18.7345C10.6992 19.4651 11.3001 20.0581 12.0405 20.0581H16.0644V23.6317C15.7371 24.1241 15.8588 24.717 15.8588 25.3524H10.6992C7.73759 25.3524 5.33398 22.9805 5.33398 20.0581V14.7638C5.33398 13.3025 5.93489 11.979 6.90598 11.0207C7.87708 10.0624 9.21838 9.46945 10.6992 9.46945H16.0644C16.3702 9.46945 16.6706 9.49592 16.9603 9.54357H16.9657C17.1159 9.57004 17.2608 9.60181 17.4057 9.63887C18.3499 9.87711 19.1923 10.3642 19.8575 11.0207C20.5228 11.6772 21.0164 12.5084 21.2579 13.4402C21.2954 13.5831 21.3276 13.7314 21.3544 13.8796Z" fill="#2A0926" stroke="#FFF9F5" stroke-width="0.5" stroke-miterlimit="10"/>
  <path d="M26.6666 9.45724V14.7664C26.6666 16.2317 26.0655 17.559 25.094 18.5199C24.1225 19.4809 22.7806 20.0755 21.2992 20.0755V23.5954C21.0953 23.2928 20.8323 23.0273 20.5317 22.8097C20.0003 22.4221 19.3455 22.1991 18.637 22.1991C17.9285 22.1991 17.2522 22.4327 16.7155 22.8309C16.4042 23.0592 16.1412 23.3406 15.9318 23.6591V14.7664H19.9574C20.3277 14.7664 20.6659 14.6177 20.9074 14.3788C21.047 14.2408 21.1543 14.0709 21.2241 13.8797C21.2724 13.7417 21.2992 13.593 21.2992 13.4391V10.7845C21.2992 10.4182 21.149 10.0837 20.9074 9.84481C20.6659 9.6059 20.3277 9.45724 19.9574 9.45724H10.5645C10.5645 7.99193 11.1656 6.66465 12.1371 5.7037C13.1086 4.74275 14.4504 4.14813 15.9318 4.14813H21.2992C22.7806 4.14813 24.1225 4.74275 25.094 5.7037C26.0655 6.66465 26.6666 7.99193 26.6666 9.45724Z" fill="#2A0926" stroke="#FFF9F5" stroke-width="0.5" stroke-miterlimit="10"/>
  <path d="M21.8439 24.6672C21.8439 25.3306 21.6395 25.9463 21.2843 26.4559C20.7085 27.2945 19.7292 27.8518 18.6153 27.8518C17.5015 27.8518 16.4737 27.268 15.9033 26.3922C15.5751 25.8986 15.3867 25.3041 15.3867 24.6672C15.3867 24.0302 15.5751 23.4358 15.9033 22.9421C16.1132 22.6237 16.3768 22.3424 16.6889 22.1141C17.227 21.7161 17.8943 21.4825 18.6153 21.4825C19.3364 21.4825 19.9821 21.7054 20.5148 22.0929C20.8162 22.3105 21.0798 22.5759 21.2843 22.8784C21.6395 23.388 21.8439 24.0037 21.8439 24.6672Z" fill="#2A0926" stroke="#FFF9F5" stroke-width="0.5" stroke-miterlimit="10"/>
  <path d="M91.1493 20.6078V23.8503H76.9531V21.4797L84.8005 13.0601H77.3346V9.87207H90.6861V12.2699L82.8659 20.6078H91.1493Z" fill="#2A0926"/>
  <path d="M61.2949 16.8475C61.2949 12.4879 64.9189 9.57233 68.9788 9.57233C73.0388 9.57233 76.6628 12.5151 76.6628 16.8475C76.6628 21.2072 73.0388 24.15 68.9788 24.15C64.9189 24.15 61.2949 21.2345 61.2949 16.8475ZM65.2459 16.8475C65.2459 19.0546 66.9897 20.6622 68.9788 20.6622C71.0224 20.6622 72.7118 19.0274 72.7118 16.8475C72.7118 14.6949 71.0224 13.0601 68.9788 13.0601C66.9897 13.0601 65.2459 14.6677 65.2459 16.8475Z" fill="#2A0926"/>
  <path d="M46.6953 23.8503V4.14999H50.7553V11.7794C51.9269 10.1445 53.3711 9.57234 55.0877 9.57234C59.0114 9.57234 60.0741 12.6786 60.0741 16.2481V23.8503H56.0141V16.3298C56.0141 14.3952 55.3057 12.9238 53.4256 12.9238C51.5454 12.9238 50.7553 14.4225 50.7553 16.3571V23.8503H46.6953Z" fill="#2A0926"/>
  <path d="M32 16.8475C32 12.7058 35.0245 9.57233 39.8202 9.57233C41.2643 9.57233 43.1444 9.87206 45.5422 11.6432L43.6894 14.6132C42.327 13.387 40.7193 13.2236 40.0109 13.2236C37.6131 13.2236 36.0599 14.6949 36.0599 16.8475C36.0599 19.0001 37.6131 20.4715 40.0109 20.4715C40.7193 20.4715 42.327 20.308 43.6894 19.0819L45.5422 22.0519C43.1444 23.823 41.2643 24.1227 39.8202 24.1227C35.0245 24.1227 32 20.9892 32 16.8475Z" fill="#2A0926"/>
  </svg>
  